M48
; DRILL file {KiCad (5.1.9)-1} date 05/01/21 21:25:25
; FORMAT={-:-/ absolute / inch / decimal}
; #@! TF.CreationDate,2021-05-01T21:25:25-04:00
; #@! TF.GenerationSoftware,Kicad,Pcbnew,(5.1.9)-1
FMAT,2
INCH
T1C0.0374
T2C0.0394
T3C0.0669
T4C0.1059
T5C0.1260
T6C0.1260
%
G90
G05
T1
X4.74Y-3.0295
X4.74Y-3.4087
X4.8384Y-3.0295
X4.8384Y-3.4087
X4.9303Y-1.9705
X4.9303Y-2.3238
X4.9303Y-2.6772
X4.9369Y-3.0295
X4.9369Y-3.4087
X5.0287Y-1.9705
X5.0287Y-2.3238
X5.0287Y-2.6772
X5.1272Y-1.9705
X5.1272Y-2.3238
X5.1272Y-2.6772
X5.2256Y-1.9705
X5.2256Y-2.3238
X5.2256Y-2.6772
T2
X4.1323Y-2.1051
X4.1323Y-2.2051
X4.1323Y-2.3051
X4.1323Y-2.4051
X4.1323Y-2.5051
X4.1323Y-2.6051
X4.1323Y-2.7051
X4.1323Y-2.8051
X4.1323Y-2.9051
X4.1323Y-3.0051
X4.1323Y-3.1051
X4.1323Y-3.2051
X4.1323Y-3.3051
X4.1323Y-3.4051
X4.1323Y-3.5051
X4.2323Y-2.1051
X4.2323Y-2.2051
X4.2323Y-2.3051
X4.2323Y-2.4051
X4.2323Y-2.5051
X4.2323Y-2.6051
X4.2323Y-2.7051
X4.2323Y-2.8051
X4.2323Y-2.9051
X4.2323Y-3.0051
X4.2323Y-3.1051
X4.2323Y-3.2051
X4.2323Y-3.3051
X4.2323Y-3.4051
X4.2323Y-3.5051
X5.27Y-3.0709
X5.27Y-3.45
X5.3684Y-3.0709
X5.3684Y-3.45
X5.7016Y-3.0709
X5.7016Y-3.45
X5.8Y-3.0709
X5.8Y-3.45
T3
X4.4701Y-2.0394
X4.626Y-2.0394
T4
X4.1614Y-1.8726
X4.1614Y-3.7376
T5
X4.5512Y-3.6575
T6
X4.5512Y-2.3228
T0
M30
