G04 #@! TF.GenerationSoftware,KiCad,Pcbnew,(5.1.9)-1*
G04 #@! TF.CreationDate,2021-05-01T21:07:19-04:00*
G04 #@! TF.ProjectId,Transfer_Board,5472616e-7366-4657-925f-426f6172642e,rev?*
G04 #@! TF.SameCoordinates,Original*
G04 #@! TF.FileFunction,Copper,L2,Bot*
G04 #@! TF.FilePolarity,Positive*
%FSLAX46Y46*%
G04 Gerber Fmt 4.6, Leading zero omitted, Abs format (unit mm)*
G04 Created by KiCad (PCBNEW (5.1.9)-1) date 2021-05-01 21:07:19*
%MOMM*%
%LPD*%
G01*
G04 APERTURE LIST*
G04 #@! TA.AperFunction,ComponentPad*
%ADD10C,7.000000*%
G04 #@! TD*
G04 #@! TA.AperFunction,ComponentPad*
%ADD11C,1.700000*%
G04 #@! TD*
G04 #@! TA.AperFunction,ComponentPad*
%ADD12C,6.000000*%
G04 #@! TD*
G04 #@! TA.AperFunction,ComponentPad*
%ADD13O,1.700000X1.950000*%
G04 #@! TD*
G04 #@! TA.AperFunction,ComponentPad*
%ADD14O,1.700000X2.000000*%
G04 #@! TD*
G04 #@! TA.AperFunction,ComponentPad*
%ADD15R,1.700000X1.950000*%
G04 #@! TD*
G04 #@! TA.AperFunction,ComponentPad*
%ADD16C,2.700000*%
G04 #@! TD*
G04 #@! TA.AperFunction,Conductor*
%ADD17C,0.400000*%
G04 #@! TD*
G04 #@! TA.AperFunction,Conductor*
%ADD18C,0.300000*%
G04 #@! TD*
G04 #@! TA.AperFunction,Conductor*
%ADD19C,1.500000*%
G04 #@! TD*
G04 #@! TA.AperFunction,Conductor*
%ADD20C,0.500000*%
G04 #@! TD*
G04 #@! TA.AperFunction,NonConductor*
%ADD21C,0.254000*%
G04 #@! TD*
G04 #@! TA.AperFunction,NonConductor*
%ADD22C,0.100000*%
G04 #@! TD*
G04 APERTURE END LIST*
D10*
X105700000Y-47565000D03*
X105700000Y-94935000D03*
D11*
X104960000Y-53470000D03*
X104960000Y-56010000D03*
X104960000Y-58550000D03*
X104960000Y-61090000D03*
X104960000Y-63630000D03*
X104960000Y-66170000D03*
X104960000Y-68710000D03*
X104960000Y-71250000D03*
X104960000Y-73790000D03*
X104960000Y-76330000D03*
X104960000Y-78870000D03*
X104960000Y-81410000D03*
X104960000Y-83950000D03*
X104960000Y-86490000D03*
X104960000Y-89030000D03*
X107500000Y-53470000D03*
X107500000Y-56010000D03*
X107500000Y-58550000D03*
X107500000Y-61090000D03*
X107500000Y-63630000D03*
X107500000Y-66170000D03*
X107500000Y-68710000D03*
X107500000Y-71250000D03*
X107500000Y-73790000D03*
X107500000Y-76330000D03*
X107500000Y-78870000D03*
X107500000Y-81410000D03*
X107500000Y-83950000D03*
X107500000Y-86490000D03*
G04 #@! TA.AperFunction,ComponentPad*
G36*
G01*
X108350000Y-88430000D02*
X108350000Y-89630000D01*
G75*
G02*
X108100000Y-89880000I-250000J0D01*
G01*
X106900000Y-89880000D01*
G75*
G02*
X106650000Y-89630000I0J250000D01*
G01*
X106650000Y-88430000D01*
G75*
G02*
X106900000Y-88180000I250000J0D01*
G01*
X108100000Y-88180000D01*
G75*
G02*
X108350000Y-88430000I0J-250000D01*
G01*
G37*
G04 #@! TD.AperFunction*
D12*
X115600000Y-92900000D03*
X115600000Y-59000000D03*
D13*
X132730000Y-68000000D03*
X130230000Y-68000000D03*
X127730000Y-68000000D03*
G04 #@! TA.AperFunction,ComponentPad*
G36*
G01*
X124380000Y-68725000D02*
X124380000Y-67275000D01*
G75*
G02*
X124630000Y-67025000I250000J0D01*
G01*
X125830000Y-67025000D01*
G75*
G02*
X126080000Y-67275000I0J-250000D01*
G01*
X126080000Y-68725000D01*
G75*
G02*
X125830000Y-68975000I-250000J0D01*
G01*
X124630000Y-68975000D01*
G75*
G02*
X124380000Y-68725000I0J250000D01*
G01*
G37*
G04 #@! TD.AperFunction*
D14*
X133858000Y-78000000D03*
G04 #@! TA.AperFunction,ComponentPad*
G36*
G01*
X137208000Y-77250000D02*
X137208000Y-78750000D01*
G75*
G02*
X136958000Y-79000000I-250000J0D01*
G01*
X135758000Y-79000000D01*
G75*
G02*
X135508000Y-78750000I0J250000D01*
G01*
X135508000Y-77250000D01*
G75*
G02*
X135758000Y-77000000I250000J0D01*
G01*
X136958000Y-77000000D01*
G75*
G02*
X137208000Y-77250000I0J-250000D01*
G01*
G37*
G04 #@! TD.AperFunction*
D13*
X132730000Y-59025000D03*
X130230000Y-59025000D03*
X127730000Y-59025000D03*
D15*
X125230000Y-59025000D03*
D13*
X125396000Y-76950000D03*
X122896000Y-76950000D03*
G04 #@! TA.AperFunction,ComponentPad*
G36*
G01*
X119546000Y-77675000D02*
X119546000Y-76225000D01*
G75*
G02*
X119796000Y-75975000I250000J0D01*
G01*
X120996000Y-75975000D01*
G75*
G02*
X121246000Y-76225000I0J-250000D01*
G01*
X121246000Y-77675000D01*
G75*
G02*
X120996000Y-77925000I-250000J0D01*
G01*
X119796000Y-77925000D01*
G75*
G02*
X119546000Y-77675000I0J250000D01*
G01*
G37*
G04 #@! TD.AperFunction*
D14*
X133858000Y-87630000D03*
G04 #@! TA.AperFunction,ComponentPad*
G36*
G01*
X137208000Y-86880000D02*
X137208000Y-88380000D01*
G75*
G02*
X136958000Y-88630000I-250000J0D01*
G01*
X135758000Y-88630000D01*
G75*
G02*
X135508000Y-88380000I0J250000D01*
G01*
X135508000Y-86880000D01*
G75*
G02*
X135758000Y-86630000I250000J0D01*
G01*
X136958000Y-86630000D01*
G75*
G02*
X137208000Y-86880000I0J-250000D01*
G01*
G37*
G04 #@! TD.AperFunction*
G04 #@! TA.AperFunction,ComponentPad*
G36*
G01*
X148170000Y-86880000D02*
X148170000Y-88380000D01*
G75*
G02*
X147920000Y-88630000I-250000J0D01*
G01*
X146720000Y-88630000D01*
G75*
G02*
X146470000Y-88380000I0J250000D01*
G01*
X146470000Y-86880000D01*
G75*
G02*
X146720000Y-86630000I250000J0D01*
G01*
X147920000Y-86630000D01*
G75*
G02*
X148170000Y-86880000I0J-250000D01*
G01*
G37*
G04 #@! TD.AperFunction*
X144820000Y-87630000D03*
D13*
X132730000Y-50050000D03*
X130230000Y-50050000D03*
X127730000Y-50050000D03*
D15*
X125230000Y-50050000D03*
G04 #@! TA.AperFunction,ComponentPad*
G36*
G01*
X148170000Y-77250000D02*
X148170000Y-78750000D01*
G75*
G02*
X147920000Y-79000000I-250000J0D01*
G01*
X146720000Y-79000000D01*
G75*
G02*
X146470000Y-78750000I0J250000D01*
G01*
X146470000Y-77250000D01*
G75*
G02*
X146720000Y-77000000I250000J0D01*
G01*
X147920000Y-77000000D01*
G75*
G02*
X148170000Y-77250000I0J-250000D01*
G01*
G37*
G04 #@! TD.AperFunction*
D14*
X144820000Y-78000000D03*
G04 #@! TA.AperFunction,ComponentPad*
G36*
G01*
X118850000Y-50700001D02*
X118850000Y-52899999D01*
G75*
G02*
X118599999Y-53150000I-250001J0D01*
G01*
X116400001Y-53150000D01*
G75*
G02*
X116150000Y-52899999I0J250001D01*
G01*
X116150000Y-50700001D01*
G75*
G02*
X116400001Y-50450000I250001J0D01*
G01*
X118599999Y-50450000D01*
G75*
G02*
X118850000Y-50700001I0J-250001D01*
G01*
G37*
G04 #@! TD.AperFunction*
D16*
X113540000Y-51800000D03*
D13*
X125396000Y-86580000D03*
X122896000Y-86580000D03*
G04 #@! TA.AperFunction,ComponentPad*
G36*
G01*
X119546000Y-87305000D02*
X119546000Y-85855000D01*
G75*
G02*
X119796000Y-85605000I250000J0D01*
G01*
X120996000Y-85605000D01*
G75*
G02*
X121246000Y-85855000I0J-250000D01*
G01*
X121246000Y-87305000D01*
G75*
G02*
X120996000Y-87555000I-250000J0D01*
G01*
X119796000Y-87555000D01*
G75*
G02*
X119546000Y-87305000I0J250000D01*
G01*
G37*
G04 #@! TD.AperFunction*
D17*
X119317655Y-84700180D02*
X123562180Y-84700180D01*
X118542656Y-85475180D02*
X119317655Y-84700180D01*
X125396000Y-86534000D02*
X125396000Y-86580000D01*
X110804882Y-85475180D02*
X118542656Y-85475180D01*
X108077201Y-82747499D02*
X110804882Y-85475180D01*
X123562180Y-84700180D02*
X125396000Y-86534000D01*
X106162501Y-82747499D02*
X108077201Y-82747499D01*
X104960000Y-83950000D02*
X106162501Y-82747499D01*
D18*
X122896000Y-86580000D02*
X122569546Y-86580000D01*
D17*
X107591224Y-83950000D02*
X107500000Y-83950000D01*
X122896000Y-86574000D02*
X122896000Y-86580000D01*
X119546470Y-85252590D02*
X121574590Y-85252590D01*
X118771470Y-86027590D02*
X119546470Y-85252590D01*
X110576068Y-86027590D02*
X118771470Y-86027590D01*
X108498478Y-83950000D02*
X110576068Y-86027590D01*
X121574590Y-85252590D02*
X122896000Y-86574000D01*
X107500000Y-83950000D02*
X108498478Y-83950000D01*
D18*
X120346000Y-86630000D02*
X120396000Y-86580000D01*
D17*
X120343601Y-86632399D02*
X120396000Y-86580000D01*
X109054753Y-85287499D02*
X106162501Y-85287499D01*
X106162501Y-85287499D02*
X104960000Y-86490000D01*
X110347254Y-86580000D02*
X109054753Y-85287499D01*
X120396000Y-86580000D02*
X110347254Y-86580000D01*
D19*
X104960000Y-53390000D02*
X107500000Y-53390000D01*
X104960000Y-55930000D02*
X104960000Y-53390000D01*
X109725000Y-53470000D02*
X111395000Y-51800000D01*
X107500000Y-53470000D02*
X109725000Y-53470000D01*
X111395000Y-51800000D02*
X113540000Y-51800000D01*
X107500000Y-58470000D02*
X107500000Y-55930000D01*
X104960000Y-58470000D02*
X107500000Y-58470000D01*
X114944000Y-54356000D02*
X117500000Y-51800000D01*
X107500000Y-56010000D02*
X110614000Y-56010000D01*
X112268000Y-54356000D02*
X114944000Y-54356000D01*
X110614000Y-56010000D02*
X112268000Y-54356000D01*
D18*
X107607961Y-78800000D02*
X107500000Y-78800000D01*
D20*
X107736348Y-78870000D02*
X107500000Y-78870000D01*
X108554354Y-78870000D02*
X107500000Y-78870000D01*
X111199770Y-81515416D02*
X108554354Y-78870000D01*
X144820000Y-78000000D02*
X144820000Y-78065000D01*
X144820000Y-78000000D02*
X143394646Y-78000000D01*
X139879230Y-81515416D02*
X111199770Y-81515416D01*
X143394646Y-78000000D02*
X139879230Y-81515416D01*
X147320000Y-78000000D02*
X147320000Y-77978000D01*
X144145000Y-76327000D02*
X145647000Y-76327000D01*
X139608994Y-80863006D02*
X144145000Y-76327000D01*
X111470006Y-80863006D02*
X139608994Y-80863006D01*
X108224499Y-77617499D02*
X111470006Y-80863006D01*
X106212501Y-77617499D02*
X108224499Y-77617499D01*
X145647000Y-76327000D02*
X147320000Y-78000000D01*
X104960000Y-78870000D02*
X106212501Y-77617499D01*
D17*
X107500000Y-68640000D02*
X107500000Y-68739600D01*
X107500000Y-68640000D02*
X107678672Y-68640000D01*
D20*
X127176882Y-61866410D02*
X130284590Y-61866410D01*
X130284590Y-61866410D02*
X132730000Y-59421000D01*
X132730000Y-59421000D02*
X132730000Y-59025000D01*
X107500000Y-68710000D02*
X120333294Y-68709999D01*
X120333294Y-68709999D02*
X127176882Y-61866410D01*
X111653499Y-67457499D02*
X112253589Y-68057589D01*
X112253589Y-68057589D02*
X120063057Y-68057589D01*
X106212501Y-67457499D02*
X111653499Y-67457499D01*
X104960000Y-68710000D02*
X106212501Y-67457499D01*
X130230000Y-59635000D02*
X130230000Y-59025000D01*
X128651000Y-61214000D02*
X130230000Y-59635000D01*
X126906646Y-61214000D02*
X128651000Y-61214000D01*
X120063057Y-68057589D02*
X126906646Y-61214000D01*
X127730000Y-59468000D02*
X127730000Y-59067000D01*
X112523826Y-67405178D02*
X119792822Y-67405178D01*
X111288648Y-66170000D02*
X112523826Y-67405178D01*
X107500000Y-66170000D02*
X111288648Y-66170000D01*
X119792822Y-67405178D02*
X127730000Y-59468000D01*
X125230000Y-60952000D02*
X125230000Y-59067000D01*
X112794064Y-66752770D02*
X119522584Y-66752770D01*
X110958793Y-64917499D02*
X112794064Y-66752770D01*
X106212501Y-64917499D02*
X110958793Y-64917499D01*
X119522584Y-66752770D02*
X125230000Y-61045354D01*
X104960000Y-66170000D02*
X106212501Y-64917499D01*
D17*
X107500000Y-63560000D02*
X107678672Y-63560000D01*
D20*
X112869288Y-64957231D02*
X112487115Y-64575058D01*
X118330712Y-64957231D02*
X112869288Y-64957231D01*
X111542060Y-63630000D02*
X107500000Y-63630000D01*
X112487115Y-64575055D02*
X111542060Y-63630000D01*
X121557231Y-61730712D02*
X118330712Y-64957231D01*
X132730000Y-50404000D02*
X132730000Y-50008000D01*
X121557231Y-58469063D02*
X127049883Y-52976411D01*
X130157589Y-52976411D02*
X132730000Y-50404000D01*
X121557231Y-61730712D02*
X121557231Y-58469063D01*
X127049883Y-52976411D02*
X130157589Y-52976411D01*
X104960000Y-63630000D02*
X106212501Y-62377499D01*
X113139526Y-64304820D02*
X118060475Y-64304819D01*
X111212205Y-62377499D02*
X113139526Y-64304820D01*
X106212501Y-62377499D02*
X111212205Y-62377499D01*
X118060475Y-64304819D02*
X120904820Y-61460475D01*
X126779646Y-52324000D02*
X128524000Y-52324000D01*
X130230000Y-50618000D02*
X130230000Y-50008000D01*
X120904820Y-58198826D02*
X126779646Y-52324000D01*
X128524000Y-52324000D02*
X130230000Y-50618000D01*
X120904820Y-61460475D02*
X120904820Y-58198826D01*
X113409762Y-63652410D02*
X110847352Y-61090000D01*
X117790236Y-63652410D02*
X113409762Y-63652410D01*
X110847352Y-61090000D02*
X107500000Y-61090000D01*
X120252410Y-61190237D02*
X117790236Y-63652410D01*
X127730000Y-50451000D02*
X120252410Y-57928590D01*
X120252410Y-57928590D02*
X120252410Y-61190237D01*
X127730000Y-50050000D02*
X127730000Y-50451000D01*
X110517597Y-59837599D02*
X106212401Y-59837599D01*
X106212401Y-59837599D02*
X104960000Y-61090000D01*
X113679999Y-63000001D02*
X110517597Y-59837599D01*
X119600001Y-60920001D02*
X117520001Y-63000001D01*
X117520001Y-63000001D02*
X113679999Y-63000001D01*
X119600001Y-60920001D02*
X119600001Y-57658353D01*
X119600001Y-57658353D02*
X125230000Y-52028354D01*
X125230000Y-51935000D02*
X125230000Y-50050000D01*
X109249062Y-81410000D02*
X110659296Y-82820236D01*
X107500000Y-81410000D02*
X109249062Y-81410000D01*
X144820000Y-87630000D02*
X144820000Y-86052646D01*
X144820000Y-86052646D02*
X141587590Y-82820236D01*
X141587590Y-82820236D02*
X110659296Y-82820236D01*
X141857826Y-82167826D02*
X147320000Y-87630000D01*
X110929533Y-82167826D02*
X141857826Y-82167826D01*
X108898708Y-80137000D02*
X110929533Y-82167826D01*
X106233000Y-80137000D02*
X108898708Y-80137000D01*
X104960000Y-81410000D02*
X106233000Y-80137000D01*
D18*
X133858000Y-78000000D02*
X133858000Y-78304120D01*
X133858000Y-78000000D02*
X133858000Y-78050120D01*
D17*
X133858000Y-76219224D02*
X133858000Y-78000000D01*
X130962186Y-73323410D02*
X133858000Y-76219224D01*
X118084814Y-73323410D02*
X130962186Y-73323410D01*
X115728316Y-75679909D02*
X118084814Y-73323410D01*
X109867091Y-75679909D02*
X115728316Y-75679909D01*
X109217000Y-76330000D02*
X109867091Y-75679909D01*
X107500000Y-76330000D02*
X109217000Y-76330000D01*
X136358000Y-78000000D02*
X136358000Y-77938000D01*
X136358000Y-77938000D02*
X131191000Y-72771000D01*
X131191000Y-72771000D02*
X117856000Y-72771000D01*
X106162501Y-75127499D02*
X104960000Y-76330000D01*
X115499501Y-75127499D02*
X106162501Y-75127499D01*
X117856000Y-72771000D02*
X115499501Y-75127499D01*
D21*
X135270982Y-43131457D02*
X135531634Y-43210153D01*
X135772045Y-43337982D01*
X135983044Y-43510069D01*
X136156602Y-43719864D01*
X136286102Y-43959371D01*
X136366618Y-44219476D01*
X136398001Y-44518061D01*
X136398000Y-71029565D01*
X136400614Y-71056103D01*
X136400527Y-71068524D01*
X136401347Y-71076890D01*
X136442148Y-71465082D01*
X136453109Y-71518479D01*
X136463343Y-71572126D01*
X136465772Y-71580172D01*
X136581196Y-71953047D01*
X136602359Y-72003391D01*
X136622780Y-72053935D01*
X136626725Y-72061356D01*
X136812376Y-72404711D01*
X136842907Y-72449975D01*
X136872765Y-72495602D01*
X136878077Y-72502116D01*
X137126883Y-72802871D01*
X137165626Y-72841344D01*
X137203774Y-72880299D01*
X137210250Y-72885657D01*
X137512735Y-73132358D01*
X137558179Y-73162551D01*
X137603201Y-73193378D01*
X137610594Y-73197376D01*
X137955236Y-73380626D01*
X138005671Y-73401414D01*
X138055833Y-73422913D01*
X138063858Y-73425397D01*
X138063864Y-73425399D01*
X138437534Y-73538216D01*
X138491051Y-73548813D01*
X138544427Y-73560158D01*
X138552786Y-73561037D01*
X138941255Y-73599127D01*
X138941263Y-73599127D01*
X138970434Y-73602000D01*
X148970556Y-73602000D01*
X149270982Y-73631457D01*
X149531634Y-73710153D01*
X149772045Y-73837982D01*
X149983044Y-74010069D01*
X150156602Y-74219864D01*
X150286102Y-74459371D01*
X150366618Y-74719476D01*
X150398001Y-75018061D01*
X150398000Y-97970556D01*
X150368543Y-98270979D01*
X150289847Y-98531636D01*
X150162020Y-98772042D01*
X149989930Y-98983045D01*
X149780139Y-99156600D01*
X149540629Y-99286102D01*
X149280524Y-99366618D01*
X148981948Y-99398000D01*
X102029444Y-99398000D01*
X101729021Y-99368543D01*
X101468364Y-99289847D01*
X101227958Y-99162020D01*
X101016955Y-98989930D01*
X100843400Y-98780139D01*
X100713898Y-98540629D01*
X100633382Y-98280524D01*
X100602000Y-97981948D01*
X100602000Y-94533451D01*
X101623000Y-94533451D01*
X101623000Y-95336549D01*
X101779677Y-96124217D01*
X102087009Y-96866184D01*
X102533187Y-97533936D01*
X103101064Y-98101813D01*
X103768816Y-98547991D01*
X104510783Y-98855323D01*
X105298451Y-99012000D01*
X106101549Y-99012000D01*
X106889217Y-98855323D01*
X107631184Y-98547991D01*
X108298936Y-98101813D01*
X108866813Y-97533936D01*
X109312991Y-96866184D01*
X109620323Y-96124217D01*
X109777000Y-95336549D01*
X109777000Y-94533451D01*
X109620323Y-93745783D01*
X109312991Y-93003816D01*
X109008222Y-92547696D01*
X112023000Y-92547696D01*
X112023000Y-93252304D01*
X112160462Y-93943373D01*
X112430103Y-94594345D01*
X112821562Y-95180205D01*
X113319795Y-95678438D01*
X113905655Y-96069897D01*
X114556627Y-96339538D01*
X115247696Y-96477000D01*
X115952304Y-96477000D01*
X116643373Y-96339538D01*
X117294345Y-96069897D01*
X117880205Y-95678438D01*
X118378438Y-95180205D01*
X118769897Y-94594345D01*
X119039538Y-93943373D01*
X119177000Y-93252304D01*
X119177000Y-92547696D01*
X119039538Y-91856627D01*
X118769897Y-91205655D01*
X118378438Y-90619795D01*
X117880205Y-90121562D01*
X117294345Y-89730103D01*
X116643373Y-89460462D01*
X115952304Y-89323000D01*
X115247696Y-89323000D01*
X114556627Y-89460462D01*
X113905655Y-89730103D01*
X113319795Y-90121562D01*
X112821562Y-90619795D01*
X112430103Y-91205655D01*
X112160462Y-91856627D01*
X112023000Y-92547696D01*
X109008222Y-92547696D01*
X108866813Y-92336064D01*
X108298936Y-91768187D01*
X107631184Y-91322009D01*
X106889217Y-91014677D01*
X106101549Y-90858000D01*
X105298451Y-90858000D01*
X104510783Y-91014677D01*
X103768816Y-91322009D01*
X103101064Y-91768187D01*
X102533187Y-92336064D01*
X102087009Y-93003816D01*
X101779677Y-93745783D01*
X101623000Y-94533451D01*
X100602000Y-94533451D01*
X100602000Y-53329453D01*
X103533000Y-53329453D01*
X103533000Y-53610547D01*
X103587838Y-53886241D01*
X103633001Y-53995273D01*
X103633000Y-55484729D01*
X103587838Y-55593759D01*
X103533000Y-55869453D01*
X103533000Y-56150547D01*
X103587838Y-56426241D01*
X103695409Y-56685938D01*
X103851576Y-56919660D01*
X104050340Y-57118424D01*
X104284062Y-57274591D01*
X104297120Y-57280000D01*
X104284062Y-57285409D01*
X104050340Y-57441576D01*
X103851576Y-57640340D01*
X103695409Y-57874062D01*
X103587838Y-58133759D01*
X103533000Y-58409453D01*
X103533000Y-58690547D01*
X103587838Y-58966241D01*
X103695409Y-59225938D01*
X103851576Y-59459660D01*
X104050340Y-59658424D01*
X104284062Y-59814591D01*
X104297120Y-59820000D01*
X104284062Y-59825409D01*
X104050340Y-59981576D01*
X103851576Y-60180340D01*
X103695409Y-60414062D01*
X103587838Y-60673759D01*
X103533000Y-60949453D01*
X103533000Y-61230547D01*
X103587838Y-61506241D01*
X103695409Y-61765938D01*
X103851576Y-61999660D01*
X104050340Y-62198424D01*
X104284062Y-62354591D01*
X104297120Y-62360000D01*
X104284062Y-62365409D01*
X104050340Y-62521576D01*
X103851576Y-62720340D01*
X103695409Y-62954062D01*
X103587838Y-63213759D01*
X103533000Y-63489453D01*
X103533000Y-63770547D01*
X103587838Y-64046241D01*
X103695409Y-64305938D01*
X103851576Y-64539660D01*
X104050340Y-64738424D01*
X104284062Y-64894591D01*
X104297120Y-64900000D01*
X104284062Y-64905409D01*
X104050340Y-65061576D01*
X103851576Y-65260340D01*
X103695409Y-65494062D01*
X103587838Y-65753759D01*
X103533000Y-66029453D01*
X103533000Y-66310547D01*
X103587838Y-66586241D01*
X103695409Y-66845938D01*
X103851576Y-67079660D01*
X104050340Y-67278424D01*
X104284062Y-67434591D01*
X104297120Y-67440000D01*
X104284062Y-67445409D01*
X104050340Y-67601576D01*
X103851576Y-67800340D01*
X103695409Y-68034062D01*
X103587838Y-68293759D01*
X103533000Y-68569453D01*
X103533000Y-68850547D01*
X103587838Y-69126241D01*
X103695409Y-69385938D01*
X103851576Y-69619660D01*
X104050340Y-69818424D01*
X104284062Y-69974591D01*
X104297120Y-69980000D01*
X104284062Y-69985409D01*
X104050340Y-70141576D01*
X103851576Y-70340340D01*
X103695409Y-70574062D01*
X103587838Y-70833759D01*
X103533000Y-71109453D01*
X103533000Y-71390547D01*
X103587838Y-71666241D01*
X103695409Y-71925938D01*
X103851576Y-72159660D01*
X104050340Y-72358424D01*
X104284062Y-72514591D01*
X104297120Y-72520000D01*
X104284062Y-72525409D01*
X104050340Y-72681576D01*
X103851576Y-72880340D01*
X103695409Y-73114062D01*
X103587838Y-73373759D01*
X103533000Y-73649453D01*
X103533000Y-73930547D01*
X103587838Y-74206241D01*
X103695409Y-74465938D01*
X103851576Y-74699660D01*
X104050340Y-74898424D01*
X104284062Y-75054591D01*
X104297120Y-75060000D01*
X104284062Y-75065409D01*
X104050340Y-75221576D01*
X103851576Y-75420340D01*
X103695409Y-75654062D01*
X103587838Y-75913759D01*
X103533000Y-76189453D01*
X103533000Y-76470547D01*
X103587838Y-76746241D01*
X103695409Y-77005938D01*
X103851576Y-77239660D01*
X104050340Y-77438424D01*
X104284062Y-77594591D01*
X104297120Y-77600000D01*
X104284062Y-77605409D01*
X104050340Y-77761576D01*
X103851576Y-77960340D01*
X103695409Y-78194062D01*
X103587838Y-78453759D01*
X103533000Y-78729453D01*
X103533000Y-79010547D01*
X103587838Y-79286241D01*
X103695409Y-79545938D01*
X103851576Y-79779660D01*
X104050340Y-79978424D01*
X104284062Y-80134591D01*
X104297120Y-80140000D01*
X104284062Y-80145409D01*
X104050340Y-80301576D01*
X103851576Y-80500340D01*
X103695409Y-80734062D01*
X103587838Y-80993759D01*
X103533000Y-81269453D01*
X103533000Y-81550547D01*
X103587838Y-81826241D01*
X103695409Y-82085938D01*
X103851576Y-82319660D01*
X104050340Y-82518424D01*
X104284062Y-82674591D01*
X104297120Y-82680000D01*
X104284062Y-82685409D01*
X104050340Y-82841576D01*
X103851576Y-83040340D01*
X103695409Y-83274062D01*
X103587838Y-83533759D01*
X103533000Y-83809453D01*
X103533000Y-84090547D01*
X103587838Y-84366241D01*
X103695409Y-84625938D01*
X103851576Y-84859660D01*
X104050340Y-85058424D01*
X104284062Y-85214591D01*
X104297120Y-85220000D01*
X104284062Y-85225409D01*
X104050340Y-85381576D01*
X103851576Y-85580340D01*
X103695409Y-85814062D01*
X103587838Y-86073759D01*
X103533000Y-86349453D01*
X103533000Y-86630547D01*
X103587838Y-86906241D01*
X103695409Y-87165938D01*
X103851576Y-87399660D01*
X104050340Y-87598424D01*
X104284062Y-87754591D01*
X104297120Y-87760000D01*
X104284062Y-87765409D01*
X104050340Y-87921576D01*
X103851576Y-88120340D01*
X103695409Y-88354062D01*
X103587838Y-88613759D01*
X103533000Y-88889453D01*
X103533000Y-89170547D01*
X103587838Y-89446241D01*
X103695409Y-89705938D01*
X103851576Y-89939660D01*
X104050340Y-90138424D01*
X104284062Y-90294591D01*
X104543759Y-90402162D01*
X104819453Y-90457000D01*
X105100547Y-90457000D01*
X105376241Y-90402162D01*
X105635938Y-90294591D01*
X105869660Y-90138424D01*
X106068424Y-89939660D01*
X106111448Y-89875270D01*
X106133373Y-89947547D01*
X106210054Y-90091007D01*
X106313249Y-90216751D01*
X106438993Y-90319946D01*
X106582453Y-90396627D01*
X106738116Y-90443847D01*
X106900000Y-90459791D01*
X108100000Y-90459791D01*
X108261884Y-90443847D01*
X108417547Y-90396627D01*
X108561007Y-90319946D01*
X108686751Y-90216751D01*
X108789946Y-90091007D01*
X108866627Y-89947547D01*
X108913847Y-89791884D01*
X108929791Y-89630000D01*
X108929791Y-88430000D01*
X108913847Y-88268116D01*
X108866627Y-88112453D01*
X108789946Y-87968993D01*
X108686751Y-87843249D01*
X108561007Y-87740054D01*
X108417547Y-87663373D01*
X108345270Y-87641448D01*
X108409660Y-87598424D01*
X108608424Y-87399660D01*
X108764591Y-87165938D01*
X108872162Y-86906241D01*
X108927000Y-86630547D01*
X108927000Y-86349453D01*
X108904439Y-86236028D01*
X109770844Y-87102434D01*
X109795174Y-87132080D01*
X109824818Y-87156408D01*
X109824819Y-87156409D01*
X109913487Y-87229177D01*
X110011519Y-87281576D01*
X110048470Y-87301327D01*
X110194935Y-87345757D01*
X110309088Y-87357000D01*
X110309097Y-87357000D01*
X110347253Y-87360758D01*
X110385409Y-87357000D01*
X118971330Y-87357000D01*
X118982153Y-87466884D01*
X119029373Y-87622547D01*
X119106054Y-87766007D01*
X119209249Y-87891751D01*
X119334993Y-87994946D01*
X119478453Y-88071627D01*
X119634116Y-88118847D01*
X119796000Y-88134791D01*
X120996000Y-88134791D01*
X121157884Y-88118847D01*
X121313547Y-88071627D01*
X121457007Y-87994946D01*
X121582751Y-87891751D01*
X121685946Y-87766007D01*
X121762627Y-87622547D01*
X121773518Y-87586644D01*
X121882078Y-87718923D01*
X122099367Y-87897248D01*
X122347270Y-88029755D01*
X122616260Y-88111352D01*
X122896000Y-88138904D01*
X123175741Y-88111352D01*
X123444731Y-88029755D01*
X123692634Y-87897248D01*
X123909923Y-87718923D01*
X124088248Y-87501633D01*
X124146000Y-87393587D01*
X124203752Y-87501634D01*
X124382078Y-87718923D01*
X124599367Y-87897248D01*
X124847270Y-88029755D01*
X125116260Y-88111352D01*
X125396000Y-88138904D01*
X125675741Y-88111352D01*
X125944731Y-88029755D01*
X126192634Y-87897248D01*
X126409923Y-87718923D01*
X126588248Y-87501633D01*
X126637279Y-87409902D01*
X132431000Y-87409902D01*
X132431000Y-87850097D01*
X132451648Y-88059740D01*
X132533245Y-88328730D01*
X132665752Y-88576633D01*
X132844077Y-88793922D01*
X133061366Y-88972248D01*
X133309269Y-89104755D01*
X133578259Y-89186352D01*
X133858000Y-89213904D01*
X134137740Y-89186352D01*
X134406730Y-89104755D01*
X134654633Y-88972248D01*
X134871922Y-88793923D01*
X134980482Y-88661644D01*
X134991373Y-88697547D01*
X135068054Y-88841007D01*
X135171249Y-88966751D01*
X135296993Y-89069946D01*
X135440453Y-89146627D01*
X135596116Y-89193847D01*
X135758000Y-89209791D01*
X136958000Y-89209791D01*
X137119884Y-89193847D01*
X137275547Y-89146627D01*
X137419007Y-89069946D01*
X137544751Y-88966751D01*
X137647946Y-88841007D01*
X137724627Y-88697547D01*
X137771847Y-88541884D01*
X137787791Y-88380000D01*
X137787791Y-86880000D01*
X137771847Y-86718116D01*
X137724627Y-86562453D01*
X137647946Y-86418993D01*
X137544751Y-86293249D01*
X137419007Y-86190054D01*
X137275547Y-86113373D01*
X137119884Y-86066153D01*
X136958000Y-86050209D01*
X135758000Y-86050209D01*
X135596116Y-86066153D01*
X135440453Y-86113373D01*
X135296993Y-86190054D01*
X135171249Y-86293249D01*
X135068054Y-86418993D01*
X134991373Y-86562453D01*
X134980482Y-86598356D01*
X134871923Y-86466077D01*
X134654634Y-86287752D01*
X134406731Y-86155245D01*
X134137741Y-86073648D01*
X133858000Y-86046096D01*
X133578260Y-86073648D01*
X133309270Y-86155245D01*
X133061367Y-86287752D01*
X132844078Y-86466077D01*
X132665752Y-86683366D01*
X132533245Y-86931269D01*
X132451648Y-87200259D01*
X132431000Y-87409902D01*
X126637279Y-87409902D01*
X126720755Y-87253730D01*
X126802352Y-86984740D01*
X126823000Y-86775097D01*
X126823000Y-86384902D01*
X126802352Y-86175259D01*
X126720755Y-85906269D01*
X126588248Y-85658366D01*
X126409922Y-85441077D01*
X126192633Y-85262752D01*
X125944730Y-85130245D01*
X125675740Y-85048648D01*
X125396000Y-85021096D01*
X125116259Y-85048648D01*
X125034341Y-85073497D01*
X124138592Y-84177749D01*
X124114260Y-84148100D01*
X123995946Y-84051003D01*
X123860964Y-83978853D01*
X123714499Y-83934423D01*
X123600346Y-83923180D01*
X123600343Y-83923180D01*
X123562180Y-83919421D01*
X123524017Y-83923180D01*
X119355818Y-83923180D01*
X119317654Y-83919421D01*
X119279491Y-83923180D01*
X119279489Y-83923180D01*
X119165336Y-83934423D01*
X119018871Y-83978853D01*
X118883888Y-84051003D01*
X118795220Y-84123771D01*
X118765575Y-84148100D01*
X118741246Y-84177745D01*
X118220812Y-84698180D01*
X111126726Y-84698180D01*
X108665545Y-82237000D01*
X108906507Y-82237000D01*
X110045799Y-83376294D01*
X110071690Y-83407842D01*
X110103237Y-83433732D01*
X110103243Y-83433738D01*
X110197615Y-83511187D01*
X110197617Y-83511188D01*
X110341286Y-83587981D01*
X110497176Y-83635270D01*
X110618672Y-83647236D01*
X110618684Y-83647236D01*
X110659295Y-83651236D01*
X110699906Y-83647236D01*
X141245037Y-83647236D01*
X143947673Y-86349873D01*
X143806078Y-86466077D01*
X143627752Y-86683366D01*
X143495245Y-86931269D01*
X143413648Y-87200259D01*
X143393000Y-87409902D01*
X143393000Y-87850097D01*
X143413648Y-88059740D01*
X143495245Y-88328730D01*
X143627752Y-88576633D01*
X143806077Y-88793922D01*
X144023366Y-88972248D01*
X144271269Y-89104755D01*
X144540259Y-89186352D01*
X144820000Y-89213904D01*
X145099740Y-89186352D01*
X145368730Y-89104755D01*
X145616633Y-88972248D01*
X145833922Y-88793923D01*
X145942482Y-88661644D01*
X145953373Y-88697547D01*
X146030054Y-88841007D01*
X146133249Y-88966751D01*
X146258993Y-89069946D01*
X146402453Y-89146627D01*
X146558116Y-89193847D01*
X146720000Y-89209791D01*
X147920000Y-89209791D01*
X148081884Y-89193847D01*
X148237547Y-89146627D01*
X148381007Y-89069946D01*
X148506751Y-88966751D01*
X148609946Y-88841007D01*
X148686627Y-88697547D01*
X148733847Y-88541884D01*
X148749791Y-88380000D01*
X148749791Y-86880000D01*
X148733847Y-86718116D01*
X148686627Y-86562453D01*
X148609946Y-86418993D01*
X148506751Y-86293249D01*
X148381007Y-86190054D01*
X148237547Y-86113373D01*
X148081884Y-86066153D01*
X147920000Y-86050209D01*
X146909764Y-86050209D01*
X142471331Y-81611778D01*
X142445432Y-81580220D01*
X142319505Y-81476874D01*
X142175836Y-81400081D01*
X142019946Y-81352792D01*
X141898450Y-81340826D01*
X141898440Y-81340826D01*
X141857826Y-81336826D01*
X141817212Y-81340826D01*
X141223373Y-81340826D01*
X143624204Y-78939996D01*
X143627752Y-78946633D01*
X143806077Y-79163922D01*
X144023366Y-79342248D01*
X144271269Y-79474755D01*
X144540259Y-79556352D01*
X144820000Y-79583904D01*
X145099740Y-79556352D01*
X145368730Y-79474755D01*
X145616633Y-79342248D01*
X145833922Y-79163923D01*
X145942482Y-79031644D01*
X145953373Y-79067547D01*
X146030054Y-79211007D01*
X146133249Y-79336751D01*
X146258993Y-79439946D01*
X146402453Y-79516627D01*
X146558116Y-79563847D01*
X146720000Y-79579791D01*
X147920000Y-79579791D01*
X148081884Y-79563847D01*
X148237547Y-79516627D01*
X148381007Y-79439946D01*
X148506751Y-79336751D01*
X148609946Y-79211007D01*
X148686627Y-79067547D01*
X148733847Y-78911884D01*
X148749791Y-78750000D01*
X148749791Y-77250000D01*
X148733847Y-77088116D01*
X148686627Y-76932453D01*
X148609946Y-76788993D01*
X148506751Y-76663249D01*
X148381007Y-76560054D01*
X148237547Y-76483373D01*
X148081884Y-76436153D01*
X147920000Y-76420209D01*
X146909763Y-76420209D01*
X146260505Y-75770952D01*
X146234606Y-75739394D01*
X146108679Y-75636048D01*
X145965010Y-75559255D01*
X145809120Y-75511966D01*
X145687624Y-75500000D01*
X145687614Y-75500000D01*
X145647000Y-75496000D01*
X145606386Y-75500000D01*
X144185613Y-75500000D01*
X144144999Y-75496000D01*
X144104385Y-75500000D01*
X144104376Y-75500000D01*
X143982880Y-75511966D01*
X143826990Y-75559255D01*
X143806800Y-75570047D01*
X143683319Y-75636048D01*
X143588948Y-75713498D01*
X143557394Y-75739394D01*
X143531499Y-75770947D01*
X139266441Y-80036006D01*
X111812560Y-80036006D01*
X108883553Y-77107000D01*
X109178837Y-77107000D01*
X109217000Y-77110759D01*
X109255163Y-77107000D01*
X109255166Y-77107000D01*
X109369319Y-77095757D01*
X109515784Y-77051327D01*
X109650766Y-76979177D01*
X109769080Y-76882080D01*
X109793412Y-76852431D01*
X110188935Y-76456909D01*
X115690153Y-76456909D01*
X115728316Y-76460668D01*
X115766479Y-76456909D01*
X115766482Y-76456909D01*
X115880635Y-76445666D01*
X116027100Y-76401236D01*
X116162082Y-76329086D01*
X116280396Y-76231989D01*
X116286131Y-76225000D01*
X118966209Y-76225000D01*
X118966209Y-77675000D01*
X118982153Y-77836884D01*
X119029373Y-77992547D01*
X119106054Y-78136007D01*
X119209249Y-78261751D01*
X119334993Y-78364946D01*
X119478453Y-78441627D01*
X119634116Y-78488847D01*
X119796000Y-78504791D01*
X120996000Y-78504791D01*
X121157884Y-78488847D01*
X121313547Y-78441627D01*
X121457007Y-78364946D01*
X121582751Y-78261751D01*
X121685946Y-78136007D01*
X121762627Y-77992547D01*
X121773518Y-77956644D01*
X121882078Y-78088923D01*
X122099367Y-78267248D01*
X122347270Y-78399755D01*
X122616260Y-78481352D01*
X122896000Y-78508904D01*
X123175741Y-78481352D01*
X123444731Y-78399755D01*
X123692634Y-78267248D01*
X123909923Y-78088923D01*
X124088248Y-77871633D01*
X124146000Y-77763587D01*
X124203752Y-77871634D01*
X124382078Y-78088923D01*
X124599367Y-78267248D01*
X124847270Y-78399755D01*
X125116260Y-78481352D01*
X125396000Y-78508904D01*
X125675741Y-78481352D01*
X125944731Y-78399755D01*
X126192634Y-78267248D01*
X126409923Y-78088923D01*
X126588248Y-77871633D01*
X126720755Y-77623730D01*
X126802352Y-77354740D01*
X126823000Y-77145097D01*
X126823000Y-76754902D01*
X126802352Y-76545259D01*
X126720755Y-76276269D01*
X126588248Y-76028366D01*
X126409922Y-75811077D01*
X126192633Y-75632752D01*
X125944730Y-75500245D01*
X125675740Y-75418648D01*
X125396000Y-75391096D01*
X125116259Y-75418648D01*
X124847269Y-75500245D01*
X124599366Y-75632752D01*
X124382077Y-75811078D01*
X124203752Y-76028367D01*
X124146000Y-76136413D01*
X124088248Y-76028366D01*
X123909922Y-75811077D01*
X123692633Y-75632752D01*
X123444730Y-75500245D01*
X123175740Y-75418648D01*
X122896000Y-75391096D01*
X122616259Y-75418648D01*
X122347269Y-75500245D01*
X122099366Y-75632752D01*
X121882077Y-75811078D01*
X121773518Y-75943357D01*
X121762627Y-75907453D01*
X121685946Y-75763993D01*
X121582751Y-75638249D01*
X121457007Y-75535054D01*
X121313547Y-75458373D01*
X121157884Y-75411153D01*
X120996000Y-75395209D01*
X119796000Y-75395209D01*
X119634116Y-75411153D01*
X119478453Y-75458373D01*
X119334993Y-75535054D01*
X119209249Y-75638249D01*
X119106054Y-75763993D01*
X119029373Y-75907453D01*
X118982153Y-76063116D01*
X118966209Y-76225000D01*
X116286131Y-76225000D01*
X116304729Y-76202339D01*
X118406658Y-74100410D01*
X130640343Y-74100410D01*
X133081000Y-76541068D01*
X133081000Y-76647258D01*
X133061367Y-76657752D01*
X132844078Y-76836077D01*
X132665752Y-77053366D01*
X132533245Y-77301269D01*
X132451648Y-77570259D01*
X132431000Y-77779902D01*
X132431000Y-78220097D01*
X132451648Y-78429740D01*
X132533245Y-78698730D01*
X132665752Y-78946633D01*
X132844077Y-79163922D01*
X133061366Y-79342248D01*
X133309269Y-79474755D01*
X133578259Y-79556352D01*
X133858000Y-79583904D01*
X134137740Y-79556352D01*
X134406730Y-79474755D01*
X134654633Y-79342248D01*
X134871922Y-79163923D01*
X134980482Y-79031644D01*
X134991373Y-79067547D01*
X135068054Y-79211007D01*
X135171249Y-79336751D01*
X135296993Y-79439946D01*
X135440453Y-79516627D01*
X135596116Y-79563847D01*
X135758000Y-79579791D01*
X136958000Y-79579791D01*
X137119884Y-79563847D01*
X137275547Y-79516627D01*
X137419007Y-79439946D01*
X137544751Y-79336751D01*
X137647946Y-79211007D01*
X137724627Y-79067547D01*
X137771847Y-78911884D01*
X137787791Y-78750000D01*
X137787791Y-77250000D01*
X137771847Y-77088116D01*
X137724627Y-76932453D01*
X137647946Y-76788993D01*
X137544751Y-76663249D01*
X137419007Y-76560054D01*
X137275547Y-76483373D01*
X137119884Y-76436153D01*
X136958000Y-76420209D01*
X135939053Y-76420209D01*
X131767413Y-72248570D01*
X131743080Y-72218920D01*
X131624766Y-72121823D01*
X131489784Y-72049673D01*
X131343319Y-72005243D01*
X131229166Y-71994000D01*
X131229163Y-71994000D01*
X131191000Y-71990241D01*
X131152837Y-71994000D01*
X117894163Y-71994000D01*
X117856000Y-71990241D01*
X117817836Y-71994000D01*
X117817834Y-71994000D01*
X117703681Y-72005243D01*
X117557216Y-72049673D01*
X117530738Y-72063826D01*
X117422233Y-72121823D01*
X117333565Y-72194591D01*
X117303920Y-72218920D01*
X117279592Y-72248564D01*
X115177658Y-74350499D01*
X108812408Y-74350499D01*
X108872162Y-74206241D01*
X108927000Y-73930547D01*
X108927000Y-73649453D01*
X108872162Y-73373759D01*
X108764591Y-73114062D01*
X108608424Y-72880340D01*
X108409660Y-72681576D01*
X108175938Y-72525409D01*
X108162880Y-72520000D01*
X108175938Y-72514591D01*
X108409660Y-72358424D01*
X108608424Y-72159660D01*
X108764591Y-71925938D01*
X108872162Y-71666241D01*
X108927000Y-71390547D01*
X108927000Y-71109453D01*
X108872162Y-70833759D01*
X108764591Y-70574062D01*
X108608424Y-70340340D01*
X108409660Y-70141576D01*
X108175938Y-69985409D01*
X108162880Y-69980000D01*
X108175938Y-69974591D01*
X108409660Y-69818424D01*
X108608424Y-69619660D01*
X108663655Y-69537000D01*
X120292670Y-69536998D01*
X120333294Y-69540999D01*
X120495414Y-69525032D01*
X120651304Y-69477743D01*
X120794973Y-69400951D01*
X120889345Y-69323501D01*
X120889347Y-69323499D01*
X120920900Y-69297604D01*
X120946795Y-69266051D01*
X122937846Y-67275000D01*
X123800209Y-67275000D01*
X123800209Y-68725000D01*
X123816153Y-68886884D01*
X123863373Y-69042547D01*
X123940054Y-69186007D01*
X124043249Y-69311751D01*
X124168993Y-69414946D01*
X124312453Y-69491627D01*
X124468116Y-69538847D01*
X124630000Y-69554791D01*
X125830000Y-69554791D01*
X125991884Y-69538847D01*
X126147547Y-69491627D01*
X126291007Y-69414946D01*
X126416751Y-69311751D01*
X126519946Y-69186007D01*
X126596627Y-69042547D01*
X126607518Y-69006644D01*
X126716078Y-69138923D01*
X126933367Y-69317248D01*
X127181270Y-69449755D01*
X127450260Y-69531352D01*
X127730000Y-69558904D01*
X128009741Y-69531352D01*
X128278731Y-69449755D01*
X128526634Y-69317248D01*
X128743923Y-69138923D01*
X128922248Y-68921633D01*
X128980000Y-68813587D01*
X129037752Y-68921634D01*
X129216078Y-69138923D01*
X129433367Y-69317248D01*
X129681270Y-69449755D01*
X129950260Y-69531352D01*
X130230000Y-69558904D01*
X130509741Y-69531352D01*
X130778731Y-69449755D01*
X131026634Y-69317248D01*
X131243923Y-69138923D01*
X131422248Y-68921633D01*
X131480000Y-68813587D01*
X131537752Y-68921634D01*
X131716078Y-69138923D01*
X131933367Y-69317248D01*
X132181270Y-69449755D01*
X132450260Y-69531352D01*
X132730000Y-69558904D01*
X133009741Y-69531352D01*
X133278731Y-69449755D01*
X133526634Y-69317248D01*
X133743923Y-69138923D01*
X133922248Y-68921633D01*
X134054755Y-68673730D01*
X134136352Y-68404740D01*
X134157000Y-68195097D01*
X134157000Y-67804902D01*
X134136352Y-67595259D01*
X134054755Y-67326269D01*
X133922248Y-67078366D01*
X133743922Y-66861077D01*
X133526633Y-66682752D01*
X133278730Y-66550245D01*
X133009740Y-66468648D01*
X132730000Y-66441096D01*
X132450259Y-66468648D01*
X132181269Y-66550245D01*
X131933366Y-66682752D01*
X131716077Y-66861078D01*
X131537752Y-67078367D01*
X131480000Y-67186413D01*
X131422248Y-67078366D01*
X131243922Y-66861077D01*
X131026633Y-66682752D01*
X130778730Y-66550245D01*
X130509740Y-66468648D01*
X130230000Y-66441096D01*
X129950259Y-66468648D01*
X129681269Y-66550245D01*
X129433366Y-66682752D01*
X129216077Y-66861078D01*
X129037752Y-67078367D01*
X128980000Y-67186413D01*
X128922248Y-67078366D01*
X128743922Y-66861077D01*
X128526633Y-66682752D01*
X128278730Y-66550245D01*
X128009740Y-66468648D01*
X127730000Y-66441096D01*
X127450259Y-66468648D01*
X127181269Y-66550245D01*
X126933366Y-66682752D01*
X126716077Y-66861078D01*
X126607518Y-66993357D01*
X126596627Y-66957453D01*
X126519946Y-66813993D01*
X126416751Y-66688249D01*
X126291007Y-66585054D01*
X126147547Y-66508373D01*
X125991884Y-66461153D01*
X125830000Y-66445209D01*
X124630000Y-66445209D01*
X124468116Y-66461153D01*
X124312453Y-66508373D01*
X124168993Y-66585054D01*
X124043249Y-66688249D01*
X123940054Y-66813993D01*
X123863373Y-66957453D01*
X123816153Y-67113116D01*
X123800209Y-67275000D01*
X122937846Y-67275000D01*
X127519437Y-62693410D01*
X130243976Y-62693410D01*
X130284590Y-62697410D01*
X130325204Y-62693410D01*
X130325214Y-62693410D01*
X130446710Y-62681444D01*
X130602600Y-62634155D01*
X130746269Y-62557362D01*
X130872196Y-62454016D01*
X130898095Y-62422458D01*
X132737376Y-60583178D01*
X133009741Y-60556352D01*
X133278731Y-60474755D01*
X133526634Y-60342248D01*
X133743923Y-60163923D01*
X133922248Y-59946633D01*
X134054755Y-59698730D01*
X134136352Y-59429740D01*
X134157000Y-59220097D01*
X134157000Y-58829902D01*
X134136352Y-58620259D01*
X134054755Y-58351269D01*
X133922248Y-58103366D01*
X133743922Y-57886077D01*
X133526633Y-57707752D01*
X133278730Y-57575245D01*
X133009740Y-57493648D01*
X132730000Y-57466096D01*
X132450259Y-57493648D01*
X132181269Y-57575245D01*
X131933366Y-57707752D01*
X131716077Y-57886078D01*
X131537752Y-58103367D01*
X131480000Y-58211413D01*
X131422248Y-58103366D01*
X131243922Y-57886077D01*
X131026633Y-57707752D01*
X130778730Y-57575245D01*
X130509740Y-57493648D01*
X130230000Y-57466096D01*
X129950259Y-57493648D01*
X129681269Y-57575245D01*
X129433366Y-57707752D01*
X129216077Y-57886078D01*
X129037752Y-58103367D01*
X128980000Y-58211413D01*
X128922248Y-58103366D01*
X128743922Y-57886077D01*
X128526633Y-57707752D01*
X128278730Y-57575245D01*
X128009740Y-57493648D01*
X127730000Y-57466096D01*
X127450259Y-57493648D01*
X127181269Y-57575245D01*
X126933366Y-57707752D01*
X126716077Y-57886078D01*
X126651407Y-57964878D01*
X126648650Y-57936888D01*
X126615657Y-57828124D01*
X126562079Y-57727885D01*
X126489974Y-57640026D01*
X126402115Y-57567921D01*
X126301876Y-57514343D01*
X126193112Y-57481350D01*
X126080000Y-57470209D01*
X124380000Y-57470209D01*
X124266888Y-57481350D01*
X124158124Y-57514343D01*
X124057885Y-57567921D01*
X123970026Y-57640026D01*
X123897921Y-57727885D01*
X123844343Y-57828124D01*
X123811350Y-57936888D01*
X123800209Y-58050000D01*
X123800209Y-60000000D01*
X123811350Y-60113112D01*
X123844343Y-60221876D01*
X123897921Y-60322115D01*
X123970026Y-60409974D01*
X124057885Y-60482079D01*
X124158124Y-60535657D01*
X124266888Y-60568650D01*
X124380000Y-60579791D01*
X124403000Y-60579791D01*
X124403000Y-60702800D01*
X119180031Y-65925770D01*
X113136618Y-65925770D01*
X112995079Y-65784231D01*
X118290098Y-65784231D01*
X118330712Y-65788231D01*
X118371326Y-65784231D01*
X118371336Y-65784231D01*
X118492832Y-65772265D01*
X118648722Y-65724976D01*
X118792391Y-65648183D01*
X118918318Y-65544837D01*
X118944217Y-65513279D01*
X122113285Y-62344212D01*
X122144837Y-62318318D01*
X122218779Y-62228220D01*
X122248183Y-62192392D01*
X122324975Y-62048723D01*
X122324976Y-62048722D01*
X122372265Y-61892832D01*
X122384231Y-61771336D01*
X122384231Y-61771326D01*
X122388231Y-61730712D01*
X122384231Y-61690098D01*
X122384231Y-58811616D01*
X127392437Y-53803411D01*
X130116975Y-53803411D01*
X130157589Y-53807411D01*
X130198203Y-53803411D01*
X130198213Y-53803411D01*
X130319709Y-53791445D01*
X130475599Y-53744156D01*
X130619268Y-53667363D01*
X130745195Y-53564017D01*
X130771094Y-53532459D01*
X132697820Y-51605735D01*
X132730000Y-51608904D01*
X133009741Y-51581352D01*
X133278731Y-51499755D01*
X133526634Y-51367248D01*
X133743923Y-51188923D01*
X133922248Y-50971633D01*
X134054755Y-50723730D01*
X134136352Y-50454740D01*
X134157000Y-50245097D01*
X134157000Y-49854902D01*
X134136352Y-49645259D01*
X134054755Y-49376269D01*
X133922248Y-49128366D01*
X133743922Y-48911077D01*
X133526633Y-48732752D01*
X133278730Y-48600245D01*
X133009740Y-48518648D01*
X132730000Y-48491096D01*
X132450259Y-48518648D01*
X132181269Y-48600245D01*
X131933366Y-48732752D01*
X131716077Y-48911078D01*
X131537752Y-49128367D01*
X131480000Y-49236413D01*
X131422248Y-49128366D01*
X131243922Y-48911077D01*
X131026633Y-48732752D01*
X130778730Y-48600245D01*
X130509740Y-48518648D01*
X130230000Y-48491096D01*
X129950259Y-48518648D01*
X129681269Y-48600245D01*
X129433366Y-48732752D01*
X129216077Y-48911078D01*
X129037752Y-49128367D01*
X128980000Y-49236413D01*
X128922248Y-49128366D01*
X128743922Y-48911077D01*
X128526633Y-48732752D01*
X128278730Y-48600245D01*
X128009740Y-48518648D01*
X127730000Y-48491096D01*
X127450259Y-48518648D01*
X127181269Y-48600245D01*
X126933366Y-48732752D01*
X126716077Y-48911078D01*
X126651407Y-48989878D01*
X126648650Y-48961888D01*
X126615657Y-48853124D01*
X126562079Y-48752885D01*
X126489974Y-48665026D01*
X126402115Y-48592921D01*
X126301876Y-48539343D01*
X126193112Y-48506350D01*
X126080000Y-48495209D01*
X124380000Y-48495209D01*
X124266888Y-48506350D01*
X124158124Y-48539343D01*
X124057885Y-48592921D01*
X123970026Y-48665026D01*
X123897921Y-48752885D01*
X123844343Y-48853124D01*
X123811350Y-48961888D01*
X123800209Y-49075000D01*
X123800209Y-51025000D01*
X123811350Y-51138112D01*
X123844343Y-51246876D01*
X123897921Y-51347115D01*
X123970026Y-51434974D01*
X124057885Y-51507079D01*
X124158124Y-51560657D01*
X124266888Y-51593650D01*
X124380000Y-51604791D01*
X124403000Y-51604791D01*
X124403000Y-51685800D01*
X119043949Y-57044852D01*
X119012396Y-57070747D01*
X118986501Y-57102300D01*
X118986499Y-57102302D01*
X118909049Y-57196674D01*
X118832257Y-57340343D01*
X118811969Y-57407225D01*
X118769897Y-57305655D01*
X118378438Y-56719795D01*
X117880205Y-56221562D01*
X117294345Y-55830103D01*
X116643373Y-55560462D01*
X115952304Y-55423000D01*
X115735617Y-55423000D01*
X115886870Y-55298870D01*
X115928425Y-55248235D01*
X117446870Y-53729791D01*
X118599999Y-53729791D01*
X118761883Y-53713847D01*
X118917547Y-53666627D01*
X119061007Y-53589946D01*
X119186751Y-53486751D01*
X119289946Y-53361007D01*
X119366627Y-53217547D01*
X119413847Y-53061883D01*
X119429791Y-52899999D01*
X119429791Y-50700001D01*
X119413847Y-50538117D01*
X119366627Y-50382453D01*
X119289946Y-50238993D01*
X119186751Y-50113249D01*
X119061007Y-50010054D01*
X118917547Y-49933373D01*
X118761883Y-49886153D01*
X118599999Y-49870209D01*
X116400001Y-49870209D01*
X116238117Y-49886153D01*
X116082453Y-49933373D01*
X115938993Y-50010054D01*
X115813249Y-50113249D01*
X115710054Y-50238993D01*
X115633373Y-50382453D01*
X115586153Y-50538117D01*
X115570209Y-50700001D01*
X115570209Y-51853130D01*
X115467000Y-51956339D01*
X115467000Y-51610207D01*
X115392947Y-51237915D01*
X115247685Y-50887223D01*
X115036799Y-50571609D01*
X114768391Y-50303201D01*
X114452777Y-50092315D01*
X114102085Y-49947053D01*
X113729793Y-49873000D01*
X113350207Y-49873000D01*
X112977915Y-49947053D01*
X112627223Y-50092315D01*
X112311609Y-50303201D01*
X112141810Y-50473000D01*
X111460174Y-50473000D01*
X111395000Y-50466581D01*
X111329826Y-50473000D01*
X111329816Y-50473000D01*
X111134863Y-50492201D01*
X110884722Y-50568081D01*
X110769457Y-50629692D01*
X110654191Y-50691302D01*
X110502761Y-50815578D01*
X110452130Y-50857130D01*
X110410579Y-50907760D01*
X109175340Y-52143000D01*
X108025271Y-52143000D01*
X107916241Y-52097838D01*
X107640547Y-52043000D01*
X107359453Y-52043000D01*
X107258904Y-52063000D01*
X105201096Y-52063000D01*
X105100547Y-52043000D01*
X104819453Y-52043000D01*
X104543759Y-52097838D01*
X104284062Y-52205409D01*
X104050340Y-52361576D01*
X103851576Y-52560340D01*
X103695409Y-52794062D01*
X103587838Y-53053759D01*
X103533000Y-53329453D01*
X100602000Y-53329453D01*
X100602000Y-47163451D01*
X101623000Y-47163451D01*
X101623000Y-47966549D01*
X101779677Y-48754217D01*
X102087009Y-49496184D01*
X102533187Y-50163936D01*
X103101064Y-50731813D01*
X103768816Y-51177991D01*
X104510783Y-51485323D01*
X105298451Y-51642000D01*
X106101549Y-51642000D01*
X106889217Y-51485323D01*
X107631184Y-51177991D01*
X108298936Y-50731813D01*
X108866813Y-50163936D01*
X109312991Y-49496184D01*
X109620323Y-48754217D01*
X109777000Y-47966549D01*
X109777000Y-47163451D01*
X109620323Y-46375783D01*
X109312991Y-45633816D01*
X108866813Y-44966064D01*
X108298936Y-44398187D01*
X107631184Y-43952009D01*
X106889217Y-43644677D01*
X106101549Y-43488000D01*
X105298451Y-43488000D01*
X104510783Y-43644677D01*
X103768816Y-43952009D01*
X103101064Y-44398187D01*
X102533187Y-44966064D01*
X102087009Y-45633816D01*
X101779677Y-46375783D01*
X101623000Y-47163451D01*
X100602000Y-47163451D01*
X100602000Y-44529444D01*
X100631457Y-44229018D01*
X100710153Y-43968366D01*
X100837982Y-43727955D01*
X101010069Y-43516956D01*
X101219864Y-43343398D01*
X101459371Y-43213898D01*
X101719476Y-43133382D01*
X102018051Y-43102000D01*
X134970556Y-43102000D01*
X135270982Y-43131457D01*
G04 #@! TA.AperFunction,NonConductor*
D22*
G36*
X135270982Y-43131457D02*
G01*
X135531634Y-43210153D01*
X135772045Y-43337982D01*
X135983044Y-43510069D01*
X136156602Y-43719864D01*
X136286102Y-43959371D01*
X136366618Y-44219476D01*
X136398001Y-44518061D01*
X136398000Y-71029565D01*
X136400614Y-71056103D01*
X136400527Y-71068524D01*
X136401347Y-71076890D01*
X136442148Y-71465082D01*
X136453109Y-71518479D01*
X136463343Y-71572126D01*
X136465772Y-71580172D01*
X136581196Y-71953047D01*
X136602359Y-72003391D01*
X136622780Y-72053935D01*
X136626725Y-72061356D01*
X136812376Y-72404711D01*
X136842907Y-72449975D01*
X136872765Y-72495602D01*
X136878077Y-72502116D01*
X137126883Y-72802871D01*
X137165626Y-72841344D01*
X137203774Y-72880299D01*
X137210250Y-72885657D01*
X137512735Y-73132358D01*
X137558179Y-73162551D01*
X137603201Y-73193378D01*
X137610594Y-73197376D01*
X137955236Y-73380626D01*
X138005671Y-73401414D01*
X138055833Y-73422913D01*
X138063858Y-73425397D01*
X138063864Y-73425399D01*
X138437534Y-73538216D01*
X138491051Y-73548813D01*
X138544427Y-73560158D01*
X138552786Y-73561037D01*
X138941255Y-73599127D01*
X138941263Y-73599127D01*
X138970434Y-73602000D01*
X148970556Y-73602000D01*
X149270982Y-73631457D01*
X149531634Y-73710153D01*
X149772045Y-73837982D01*
X149983044Y-74010069D01*
X150156602Y-74219864D01*
X150286102Y-74459371D01*
X150366618Y-74719476D01*
X150398001Y-75018061D01*
X150398000Y-97970556D01*
X150368543Y-98270979D01*
X150289847Y-98531636D01*
X150162020Y-98772042D01*
X149989930Y-98983045D01*
X149780139Y-99156600D01*
X149540629Y-99286102D01*
X149280524Y-99366618D01*
X148981948Y-99398000D01*
X102029444Y-99398000D01*
X101729021Y-99368543D01*
X101468364Y-99289847D01*
X101227958Y-99162020D01*
X101016955Y-98989930D01*
X100843400Y-98780139D01*
X100713898Y-98540629D01*
X100633382Y-98280524D01*
X100602000Y-97981948D01*
X100602000Y-94533451D01*
X101623000Y-94533451D01*
X101623000Y-95336549D01*
X101779677Y-96124217D01*
X102087009Y-96866184D01*
X102533187Y-97533936D01*
X103101064Y-98101813D01*
X103768816Y-98547991D01*
X104510783Y-98855323D01*
X105298451Y-99012000D01*
X106101549Y-99012000D01*
X106889217Y-98855323D01*
X107631184Y-98547991D01*
X108298936Y-98101813D01*
X108866813Y-97533936D01*
X109312991Y-96866184D01*
X109620323Y-96124217D01*
X109777000Y-95336549D01*
X109777000Y-94533451D01*
X109620323Y-93745783D01*
X109312991Y-93003816D01*
X109008222Y-92547696D01*
X112023000Y-92547696D01*
X112023000Y-93252304D01*
X112160462Y-93943373D01*
X112430103Y-94594345D01*
X112821562Y-95180205D01*
X113319795Y-95678438D01*
X113905655Y-96069897D01*
X114556627Y-96339538D01*
X115247696Y-96477000D01*
X115952304Y-96477000D01*
X116643373Y-96339538D01*
X117294345Y-96069897D01*
X117880205Y-95678438D01*
X118378438Y-95180205D01*
X118769897Y-94594345D01*
X119039538Y-93943373D01*
X119177000Y-93252304D01*
X119177000Y-92547696D01*
X119039538Y-91856627D01*
X118769897Y-91205655D01*
X118378438Y-90619795D01*
X117880205Y-90121562D01*
X117294345Y-89730103D01*
X116643373Y-89460462D01*
X115952304Y-89323000D01*
X115247696Y-89323000D01*
X114556627Y-89460462D01*
X113905655Y-89730103D01*
X113319795Y-90121562D01*
X112821562Y-90619795D01*
X112430103Y-91205655D01*
X112160462Y-91856627D01*
X112023000Y-92547696D01*
X109008222Y-92547696D01*
X108866813Y-92336064D01*
X108298936Y-91768187D01*
X107631184Y-91322009D01*
X106889217Y-91014677D01*
X106101549Y-90858000D01*
X105298451Y-90858000D01*
X104510783Y-91014677D01*
X103768816Y-91322009D01*
X103101064Y-91768187D01*
X102533187Y-92336064D01*
X102087009Y-93003816D01*
X101779677Y-93745783D01*
X101623000Y-94533451D01*
X100602000Y-94533451D01*
X100602000Y-53329453D01*
X103533000Y-53329453D01*
X103533000Y-53610547D01*
X103587838Y-53886241D01*
X103633001Y-53995273D01*
X103633000Y-55484729D01*
X103587838Y-55593759D01*
X103533000Y-55869453D01*
X103533000Y-56150547D01*
X103587838Y-56426241D01*
X103695409Y-56685938D01*
X103851576Y-56919660D01*
X104050340Y-57118424D01*
X104284062Y-57274591D01*
X104297120Y-57280000D01*
X104284062Y-57285409D01*
X104050340Y-57441576D01*
X103851576Y-57640340D01*
X103695409Y-57874062D01*
X103587838Y-58133759D01*
X103533000Y-58409453D01*
X103533000Y-58690547D01*
X103587838Y-58966241D01*
X103695409Y-59225938D01*
X103851576Y-59459660D01*
X104050340Y-59658424D01*
X104284062Y-59814591D01*
X104297120Y-59820000D01*
X104284062Y-59825409D01*
X104050340Y-59981576D01*
X103851576Y-60180340D01*
X103695409Y-60414062D01*
X103587838Y-60673759D01*
X103533000Y-60949453D01*
X103533000Y-61230547D01*
X103587838Y-61506241D01*
X103695409Y-61765938D01*
X103851576Y-61999660D01*
X104050340Y-62198424D01*
X104284062Y-62354591D01*
X104297120Y-62360000D01*
X104284062Y-62365409D01*
X104050340Y-62521576D01*
X103851576Y-62720340D01*
X103695409Y-62954062D01*
X103587838Y-63213759D01*
X103533000Y-63489453D01*
X103533000Y-63770547D01*
X103587838Y-64046241D01*
X103695409Y-64305938D01*
X103851576Y-64539660D01*
X104050340Y-64738424D01*
X104284062Y-64894591D01*
X104297120Y-64900000D01*
X104284062Y-64905409D01*
X104050340Y-65061576D01*
X103851576Y-65260340D01*
X103695409Y-65494062D01*
X103587838Y-65753759D01*
X103533000Y-66029453D01*
X103533000Y-66310547D01*
X103587838Y-66586241D01*
X103695409Y-66845938D01*
X103851576Y-67079660D01*
X104050340Y-67278424D01*
X104284062Y-67434591D01*
X104297120Y-67440000D01*
X104284062Y-67445409D01*
X104050340Y-67601576D01*
X103851576Y-67800340D01*
X103695409Y-68034062D01*
X103587838Y-68293759D01*
X103533000Y-68569453D01*
X103533000Y-68850547D01*
X103587838Y-69126241D01*
X103695409Y-69385938D01*
X103851576Y-69619660D01*
X104050340Y-69818424D01*
X104284062Y-69974591D01*
X104297120Y-69980000D01*
X104284062Y-69985409D01*
X104050340Y-70141576D01*
X103851576Y-70340340D01*
X103695409Y-70574062D01*
X103587838Y-70833759D01*
X103533000Y-71109453D01*
X103533000Y-71390547D01*
X103587838Y-71666241D01*
X103695409Y-71925938D01*
X103851576Y-72159660D01*
X104050340Y-72358424D01*
X104284062Y-72514591D01*
X104297120Y-72520000D01*
X104284062Y-72525409D01*
X104050340Y-72681576D01*
X103851576Y-72880340D01*
X103695409Y-73114062D01*
X103587838Y-73373759D01*
X103533000Y-73649453D01*
X103533000Y-73930547D01*
X103587838Y-74206241D01*
X103695409Y-74465938D01*
X103851576Y-74699660D01*
X104050340Y-74898424D01*
X104284062Y-75054591D01*
X104297120Y-75060000D01*
X104284062Y-75065409D01*
X104050340Y-75221576D01*
X103851576Y-75420340D01*
X103695409Y-75654062D01*
X103587838Y-75913759D01*
X103533000Y-76189453D01*
X103533000Y-76470547D01*
X103587838Y-76746241D01*
X103695409Y-77005938D01*
X103851576Y-77239660D01*
X104050340Y-77438424D01*
X104284062Y-77594591D01*
X104297120Y-77600000D01*
X104284062Y-77605409D01*
X104050340Y-77761576D01*
X103851576Y-77960340D01*
X103695409Y-78194062D01*
X103587838Y-78453759D01*
X103533000Y-78729453D01*
X103533000Y-79010547D01*
X103587838Y-79286241D01*
X103695409Y-79545938D01*
X103851576Y-79779660D01*
X104050340Y-79978424D01*
X104284062Y-80134591D01*
X104297120Y-80140000D01*
X104284062Y-80145409D01*
X104050340Y-80301576D01*
X103851576Y-80500340D01*
X103695409Y-80734062D01*
X103587838Y-80993759D01*
X103533000Y-81269453D01*
X103533000Y-81550547D01*
X103587838Y-81826241D01*
X103695409Y-82085938D01*
X103851576Y-82319660D01*
X104050340Y-82518424D01*
X104284062Y-82674591D01*
X104297120Y-82680000D01*
X104284062Y-82685409D01*
X104050340Y-82841576D01*
X103851576Y-83040340D01*
X103695409Y-83274062D01*
X103587838Y-83533759D01*
X103533000Y-83809453D01*
X103533000Y-84090547D01*
X103587838Y-84366241D01*
X103695409Y-84625938D01*
X103851576Y-84859660D01*
X104050340Y-85058424D01*
X104284062Y-85214591D01*
X104297120Y-85220000D01*
X104284062Y-85225409D01*
X104050340Y-85381576D01*
X103851576Y-85580340D01*
X103695409Y-85814062D01*
X103587838Y-86073759D01*
X103533000Y-86349453D01*
X103533000Y-86630547D01*
X103587838Y-86906241D01*
X103695409Y-87165938D01*
X103851576Y-87399660D01*
X104050340Y-87598424D01*
X104284062Y-87754591D01*
X104297120Y-87760000D01*
X104284062Y-87765409D01*
X104050340Y-87921576D01*
X103851576Y-88120340D01*
X103695409Y-88354062D01*
X103587838Y-88613759D01*
X103533000Y-88889453D01*
X103533000Y-89170547D01*
X103587838Y-89446241D01*
X103695409Y-89705938D01*
X103851576Y-89939660D01*
X104050340Y-90138424D01*
X104284062Y-90294591D01*
X104543759Y-90402162D01*
X104819453Y-90457000D01*
X105100547Y-90457000D01*
X105376241Y-90402162D01*
X105635938Y-90294591D01*
X105869660Y-90138424D01*
X106068424Y-89939660D01*
X106111448Y-89875270D01*
X106133373Y-89947547D01*
X106210054Y-90091007D01*
X106313249Y-90216751D01*
X106438993Y-90319946D01*
X106582453Y-90396627D01*
X106738116Y-90443847D01*
X106900000Y-90459791D01*
X108100000Y-90459791D01*
X108261884Y-90443847D01*
X108417547Y-90396627D01*
X108561007Y-90319946D01*
X108686751Y-90216751D01*
X108789946Y-90091007D01*
X108866627Y-89947547D01*
X108913847Y-89791884D01*
X108929791Y-89630000D01*
X108929791Y-88430000D01*
X108913847Y-88268116D01*
X108866627Y-88112453D01*
X108789946Y-87968993D01*
X108686751Y-87843249D01*
X108561007Y-87740054D01*
X108417547Y-87663373D01*
X108345270Y-87641448D01*
X108409660Y-87598424D01*
X108608424Y-87399660D01*
X108764591Y-87165938D01*
X108872162Y-86906241D01*
X108927000Y-86630547D01*
X108927000Y-86349453D01*
X108904439Y-86236028D01*
X109770844Y-87102434D01*
X109795174Y-87132080D01*
X109824818Y-87156408D01*
X109824819Y-87156409D01*
X109913487Y-87229177D01*
X110011519Y-87281576D01*
X110048470Y-87301327D01*
X110194935Y-87345757D01*
X110309088Y-87357000D01*
X110309097Y-87357000D01*
X110347253Y-87360758D01*
X110385409Y-87357000D01*
X118971330Y-87357000D01*
X118982153Y-87466884D01*
X119029373Y-87622547D01*
X119106054Y-87766007D01*
X119209249Y-87891751D01*
X119334993Y-87994946D01*
X119478453Y-88071627D01*
X119634116Y-88118847D01*
X119796000Y-88134791D01*
X120996000Y-88134791D01*
X121157884Y-88118847D01*
X121313547Y-88071627D01*
X121457007Y-87994946D01*
X121582751Y-87891751D01*
X121685946Y-87766007D01*
X121762627Y-87622547D01*
X121773518Y-87586644D01*
X121882078Y-87718923D01*
X122099367Y-87897248D01*
X122347270Y-88029755D01*
X122616260Y-88111352D01*
X122896000Y-88138904D01*
X123175741Y-88111352D01*
X123444731Y-88029755D01*
X123692634Y-87897248D01*
X123909923Y-87718923D01*
X124088248Y-87501633D01*
X124146000Y-87393587D01*
X124203752Y-87501634D01*
X124382078Y-87718923D01*
X124599367Y-87897248D01*
X124847270Y-88029755D01*
X125116260Y-88111352D01*
X125396000Y-88138904D01*
X125675741Y-88111352D01*
X125944731Y-88029755D01*
X126192634Y-87897248D01*
X126409923Y-87718923D01*
X126588248Y-87501633D01*
X126637279Y-87409902D01*
X132431000Y-87409902D01*
X132431000Y-87850097D01*
X132451648Y-88059740D01*
X132533245Y-88328730D01*
X132665752Y-88576633D01*
X132844077Y-88793922D01*
X133061366Y-88972248D01*
X133309269Y-89104755D01*
X133578259Y-89186352D01*
X133858000Y-89213904D01*
X134137740Y-89186352D01*
X134406730Y-89104755D01*
X134654633Y-88972248D01*
X134871922Y-88793923D01*
X134980482Y-88661644D01*
X134991373Y-88697547D01*
X135068054Y-88841007D01*
X135171249Y-88966751D01*
X135296993Y-89069946D01*
X135440453Y-89146627D01*
X135596116Y-89193847D01*
X135758000Y-89209791D01*
X136958000Y-89209791D01*
X137119884Y-89193847D01*
X137275547Y-89146627D01*
X137419007Y-89069946D01*
X137544751Y-88966751D01*
X137647946Y-88841007D01*
X137724627Y-88697547D01*
X137771847Y-88541884D01*
X137787791Y-88380000D01*
X137787791Y-86880000D01*
X137771847Y-86718116D01*
X137724627Y-86562453D01*
X137647946Y-86418993D01*
X137544751Y-86293249D01*
X137419007Y-86190054D01*
X137275547Y-86113373D01*
X137119884Y-86066153D01*
X136958000Y-86050209D01*
X135758000Y-86050209D01*
X135596116Y-86066153D01*
X135440453Y-86113373D01*
X135296993Y-86190054D01*
X135171249Y-86293249D01*
X135068054Y-86418993D01*
X134991373Y-86562453D01*
X134980482Y-86598356D01*
X134871923Y-86466077D01*
X134654634Y-86287752D01*
X134406731Y-86155245D01*
X134137741Y-86073648D01*
X133858000Y-86046096D01*
X133578260Y-86073648D01*
X133309270Y-86155245D01*
X133061367Y-86287752D01*
X132844078Y-86466077D01*
X132665752Y-86683366D01*
X132533245Y-86931269D01*
X132451648Y-87200259D01*
X132431000Y-87409902D01*
X126637279Y-87409902D01*
X126720755Y-87253730D01*
X126802352Y-86984740D01*
X126823000Y-86775097D01*
X126823000Y-86384902D01*
X126802352Y-86175259D01*
X126720755Y-85906269D01*
X126588248Y-85658366D01*
X126409922Y-85441077D01*
X126192633Y-85262752D01*
X125944730Y-85130245D01*
X125675740Y-85048648D01*
X125396000Y-85021096D01*
X125116259Y-85048648D01*
X125034341Y-85073497D01*
X124138592Y-84177749D01*
X124114260Y-84148100D01*
X123995946Y-84051003D01*
X123860964Y-83978853D01*
X123714499Y-83934423D01*
X123600346Y-83923180D01*
X123600343Y-83923180D01*
X123562180Y-83919421D01*
X123524017Y-83923180D01*
X119355818Y-83923180D01*
X119317654Y-83919421D01*
X119279491Y-83923180D01*
X119279489Y-83923180D01*
X119165336Y-83934423D01*
X119018871Y-83978853D01*
X118883888Y-84051003D01*
X118795220Y-84123771D01*
X118765575Y-84148100D01*
X118741246Y-84177745D01*
X118220812Y-84698180D01*
X111126726Y-84698180D01*
X108665545Y-82237000D01*
X108906507Y-82237000D01*
X110045799Y-83376294D01*
X110071690Y-83407842D01*
X110103237Y-83433732D01*
X110103243Y-83433738D01*
X110197615Y-83511187D01*
X110197617Y-83511188D01*
X110341286Y-83587981D01*
X110497176Y-83635270D01*
X110618672Y-83647236D01*
X110618684Y-83647236D01*
X110659295Y-83651236D01*
X110699906Y-83647236D01*
X141245037Y-83647236D01*
X143947673Y-86349873D01*
X143806078Y-86466077D01*
X143627752Y-86683366D01*
X143495245Y-86931269D01*
X143413648Y-87200259D01*
X143393000Y-87409902D01*
X143393000Y-87850097D01*
X143413648Y-88059740D01*
X143495245Y-88328730D01*
X143627752Y-88576633D01*
X143806077Y-88793922D01*
X144023366Y-88972248D01*
X144271269Y-89104755D01*
X144540259Y-89186352D01*
X144820000Y-89213904D01*
X145099740Y-89186352D01*
X145368730Y-89104755D01*
X145616633Y-88972248D01*
X145833922Y-88793923D01*
X145942482Y-88661644D01*
X145953373Y-88697547D01*
X146030054Y-88841007D01*
X146133249Y-88966751D01*
X146258993Y-89069946D01*
X146402453Y-89146627D01*
X146558116Y-89193847D01*
X146720000Y-89209791D01*
X147920000Y-89209791D01*
X148081884Y-89193847D01*
X148237547Y-89146627D01*
X148381007Y-89069946D01*
X148506751Y-88966751D01*
X148609946Y-88841007D01*
X148686627Y-88697547D01*
X148733847Y-88541884D01*
X148749791Y-88380000D01*
X148749791Y-86880000D01*
X148733847Y-86718116D01*
X148686627Y-86562453D01*
X148609946Y-86418993D01*
X148506751Y-86293249D01*
X148381007Y-86190054D01*
X148237547Y-86113373D01*
X148081884Y-86066153D01*
X147920000Y-86050209D01*
X146909764Y-86050209D01*
X142471331Y-81611778D01*
X142445432Y-81580220D01*
X142319505Y-81476874D01*
X142175836Y-81400081D01*
X142019946Y-81352792D01*
X141898450Y-81340826D01*
X141898440Y-81340826D01*
X141857826Y-81336826D01*
X141817212Y-81340826D01*
X141223373Y-81340826D01*
X143624204Y-78939996D01*
X143627752Y-78946633D01*
X143806077Y-79163922D01*
X144023366Y-79342248D01*
X144271269Y-79474755D01*
X144540259Y-79556352D01*
X144820000Y-79583904D01*
X145099740Y-79556352D01*
X145368730Y-79474755D01*
X145616633Y-79342248D01*
X145833922Y-79163923D01*
X145942482Y-79031644D01*
X145953373Y-79067547D01*
X146030054Y-79211007D01*
X146133249Y-79336751D01*
X146258993Y-79439946D01*
X146402453Y-79516627D01*
X146558116Y-79563847D01*
X146720000Y-79579791D01*
X147920000Y-79579791D01*
X148081884Y-79563847D01*
X148237547Y-79516627D01*
X148381007Y-79439946D01*
X148506751Y-79336751D01*
X148609946Y-79211007D01*
X148686627Y-79067547D01*
X148733847Y-78911884D01*
X148749791Y-78750000D01*
X148749791Y-77250000D01*
X148733847Y-77088116D01*
X148686627Y-76932453D01*
X148609946Y-76788993D01*
X148506751Y-76663249D01*
X148381007Y-76560054D01*
X148237547Y-76483373D01*
X148081884Y-76436153D01*
X147920000Y-76420209D01*
X146909763Y-76420209D01*
X146260505Y-75770952D01*
X146234606Y-75739394D01*
X146108679Y-75636048D01*
X145965010Y-75559255D01*
X145809120Y-75511966D01*
X145687624Y-75500000D01*
X145687614Y-75500000D01*
X145647000Y-75496000D01*
X145606386Y-75500000D01*
X144185613Y-75500000D01*
X144144999Y-75496000D01*
X144104385Y-75500000D01*
X144104376Y-75500000D01*
X143982880Y-75511966D01*
X143826990Y-75559255D01*
X143806800Y-75570047D01*
X143683319Y-75636048D01*
X143588948Y-75713498D01*
X143557394Y-75739394D01*
X143531499Y-75770947D01*
X139266441Y-80036006D01*
X111812560Y-80036006D01*
X108883553Y-77107000D01*
X109178837Y-77107000D01*
X109217000Y-77110759D01*
X109255163Y-77107000D01*
X109255166Y-77107000D01*
X109369319Y-77095757D01*
X109515784Y-77051327D01*
X109650766Y-76979177D01*
X109769080Y-76882080D01*
X109793412Y-76852431D01*
X110188935Y-76456909D01*
X115690153Y-76456909D01*
X115728316Y-76460668D01*
X115766479Y-76456909D01*
X115766482Y-76456909D01*
X115880635Y-76445666D01*
X116027100Y-76401236D01*
X116162082Y-76329086D01*
X116280396Y-76231989D01*
X116286131Y-76225000D01*
X118966209Y-76225000D01*
X118966209Y-77675000D01*
X118982153Y-77836884D01*
X119029373Y-77992547D01*
X119106054Y-78136007D01*
X119209249Y-78261751D01*
X119334993Y-78364946D01*
X119478453Y-78441627D01*
X119634116Y-78488847D01*
X119796000Y-78504791D01*
X120996000Y-78504791D01*
X121157884Y-78488847D01*
X121313547Y-78441627D01*
X121457007Y-78364946D01*
X121582751Y-78261751D01*
X121685946Y-78136007D01*
X121762627Y-77992547D01*
X121773518Y-77956644D01*
X121882078Y-78088923D01*
X122099367Y-78267248D01*
X122347270Y-78399755D01*
X122616260Y-78481352D01*
X122896000Y-78508904D01*
X123175741Y-78481352D01*
X123444731Y-78399755D01*
X123692634Y-78267248D01*
X123909923Y-78088923D01*
X124088248Y-77871633D01*
X124146000Y-77763587D01*
X124203752Y-77871634D01*
X124382078Y-78088923D01*
X124599367Y-78267248D01*
X124847270Y-78399755D01*
X125116260Y-78481352D01*
X125396000Y-78508904D01*
X125675741Y-78481352D01*
X125944731Y-78399755D01*
X126192634Y-78267248D01*
X126409923Y-78088923D01*
X126588248Y-77871633D01*
X126720755Y-77623730D01*
X126802352Y-77354740D01*
X126823000Y-77145097D01*
X126823000Y-76754902D01*
X126802352Y-76545259D01*
X126720755Y-76276269D01*
X126588248Y-76028366D01*
X126409922Y-75811077D01*
X126192633Y-75632752D01*
X125944730Y-75500245D01*
X125675740Y-75418648D01*
X125396000Y-75391096D01*
X125116259Y-75418648D01*
X124847269Y-75500245D01*
X124599366Y-75632752D01*
X124382077Y-75811078D01*
X124203752Y-76028367D01*
X124146000Y-76136413D01*
X124088248Y-76028366D01*
X123909922Y-75811077D01*
X123692633Y-75632752D01*
X123444730Y-75500245D01*
X123175740Y-75418648D01*
X122896000Y-75391096D01*
X122616259Y-75418648D01*
X122347269Y-75500245D01*
X122099366Y-75632752D01*
X121882077Y-75811078D01*
X121773518Y-75943357D01*
X121762627Y-75907453D01*
X121685946Y-75763993D01*
X121582751Y-75638249D01*
X121457007Y-75535054D01*
X121313547Y-75458373D01*
X121157884Y-75411153D01*
X120996000Y-75395209D01*
X119796000Y-75395209D01*
X119634116Y-75411153D01*
X119478453Y-75458373D01*
X119334993Y-75535054D01*
X119209249Y-75638249D01*
X119106054Y-75763993D01*
X119029373Y-75907453D01*
X118982153Y-76063116D01*
X118966209Y-76225000D01*
X116286131Y-76225000D01*
X116304729Y-76202339D01*
X118406658Y-74100410D01*
X130640343Y-74100410D01*
X133081000Y-76541068D01*
X133081000Y-76647258D01*
X133061367Y-76657752D01*
X132844078Y-76836077D01*
X132665752Y-77053366D01*
X132533245Y-77301269D01*
X132451648Y-77570259D01*
X132431000Y-77779902D01*
X132431000Y-78220097D01*
X132451648Y-78429740D01*
X132533245Y-78698730D01*
X132665752Y-78946633D01*
X132844077Y-79163922D01*
X133061366Y-79342248D01*
X133309269Y-79474755D01*
X133578259Y-79556352D01*
X133858000Y-79583904D01*
X134137740Y-79556352D01*
X134406730Y-79474755D01*
X134654633Y-79342248D01*
X134871922Y-79163923D01*
X134980482Y-79031644D01*
X134991373Y-79067547D01*
X135068054Y-79211007D01*
X135171249Y-79336751D01*
X135296993Y-79439946D01*
X135440453Y-79516627D01*
X135596116Y-79563847D01*
X135758000Y-79579791D01*
X136958000Y-79579791D01*
X137119884Y-79563847D01*
X137275547Y-79516627D01*
X137419007Y-79439946D01*
X137544751Y-79336751D01*
X137647946Y-79211007D01*
X137724627Y-79067547D01*
X137771847Y-78911884D01*
X137787791Y-78750000D01*
X137787791Y-77250000D01*
X137771847Y-77088116D01*
X137724627Y-76932453D01*
X137647946Y-76788993D01*
X137544751Y-76663249D01*
X137419007Y-76560054D01*
X137275547Y-76483373D01*
X137119884Y-76436153D01*
X136958000Y-76420209D01*
X135939053Y-76420209D01*
X131767413Y-72248570D01*
X131743080Y-72218920D01*
X131624766Y-72121823D01*
X131489784Y-72049673D01*
X131343319Y-72005243D01*
X131229166Y-71994000D01*
X131229163Y-71994000D01*
X131191000Y-71990241D01*
X131152837Y-71994000D01*
X117894163Y-71994000D01*
X117856000Y-71990241D01*
X117817836Y-71994000D01*
X117817834Y-71994000D01*
X117703681Y-72005243D01*
X117557216Y-72049673D01*
X117530738Y-72063826D01*
X117422233Y-72121823D01*
X117333565Y-72194591D01*
X117303920Y-72218920D01*
X117279592Y-72248564D01*
X115177658Y-74350499D01*
X108812408Y-74350499D01*
X108872162Y-74206241D01*
X108927000Y-73930547D01*
X108927000Y-73649453D01*
X108872162Y-73373759D01*
X108764591Y-73114062D01*
X108608424Y-72880340D01*
X108409660Y-72681576D01*
X108175938Y-72525409D01*
X108162880Y-72520000D01*
X108175938Y-72514591D01*
X108409660Y-72358424D01*
X108608424Y-72159660D01*
X108764591Y-71925938D01*
X108872162Y-71666241D01*
X108927000Y-71390547D01*
X108927000Y-71109453D01*
X108872162Y-70833759D01*
X108764591Y-70574062D01*
X108608424Y-70340340D01*
X108409660Y-70141576D01*
X108175938Y-69985409D01*
X108162880Y-69980000D01*
X108175938Y-69974591D01*
X108409660Y-69818424D01*
X108608424Y-69619660D01*
X108663655Y-69537000D01*
X120292670Y-69536998D01*
X120333294Y-69540999D01*
X120495414Y-69525032D01*
X120651304Y-69477743D01*
X120794973Y-69400951D01*
X120889345Y-69323501D01*
X120889347Y-69323499D01*
X120920900Y-69297604D01*
X120946795Y-69266051D01*
X122937846Y-67275000D01*
X123800209Y-67275000D01*
X123800209Y-68725000D01*
X123816153Y-68886884D01*
X123863373Y-69042547D01*
X123940054Y-69186007D01*
X124043249Y-69311751D01*
X124168993Y-69414946D01*
X124312453Y-69491627D01*
X124468116Y-69538847D01*
X124630000Y-69554791D01*
X125830000Y-69554791D01*
X125991884Y-69538847D01*
X126147547Y-69491627D01*
X126291007Y-69414946D01*
X126416751Y-69311751D01*
X126519946Y-69186007D01*
X126596627Y-69042547D01*
X126607518Y-69006644D01*
X126716078Y-69138923D01*
X126933367Y-69317248D01*
X127181270Y-69449755D01*
X127450260Y-69531352D01*
X127730000Y-69558904D01*
X128009741Y-69531352D01*
X128278731Y-69449755D01*
X128526634Y-69317248D01*
X128743923Y-69138923D01*
X128922248Y-68921633D01*
X128980000Y-68813587D01*
X129037752Y-68921634D01*
X129216078Y-69138923D01*
X129433367Y-69317248D01*
X129681270Y-69449755D01*
X129950260Y-69531352D01*
X130230000Y-69558904D01*
X130509741Y-69531352D01*
X130778731Y-69449755D01*
X131026634Y-69317248D01*
X131243923Y-69138923D01*
X131422248Y-68921633D01*
X131480000Y-68813587D01*
X131537752Y-68921634D01*
X131716078Y-69138923D01*
X131933367Y-69317248D01*
X132181270Y-69449755D01*
X132450260Y-69531352D01*
X132730000Y-69558904D01*
X133009741Y-69531352D01*
X133278731Y-69449755D01*
X133526634Y-69317248D01*
X133743923Y-69138923D01*
X133922248Y-68921633D01*
X134054755Y-68673730D01*
X134136352Y-68404740D01*
X134157000Y-68195097D01*
X134157000Y-67804902D01*
X134136352Y-67595259D01*
X134054755Y-67326269D01*
X133922248Y-67078366D01*
X133743922Y-66861077D01*
X133526633Y-66682752D01*
X133278730Y-66550245D01*
X133009740Y-66468648D01*
X132730000Y-66441096D01*
X132450259Y-66468648D01*
X132181269Y-66550245D01*
X131933366Y-66682752D01*
X131716077Y-66861078D01*
X131537752Y-67078367D01*
X131480000Y-67186413D01*
X131422248Y-67078366D01*
X131243922Y-66861077D01*
X131026633Y-66682752D01*
X130778730Y-66550245D01*
X130509740Y-66468648D01*
X130230000Y-66441096D01*
X129950259Y-66468648D01*
X129681269Y-66550245D01*
X129433366Y-66682752D01*
X129216077Y-66861078D01*
X129037752Y-67078367D01*
X128980000Y-67186413D01*
X128922248Y-67078366D01*
X128743922Y-66861077D01*
X128526633Y-66682752D01*
X128278730Y-66550245D01*
X128009740Y-66468648D01*
X127730000Y-66441096D01*
X127450259Y-66468648D01*
X127181269Y-66550245D01*
X126933366Y-66682752D01*
X126716077Y-66861078D01*
X126607518Y-66993357D01*
X126596627Y-66957453D01*
X126519946Y-66813993D01*
X126416751Y-66688249D01*
X126291007Y-66585054D01*
X126147547Y-66508373D01*
X125991884Y-66461153D01*
X125830000Y-66445209D01*
X124630000Y-66445209D01*
X124468116Y-66461153D01*
X124312453Y-66508373D01*
X124168993Y-66585054D01*
X124043249Y-66688249D01*
X123940054Y-66813993D01*
X123863373Y-66957453D01*
X123816153Y-67113116D01*
X123800209Y-67275000D01*
X122937846Y-67275000D01*
X127519437Y-62693410D01*
X130243976Y-62693410D01*
X130284590Y-62697410D01*
X130325204Y-62693410D01*
X130325214Y-62693410D01*
X130446710Y-62681444D01*
X130602600Y-62634155D01*
X130746269Y-62557362D01*
X130872196Y-62454016D01*
X130898095Y-62422458D01*
X132737376Y-60583178D01*
X133009741Y-60556352D01*
X133278731Y-60474755D01*
X133526634Y-60342248D01*
X133743923Y-60163923D01*
X133922248Y-59946633D01*
X134054755Y-59698730D01*
X134136352Y-59429740D01*
X134157000Y-59220097D01*
X134157000Y-58829902D01*
X134136352Y-58620259D01*
X134054755Y-58351269D01*
X133922248Y-58103366D01*
X133743922Y-57886077D01*
X133526633Y-57707752D01*
X133278730Y-57575245D01*
X133009740Y-57493648D01*
X132730000Y-57466096D01*
X132450259Y-57493648D01*
X132181269Y-57575245D01*
X131933366Y-57707752D01*
X131716077Y-57886078D01*
X131537752Y-58103367D01*
X131480000Y-58211413D01*
X131422248Y-58103366D01*
X131243922Y-57886077D01*
X131026633Y-57707752D01*
X130778730Y-57575245D01*
X130509740Y-57493648D01*
X130230000Y-57466096D01*
X129950259Y-57493648D01*
X129681269Y-57575245D01*
X129433366Y-57707752D01*
X129216077Y-57886078D01*
X129037752Y-58103367D01*
X128980000Y-58211413D01*
X128922248Y-58103366D01*
X128743922Y-57886077D01*
X128526633Y-57707752D01*
X128278730Y-57575245D01*
X128009740Y-57493648D01*
X127730000Y-57466096D01*
X127450259Y-57493648D01*
X127181269Y-57575245D01*
X126933366Y-57707752D01*
X126716077Y-57886078D01*
X126651407Y-57964878D01*
X126648650Y-57936888D01*
X126615657Y-57828124D01*
X126562079Y-57727885D01*
X126489974Y-57640026D01*
X126402115Y-57567921D01*
X126301876Y-57514343D01*
X126193112Y-57481350D01*
X126080000Y-57470209D01*
X124380000Y-57470209D01*
X124266888Y-57481350D01*
X124158124Y-57514343D01*
X124057885Y-57567921D01*
X123970026Y-57640026D01*
X123897921Y-57727885D01*
X123844343Y-57828124D01*
X123811350Y-57936888D01*
X123800209Y-58050000D01*
X123800209Y-60000000D01*
X123811350Y-60113112D01*
X123844343Y-60221876D01*
X123897921Y-60322115D01*
X123970026Y-60409974D01*
X124057885Y-60482079D01*
X124158124Y-60535657D01*
X124266888Y-60568650D01*
X124380000Y-60579791D01*
X124403000Y-60579791D01*
X124403000Y-60702800D01*
X119180031Y-65925770D01*
X113136618Y-65925770D01*
X112995079Y-65784231D01*
X118290098Y-65784231D01*
X118330712Y-65788231D01*
X118371326Y-65784231D01*
X118371336Y-65784231D01*
X118492832Y-65772265D01*
X118648722Y-65724976D01*
X118792391Y-65648183D01*
X118918318Y-65544837D01*
X118944217Y-65513279D01*
X122113285Y-62344212D01*
X122144837Y-62318318D01*
X122218779Y-62228220D01*
X122248183Y-62192392D01*
X122324975Y-62048723D01*
X122324976Y-62048722D01*
X122372265Y-61892832D01*
X122384231Y-61771336D01*
X122384231Y-61771326D01*
X122388231Y-61730712D01*
X122384231Y-61690098D01*
X122384231Y-58811616D01*
X127392437Y-53803411D01*
X130116975Y-53803411D01*
X130157589Y-53807411D01*
X130198203Y-53803411D01*
X130198213Y-53803411D01*
X130319709Y-53791445D01*
X130475599Y-53744156D01*
X130619268Y-53667363D01*
X130745195Y-53564017D01*
X130771094Y-53532459D01*
X132697820Y-51605735D01*
X132730000Y-51608904D01*
X133009741Y-51581352D01*
X133278731Y-51499755D01*
X133526634Y-51367248D01*
X133743923Y-51188923D01*
X133922248Y-50971633D01*
X134054755Y-50723730D01*
X134136352Y-50454740D01*
X134157000Y-50245097D01*
X134157000Y-49854902D01*
X134136352Y-49645259D01*
X134054755Y-49376269D01*
X133922248Y-49128366D01*
X133743922Y-48911077D01*
X133526633Y-48732752D01*
X133278730Y-48600245D01*
X133009740Y-48518648D01*
X132730000Y-48491096D01*
X132450259Y-48518648D01*
X132181269Y-48600245D01*
X131933366Y-48732752D01*
X131716077Y-48911078D01*
X131537752Y-49128367D01*
X131480000Y-49236413D01*
X131422248Y-49128366D01*
X131243922Y-48911077D01*
X131026633Y-48732752D01*
X130778730Y-48600245D01*
X130509740Y-48518648D01*
X130230000Y-48491096D01*
X129950259Y-48518648D01*
X129681269Y-48600245D01*
X129433366Y-48732752D01*
X129216077Y-48911078D01*
X129037752Y-49128367D01*
X128980000Y-49236413D01*
X128922248Y-49128366D01*
X128743922Y-48911077D01*
X128526633Y-48732752D01*
X128278730Y-48600245D01*
X128009740Y-48518648D01*
X127730000Y-48491096D01*
X127450259Y-48518648D01*
X127181269Y-48600245D01*
X126933366Y-48732752D01*
X126716077Y-48911078D01*
X126651407Y-48989878D01*
X126648650Y-48961888D01*
X126615657Y-48853124D01*
X126562079Y-48752885D01*
X126489974Y-48665026D01*
X126402115Y-48592921D01*
X126301876Y-48539343D01*
X126193112Y-48506350D01*
X126080000Y-48495209D01*
X124380000Y-48495209D01*
X124266888Y-48506350D01*
X124158124Y-48539343D01*
X124057885Y-48592921D01*
X123970026Y-48665026D01*
X123897921Y-48752885D01*
X123844343Y-48853124D01*
X123811350Y-48961888D01*
X123800209Y-49075000D01*
X123800209Y-51025000D01*
X123811350Y-51138112D01*
X123844343Y-51246876D01*
X123897921Y-51347115D01*
X123970026Y-51434974D01*
X124057885Y-51507079D01*
X124158124Y-51560657D01*
X124266888Y-51593650D01*
X124380000Y-51604791D01*
X124403000Y-51604791D01*
X124403000Y-51685800D01*
X119043949Y-57044852D01*
X119012396Y-57070747D01*
X118986501Y-57102300D01*
X118986499Y-57102302D01*
X118909049Y-57196674D01*
X118832257Y-57340343D01*
X118811969Y-57407225D01*
X118769897Y-57305655D01*
X118378438Y-56719795D01*
X117880205Y-56221562D01*
X117294345Y-55830103D01*
X116643373Y-55560462D01*
X115952304Y-55423000D01*
X115735617Y-55423000D01*
X115886870Y-55298870D01*
X115928425Y-55248235D01*
X117446870Y-53729791D01*
X118599999Y-53729791D01*
X118761883Y-53713847D01*
X118917547Y-53666627D01*
X119061007Y-53589946D01*
X119186751Y-53486751D01*
X119289946Y-53361007D01*
X119366627Y-53217547D01*
X119413847Y-53061883D01*
X119429791Y-52899999D01*
X119429791Y-50700001D01*
X119413847Y-50538117D01*
X119366627Y-50382453D01*
X119289946Y-50238993D01*
X119186751Y-50113249D01*
X119061007Y-50010054D01*
X118917547Y-49933373D01*
X118761883Y-49886153D01*
X118599999Y-49870209D01*
X116400001Y-49870209D01*
X116238117Y-49886153D01*
X116082453Y-49933373D01*
X115938993Y-50010054D01*
X115813249Y-50113249D01*
X115710054Y-50238993D01*
X115633373Y-50382453D01*
X115586153Y-50538117D01*
X115570209Y-50700001D01*
X115570209Y-51853130D01*
X115467000Y-51956339D01*
X115467000Y-51610207D01*
X115392947Y-51237915D01*
X115247685Y-50887223D01*
X115036799Y-50571609D01*
X114768391Y-50303201D01*
X114452777Y-50092315D01*
X114102085Y-49947053D01*
X113729793Y-49873000D01*
X113350207Y-49873000D01*
X112977915Y-49947053D01*
X112627223Y-50092315D01*
X112311609Y-50303201D01*
X112141810Y-50473000D01*
X111460174Y-50473000D01*
X111395000Y-50466581D01*
X111329826Y-50473000D01*
X111329816Y-50473000D01*
X111134863Y-50492201D01*
X110884722Y-50568081D01*
X110769457Y-50629692D01*
X110654191Y-50691302D01*
X110502761Y-50815578D01*
X110452130Y-50857130D01*
X110410579Y-50907760D01*
X109175340Y-52143000D01*
X108025271Y-52143000D01*
X107916241Y-52097838D01*
X107640547Y-52043000D01*
X107359453Y-52043000D01*
X107258904Y-52063000D01*
X105201096Y-52063000D01*
X105100547Y-52043000D01*
X104819453Y-52043000D01*
X104543759Y-52097838D01*
X104284062Y-52205409D01*
X104050340Y-52361576D01*
X103851576Y-52560340D01*
X103695409Y-52794062D01*
X103587838Y-53053759D01*
X103533000Y-53329453D01*
X100602000Y-53329453D01*
X100602000Y-47163451D01*
X101623000Y-47163451D01*
X101623000Y-47966549D01*
X101779677Y-48754217D01*
X102087009Y-49496184D01*
X102533187Y-50163936D01*
X103101064Y-50731813D01*
X103768816Y-51177991D01*
X104510783Y-51485323D01*
X105298451Y-51642000D01*
X106101549Y-51642000D01*
X106889217Y-51485323D01*
X107631184Y-51177991D01*
X108298936Y-50731813D01*
X108866813Y-50163936D01*
X109312991Y-49496184D01*
X109620323Y-48754217D01*
X109777000Y-47966549D01*
X109777000Y-47163451D01*
X109620323Y-46375783D01*
X109312991Y-45633816D01*
X108866813Y-44966064D01*
X108298936Y-44398187D01*
X107631184Y-43952009D01*
X106889217Y-43644677D01*
X106101549Y-43488000D01*
X105298451Y-43488000D01*
X104510783Y-43644677D01*
X103768816Y-43952009D01*
X103101064Y-44398187D01*
X102533187Y-44966064D01*
X102087009Y-45633816D01*
X101779677Y-46375783D01*
X101623000Y-47163451D01*
X100602000Y-47163451D01*
X100602000Y-44529444D01*
X100631457Y-44229018D01*
X100710153Y-43968366D01*
X100837982Y-43727955D01*
X101010069Y-43516956D01*
X101219864Y-43343398D01*
X101459371Y-43213898D01*
X101719476Y-43133382D01*
X102018051Y-43102000D01*
X134970556Y-43102000D01*
X135270982Y-43131457D01*
G37*
G04 #@! TD.AperFunction*
D21*
X106235409Y-87165938D02*
X106391576Y-87399660D01*
X106590340Y-87598424D01*
X106654730Y-87641448D01*
X106582453Y-87663373D01*
X106438993Y-87740054D01*
X106313249Y-87843249D01*
X106210054Y-87968993D01*
X106133373Y-88112453D01*
X106111448Y-88184730D01*
X106068424Y-88120340D01*
X105869660Y-87921576D01*
X105635938Y-87765409D01*
X105622880Y-87760000D01*
X105635938Y-87754591D01*
X105869660Y-87598424D01*
X106068424Y-87399660D01*
X106224591Y-87165938D01*
X106230000Y-87152880D01*
X106235409Y-87165938D01*
G04 #@! TA.AperFunction,NonConductor*
D22*
G36*
X106235409Y-87165938D02*
G01*
X106391576Y-87399660D01*
X106590340Y-87598424D01*
X106654730Y-87641448D01*
X106582453Y-87663373D01*
X106438993Y-87740054D01*
X106313249Y-87843249D01*
X106210054Y-87968993D01*
X106133373Y-88112453D01*
X106111448Y-88184730D01*
X106068424Y-88120340D01*
X105869660Y-87921576D01*
X105635938Y-87765409D01*
X105622880Y-87760000D01*
X105635938Y-87754591D01*
X105869660Y-87598424D01*
X106068424Y-87399660D01*
X106224591Y-87165938D01*
X106230000Y-87152880D01*
X106235409Y-87165938D01*
G37*
G04 #@! TD.AperFunction*
D21*
X106235409Y-71925938D02*
X106391576Y-72159660D01*
X106590340Y-72358424D01*
X106824062Y-72514591D01*
X106837120Y-72520000D01*
X106824062Y-72525409D01*
X106590340Y-72681576D01*
X106391576Y-72880340D01*
X106235409Y-73114062D01*
X106230000Y-73127120D01*
X106224591Y-73114062D01*
X106068424Y-72880340D01*
X105869660Y-72681576D01*
X105635938Y-72525409D01*
X105622880Y-72520000D01*
X105635938Y-72514591D01*
X105869660Y-72358424D01*
X106068424Y-72159660D01*
X106224591Y-71925938D01*
X106230000Y-71912880D01*
X106235409Y-71925938D01*
G04 #@! TA.AperFunction,NonConductor*
D22*
G36*
X106235409Y-71925938D02*
G01*
X106391576Y-72159660D01*
X106590340Y-72358424D01*
X106824062Y-72514591D01*
X106837120Y-72520000D01*
X106824062Y-72525409D01*
X106590340Y-72681576D01*
X106391576Y-72880340D01*
X106235409Y-73114062D01*
X106230000Y-73127120D01*
X106224591Y-73114062D01*
X106068424Y-72880340D01*
X105869660Y-72681576D01*
X105635938Y-72525409D01*
X105622880Y-72520000D01*
X105635938Y-72514591D01*
X105869660Y-72358424D01*
X106068424Y-72159660D01*
X106224591Y-71925938D01*
X106230000Y-71912880D01*
X106235409Y-71925938D01*
G37*
G04 #@! TD.AperFunction*
D21*
X106235409Y-69385938D02*
X106391576Y-69619660D01*
X106590340Y-69818424D01*
X106824062Y-69974591D01*
X106837120Y-69980000D01*
X106824062Y-69985409D01*
X106590340Y-70141576D01*
X106391576Y-70340340D01*
X106235409Y-70574062D01*
X106230000Y-70587120D01*
X106224591Y-70574062D01*
X106068424Y-70340340D01*
X105869660Y-70141576D01*
X105635938Y-69985409D01*
X105622880Y-69980000D01*
X105635938Y-69974591D01*
X105869660Y-69818424D01*
X106068424Y-69619660D01*
X106224591Y-69385938D01*
X106230000Y-69372880D01*
X106235409Y-69385938D01*
G04 #@! TA.AperFunction,NonConductor*
D22*
G36*
X106235409Y-69385938D02*
G01*
X106391576Y-69619660D01*
X106590340Y-69818424D01*
X106824062Y-69974591D01*
X106837120Y-69980000D01*
X106824062Y-69985409D01*
X106590340Y-70141576D01*
X106391576Y-70340340D01*
X106235409Y-70574062D01*
X106230000Y-70587120D01*
X106224591Y-70574062D01*
X106068424Y-70340340D01*
X105869660Y-70141576D01*
X105635938Y-69985409D01*
X105622880Y-69980000D01*
X105635938Y-69974591D01*
X105869660Y-69818424D01*
X106068424Y-69619660D01*
X106224591Y-69385938D01*
X106230000Y-69372880D01*
X106235409Y-69385938D01*
G37*
G04 #@! TD.AperFunction*
D21*
X113905655Y-55830103D02*
X113319795Y-56221562D01*
X112821562Y-56719795D01*
X112430103Y-57305655D01*
X112160462Y-57956627D01*
X112023000Y-58647696D01*
X112023000Y-59352304D01*
X112160462Y-60043373D01*
X112349639Y-60500088D01*
X111131102Y-59281551D01*
X111105203Y-59249993D01*
X110979276Y-59146647D01*
X110835607Y-59069854D01*
X110679717Y-59022565D01*
X110558221Y-59010599D01*
X110558211Y-59010599D01*
X110517597Y-59006599D01*
X110476983Y-59010599D01*
X108853788Y-59010599D01*
X108872162Y-58966241D01*
X108927000Y-58690547D01*
X108927000Y-58409453D01*
X108872162Y-58133759D01*
X108827000Y-58024729D01*
X108827000Y-57337000D01*
X110548826Y-57337000D01*
X110614000Y-57343419D01*
X110679174Y-57337000D01*
X110679184Y-57337000D01*
X110874137Y-57317799D01*
X111124278Y-57241919D01*
X111354808Y-57118698D01*
X111556870Y-56952870D01*
X111598425Y-56902235D01*
X112817661Y-55683000D01*
X114260794Y-55683000D01*
X113905655Y-55830103D01*
G04 #@! TA.AperFunction,NonConductor*
D22*
G36*
X113905655Y-55830103D02*
G01*
X113319795Y-56221562D01*
X112821562Y-56719795D01*
X112430103Y-57305655D01*
X112160462Y-57956627D01*
X112023000Y-58647696D01*
X112023000Y-59352304D01*
X112160462Y-60043373D01*
X112349639Y-60500088D01*
X111131102Y-59281551D01*
X111105203Y-59249993D01*
X110979276Y-59146647D01*
X110835607Y-59069854D01*
X110679717Y-59022565D01*
X110558221Y-59010599D01*
X110558211Y-59010599D01*
X110517597Y-59006599D01*
X110476983Y-59010599D01*
X108853788Y-59010599D01*
X108872162Y-58966241D01*
X108927000Y-58690547D01*
X108927000Y-58409453D01*
X108872162Y-58133759D01*
X108827000Y-58024729D01*
X108827000Y-57337000D01*
X110548826Y-57337000D01*
X110614000Y-57343419D01*
X110679174Y-57337000D01*
X110679184Y-57337000D01*
X110874137Y-57317799D01*
X111124278Y-57241919D01*
X111354808Y-57118698D01*
X111556870Y-56952870D01*
X111598425Y-56902235D01*
X112817661Y-55683000D01*
X114260794Y-55683000D01*
X113905655Y-55830103D01*
G37*
G04 #@! TD.AperFunction*
D21*
X106173001Y-57143000D02*
X105832879Y-57143000D01*
X105869660Y-57118424D01*
X106068424Y-56919660D01*
X106173001Y-56763149D01*
X106173001Y-57143000D01*
G04 #@! TA.AperFunction,NonConductor*
D22*
G36*
X106173001Y-57143000D02*
G01*
X105832879Y-57143000D01*
X105869660Y-57118424D01*
X106068424Y-56919660D01*
X106173001Y-56763149D01*
X106173001Y-57143000D01*
G37*
G04 #@! TD.AperFunction*
D21*
X106824062Y-54734591D02*
X106837120Y-54740000D01*
X106824062Y-54745409D01*
X106590340Y-54901576D01*
X106391576Y-55100340D01*
X106287000Y-55256850D01*
X106287000Y-54717000D01*
X106797735Y-54717000D01*
X106824062Y-54734591D01*
G04 #@! TA.AperFunction,NonConductor*
D22*
G36*
X106824062Y-54734591D02*
G01*
X106837120Y-54740000D01*
X106824062Y-54745409D01*
X106590340Y-54901576D01*
X106391576Y-55100340D01*
X106287000Y-55256850D01*
X106287000Y-54717000D01*
X106797735Y-54717000D01*
X106824062Y-54734591D01*
G37*
G04 #@! TD.AperFunction*
M02*
