G04 #@! TF.GenerationSoftware,KiCad,Pcbnew,(5.1.9)-1*
G04 #@! TF.CreationDate,2021-05-01T21:07:19-04:00*
G04 #@! TF.ProjectId,Transfer_Board,5472616e-7366-4657-925f-426f6172642e,rev?*
G04 #@! TF.SameCoordinates,Original*
G04 #@! TF.FileFunction,Legend,Bot*
G04 #@! TF.FilePolarity,Positive*
%FSLAX46Y46*%
G04 Gerber Fmt 4.6, Leading zero omitted, Abs format (unit mm)*
G04 Created by KiCad (PCBNEW (5.1.9)-1) date 2021-05-01 21:07:19*
%MOMM*%
%LPD*%
G01*
G04 APERTURE LIST*
%ADD10C,0.150000*%
%ADD11C,0.120000*%
G04 APERTURE END LIST*
D10*
X137873952Y-91465380D02*
X137635857Y-92465380D01*
X137445380Y-91751095D01*
X137254904Y-92465380D01*
X137016809Y-91465380D01*
X136683476Y-92179666D02*
X136207285Y-92179666D01*
X136778714Y-92465380D02*
X136445380Y-91465380D01*
X136112047Y-92465380D01*
X135207285Y-92465380D02*
X135540619Y-91989190D01*
X135778714Y-92465380D02*
X135778714Y-91465380D01*
X135397761Y-91465380D01*
X135302523Y-91513000D01*
X135254904Y-91560619D01*
X135207285Y-91655857D01*
X135207285Y-91798714D01*
X135254904Y-91893952D01*
X135302523Y-91941571D01*
X135397761Y-91989190D01*
X135778714Y-91989190D01*
X134778714Y-92465380D02*
X134778714Y-91465380D01*
X134207285Y-92465380D01*
X134207285Y-91465380D01*
X133731095Y-92465380D02*
X133731095Y-91465380D01*
X133254904Y-92465380D02*
X133254904Y-91465380D01*
X132683476Y-92465380D01*
X132683476Y-91465380D01*
X131683476Y-91513000D02*
X131778714Y-91465380D01*
X131921571Y-91465380D01*
X132064428Y-91513000D01*
X132159666Y-91608238D01*
X132207285Y-91703476D01*
X132254904Y-91893952D01*
X132254904Y-92036809D01*
X132207285Y-92227285D01*
X132159666Y-92322523D01*
X132064428Y-92417761D01*
X131921571Y-92465380D01*
X131826333Y-92465380D01*
X131683476Y-92417761D01*
X131635857Y-92370142D01*
X131635857Y-92036809D01*
X131826333Y-92036809D01*
X131207285Y-92370142D02*
X131159666Y-92417761D01*
X131207285Y-92465380D01*
X131254904Y-92417761D01*
X131207285Y-92370142D01*
X131207285Y-92465380D01*
X131207285Y-91846333D02*
X131159666Y-91893952D01*
X131207285Y-91941571D01*
X131254904Y-91893952D01*
X131207285Y-91846333D01*
X131207285Y-91941571D01*
X148016809Y-93591571D02*
X147873952Y-93639190D01*
X147826333Y-93686809D01*
X147778714Y-93782047D01*
X147778714Y-93924904D01*
X147826333Y-94020142D01*
X147873952Y-94067761D01*
X147969190Y-94115380D01*
X148350142Y-94115380D01*
X148350142Y-93115380D01*
X148016809Y-93115380D01*
X147921571Y-93163000D01*
X147873952Y-93210619D01*
X147826333Y-93305857D01*
X147826333Y-93401095D01*
X147873952Y-93496333D01*
X147921571Y-93543952D01*
X148016809Y-93591571D01*
X148350142Y-93591571D01*
X146873952Y-94115380D02*
X147350142Y-94115380D01*
X147350142Y-93115380D01*
X145921571Y-93115380D02*
X145350142Y-93115380D01*
X145635857Y-94115380D02*
X145635857Y-93115380D01*
X144826333Y-93115380D02*
X144635857Y-93115380D01*
X144540619Y-93163000D01*
X144445380Y-93258238D01*
X144397761Y-93448714D01*
X144397761Y-93782047D01*
X144445380Y-93972523D01*
X144540619Y-94067761D01*
X144635857Y-94115380D01*
X144826333Y-94115380D01*
X144921571Y-94067761D01*
X145016809Y-93972523D01*
X145064428Y-93782047D01*
X145064428Y-93448714D01*
X145016809Y-93258238D01*
X144921571Y-93163000D01*
X144826333Y-93115380D01*
X143969190Y-93115380D02*
X143969190Y-93924904D01*
X143921571Y-94020142D01*
X143873952Y-94067761D01*
X143778714Y-94115380D01*
X143588238Y-94115380D01*
X143493000Y-94067761D01*
X143445380Y-94020142D01*
X143397761Y-93924904D01*
X143397761Y-93115380D01*
X142350142Y-94020142D02*
X142397761Y-94067761D01*
X142540619Y-94115380D01*
X142635857Y-94115380D01*
X142778714Y-94067761D01*
X142873952Y-93972523D01*
X142921571Y-93877285D01*
X142969190Y-93686809D01*
X142969190Y-93543952D01*
X142921571Y-93353476D01*
X142873952Y-93258238D01*
X142778714Y-93163000D01*
X142635857Y-93115380D01*
X142540619Y-93115380D01*
X142397761Y-93163000D01*
X142350142Y-93210619D01*
X141921571Y-94115380D02*
X141921571Y-93115380D01*
X141921571Y-93591571D02*
X141350142Y-93591571D01*
X141350142Y-94115380D02*
X141350142Y-93115380D01*
X140159666Y-93829666D02*
X139683476Y-93829666D01*
X140254904Y-94115380D02*
X139921571Y-93115380D01*
X139588238Y-94115380D01*
X139254904Y-94115380D02*
X139254904Y-93115380D01*
X138683476Y-94115380D01*
X138683476Y-93115380D01*
X138207285Y-94115380D02*
X138207285Y-93115380D01*
X137969190Y-93115380D01*
X137826333Y-93163000D01*
X137731095Y-93258238D01*
X137683476Y-93353476D01*
X137635857Y-93543952D01*
X137635857Y-93686809D01*
X137683476Y-93877285D01*
X137731095Y-93972523D01*
X137826333Y-94067761D01*
X137969190Y-94115380D01*
X138207285Y-94115380D01*
X136540619Y-93115380D02*
X135873952Y-93115380D01*
X136540619Y-94115380D01*
X135873952Y-94115380D01*
X134731095Y-94115380D02*
X134731095Y-93115380D01*
X134397761Y-93829666D01*
X134064428Y-93115380D01*
X134064428Y-94115380D01*
X133588238Y-94115380D02*
X133588238Y-93115380D01*
X133112047Y-94115380D02*
X133112047Y-93115380D01*
X132540619Y-94115380D01*
X132540619Y-93115380D01*
X131350142Y-94067761D02*
X131207285Y-94115380D01*
X130969190Y-94115380D01*
X130873952Y-94067761D01*
X130826333Y-94020142D01*
X130778714Y-93924904D01*
X130778714Y-93829666D01*
X130826333Y-93734428D01*
X130873952Y-93686809D01*
X130969190Y-93639190D01*
X131159666Y-93591571D01*
X131254904Y-93543952D01*
X131302523Y-93496333D01*
X131350142Y-93401095D01*
X131350142Y-93305857D01*
X131302523Y-93210619D01*
X131254904Y-93163000D01*
X131159666Y-93115380D01*
X130921571Y-93115380D01*
X130778714Y-93163000D01*
X130350142Y-94115380D02*
X130350142Y-93115380D01*
X130350142Y-93591571D02*
X129778714Y-93591571D01*
X129778714Y-94115380D02*
X129778714Y-93115380D01*
X129350142Y-93829666D02*
X128873952Y-93829666D01*
X129445380Y-94115380D02*
X129112047Y-93115380D01*
X128778714Y-94115380D01*
X127873952Y-94115380D02*
X128207285Y-93639190D01*
X128445380Y-94115380D02*
X128445380Y-93115380D01*
X128064428Y-93115380D01*
X127969190Y-93163000D01*
X127921571Y-93210619D01*
X127873952Y-93305857D01*
X127873952Y-93448714D01*
X127921571Y-93543952D01*
X127969190Y-93591571D01*
X128064428Y-93639190D01*
X128445380Y-93639190D01*
X127445380Y-93591571D02*
X127112047Y-93591571D01*
X126969190Y-94115380D02*
X127445380Y-94115380D01*
X127445380Y-93115380D01*
X126969190Y-93115380D01*
X125873952Y-93115380D02*
X125635857Y-94115380D01*
X125445380Y-93401095D01*
X125254904Y-94115380D01*
X125016809Y-93115380D01*
X124635857Y-94115380D02*
X124635857Y-93115380D01*
X123588238Y-94115380D02*
X123921571Y-93639190D01*
X124159666Y-94115380D02*
X124159666Y-93115380D01*
X123778714Y-93115380D01*
X123683476Y-93163000D01*
X123635857Y-93210619D01*
X123588238Y-93305857D01*
X123588238Y-93448714D01*
X123635857Y-93543952D01*
X123683476Y-93591571D01*
X123778714Y-93639190D01*
X124159666Y-93639190D01*
X123159666Y-94115380D02*
X123159666Y-93115380D01*
X122683476Y-94115380D02*
X122683476Y-93115380D01*
X122112047Y-94115380D01*
X122112047Y-93115380D01*
X121112047Y-93163000D02*
X121207285Y-93115380D01*
X121350142Y-93115380D01*
X121493000Y-93163000D01*
X121588238Y-93258238D01*
X121635857Y-93353476D01*
X121683476Y-93543952D01*
X121683476Y-93686809D01*
X121635857Y-93877285D01*
X121588238Y-93972523D01*
X121493000Y-94067761D01*
X121350142Y-94115380D01*
X121254904Y-94115380D01*
X121112047Y-94067761D01*
X121064428Y-94020142D01*
X121064428Y-93686809D01*
X121254904Y-93686809D01*
X120588238Y-94067761D02*
X120588238Y-94115380D01*
X120635857Y-94210619D01*
X120683476Y-94258238D01*
X148183476Y-95670142D02*
X148231095Y-95717761D01*
X148373952Y-95765380D01*
X148469190Y-95765380D01*
X148612047Y-95717761D01*
X148707285Y-95622523D01*
X148754904Y-95527285D01*
X148802523Y-95336809D01*
X148802523Y-95193952D01*
X148754904Y-95003476D01*
X148707285Y-94908238D01*
X148612047Y-94813000D01*
X148469190Y-94765380D01*
X148373952Y-94765380D01*
X148231095Y-94813000D01*
X148183476Y-94860619D01*
X147564428Y-94765380D02*
X147373952Y-94765380D01*
X147278714Y-94813000D01*
X147183476Y-94908238D01*
X147135857Y-95098714D01*
X147135857Y-95432047D01*
X147183476Y-95622523D01*
X147278714Y-95717761D01*
X147373952Y-95765380D01*
X147564428Y-95765380D01*
X147659666Y-95717761D01*
X147754904Y-95622523D01*
X147802523Y-95432047D01*
X147802523Y-95098714D01*
X147754904Y-94908238D01*
X147659666Y-94813000D01*
X147564428Y-94765380D01*
X146707285Y-95765380D02*
X146707285Y-94765380D01*
X146135857Y-95765380D01*
X146135857Y-94765380D01*
X145659666Y-95765380D02*
X145659666Y-94765380D01*
X145088238Y-95765380D01*
X145088238Y-94765380D01*
X144612047Y-95241571D02*
X144278714Y-95241571D01*
X144135857Y-95765380D02*
X144612047Y-95765380D01*
X144612047Y-94765380D01*
X144135857Y-94765380D01*
X143135857Y-95670142D02*
X143183476Y-95717761D01*
X143326333Y-95765380D01*
X143421571Y-95765380D01*
X143564428Y-95717761D01*
X143659666Y-95622523D01*
X143707285Y-95527285D01*
X143754904Y-95336809D01*
X143754904Y-95193952D01*
X143707285Y-95003476D01*
X143659666Y-94908238D01*
X143564428Y-94813000D01*
X143421571Y-94765380D01*
X143326333Y-94765380D01*
X143183476Y-94813000D01*
X143135857Y-94860619D01*
X142850142Y-94765380D02*
X142278714Y-94765380D01*
X142564428Y-95765380D02*
X142564428Y-94765380D01*
X141183476Y-95765380D02*
X141183476Y-94765380D01*
X140802523Y-94765380D01*
X140707285Y-94813000D01*
X140659666Y-94860619D01*
X140612047Y-94955857D01*
X140612047Y-95098714D01*
X140659666Y-95193952D01*
X140707285Y-95241571D01*
X140802523Y-95289190D01*
X141183476Y-95289190D01*
X140278714Y-94765380D02*
X140040619Y-95765380D01*
X139850142Y-95051095D01*
X139659666Y-95765380D01*
X139421571Y-94765380D01*
X138469190Y-95765380D02*
X138802523Y-95289190D01*
X139040619Y-95765380D02*
X139040619Y-94765380D01*
X138659666Y-94765380D01*
X138564428Y-94813000D01*
X138516809Y-94860619D01*
X138469190Y-94955857D01*
X138469190Y-95098714D01*
X138516809Y-95193952D01*
X138564428Y-95241571D01*
X138659666Y-95289190D01*
X139040619Y-95289190D01*
X137421571Y-94765380D02*
X136850142Y-94765380D01*
X137135857Y-95765380D02*
X137135857Y-94765380D01*
X136326333Y-94765380D02*
X136135857Y-94765380D01*
X136040619Y-94813000D01*
X135945380Y-94908238D01*
X135897761Y-95098714D01*
X135897761Y-95432047D01*
X135945380Y-95622523D01*
X136040619Y-95717761D01*
X136135857Y-95765380D01*
X136326333Y-95765380D01*
X136421571Y-95717761D01*
X136516809Y-95622523D01*
X136564428Y-95432047D01*
X136564428Y-95098714D01*
X136516809Y-94908238D01*
X136421571Y-94813000D01*
X136326333Y-94765380D01*
X134707285Y-95384428D02*
X133945380Y-95384428D01*
X134326333Y-95765380D02*
X134326333Y-95003476D01*
X132993000Y-94765380D02*
X133469190Y-94765380D01*
X133516809Y-95241571D01*
X133469190Y-95193952D01*
X133373952Y-95146333D01*
X133135857Y-95146333D01*
X133040619Y-95193952D01*
X132993000Y-95241571D01*
X132945380Y-95336809D01*
X132945380Y-95574904D01*
X132993000Y-95670142D01*
X133040619Y-95717761D01*
X133135857Y-95765380D01*
X133373952Y-95765380D01*
X133469190Y-95717761D01*
X133516809Y-95670142D01*
X132659666Y-94765380D02*
X132326333Y-95765380D01*
X131993000Y-94765380D01*
X130564428Y-95241571D02*
X130897761Y-95241571D01*
X130897761Y-95765380D02*
X130897761Y-94765380D01*
X130421571Y-94765380D01*
X129850142Y-94765380D02*
X129659666Y-94765380D01*
X129564428Y-94813000D01*
X129469190Y-94908238D01*
X129421571Y-95098714D01*
X129421571Y-95432047D01*
X129469190Y-95622523D01*
X129564428Y-95717761D01*
X129659666Y-95765380D01*
X129850142Y-95765380D01*
X129945380Y-95717761D01*
X130040619Y-95622523D01*
X130088238Y-95432047D01*
X130088238Y-95098714D01*
X130040619Y-94908238D01*
X129945380Y-94813000D01*
X129850142Y-94765380D01*
X128421571Y-95765380D02*
X128754904Y-95289190D01*
X128993000Y-95765380D02*
X128993000Y-94765380D01*
X128612047Y-94765380D01*
X128516809Y-94813000D01*
X128469190Y-94860619D01*
X128421571Y-94955857D01*
X128421571Y-95098714D01*
X128469190Y-95193952D01*
X128516809Y-95241571D01*
X128612047Y-95289190D01*
X128993000Y-95289190D01*
X126897761Y-95241571D02*
X126754904Y-95289190D01*
X126707285Y-95336809D01*
X126659666Y-95432047D01*
X126659666Y-95574904D01*
X126707285Y-95670142D01*
X126754904Y-95717761D01*
X126850142Y-95765380D01*
X127231095Y-95765380D01*
X127231095Y-94765380D01*
X126897761Y-94765380D01*
X126802523Y-94813000D01*
X126754904Y-94860619D01*
X126707285Y-94955857D01*
X126707285Y-95051095D01*
X126754904Y-95146333D01*
X126802523Y-95193952D01*
X126897761Y-95241571D01*
X127231095Y-95241571D01*
X125754904Y-95765380D02*
X126231095Y-95765380D01*
X126231095Y-94765380D01*
X124802523Y-94765380D02*
X124231095Y-94765380D01*
X124516809Y-95765380D02*
X124516809Y-94765380D01*
X123707285Y-94765380D02*
X123516809Y-94765380D01*
X123421571Y-94813000D01*
X123326333Y-94908238D01*
X123278714Y-95098714D01*
X123278714Y-95432047D01*
X123326333Y-95622523D01*
X123421571Y-95717761D01*
X123516809Y-95765380D01*
X123707285Y-95765380D01*
X123802523Y-95717761D01*
X123897761Y-95622523D01*
X123945380Y-95432047D01*
X123945380Y-95098714D01*
X123897761Y-94908238D01*
X123802523Y-94813000D01*
X123707285Y-94765380D01*
X122850142Y-94765380D02*
X122850142Y-95574904D01*
X122802523Y-95670142D01*
X122754904Y-95717761D01*
X122659666Y-95765380D01*
X122469190Y-95765380D01*
X122373952Y-95717761D01*
X122326333Y-95670142D01*
X122278714Y-95574904D01*
X122278714Y-94765380D01*
X121231095Y-95670142D02*
X121278714Y-95717761D01*
X121421571Y-95765380D01*
X121516809Y-95765380D01*
X121659666Y-95717761D01*
X121754904Y-95622523D01*
X121802523Y-95527285D01*
X121850142Y-95336809D01*
X121850142Y-95193952D01*
X121802523Y-95003476D01*
X121754904Y-94908238D01*
X121659666Y-94813000D01*
X121516809Y-94765380D01*
X121421571Y-94765380D01*
X121278714Y-94813000D01*
X121231095Y-94860619D01*
X120802523Y-95765380D02*
X120802523Y-94765380D01*
X120802523Y-95241571D02*
X120231095Y-95241571D01*
X120231095Y-95765380D02*
X120231095Y-94765380D01*
X148397761Y-96415380D02*
X148207285Y-96415380D01*
X148112047Y-96463000D01*
X148016809Y-96558238D01*
X147969190Y-96748714D01*
X147969190Y-97082047D01*
X148016809Y-97272523D01*
X148112047Y-97367761D01*
X148207285Y-97415380D01*
X148397761Y-97415380D01*
X148493000Y-97367761D01*
X148588238Y-97272523D01*
X148635857Y-97082047D01*
X148635857Y-96748714D01*
X148588238Y-96558238D01*
X148493000Y-96463000D01*
X148397761Y-96415380D01*
X146969190Y-97415380D02*
X147302523Y-96939190D01*
X147540619Y-97415380D02*
X147540619Y-96415380D01*
X147159666Y-96415380D01*
X147064428Y-96463000D01*
X147016809Y-96510619D01*
X146969190Y-96605857D01*
X146969190Y-96748714D01*
X147016809Y-96843952D01*
X147064428Y-96891571D01*
X147159666Y-96939190D01*
X147540619Y-96939190D01*
X145778714Y-97034428D02*
X145016809Y-97034428D01*
X145397761Y-97415380D02*
X145397761Y-96653476D01*
X144588238Y-96510619D02*
X144540619Y-96463000D01*
X144445380Y-96415380D01*
X144207285Y-96415380D01*
X144112047Y-96463000D01*
X144064428Y-96510619D01*
X144016809Y-96605857D01*
X144016809Y-96701095D01*
X144064428Y-96843952D01*
X144635857Y-97415380D01*
X144016809Y-97415380D01*
X143159666Y-96748714D02*
X143159666Y-97415380D01*
X143397761Y-96367761D02*
X143635857Y-97082047D01*
X143016809Y-97082047D01*
X142778714Y-96415380D02*
X142445380Y-97415380D01*
X142112047Y-96415380D01*
X140683476Y-96891571D02*
X141016809Y-96891571D01*
X141016809Y-97415380D02*
X141016809Y-96415380D01*
X140540619Y-96415380D01*
X139969190Y-96415380D02*
X139778714Y-96415380D01*
X139683476Y-96463000D01*
X139588238Y-96558238D01*
X139540619Y-96748714D01*
X139540619Y-97082047D01*
X139588238Y-97272523D01*
X139683476Y-97367761D01*
X139778714Y-97415380D01*
X139969190Y-97415380D01*
X140064428Y-97367761D01*
X140159666Y-97272523D01*
X140207285Y-97082047D01*
X140207285Y-96748714D01*
X140159666Y-96558238D01*
X140064428Y-96463000D01*
X139969190Y-96415380D01*
X138540619Y-97415380D02*
X138873952Y-96939190D01*
X139112047Y-97415380D02*
X139112047Y-96415380D01*
X138731095Y-96415380D01*
X138635857Y-96463000D01*
X138588238Y-96510619D01*
X138540619Y-96605857D01*
X138540619Y-96748714D01*
X138588238Y-96843952D01*
X138635857Y-96891571D01*
X138731095Y-96939190D01*
X139112047Y-96939190D01*
X137445380Y-96415380D02*
X136778714Y-96415380D01*
X137445380Y-97415380D01*
X136778714Y-97415380D01*
X135635857Y-97415380D02*
X135635857Y-96415380D01*
X135302523Y-97129666D01*
X134969190Y-96415380D01*
X134969190Y-97415380D01*
X134493000Y-97415380D02*
X134493000Y-96415380D01*
X134016809Y-97415380D02*
X134016809Y-96415380D01*
X133445380Y-97415380D01*
X133445380Y-96415380D01*
X131921571Y-97796333D02*
X131969190Y-97748714D01*
X132064428Y-97605857D01*
X132112047Y-97510619D01*
X132159666Y-97367761D01*
X132207285Y-97129666D01*
X132207285Y-96939190D01*
X132159666Y-96701095D01*
X132112047Y-96558238D01*
X132064428Y-96463000D01*
X131969190Y-96320142D01*
X131921571Y-96272523D01*
X131588238Y-97367761D02*
X131445380Y-97415380D01*
X131207285Y-97415380D01*
X131112047Y-97367761D01*
X131064428Y-97320142D01*
X131016809Y-97224904D01*
X131016809Y-97129666D01*
X131064428Y-97034428D01*
X131112047Y-96986809D01*
X131207285Y-96939190D01*
X131397761Y-96891571D01*
X131493000Y-96843952D01*
X131540619Y-96796333D01*
X131588238Y-96701095D01*
X131588238Y-96605857D01*
X131540619Y-96510619D01*
X131493000Y-96463000D01*
X131397761Y-96415380D01*
X131159666Y-96415380D01*
X131016809Y-96463000D01*
X130731095Y-96415380D02*
X130159666Y-96415380D01*
X130445380Y-97415380D02*
X130445380Y-96415380D01*
X129635857Y-96415380D02*
X129445380Y-96415380D01*
X129350142Y-96463000D01*
X129254904Y-96558238D01*
X129207285Y-96748714D01*
X129207285Y-97082047D01*
X129254904Y-97272523D01*
X129350142Y-97367761D01*
X129445380Y-97415380D01*
X129635857Y-97415380D01*
X129731095Y-97367761D01*
X129826333Y-97272523D01*
X129873952Y-97082047D01*
X129873952Y-96748714D01*
X129826333Y-96558238D01*
X129731095Y-96463000D01*
X129635857Y-96415380D01*
X128207285Y-97320142D02*
X128254904Y-97367761D01*
X128397761Y-97415380D01*
X128493000Y-97415380D01*
X128635857Y-97367761D01*
X128731095Y-97272523D01*
X128778714Y-97177285D01*
X128826333Y-96986809D01*
X128826333Y-96843952D01*
X128778714Y-96653476D01*
X128731095Y-96558238D01*
X128635857Y-96463000D01*
X128493000Y-96415380D01*
X128397761Y-96415380D01*
X128254904Y-96463000D01*
X128207285Y-96510619D01*
X127778714Y-97415380D02*
X127778714Y-96415380D01*
X127207285Y-97415380D02*
X127635857Y-96843952D01*
X127207285Y-96415380D02*
X127778714Y-96986809D01*
X126873952Y-97796333D02*
X126826333Y-97748714D01*
X126731095Y-97605857D01*
X126683476Y-97510619D01*
X126635857Y-97367761D01*
X126588238Y-97129666D01*
X126588238Y-96939190D01*
X126635857Y-96701095D01*
X126683476Y-96558238D01*
X126731095Y-96463000D01*
X126826333Y-96320142D01*
X126873952Y-96272523D01*
X125350142Y-97415380D02*
X125350142Y-96415380D01*
X124969190Y-96415380D01*
X124873952Y-96463000D01*
X124826333Y-96510619D01*
X124778714Y-96605857D01*
X124778714Y-96748714D01*
X124826333Y-96843952D01*
X124873952Y-96891571D01*
X124969190Y-96939190D01*
X125350142Y-96939190D01*
X123778714Y-97415380D02*
X124112047Y-96939190D01*
X124350142Y-97415380D02*
X124350142Y-96415380D01*
X123969190Y-96415380D01*
X123873952Y-96463000D01*
X123826333Y-96510619D01*
X123778714Y-96605857D01*
X123778714Y-96748714D01*
X123826333Y-96843952D01*
X123873952Y-96891571D01*
X123969190Y-96939190D01*
X124350142Y-96939190D01*
X123159666Y-96415380D02*
X122969190Y-96415380D01*
X122873952Y-96463000D01*
X122778714Y-96558238D01*
X122731095Y-96748714D01*
X122731095Y-97082047D01*
X122778714Y-97272523D01*
X122873952Y-97367761D01*
X122969190Y-97415380D01*
X123159666Y-97415380D01*
X123254904Y-97367761D01*
X123350142Y-97272523D01*
X123397761Y-97082047D01*
X123397761Y-96748714D01*
X123350142Y-96558238D01*
X123254904Y-96463000D01*
X123159666Y-96415380D01*
X121969190Y-96891571D02*
X121826333Y-96939190D01*
X121778714Y-96986809D01*
X121731095Y-97082047D01*
X121731095Y-97224904D01*
X121778714Y-97320142D01*
X121826333Y-97367761D01*
X121921571Y-97415380D01*
X122302523Y-97415380D01*
X122302523Y-96415380D01*
X121969190Y-96415380D01*
X121873952Y-96463000D01*
X121826333Y-96510619D01*
X121778714Y-96605857D01*
X121778714Y-96701095D01*
X121826333Y-96796333D01*
X121873952Y-96843952D01*
X121969190Y-96891571D01*
X122302523Y-96891571D01*
X121302523Y-96891571D02*
X120969190Y-96891571D01*
X120826333Y-97415380D02*
X121302523Y-97415380D01*
X121302523Y-96415380D01*
X120826333Y-96415380D01*
X120397761Y-97320142D02*
X120350142Y-97367761D01*
X120397761Y-97415380D01*
X120445380Y-97367761D01*
X120397761Y-97320142D01*
X120397761Y-97415380D01*
X115225152Y-83942228D02*
X114463247Y-83942228D01*
X114844200Y-84323180D02*
X114844200Y-83561276D01*
X113510866Y-83323180D02*
X113987057Y-83323180D01*
X114034676Y-83799371D01*
X113987057Y-83751752D01*
X113891819Y-83704133D01*
X113653723Y-83704133D01*
X113558485Y-83751752D01*
X113510866Y-83799371D01*
X113463247Y-83894609D01*
X113463247Y-84132704D01*
X113510866Y-84227942D01*
X113558485Y-84275561D01*
X113653723Y-84323180D01*
X113891819Y-84323180D01*
X113987057Y-84275561D01*
X114034676Y-84227942D01*
X113177533Y-83323180D02*
X112844200Y-84323180D01*
X112510866Y-83323180D01*
X111463247Y-84275561D02*
X111320390Y-84323180D01*
X111082295Y-84323180D01*
X110987057Y-84275561D01*
X110939438Y-84227942D01*
X110891819Y-84132704D01*
X110891819Y-84037466D01*
X110939438Y-83942228D01*
X110987057Y-83894609D01*
X111082295Y-83846990D01*
X111272771Y-83799371D01*
X111368009Y-83751752D01*
X111415628Y-83704133D01*
X111463247Y-83608895D01*
X111463247Y-83513657D01*
X111415628Y-83418419D01*
X111368009Y-83370800D01*
X111272771Y-83323180D01*
X111034676Y-83323180D01*
X110891819Y-83370800D01*
X110463247Y-84323180D02*
X110463247Y-83323180D01*
X109463247Y-83370800D02*
X109558485Y-83323180D01*
X109701342Y-83323180D01*
X109844200Y-83370800D01*
X109939438Y-83466038D01*
X109987057Y-83561276D01*
X110034676Y-83751752D01*
X110034676Y-83894609D01*
X109987057Y-84085085D01*
X109939438Y-84180323D01*
X109844200Y-84275561D01*
X109701342Y-84323180D01*
X109606104Y-84323180D01*
X109463247Y-84275561D01*
X109415628Y-84227942D01*
X109415628Y-83894609D01*
X109606104Y-83894609D01*
X115914085Y-86863180D02*
X115914085Y-85863180D01*
X115342657Y-86863180D01*
X115342657Y-85863180D01*
X114152180Y-85815561D02*
X115009323Y-87101276D01*
X113247419Y-86767942D02*
X113295038Y-86815561D01*
X113437895Y-86863180D01*
X113533133Y-86863180D01*
X113675990Y-86815561D01*
X113771228Y-86720323D01*
X113818847Y-86625085D01*
X113866466Y-86434609D01*
X113866466Y-86291752D01*
X113818847Y-86101276D01*
X113771228Y-86006038D01*
X113675990Y-85910800D01*
X113533133Y-85863180D01*
X113437895Y-85863180D01*
X113295038Y-85910800D01*
X113247419Y-85958419D01*
X111533133Y-85910800D02*
X111628371Y-85863180D01*
X111771228Y-85863180D01*
X111914085Y-85910800D01*
X112009323Y-86006038D01*
X112056942Y-86101276D01*
X112104561Y-86291752D01*
X112104561Y-86434609D01*
X112056942Y-86625085D01*
X112009323Y-86720323D01*
X111914085Y-86815561D01*
X111771228Y-86863180D01*
X111675990Y-86863180D01*
X111533133Y-86815561D01*
X111485514Y-86767942D01*
X111485514Y-86434609D01*
X111675990Y-86434609D01*
X111056942Y-86863180D02*
X111056942Y-85863180D01*
X110485514Y-86863180D01*
X110485514Y-85863180D01*
X110009323Y-86863180D02*
X110009323Y-85863180D01*
X109771228Y-85863180D01*
X109628371Y-85910800D01*
X109533133Y-86006038D01*
X109485514Y-86101276D01*
X109437895Y-86291752D01*
X109437895Y-86434609D01*
X109485514Y-86625085D01*
X109533133Y-86720323D01*
X109628371Y-86815561D01*
X109771228Y-86863180D01*
X110009323Y-86863180D01*
X115933123Y-88428580D02*
X115599790Y-89428580D01*
X115266457Y-88428580D01*
X114980742Y-89380961D02*
X114837885Y-89428580D01*
X114599790Y-89428580D01*
X114504552Y-89380961D01*
X114456933Y-89333342D01*
X114409314Y-89238104D01*
X114409314Y-89142866D01*
X114456933Y-89047628D01*
X114504552Y-89000009D01*
X114599790Y-88952390D01*
X114790266Y-88904771D01*
X114885504Y-88857152D01*
X114933123Y-88809533D01*
X114980742Y-88714295D01*
X114980742Y-88619057D01*
X114933123Y-88523819D01*
X114885504Y-88476200D01*
X114790266Y-88428580D01*
X114552171Y-88428580D01*
X114409314Y-88476200D01*
X114028361Y-89380961D02*
X113885504Y-89428580D01*
X113647409Y-89428580D01*
X113552171Y-89380961D01*
X113504552Y-89333342D01*
X113456933Y-89238104D01*
X113456933Y-89142866D01*
X113504552Y-89047628D01*
X113552171Y-89000009D01*
X113647409Y-88952390D01*
X113837885Y-88904771D01*
X113933123Y-88857152D01*
X113980742Y-88809533D01*
X114028361Y-88714295D01*
X114028361Y-88619057D01*
X113980742Y-88523819D01*
X113933123Y-88476200D01*
X113837885Y-88428580D01*
X113599790Y-88428580D01*
X113456933Y-88476200D01*
X113075980Y-89142866D02*
X112599790Y-89142866D01*
X113171219Y-89428580D02*
X112837885Y-88428580D01*
X112504552Y-89428580D01*
X111456933Y-89380961D02*
X111314076Y-89428580D01*
X111075980Y-89428580D01*
X110980742Y-89380961D01*
X110933123Y-89333342D01*
X110885504Y-89238104D01*
X110885504Y-89142866D01*
X110933123Y-89047628D01*
X110980742Y-89000009D01*
X111075980Y-88952390D01*
X111266457Y-88904771D01*
X111361695Y-88857152D01*
X111409314Y-88809533D01*
X111456933Y-88714295D01*
X111456933Y-88619057D01*
X111409314Y-88523819D01*
X111361695Y-88476200D01*
X111266457Y-88428580D01*
X111028361Y-88428580D01*
X110885504Y-88476200D01*
X110456933Y-89428580D02*
X110456933Y-88428580D01*
X109456933Y-88476200D02*
X109552171Y-88428580D01*
X109695028Y-88428580D01*
X109837885Y-88476200D01*
X109933123Y-88571438D01*
X109980742Y-88666676D01*
X110028361Y-88857152D01*
X110028361Y-89000009D01*
X109980742Y-89190485D01*
X109933123Y-89285723D01*
X109837885Y-89380961D01*
X109695028Y-89428580D01*
X109599790Y-89428580D01*
X109456933Y-89380961D01*
X109409314Y-89333342D01*
X109409314Y-89000009D01*
X109599790Y-89000009D01*
X115937895Y-81783180D02*
X115937895Y-80783180D01*
X115556942Y-80783180D01*
X115461704Y-80830800D01*
X115414085Y-80878419D01*
X115366466Y-80973657D01*
X115366466Y-81116514D01*
X115414085Y-81211752D01*
X115461704Y-81259371D01*
X115556942Y-81306990D01*
X115937895Y-81306990D01*
X115033133Y-80783180D02*
X114795038Y-81783180D01*
X114604561Y-81068895D01*
X114414085Y-81783180D01*
X114175990Y-80783180D01*
X113223609Y-81783180D02*
X113556942Y-81306990D01*
X113795038Y-81783180D02*
X113795038Y-80783180D01*
X113414085Y-80783180D01*
X113318847Y-80830800D01*
X113271228Y-80878419D01*
X113223609Y-80973657D01*
X113223609Y-81116514D01*
X113271228Y-81211752D01*
X113318847Y-81259371D01*
X113414085Y-81306990D01*
X113795038Y-81306990D01*
X111509323Y-80830800D02*
X111604561Y-80783180D01*
X111747419Y-80783180D01*
X111890276Y-80830800D01*
X111985514Y-80926038D01*
X112033133Y-81021276D01*
X112080752Y-81211752D01*
X112080752Y-81354609D01*
X112033133Y-81545085D01*
X111985514Y-81640323D01*
X111890276Y-81735561D01*
X111747419Y-81783180D01*
X111652180Y-81783180D01*
X111509323Y-81735561D01*
X111461704Y-81687942D01*
X111461704Y-81354609D01*
X111652180Y-81354609D01*
X111033133Y-81783180D02*
X111033133Y-80783180D01*
X110461704Y-81783180D01*
X110461704Y-80783180D01*
X109985514Y-81783180D02*
X109985514Y-80783180D01*
X109747419Y-80783180D01*
X109604561Y-80830800D01*
X109509323Y-80926038D01*
X109461704Y-81021276D01*
X109414085Y-81211752D01*
X109414085Y-81354609D01*
X109461704Y-81545085D01*
X109509323Y-81640323D01*
X109604561Y-81735561D01*
X109747419Y-81783180D01*
X109985514Y-81783180D01*
X115988695Y-79306680D02*
X115988695Y-78306680D01*
X115607742Y-78306680D01*
X115512504Y-78354300D01*
X115464885Y-78401919D01*
X115417266Y-78497157D01*
X115417266Y-78640014D01*
X115464885Y-78735252D01*
X115512504Y-78782871D01*
X115607742Y-78830490D01*
X115988695Y-78830490D01*
X115083933Y-78306680D02*
X114845838Y-79306680D01*
X114655361Y-78592395D01*
X114464885Y-79306680D01*
X114226790Y-78306680D01*
X113274409Y-79306680D02*
X113607742Y-78830490D01*
X113845838Y-79306680D02*
X113845838Y-78306680D01*
X113464885Y-78306680D01*
X113369647Y-78354300D01*
X113322028Y-78401919D01*
X113274409Y-78497157D01*
X113274409Y-78640014D01*
X113322028Y-78735252D01*
X113369647Y-78782871D01*
X113464885Y-78830490D01*
X113845838Y-78830490D01*
X111560123Y-78354300D02*
X111655361Y-78306680D01*
X111798219Y-78306680D01*
X111941076Y-78354300D01*
X112036314Y-78449538D01*
X112083933Y-78544776D01*
X112131552Y-78735252D01*
X112131552Y-78878109D01*
X112083933Y-79068585D01*
X112036314Y-79163823D01*
X111941076Y-79259061D01*
X111798219Y-79306680D01*
X111702980Y-79306680D01*
X111560123Y-79259061D01*
X111512504Y-79211442D01*
X111512504Y-78878109D01*
X111702980Y-78878109D01*
X111083933Y-79306680D02*
X111083933Y-78306680D01*
X110512504Y-79306680D01*
X110512504Y-78306680D01*
X110036314Y-79306680D02*
X110036314Y-78306680D01*
X109798219Y-78306680D01*
X109655361Y-78354300D01*
X109560123Y-78449538D01*
X109512504Y-78544776D01*
X109464885Y-78735252D01*
X109464885Y-78878109D01*
X109512504Y-79068585D01*
X109560123Y-79163823D01*
X109655361Y-79259061D01*
X109798219Y-79306680D01*
X110036314Y-79306680D01*
X115298171Y-76655561D02*
X115155314Y-76703180D01*
X114917219Y-76703180D01*
X114821980Y-76655561D01*
X114774361Y-76607942D01*
X114726742Y-76512704D01*
X114726742Y-76417466D01*
X114774361Y-76322228D01*
X114821980Y-76274609D01*
X114917219Y-76226990D01*
X115107695Y-76179371D01*
X115202933Y-76131752D01*
X115250552Y-76084133D01*
X115298171Y-75988895D01*
X115298171Y-75893657D01*
X115250552Y-75798419D01*
X115202933Y-75750800D01*
X115107695Y-75703180D01*
X114869600Y-75703180D01*
X114726742Y-75750800D01*
X114298171Y-76703180D02*
X114298171Y-75703180D01*
X113298171Y-75750800D02*
X113393409Y-75703180D01*
X113536266Y-75703180D01*
X113679123Y-75750800D01*
X113774361Y-75846038D01*
X113821980Y-75941276D01*
X113869600Y-76131752D01*
X113869600Y-76274609D01*
X113821980Y-76465085D01*
X113774361Y-76560323D01*
X113679123Y-76655561D01*
X113536266Y-76703180D01*
X113441028Y-76703180D01*
X113298171Y-76655561D01*
X113250552Y-76607942D01*
X113250552Y-76274609D01*
X113441028Y-76274609D01*
X111536266Y-75750800D02*
X111631504Y-75703180D01*
X111774361Y-75703180D01*
X111917219Y-75750800D01*
X112012457Y-75846038D01*
X112060076Y-75941276D01*
X112107695Y-76131752D01*
X112107695Y-76274609D01*
X112060076Y-76465085D01*
X112012457Y-76560323D01*
X111917219Y-76655561D01*
X111774361Y-76703180D01*
X111679123Y-76703180D01*
X111536266Y-76655561D01*
X111488647Y-76607942D01*
X111488647Y-76274609D01*
X111679123Y-76274609D01*
X111060076Y-76703180D02*
X111060076Y-75703180D01*
X110488647Y-76703180D01*
X110488647Y-75703180D01*
X110012457Y-76703180D02*
X110012457Y-75703180D01*
X109774361Y-75703180D01*
X109631504Y-75750800D01*
X109536266Y-75846038D01*
X109488647Y-75941276D01*
X109441028Y-76131752D01*
X109441028Y-76274609D01*
X109488647Y-76465085D01*
X109536266Y-76560323D01*
X109631504Y-76655561D01*
X109774361Y-76703180D01*
X110012457Y-76703180D01*
X115933171Y-74131442D02*
X115980790Y-74179061D01*
X116123647Y-74226680D01*
X116218885Y-74226680D01*
X116361742Y-74179061D01*
X116456980Y-74083823D01*
X116504600Y-73988585D01*
X116552219Y-73798109D01*
X116552219Y-73655252D01*
X116504600Y-73464776D01*
X116456980Y-73369538D01*
X116361742Y-73274300D01*
X116218885Y-73226680D01*
X116123647Y-73226680D01*
X115980790Y-73274300D01*
X115933171Y-73321919D01*
X115647457Y-73226680D02*
X115076028Y-73226680D01*
X115361742Y-74226680D02*
X115361742Y-73226680D01*
X114171266Y-74226680D02*
X114504600Y-73750490D01*
X114742695Y-74226680D02*
X114742695Y-73226680D01*
X114361742Y-73226680D01*
X114266504Y-73274300D01*
X114218885Y-73321919D01*
X114171266Y-73417157D01*
X114171266Y-73560014D01*
X114218885Y-73655252D01*
X114266504Y-73702871D01*
X114361742Y-73750490D01*
X114742695Y-73750490D01*
X113266504Y-74226680D02*
X113742695Y-74226680D01*
X113742695Y-73226680D01*
X112171266Y-74226680D02*
X112171266Y-73226680D01*
X111790314Y-73226680D01*
X111695076Y-73274300D01*
X111647457Y-73321919D01*
X111599838Y-73417157D01*
X111599838Y-73560014D01*
X111647457Y-73655252D01*
X111695076Y-73702871D01*
X111790314Y-73750490D01*
X112171266Y-73750490D01*
X111266504Y-73226680D02*
X111028409Y-74226680D01*
X110837933Y-73512395D01*
X110647457Y-74226680D01*
X110409361Y-73226680D01*
X109456980Y-74226680D02*
X109790314Y-73750490D01*
X110028409Y-74226680D02*
X110028409Y-73226680D01*
X109647457Y-73226680D01*
X109552219Y-73274300D01*
X109504600Y-73321919D01*
X109456980Y-73417157D01*
X109456980Y-73560014D01*
X109504600Y-73655252D01*
X109552219Y-73702871D01*
X109647457Y-73750490D01*
X110028409Y-73750490D01*
X115298171Y-71639061D02*
X115155314Y-71686680D01*
X114917219Y-71686680D01*
X114821980Y-71639061D01*
X114774361Y-71591442D01*
X114726742Y-71496204D01*
X114726742Y-71400966D01*
X114774361Y-71305728D01*
X114821980Y-71258109D01*
X114917219Y-71210490D01*
X115107695Y-71162871D01*
X115202933Y-71115252D01*
X115250552Y-71067633D01*
X115298171Y-70972395D01*
X115298171Y-70877157D01*
X115250552Y-70781919D01*
X115202933Y-70734300D01*
X115107695Y-70686680D01*
X114869600Y-70686680D01*
X114726742Y-70734300D01*
X114298171Y-71686680D02*
X114298171Y-70686680D01*
X113298171Y-70734300D02*
X113393409Y-70686680D01*
X113536266Y-70686680D01*
X113679123Y-70734300D01*
X113774361Y-70829538D01*
X113821980Y-70924776D01*
X113869600Y-71115252D01*
X113869600Y-71258109D01*
X113821980Y-71448585D01*
X113774361Y-71543823D01*
X113679123Y-71639061D01*
X113536266Y-71686680D01*
X113441028Y-71686680D01*
X113298171Y-71639061D01*
X113250552Y-71591442D01*
X113250552Y-71258109D01*
X113441028Y-71258109D01*
X111536266Y-70734300D02*
X111631504Y-70686680D01*
X111774361Y-70686680D01*
X111917219Y-70734300D01*
X112012457Y-70829538D01*
X112060076Y-70924776D01*
X112107695Y-71115252D01*
X112107695Y-71258109D01*
X112060076Y-71448585D01*
X112012457Y-71543823D01*
X111917219Y-71639061D01*
X111774361Y-71686680D01*
X111679123Y-71686680D01*
X111536266Y-71639061D01*
X111488647Y-71591442D01*
X111488647Y-71258109D01*
X111679123Y-71258109D01*
X111060076Y-71686680D02*
X111060076Y-70686680D01*
X110488647Y-71686680D01*
X110488647Y-70686680D01*
X110012457Y-71686680D02*
X110012457Y-70686680D01*
X109774361Y-70686680D01*
X109631504Y-70734300D01*
X109536266Y-70829538D01*
X109488647Y-70924776D01*
X109441028Y-71115252D01*
X109441028Y-71258109D01*
X109488647Y-71448585D01*
X109536266Y-71543823D01*
X109631504Y-71639061D01*
X109774361Y-71686680D01*
X110012457Y-71686680D01*
X112296390Y-66257466D02*
X111820200Y-66257466D01*
X112391628Y-66543180D02*
X112058295Y-65543180D01*
X111724961Y-66543180D01*
X111391628Y-66162228D02*
X110629723Y-66162228D01*
X110153533Y-66162228D02*
X109391628Y-66162228D01*
X109772580Y-66543180D02*
X109772580Y-65781276D01*
X112139266Y-68622871D02*
X111996409Y-68670490D01*
X111948790Y-68718109D01*
X111901171Y-68813347D01*
X111901171Y-68956204D01*
X111948790Y-69051442D01*
X111996409Y-69099061D01*
X112091647Y-69146680D01*
X112472600Y-69146680D01*
X112472600Y-68146680D01*
X112139266Y-68146680D01*
X112044028Y-68194300D01*
X111996409Y-68241919D01*
X111948790Y-68337157D01*
X111948790Y-68432395D01*
X111996409Y-68527633D01*
X112044028Y-68575252D01*
X112139266Y-68622871D01*
X112472600Y-68622871D01*
X111472600Y-68765728D02*
X110710695Y-68765728D01*
X110234504Y-68765728D02*
X109472600Y-68765728D01*
X109853552Y-69146680D02*
X109853552Y-68384776D01*
X112113866Y-63415871D02*
X111971009Y-63463490D01*
X111923390Y-63511109D01*
X111875771Y-63606347D01*
X111875771Y-63749204D01*
X111923390Y-63844442D01*
X111971009Y-63892061D01*
X112066247Y-63939680D01*
X112447200Y-63939680D01*
X112447200Y-62939680D01*
X112113866Y-62939680D01*
X112018628Y-62987300D01*
X111971009Y-63034919D01*
X111923390Y-63130157D01*
X111923390Y-63225395D01*
X111971009Y-63320633D01*
X112018628Y-63368252D01*
X112113866Y-63415871D01*
X112447200Y-63415871D01*
X111447200Y-63558728D02*
X110685295Y-63558728D01*
X110209104Y-63558728D02*
X109447200Y-63558728D01*
X109828152Y-63939680D02*
X109828152Y-63177776D01*
X112321790Y-61050466D02*
X111845600Y-61050466D01*
X112417028Y-61336180D02*
X112083695Y-60336180D01*
X111750361Y-61336180D01*
X111417028Y-60955228D02*
X110655123Y-60955228D01*
X110178933Y-60955228D02*
X109417028Y-60955228D01*
X109797980Y-61336180D02*
X109797980Y-60574276D01*
X111531304Y-56675400D02*
X111626542Y-56627780D01*
X111769400Y-56627780D01*
X111912257Y-56675400D01*
X112007495Y-56770638D01*
X112055114Y-56865876D01*
X112102733Y-57056352D01*
X112102733Y-57199209D01*
X112055114Y-57389685D01*
X112007495Y-57484923D01*
X111912257Y-57580161D01*
X111769400Y-57627780D01*
X111674161Y-57627780D01*
X111531304Y-57580161D01*
X111483685Y-57532542D01*
X111483685Y-57199209D01*
X111674161Y-57199209D01*
X111055114Y-57627780D02*
X111055114Y-56627780D01*
X110483685Y-57627780D01*
X110483685Y-56627780D01*
X110007495Y-57627780D02*
X110007495Y-56627780D01*
X109769400Y-56627780D01*
X109626542Y-56675400D01*
X109531304Y-56770638D01*
X109483685Y-56865876D01*
X109436066Y-57056352D01*
X109436066Y-57199209D01*
X109483685Y-57389685D01*
X109531304Y-57484923D01*
X109626542Y-57580161D01*
X109769400Y-57627780D01*
X110007495Y-57627780D01*
X113090104Y-53513028D02*
X112328200Y-53513028D01*
X112709152Y-53893980D02*
X112709152Y-53132076D01*
X111899628Y-52989219D02*
X111852009Y-52941600D01*
X111756771Y-52893980D01*
X111518676Y-52893980D01*
X111423438Y-52941600D01*
X111375819Y-52989219D01*
X111328200Y-53084457D01*
X111328200Y-53179695D01*
X111375819Y-53322552D01*
X111947247Y-53893980D01*
X111328200Y-53893980D01*
X110471057Y-53227314D02*
X110471057Y-53893980D01*
X110709152Y-52846361D02*
X110947247Y-53560647D01*
X110328200Y-53560647D01*
X110090104Y-52893980D02*
X109756771Y-53893980D01*
X109423438Y-52893980D01*
X103219214Y-55176680D02*
X103219214Y-54176680D01*
X103219214Y-54652871D02*
X102647785Y-54652871D01*
X102647785Y-55176680D02*
X102647785Y-54176680D01*
X103219214Y-58923180D02*
X103219214Y-57923180D01*
X103219214Y-58399371D02*
X102647785Y-58399371D01*
X102647785Y-58923180D02*
X102647785Y-57923180D01*
X103171523Y-62796680D02*
X103171523Y-61796680D01*
X102838190Y-62510966D01*
X102504857Y-61796680D01*
X102504857Y-62796680D01*
X102123904Y-61796680D02*
X101457238Y-62796680D01*
X101457238Y-61796680D02*
X102123904Y-62796680D01*
X103173114Y-67940180D02*
X103173114Y-66940180D01*
X102839780Y-67654466D01*
X102506447Y-66940180D01*
X102506447Y-67940180D01*
X102030257Y-67416371D02*
X101696923Y-67416371D01*
X101554066Y-67940180D02*
X102030257Y-67940180D01*
X102030257Y-66940180D01*
X101554066Y-66940180D01*
X103161980Y-71943980D02*
X102495314Y-71943980D01*
X103161980Y-72943980D01*
X102495314Y-72943980D01*
X102114361Y-72563028D02*
X101352457Y-72563028D01*
X103161980Y-75766680D02*
X102495314Y-76766680D01*
X102495314Y-75766680D02*
X103161980Y-76766680D01*
X102114361Y-76385728D02*
X101352457Y-76385728D01*
X103203285Y-79370180D02*
X103203285Y-78370180D01*
X103203285Y-78846371D02*
X102631857Y-78846371D01*
X102631857Y-79370180D02*
X102631857Y-78370180D01*
X101822333Y-78846371D02*
X102155666Y-78846371D01*
X102155666Y-79370180D02*
X102155666Y-78370180D01*
X101679476Y-78370180D01*
X103179476Y-81846680D02*
X103179476Y-80846680D01*
X102798523Y-80846680D01*
X102703285Y-80894300D01*
X102655666Y-80941919D01*
X102608047Y-81037157D01*
X102608047Y-81180014D01*
X102655666Y-81275252D01*
X102703285Y-81322871D01*
X102798523Y-81370490D01*
X103179476Y-81370490D01*
X101846142Y-81322871D02*
X102179476Y-81322871D01*
X102179476Y-81846680D02*
X102179476Y-80846680D01*
X101703285Y-80846680D01*
X102885833Y-85132871D02*
X103219166Y-85132871D01*
X103219166Y-85656680D02*
X103219166Y-84656680D01*
X102742976Y-84656680D01*
X102409642Y-85609061D02*
X102266785Y-85656680D01*
X102028690Y-85656680D01*
X101933452Y-85609061D01*
X101885833Y-85561442D01*
X101838214Y-85466204D01*
X101838214Y-85370966D01*
X101885833Y-85275728D01*
X101933452Y-85228109D01*
X102028690Y-85180490D01*
X102219166Y-85132871D01*
X102314404Y-85085252D01*
X102362023Y-85037633D01*
X102409642Y-84942395D01*
X102409642Y-84847157D01*
X102362023Y-84751919D01*
X102314404Y-84704300D01*
X102219166Y-84656680D01*
X101981071Y-84656680D01*
X101838214Y-84704300D01*
X103273123Y-88403180D02*
X102701695Y-88403180D01*
X102987409Y-89403180D02*
X102987409Y-88403180D01*
X102368361Y-89403180D02*
X102368361Y-88403180D01*
X102368361Y-88879371D02*
X101796933Y-88879371D01*
X101796933Y-89403180D02*
X101796933Y-88403180D01*
D11*
X108902500Y-85204300D02*
X106235500Y-87744300D01*
X106235500Y-85204300D02*
X108902500Y-87744300D01*
X108902500Y-90284300D02*
X106235500Y-90284300D01*
X106235500Y-87744300D02*
X108902500Y-87744300D01*
X108902500Y-87744300D02*
X108902500Y-90284300D01*
X106235500Y-90284300D02*
X103568500Y-90284300D01*
X103568500Y-87744300D02*
X106235500Y-87744300D01*
X103568500Y-90284300D02*
X103568500Y-87744300D01*
X108902500Y-87744300D02*
X106235500Y-87744300D01*
X106235500Y-85204300D02*
X108902500Y-85204300D01*
X108902500Y-85204300D02*
X108902500Y-87744300D01*
X106235500Y-87744300D02*
X106235500Y-85204300D01*
X106235500Y-87744300D02*
X103568500Y-87744300D01*
X106235500Y-85204300D02*
X106235500Y-87744300D01*
X103568500Y-87744300D02*
X103568500Y-85204300D01*
X108902500Y-85204300D02*
X106235500Y-85204300D01*
X106235500Y-82664300D02*
X108902500Y-82664300D01*
X108902500Y-82664300D02*
X108902500Y-85204300D01*
X103568500Y-82664300D02*
X106235500Y-82664300D01*
X103568500Y-85204300D02*
X103568500Y-82664300D01*
X108902500Y-82664300D02*
X106235500Y-82664300D01*
X106235500Y-80124300D02*
X108902500Y-80124300D01*
X108902500Y-80124300D02*
X108902500Y-82664300D01*
X106235500Y-82664300D02*
X103568500Y-82664300D01*
X103568500Y-80124300D02*
X106235500Y-80124300D01*
X103568500Y-82664300D02*
X103568500Y-80124300D01*
X108902500Y-80124300D02*
X106235500Y-80124300D01*
X106235500Y-77584300D02*
X108902500Y-77584300D01*
X108902500Y-77584300D02*
X108902500Y-80124300D01*
X106235500Y-80124300D02*
X103568500Y-80124300D01*
X103568500Y-77584300D02*
X106235500Y-77584300D01*
X103568500Y-80124300D02*
X103568500Y-77584300D01*
X108902500Y-77584300D02*
X106235500Y-77584300D01*
X106235500Y-75044300D02*
X108902500Y-75044300D01*
X108902500Y-75044300D02*
X108902500Y-77584300D01*
X106235500Y-77584300D02*
X103568500Y-77584300D01*
X103568500Y-75044300D02*
X106235500Y-75044300D01*
X103568500Y-77584300D02*
X103568500Y-75044300D01*
X108902500Y-75044300D02*
X106235500Y-75044300D01*
X108902500Y-72504300D02*
X108902500Y-75044300D01*
X106235500Y-75044300D02*
X103568500Y-75044300D01*
X103568500Y-75044300D02*
X103568500Y-72504300D01*
X106235500Y-69964300D02*
X108902500Y-69964300D01*
X108902500Y-69964300D02*
X108902500Y-72504300D01*
X103568500Y-69964300D02*
X106235500Y-69964300D01*
X103568500Y-72504300D02*
X103568500Y-69964300D01*
X108902500Y-69964300D02*
X106235500Y-69964300D01*
X108902500Y-67424300D02*
X108902500Y-69964300D01*
X106235500Y-69964300D02*
X103568500Y-69964300D01*
X103568500Y-69964300D02*
X103568500Y-67424300D01*
X106235500Y-64884300D02*
X108902500Y-64884300D01*
X108902500Y-64884300D02*
X108902500Y-67424300D01*
X103568500Y-64884300D02*
X106235500Y-64884300D01*
X103568500Y-67424300D02*
X103568500Y-64884300D01*
X108902500Y-64884300D02*
X106235500Y-64884300D01*
X108902500Y-62344300D02*
X108902500Y-64884300D01*
X106235500Y-64884300D02*
X103568500Y-64884300D01*
X103568500Y-64884300D02*
X103568500Y-62344300D01*
X106235500Y-59804300D02*
X108902500Y-59804300D01*
X108902500Y-59804300D02*
X108902500Y-62344300D01*
X103568500Y-59804300D02*
X106235500Y-59804300D01*
X103568500Y-62344300D02*
X103568500Y-59804300D01*
X108902500Y-59804300D02*
X106235500Y-59804300D01*
X108902500Y-57264300D02*
X108902500Y-59804300D01*
X106235500Y-59804300D02*
X103568500Y-59804300D01*
X103568500Y-57264300D02*
X106235500Y-57264300D01*
X103568500Y-59804300D02*
X103568500Y-57264300D01*
X106235500Y-54724300D02*
X108902500Y-54724300D01*
X108902500Y-54724300D02*
X108902500Y-57264300D01*
X106235500Y-57264300D02*
X106235500Y-54724300D01*
X106235500Y-57264300D02*
X103568500Y-57264300D01*
X106235500Y-54724300D02*
X106235500Y-57264300D01*
X103568500Y-57264300D02*
X103568500Y-54724300D01*
X108902500Y-54724300D02*
X106235500Y-54724300D01*
X106235500Y-52184300D02*
X108902500Y-52184300D01*
X108902500Y-52184300D02*
X108902500Y-54724300D01*
X103568500Y-52184300D02*
X106235500Y-52184300D01*
X103568500Y-54724300D02*
X103568500Y-52184300D01*
M02*
