M48
; DRILL file {KiCad (5.1.0)-1} date 14/10/2019 12:16:34 PM
; FORMAT={-:-/ absolute / metric / decimal}
; #@! TF.CreationDate,2019-10-14T12:16:34+08:00
; #@! TF.GenerationSoftware,Kicad,Pcbnew,(5.1.0)-1
FMAT,2
METRIC
T1C0.950
T2C1.000
T3C1.016
T4C1.520
T5C3.200
%
G90
G05
T1
X119.5Y-93.0
X122.0Y-93.0
X124.5Y-93.0
X127.0Y-93.0
X119.5Y-85.0
X122.0Y-85.0
X124.5Y-85.0
X127.0Y-85.0
T2
X141.5Y-93.0
X144.0Y-93.0
X150.5Y-101.0
X153.0Y-101.0
X141.5Y-85.0
X144.0Y-85.0
X163.15Y-79.0
X135.0Y-82.88
X135.0Y-85.42
X135.0Y-87.96
X135.0Y-90.5
X150.5Y-85.0
X153.0Y-85.0
X132.398Y-95.441
X132.398Y-97.98
X132.398Y-100.52
X132.398Y-103.06
X159.5Y-93.0
X162.0Y-93.0
X158.178Y-100.203
X150.5Y-93.0
X153.0Y-93.0
X159.5Y-85.0
X162.0Y-85.0
T3
X118.44Y-74.0
X118.44Y-76.54
X120.98Y-74.0
X120.98Y-76.54
X123.52Y-74.0
X123.52Y-76.54
X126.06Y-74.0
X126.06Y-76.54
X128.6Y-74.0
X128.6Y-76.54
X131.14Y-74.0
X131.14Y-76.54
X133.68Y-74.0
X133.68Y-76.54
X136.22Y-74.0
X136.22Y-76.54
X138.76Y-74.0
X138.76Y-76.54
X141.3Y-74.0
X141.3Y-76.54
X143.84Y-74.0
X143.84Y-76.54
X146.38Y-74.0
X146.38Y-76.54
X148.92Y-74.0
X148.92Y-76.54
X151.46Y-74.0
X151.46Y-76.54
X154.0Y-74.0
X154.0Y-76.54
T4
X108.712Y-86.4
X113.792Y-86.4
T5
X163.0Y-73.0
X109.0Y-102.0
X109.0Y-73.0
X163.0Y-102.0
T0
M30
