G04 #@! TF.GenerationSoftware,KiCad,Pcbnew,(5.1.0)-1*
G04 #@! TF.CreationDate,2019-10-14T12:16:32+08:00*
G04 #@! TF.ProjectId,RibbonCable_MB_BreakdownBoard,52696262-6f6e-4436-9162-6c655f4d425f,rev?*
G04 #@! TF.SameCoordinates,Original*
G04 #@! TF.FileFunction,Legend,Top*
G04 #@! TF.FilePolarity,Positive*
%FSLAX46Y46*%
G04 Gerber Fmt 4.6, Leading zero omitted, Abs format (unit mm)*
G04 Created by KiCad (PCBNEW (5.1.0)-1) date 2019-10-14 12:16:32*
%MOMM*%
%LPD*%
G04 APERTURE LIST*
%ADD10C,0.150000*%
%ADD11C,0.200000*%
%ADD12C,0.010000*%
%ADD13C,0.120000*%
G04 APERTURE END LIST*
D10*
X135731214Y-97226380D02*
X135159785Y-97226380D01*
X135445500Y-97226380D02*
X135445500Y-96226380D01*
X135350261Y-96369238D01*
X135255023Y-96464476D01*
X135159785Y-96512095D01*
D11*
X125768357Y-97868071D02*
X125768357Y-98401404D01*
X125577880Y-97563309D02*
X125387404Y-98134738D01*
X125882642Y-98134738D01*
X126796928Y-98096642D02*
X127406452Y-98096642D01*
X128320738Y-97601404D02*
X128815976Y-97601404D01*
X128549309Y-97906166D01*
X128663595Y-97906166D01*
X128739785Y-97944261D01*
X128777880Y-97982357D01*
X128815976Y-98058547D01*
X128815976Y-98249023D01*
X128777880Y-98325214D01*
X128739785Y-98363309D01*
X128663595Y-98401404D01*
X128435023Y-98401404D01*
X128358833Y-98363309D01*
X128320738Y-98325214D01*
X129044547Y-97601404D02*
X129311214Y-98401404D01*
X129577880Y-97601404D01*
X129768357Y-97601404D02*
X130263595Y-97601404D01*
X129996928Y-97906166D01*
X130111214Y-97906166D01*
X130187404Y-97944261D01*
X130225500Y-97982357D01*
X130263595Y-98058547D01*
X130263595Y-98249023D01*
X130225500Y-98325214D01*
X130187404Y-98363309D01*
X130111214Y-98401404D01*
X129882642Y-98401404D01*
X129806452Y-98363309D01*
X129768357Y-98325214D01*
X125235023Y-99001404D02*
X125730261Y-99001404D01*
X125463595Y-99306166D01*
X125577880Y-99306166D01*
X125654071Y-99344261D01*
X125692166Y-99382357D01*
X125730261Y-99458547D01*
X125730261Y-99649023D01*
X125692166Y-99725214D01*
X125654071Y-99763309D01*
X125577880Y-99801404D01*
X125349309Y-99801404D01*
X125273119Y-99763309D01*
X125235023Y-99725214D01*
X126682642Y-99496642D02*
X127292166Y-99496642D01*
X128701690Y-99039500D02*
X128625500Y-99001404D01*
X128511214Y-99001404D01*
X128396928Y-99039500D01*
X128320738Y-99115690D01*
X128282642Y-99191880D01*
X128244547Y-99344261D01*
X128244547Y-99458547D01*
X128282642Y-99610928D01*
X128320738Y-99687119D01*
X128396928Y-99763309D01*
X128511214Y-99801404D01*
X128587404Y-99801404D01*
X128701690Y-99763309D01*
X128739785Y-99725214D01*
X128739785Y-99458547D01*
X128587404Y-99458547D01*
X129082642Y-99801404D02*
X129082642Y-99001404D01*
X129539785Y-99801404D01*
X129539785Y-99001404D01*
X129920738Y-99801404D02*
X129920738Y-99001404D01*
X130111214Y-99001404D01*
X130225500Y-99039500D01*
X130301690Y-99115690D01*
X130339785Y-99191880D01*
X130377880Y-99344261D01*
X130377880Y-99458547D01*
X130339785Y-99610928D01*
X130301690Y-99687119D01*
X130225500Y-99763309D01*
X130111214Y-99801404D01*
X129920738Y-99801404D01*
X125387404Y-100477595D02*
X125425500Y-100439500D01*
X125501690Y-100401404D01*
X125692166Y-100401404D01*
X125768357Y-100439500D01*
X125806452Y-100477595D01*
X125844547Y-100553785D01*
X125844547Y-100629976D01*
X125806452Y-100744261D01*
X125349309Y-101201404D01*
X125844547Y-101201404D01*
X126796928Y-100896642D02*
X127406452Y-100896642D01*
X128358833Y-101163309D02*
X128473119Y-101201404D01*
X128663595Y-101201404D01*
X128739785Y-101163309D01*
X128777880Y-101125214D01*
X128815976Y-101049023D01*
X128815976Y-100972833D01*
X128777880Y-100896642D01*
X128739785Y-100858547D01*
X128663595Y-100820452D01*
X128511214Y-100782357D01*
X128435023Y-100744261D01*
X128396928Y-100706166D01*
X128358833Y-100629976D01*
X128358833Y-100553785D01*
X128396928Y-100477595D01*
X128435023Y-100439500D01*
X128511214Y-100401404D01*
X128701690Y-100401404D01*
X128815976Y-100439500D01*
X129615976Y-101125214D02*
X129577880Y-101163309D01*
X129463595Y-101201404D01*
X129387404Y-101201404D01*
X129273119Y-101163309D01*
X129196928Y-101087119D01*
X129158833Y-101010928D01*
X129120738Y-100858547D01*
X129120738Y-100744261D01*
X129158833Y-100591880D01*
X129196928Y-100515690D01*
X129273119Y-100439500D01*
X129387404Y-100401404D01*
X129463595Y-100401404D01*
X129577880Y-100439500D01*
X129615976Y-100477595D01*
X130339785Y-101201404D02*
X129958833Y-101201404D01*
X129958833Y-100401404D01*
X125825500Y-102601404D02*
X125368357Y-102601404D01*
X125596928Y-102601404D02*
X125596928Y-101801404D01*
X125520738Y-101915690D01*
X125444547Y-101991880D01*
X125368357Y-102029976D01*
X126777880Y-102296642D02*
X127387404Y-102296642D01*
X128339785Y-102563309D02*
X128454071Y-102601404D01*
X128644547Y-102601404D01*
X128720738Y-102563309D01*
X128758833Y-102525214D01*
X128796928Y-102449023D01*
X128796928Y-102372833D01*
X128758833Y-102296642D01*
X128720738Y-102258547D01*
X128644547Y-102220452D01*
X128492166Y-102182357D01*
X128415976Y-102144261D01*
X128377880Y-102106166D01*
X128339785Y-102029976D01*
X128339785Y-101953785D01*
X128377880Y-101877595D01*
X128415976Y-101839500D01*
X128492166Y-101801404D01*
X128682642Y-101801404D01*
X128796928Y-101839500D01*
X129139785Y-102601404D02*
X129139785Y-101801404D01*
X129330261Y-101801404D01*
X129444547Y-101839500D01*
X129520738Y-101915690D01*
X129558833Y-101991880D01*
X129596928Y-102144261D01*
X129596928Y-102258547D01*
X129558833Y-102410928D01*
X129520738Y-102487119D01*
X129444547Y-102563309D01*
X129330261Y-102601404D01*
X129139785Y-102601404D01*
X129901690Y-102372833D02*
X130282642Y-102372833D01*
X129825500Y-102601404D02*
X130092166Y-101801404D01*
X130358833Y-102601404D01*
D10*
X111475833Y-98942000D02*
X111442500Y-98975333D01*
X111342500Y-99008666D01*
X111275833Y-99008666D01*
X111175833Y-98975333D01*
X111109166Y-98908666D01*
X111075833Y-98842000D01*
X111042500Y-98708666D01*
X111042500Y-98608666D01*
X111075833Y-98475333D01*
X111109166Y-98408666D01*
X111175833Y-98342000D01*
X111275833Y-98308666D01*
X111342500Y-98308666D01*
X111442500Y-98342000D01*
X111475833Y-98375333D01*
X112175833Y-99008666D02*
X111942500Y-98675333D01*
X111775833Y-99008666D02*
X111775833Y-98308666D01*
X112042500Y-98308666D01*
X112109166Y-98342000D01*
X112142500Y-98375333D01*
X112175833Y-98442000D01*
X112175833Y-98542000D01*
X112142500Y-98608666D01*
X112109166Y-98642000D01*
X112042500Y-98675333D01*
X111775833Y-98675333D01*
X112475833Y-98742000D02*
X113009166Y-98742000D01*
X113709166Y-99008666D02*
X113309166Y-99008666D01*
X113509166Y-99008666D02*
X113509166Y-98308666D01*
X113442500Y-98408666D01*
X113375833Y-98475333D01*
X113309166Y-98508666D01*
X114142500Y-98308666D02*
X114209166Y-98308666D01*
X114275833Y-98342000D01*
X114309166Y-98375333D01*
X114342500Y-98442000D01*
X114375833Y-98575333D01*
X114375833Y-98742000D01*
X114342500Y-98875333D01*
X114309166Y-98942000D01*
X114275833Y-98975333D01*
X114209166Y-99008666D01*
X114142500Y-99008666D01*
X114075833Y-98975333D01*
X114042500Y-98942000D01*
X114009166Y-98875333D01*
X113975833Y-98742000D01*
X113975833Y-98575333D01*
X114009166Y-98442000D01*
X114042500Y-98375333D01*
X114075833Y-98342000D01*
X114142500Y-98308666D01*
X114642500Y-98975333D02*
X114742500Y-99008666D01*
X114909166Y-99008666D01*
X114975833Y-98975333D01*
X115009166Y-98942000D01*
X115042500Y-98875333D01*
X115042500Y-98808666D01*
X115009166Y-98742000D01*
X114975833Y-98708666D01*
X114909166Y-98675333D01*
X114775833Y-98642000D01*
X114709166Y-98608666D01*
X114675833Y-98575333D01*
X114642500Y-98508666D01*
X114642500Y-98442000D01*
X114675833Y-98375333D01*
X114709166Y-98342000D01*
X114775833Y-98308666D01*
X114942500Y-98308666D01*
X115042500Y-98342000D01*
X115875833Y-99008666D02*
X115875833Y-98308666D01*
X116142500Y-98308666D01*
X116209166Y-98342000D01*
X116242500Y-98375333D01*
X116275833Y-98442000D01*
X116275833Y-98542000D01*
X116242500Y-98608666D01*
X116209166Y-98642000D01*
X116142500Y-98675333D01*
X115875833Y-98675333D01*
X116575833Y-99008666D02*
X116575833Y-98542000D01*
X116575833Y-98675333D02*
X116609166Y-98608666D01*
X116642500Y-98575333D01*
X116709166Y-98542000D01*
X116775833Y-98542000D01*
X117109166Y-99008666D02*
X117042500Y-98975333D01*
X117009166Y-98942000D01*
X116975833Y-98875333D01*
X116975833Y-98675333D01*
X117009166Y-98608666D01*
X117042500Y-98575333D01*
X117109166Y-98542000D01*
X117209166Y-98542000D01*
X117275833Y-98575333D01*
X117309166Y-98608666D01*
X117342500Y-98675333D01*
X117342500Y-98875333D01*
X117309166Y-98942000D01*
X117275833Y-98975333D01*
X117209166Y-99008666D01*
X117109166Y-99008666D01*
X118175833Y-99008666D02*
X118175833Y-98542000D01*
X118175833Y-98675333D02*
X118209166Y-98608666D01*
X118242500Y-98575333D01*
X118309166Y-98542000D01*
X118375833Y-98542000D01*
X118609166Y-99008666D02*
X118609166Y-98542000D01*
X118609166Y-98308666D02*
X118575833Y-98342000D01*
X118609166Y-98375333D01*
X118642500Y-98342000D01*
X118609166Y-98308666D01*
X118609166Y-98375333D01*
X118942500Y-99008666D02*
X118942500Y-98308666D01*
X118942500Y-98575333D02*
X119009166Y-98542000D01*
X119142500Y-98542000D01*
X119209166Y-98575333D01*
X119242500Y-98608666D01*
X119275833Y-98675333D01*
X119275833Y-98875333D01*
X119242500Y-98942000D01*
X119209166Y-98975333D01*
X119142500Y-99008666D01*
X119009166Y-99008666D01*
X118942500Y-98975333D01*
X119575833Y-99008666D02*
X119575833Y-98308666D01*
X119575833Y-98575333D02*
X119642500Y-98542000D01*
X119775833Y-98542000D01*
X119842500Y-98575333D01*
X119875833Y-98608666D01*
X119909166Y-98675333D01*
X119909166Y-98875333D01*
X119875833Y-98942000D01*
X119842500Y-98975333D01*
X119775833Y-99008666D01*
X119642500Y-99008666D01*
X119575833Y-98975333D01*
X120309166Y-99008666D02*
X120242500Y-98975333D01*
X120209166Y-98942000D01*
X120175833Y-98875333D01*
X120175833Y-98675333D01*
X120209166Y-98608666D01*
X120242500Y-98575333D01*
X120309166Y-98542000D01*
X120409166Y-98542000D01*
X120475833Y-98575333D01*
X120509166Y-98608666D01*
X120542500Y-98675333D01*
X120542500Y-98875333D01*
X120509166Y-98942000D01*
X120475833Y-98975333D01*
X120409166Y-99008666D01*
X120309166Y-99008666D01*
X120842500Y-98542000D02*
X120842500Y-99008666D01*
X120842500Y-98608666D02*
X120875833Y-98575333D01*
X120942500Y-98542000D01*
X121042500Y-98542000D01*
X121109166Y-98575333D01*
X121142500Y-98642000D01*
X121142500Y-99008666D01*
X122309166Y-98975333D02*
X122242500Y-99008666D01*
X122109166Y-99008666D01*
X122042500Y-98975333D01*
X122009166Y-98942000D01*
X121975833Y-98875333D01*
X121975833Y-98675333D01*
X122009166Y-98608666D01*
X122042500Y-98575333D01*
X122109166Y-98542000D01*
X122242500Y-98542000D01*
X122309166Y-98575333D01*
X122909166Y-99008666D02*
X122909166Y-98642000D01*
X122875833Y-98575333D01*
X122809166Y-98542000D01*
X122675833Y-98542000D01*
X122609166Y-98575333D01*
X122909166Y-98975333D02*
X122842500Y-99008666D01*
X122675833Y-99008666D01*
X122609166Y-98975333D01*
X122575833Y-98908666D01*
X122575833Y-98842000D01*
X122609166Y-98775333D01*
X122675833Y-98742000D01*
X122842500Y-98742000D01*
X122909166Y-98708666D01*
X123242500Y-99008666D02*
X123242500Y-98308666D01*
X123242500Y-98575333D02*
X123309166Y-98542000D01*
X123442500Y-98542000D01*
X123509166Y-98575333D01*
X123542500Y-98608666D01*
X123575833Y-98675333D01*
X123575833Y-98875333D01*
X123542500Y-98942000D01*
X123509166Y-98975333D01*
X123442500Y-99008666D01*
X123309166Y-99008666D01*
X123242500Y-98975333D01*
X123975833Y-99008666D02*
X123909166Y-98975333D01*
X123875833Y-98908666D01*
X123875833Y-98308666D01*
X124509166Y-98975333D02*
X124442500Y-99008666D01*
X124309166Y-99008666D01*
X124242500Y-98975333D01*
X124209166Y-98908666D01*
X124209166Y-98642000D01*
X124242500Y-98575333D01*
X124309166Y-98542000D01*
X124442500Y-98542000D01*
X124509166Y-98575333D01*
X124542500Y-98642000D01*
X124542500Y-98708666D01*
X124209166Y-98775333D01*
X112442500Y-100208666D02*
X112442500Y-99508666D01*
X112675833Y-100008666D01*
X112909166Y-99508666D01*
X112909166Y-100208666D01*
X113475833Y-99842000D02*
X113575833Y-99875333D01*
X113609166Y-99908666D01*
X113642500Y-99975333D01*
X113642500Y-100075333D01*
X113609166Y-100142000D01*
X113575833Y-100175333D01*
X113509166Y-100208666D01*
X113242500Y-100208666D01*
X113242500Y-99508666D01*
X113475833Y-99508666D01*
X113542500Y-99542000D01*
X113575833Y-99575333D01*
X113609166Y-99642000D01*
X113609166Y-99708666D01*
X113575833Y-99775333D01*
X113542500Y-99808666D01*
X113475833Y-99842000D01*
X113242500Y-99842000D01*
X114475833Y-100208666D02*
X114475833Y-99508666D01*
X114475833Y-99775333D02*
X114542500Y-99742000D01*
X114675833Y-99742000D01*
X114742500Y-99775333D01*
X114775833Y-99808666D01*
X114809166Y-99875333D01*
X114809166Y-100075333D01*
X114775833Y-100142000D01*
X114742500Y-100175333D01*
X114675833Y-100208666D01*
X114542500Y-100208666D01*
X114475833Y-100175333D01*
X115109166Y-100208666D02*
X115109166Y-99742000D01*
X115109166Y-99875333D02*
X115142500Y-99808666D01*
X115175833Y-99775333D01*
X115242500Y-99742000D01*
X115309166Y-99742000D01*
X115809166Y-100175333D02*
X115742500Y-100208666D01*
X115609166Y-100208666D01*
X115542500Y-100175333D01*
X115509166Y-100108666D01*
X115509166Y-99842000D01*
X115542500Y-99775333D01*
X115609166Y-99742000D01*
X115742500Y-99742000D01*
X115809166Y-99775333D01*
X115842500Y-99842000D01*
X115842500Y-99908666D01*
X115509166Y-99975333D01*
X116442500Y-100208666D02*
X116442500Y-99842000D01*
X116409166Y-99775333D01*
X116342500Y-99742000D01*
X116209166Y-99742000D01*
X116142500Y-99775333D01*
X116442500Y-100175333D02*
X116375833Y-100208666D01*
X116209166Y-100208666D01*
X116142500Y-100175333D01*
X116109166Y-100108666D01*
X116109166Y-100042000D01*
X116142500Y-99975333D01*
X116209166Y-99942000D01*
X116375833Y-99942000D01*
X116442500Y-99908666D01*
X116775833Y-100208666D02*
X116775833Y-99508666D01*
X116842500Y-99942000D02*
X117042500Y-100208666D01*
X117042500Y-99742000D02*
X116775833Y-100008666D01*
X117642500Y-100208666D02*
X117642500Y-99508666D01*
X117642500Y-100175333D02*
X117575833Y-100208666D01*
X117442500Y-100208666D01*
X117375833Y-100175333D01*
X117342500Y-100142000D01*
X117309166Y-100075333D01*
X117309166Y-99875333D01*
X117342500Y-99808666D01*
X117375833Y-99775333D01*
X117442500Y-99742000D01*
X117575833Y-99742000D01*
X117642500Y-99775333D01*
X118075833Y-100208666D02*
X118009166Y-100175333D01*
X117975833Y-100142000D01*
X117942500Y-100075333D01*
X117942500Y-99875333D01*
X117975833Y-99808666D01*
X118009166Y-99775333D01*
X118075833Y-99742000D01*
X118175833Y-99742000D01*
X118242500Y-99775333D01*
X118275833Y-99808666D01*
X118309166Y-99875333D01*
X118309166Y-100075333D01*
X118275833Y-100142000D01*
X118242500Y-100175333D01*
X118175833Y-100208666D01*
X118075833Y-100208666D01*
X118542500Y-99742000D02*
X118675833Y-100208666D01*
X118809166Y-99875333D01*
X118942500Y-100208666D01*
X119075833Y-99742000D01*
X119342500Y-99742000D02*
X119342500Y-100208666D01*
X119342500Y-99808666D02*
X119375833Y-99775333D01*
X119442500Y-99742000D01*
X119542500Y-99742000D01*
X119609166Y-99775333D01*
X119642500Y-99842000D01*
X119642500Y-100208666D01*
X120509166Y-100208666D02*
X120509166Y-99508666D01*
X120509166Y-99775333D02*
X120575833Y-99742000D01*
X120709166Y-99742000D01*
X120775833Y-99775333D01*
X120809166Y-99808666D01*
X120842500Y-99875333D01*
X120842500Y-100075333D01*
X120809166Y-100142000D01*
X120775833Y-100175333D01*
X120709166Y-100208666D01*
X120575833Y-100208666D01*
X120509166Y-100175333D01*
X121242500Y-100208666D02*
X121175833Y-100175333D01*
X121142500Y-100142000D01*
X121109166Y-100075333D01*
X121109166Y-99875333D01*
X121142500Y-99808666D01*
X121175833Y-99775333D01*
X121242500Y-99742000D01*
X121342500Y-99742000D01*
X121409166Y-99775333D01*
X121442500Y-99808666D01*
X121475833Y-99875333D01*
X121475833Y-100075333D01*
X121442500Y-100142000D01*
X121409166Y-100175333D01*
X121342500Y-100208666D01*
X121242500Y-100208666D01*
X122075833Y-100208666D02*
X122075833Y-99842000D01*
X122042500Y-99775333D01*
X121975833Y-99742000D01*
X121842500Y-99742000D01*
X121775833Y-99775333D01*
X122075833Y-100175333D02*
X122009166Y-100208666D01*
X121842500Y-100208666D01*
X121775833Y-100175333D01*
X121742500Y-100108666D01*
X121742500Y-100042000D01*
X121775833Y-99975333D01*
X121842500Y-99942000D01*
X122009166Y-99942000D01*
X122075833Y-99908666D01*
X122409166Y-100208666D02*
X122409166Y-99742000D01*
X122409166Y-99875333D02*
X122442500Y-99808666D01*
X122475833Y-99775333D01*
X122542500Y-99742000D01*
X122609166Y-99742000D01*
X123142500Y-100208666D02*
X123142500Y-99508666D01*
X123142500Y-100175333D02*
X123075833Y-100208666D01*
X122942500Y-100208666D01*
X122875833Y-100175333D01*
X122842500Y-100142000D01*
X122809166Y-100075333D01*
X122809166Y-99875333D01*
X122842500Y-99808666D01*
X122875833Y-99775333D01*
X122942500Y-99742000D01*
X123075833Y-99742000D01*
X123142500Y-99775333D01*
X114442500Y-100708666D02*
X114609166Y-101408666D01*
X114742500Y-100908666D01*
X114875833Y-101408666D01*
X115042500Y-100708666D01*
X115309166Y-101408666D02*
X115309166Y-100942000D01*
X115309166Y-100708666D02*
X115275833Y-100742000D01*
X115309166Y-100775333D01*
X115342500Y-100742000D01*
X115309166Y-100708666D01*
X115309166Y-100775333D01*
X115542500Y-100942000D02*
X115809166Y-100942000D01*
X115642500Y-100708666D02*
X115642500Y-101308666D01*
X115675833Y-101375333D01*
X115742500Y-101408666D01*
X115809166Y-101408666D01*
X116042500Y-101408666D02*
X116042500Y-100708666D01*
X116342500Y-101408666D02*
X116342500Y-101042000D01*
X116309166Y-100975333D01*
X116242500Y-100942000D01*
X116142500Y-100942000D01*
X116075833Y-100975333D01*
X116042500Y-101008666D01*
X117209166Y-101042000D02*
X117442500Y-101042000D01*
X117542500Y-101408666D02*
X117209166Y-101408666D01*
X117209166Y-100708666D01*
X117542500Y-100708666D01*
X117842500Y-101042000D02*
X118075833Y-101042000D01*
X118175833Y-101408666D02*
X117842500Y-101408666D01*
X117842500Y-100708666D01*
X118175833Y-100708666D01*
X118475833Y-101408666D02*
X118475833Y-100708666D01*
X118742500Y-100708666D01*
X118809166Y-100742000D01*
X118842500Y-100775333D01*
X118875833Y-100842000D01*
X118875833Y-100942000D01*
X118842500Y-101008666D01*
X118809166Y-101042000D01*
X118742500Y-101075333D01*
X118475833Y-101075333D01*
X119575833Y-101408666D02*
X119342500Y-101075333D01*
X119175833Y-101408666D02*
X119175833Y-100708666D01*
X119442500Y-100708666D01*
X119509166Y-100742000D01*
X119542500Y-100775333D01*
X119575833Y-100842000D01*
X119575833Y-100942000D01*
X119542500Y-101008666D01*
X119509166Y-101042000D01*
X119442500Y-101075333D01*
X119175833Y-101075333D01*
X120009166Y-100708666D02*
X120142500Y-100708666D01*
X120209166Y-100742000D01*
X120275833Y-100808666D01*
X120309166Y-100942000D01*
X120309166Y-101175333D01*
X120275833Y-101308666D01*
X120209166Y-101375333D01*
X120142500Y-101408666D01*
X120009166Y-101408666D01*
X119942500Y-101375333D01*
X119875833Y-101308666D01*
X119842500Y-101175333D01*
X119842500Y-100942000D01*
X119875833Y-100808666D01*
X119942500Y-100742000D01*
X120009166Y-100708666D01*
X120609166Y-101408666D02*
X120609166Y-100708666D01*
X120842500Y-101208666D01*
X121075833Y-100708666D01*
X121075833Y-101408666D01*
X116725833Y-101908666D02*
X116959166Y-102608666D01*
X117192500Y-101908666D01*
X117792500Y-102608666D02*
X117392500Y-102608666D01*
X117592500Y-102608666D02*
X117592500Y-101908666D01*
X117525833Y-102008666D01*
X117459166Y-102075333D01*
X117392500Y-102108666D01*
X118092500Y-102542000D02*
X118125833Y-102575333D01*
X118092500Y-102608666D01*
X118059166Y-102575333D01*
X118092500Y-102542000D01*
X118092500Y-102608666D01*
X118792500Y-102608666D02*
X118392500Y-102608666D01*
X118592500Y-102608666D02*
X118592500Y-101908666D01*
X118525833Y-102008666D01*
X118459166Y-102075333D01*
X118392500Y-102108666D01*
X114925833Y-103808666D02*
X114525833Y-103808666D01*
X114725833Y-103808666D02*
X114725833Y-103108666D01*
X114659166Y-103208666D01*
X114592500Y-103275333D01*
X114525833Y-103308666D01*
X115525833Y-103342000D02*
X115525833Y-103808666D01*
X115359166Y-103075333D02*
X115192500Y-103575333D01*
X115625833Y-103575333D01*
X116392500Y-103075333D02*
X115792500Y-103975333D01*
X116992500Y-103808666D02*
X116592500Y-103808666D01*
X116792500Y-103808666D02*
X116792500Y-103108666D01*
X116725833Y-103208666D01*
X116659166Y-103275333D01*
X116592500Y-103308666D01*
X117425833Y-103108666D02*
X117492500Y-103108666D01*
X117559166Y-103142000D01*
X117592500Y-103175333D01*
X117625833Y-103242000D01*
X117659166Y-103375333D01*
X117659166Y-103542000D01*
X117625833Y-103675333D01*
X117592500Y-103742000D01*
X117559166Y-103775333D01*
X117492500Y-103808666D01*
X117425833Y-103808666D01*
X117359166Y-103775333D01*
X117325833Y-103742000D01*
X117292500Y-103675333D01*
X117259166Y-103542000D01*
X117259166Y-103375333D01*
X117292500Y-103242000D01*
X117325833Y-103175333D01*
X117359166Y-103142000D01*
X117425833Y-103108666D01*
X118459166Y-103075333D02*
X117859166Y-103975333D01*
X118659166Y-103175333D02*
X118692500Y-103142000D01*
X118759166Y-103108666D01*
X118925833Y-103108666D01*
X118992500Y-103142000D01*
X119025833Y-103175333D01*
X119059166Y-103242000D01*
X119059166Y-103308666D01*
X119025833Y-103408666D01*
X118625833Y-103808666D01*
X119059166Y-103808666D01*
X119492500Y-103108666D02*
X119559166Y-103108666D01*
X119625833Y-103142000D01*
X119659166Y-103175333D01*
X119692500Y-103242000D01*
X119725833Y-103375333D01*
X119725833Y-103542000D01*
X119692500Y-103675333D01*
X119659166Y-103742000D01*
X119625833Y-103775333D01*
X119559166Y-103808666D01*
X119492500Y-103808666D01*
X119425833Y-103775333D01*
X119392500Y-103742000D01*
X119359166Y-103675333D01*
X119325833Y-103542000D01*
X119325833Y-103375333D01*
X119359166Y-103242000D01*
X119392500Y-103175333D01*
X119425833Y-103142000D01*
X119492500Y-103108666D01*
X120392500Y-103808666D02*
X119992500Y-103808666D01*
X120192500Y-103808666D02*
X120192500Y-103108666D01*
X120125833Y-103208666D01*
X120059166Y-103275333D01*
X119992500Y-103308666D01*
X120725833Y-103808666D02*
X120859166Y-103808666D01*
X120925833Y-103775333D01*
X120959166Y-103742000D01*
X121025833Y-103642000D01*
X121059166Y-103508666D01*
X121059166Y-103242000D01*
X121025833Y-103175333D01*
X120992500Y-103142000D01*
X120925833Y-103108666D01*
X120792500Y-103108666D01*
X120725833Y-103142000D01*
X120692500Y-103175333D01*
X120659166Y-103242000D01*
X120659166Y-103408666D01*
X120692500Y-103475333D01*
X120725833Y-103508666D01*
X120792500Y-103542000D01*
X120925833Y-103542000D01*
X120992500Y-103508666D01*
X121025833Y-103475333D01*
X121059166Y-103408666D01*
X129285714Y-88952380D02*
X128714285Y-88952380D01*
X129000000Y-88952380D02*
X129000000Y-87952380D01*
X128904761Y-88095238D01*
X128809523Y-88190476D01*
X128714285Y-88238095D01*
X118190476Y-88285714D02*
X118190476Y-88952380D01*
X117952380Y-87904761D02*
X117714285Y-88619047D01*
X118333333Y-88619047D01*
X118190476Y-96285714D02*
X118190476Y-96952380D01*
X117952380Y-95904761D02*
X117714285Y-96619047D01*
X118333333Y-96619047D01*
X128428714Y-96972380D02*
X127857285Y-96972380D01*
X128143000Y-96972380D02*
X128143000Y-95972380D01*
X128047761Y-96115238D01*
X127952523Y-96210476D01*
X127857285Y-96258095D01*
X130800000Y-90758166D02*
X130400000Y-90758166D01*
X130600000Y-90758166D02*
X130600000Y-90058166D01*
X130533333Y-90158166D01*
X130466666Y-90224833D01*
X130400000Y-90258166D01*
X131400000Y-90058166D02*
X131266666Y-90058166D01*
X131200000Y-90091500D01*
X131166666Y-90124833D01*
X131100000Y-90224833D01*
X131066666Y-90358166D01*
X131066666Y-90624833D01*
X131100000Y-90691500D01*
X131133333Y-90724833D01*
X131200000Y-90758166D01*
X131333333Y-90758166D01*
X131400000Y-90724833D01*
X131433333Y-90691500D01*
X131466666Y-90624833D01*
X131466666Y-90458166D01*
X131433333Y-90391500D01*
X131400000Y-90358166D01*
X131333333Y-90324833D01*
X131200000Y-90324833D01*
X131133333Y-90358166D01*
X131100000Y-90391500D01*
X131066666Y-90458166D01*
X131966666Y-91024833D02*
X131933333Y-90991500D01*
X131866666Y-90891500D01*
X131833333Y-90824833D01*
X131800000Y-90724833D01*
X131766666Y-90558166D01*
X131766666Y-90424833D01*
X131800000Y-90258166D01*
X131833333Y-90158166D01*
X131866666Y-90091500D01*
X131933333Y-89991500D01*
X131966666Y-89958166D01*
X132600000Y-90758166D02*
X132200000Y-90758166D01*
X132400000Y-90758166D02*
X132400000Y-90058166D01*
X132333333Y-90158166D01*
X132266666Y-90224833D01*
X132200000Y-90258166D01*
X132833333Y-91024833D02*
X132866666Y-90991500D01*
X132933333Y-90891500D01*
X132966666Y-90824833D01*
X133000000Y-90724833D01*
X133033333Y-90558166D01*
X133033333Y-90424833D01*
X133000000Y-90258166D01*
X132966666Y-90158166D01*
X132933333Y-90091500D01*
X132866666Y-89991500D01*
X132833333Y-89958166D01*
X130800000Y-88218166D02*
X130400000Y-88218166D01*
X130600000Y-88218166D02*
X130600000Y-87518166D01*
X130533333Y-87618166D01*
X130466666Y-87684833D01*
X130400000Y-87718166D01*
X131433333Y-87518166D02*
X131100000Y-87518166D01*
X131066666Y-87851500D01*
X131100000Y-87818166D01*
X131166666Y-87784833D01*
X131333333Y-87784833D01*
X131400000Y-87818166D01*
X131433333Y-87851500D01*
X131466666Y-87918166D01*
X131466666Y-88084833D01*
X131433333Y-88151500D01*
X131400000Y-88184833D01*
X131333333Y-88218166D01*
X131166666Y-88218166D01*
X131100000Y-88184833D01*
X131066666Y-88151500D01*
X131966666Y-88484833D02*
X131933333Y-88451500D01*
X131866666Y-88351500D01*
X131833333Y-88284833D01*
X131800000Y-88184833D01*
X131766666Y-88018166D01*
X131766666Y-87884833D01*
X131800000Y-87718166D01*
X131833333Y-87618166D01*
X131866666Y-87551500D01*
X131933333Y-87451500D01*
X131966666Y-87418166D01*
X132200000Y-87584833D02*
X132233333Y-87551500D01*
X132300000Y-87518166D01*
X132466666Y-87518166D01*
X132533333Y-87551500D01*
X132566666Y-87584833D01*
X132600000Y-87651500D01*
X132600000Y-87718166D01*
X132566666Y-87818166D01*
X132166666Y-88218166D01*
X132600000Y-88218166D01*
X132833333Y-88484833D02*
X132866666Y-88451500D01*
X132933333Y-88351500D01*
X132966666Y-88284833D01*
X133000000Y-88184833D01*
X133033333Y-88018166D01*
X133033333Y-87884833D01*
X133000000Y-87718166D01*
X132966666Y-87618166D01*
X132933333Y-87551500D01*
X132866666Y-87451500D01*
X132833333Y-87418166D01*
X130800000Y-85678166D02*
X130400000Y-85678166D01*
X130600000Y-85678166D02*
X130600000Y-84978166D01*
X130533333Y-85078166D01*
X130466666Y-85144833D01*
X130400000Y-85178166D01*
X131400000Y-85211500D02*
X131400000Y-85678166D01*
X131233333Y-84944833D02*
X131066666Y-85444833D01*
X131500000Y-85444833D01*
X131966666Y-85944833D02*
X131933333Y-85911500D01*
X131866666Y-85811500D01*
X131833333Y-85744833D01*
X131800000Y-85644833D01*
X131766666Y-85478166D01*
X131766666Y-85344833D01*
X131800000Y-85178166D01*
X131833333Y-85078166D01*
X131866666Y-85011500D01*
X131933333Y-84911500D01*
X131966666Y-84878166D01*
X132166666Y-84978166D02*
X132600000Y-84978166D01*
X132366666Y-85244833D01*
X132466666Y-85244833D01*
X132533333Y-85278166D01*
X132566666Y-85311500D01*
X132600000Y-85378166D01*
X132600000Y-85544833D01*
X132566666Y-85611500D01*
X132533333Y-85644833D01*
X132466666Y-85678166D01*
X132266666Y-85678166D01*
X132200000Y-85644833D01*
X132166666Y-85611500D01*
X132833333Y-85944833D02*
X132866666Y-85911500D01*
X132933333Y-85811500D01*
X132966666Y-85744833D01*
X133000000Y-85644833D01*
X133033333Y-85478166D01*
X133033333Y-85344833D01*
X133000000Y-85178166D01*
X132966666Y-85078166D01*
X132933333Y-85011500D01*
X132866666Y-84911500D01*
X132833333Y-84878166D01*
X130800000Y-83138166D02*
X130400000Y-83138166D01*
X130600000Y-83138166D02*
X130600000Y-82438166D01*
X130533333Y-82538166D01*
X130466666Y-82604833D01*
X130400000Y-82638166D01*
X131033333Y-82438166D02*
X131466666Y-82438166D01*
X131233333Y-82704833D01*
X131333333Y-82704833D01*
X131400000Y-82738166D01*
X131433333Y-82771500D01*
X131466666Y-82838166D01*
X131466666Y-83004833D01*
X131433333Y-83071500D01*
X131400000Y-83104833D01*
X131333333Y-83138166D01*
X131133333Y-83138166D01*
X131066666Y-83104833D01*
X131033333Y-83071500D01*
X131966666Y-83404833D02*
X131933333Y-83371500D01*
X131866666Y-83271500D01*
X131833333Y-83204833D01*
X131800000Y-83104833D01*
X131766666Y-82938166D01*
X131766666Y-82804833D01*
X131800000Y-82638166D01*
X131833333Y-82538166D01*
X131866666Y-82471500D01*
X131933333Y-82371500D01*
X131966666Y-82338166D01*
X132533333Y-82671500D02*
X132533333Y-83138166D01*
X132366666Y-82404833D02*
X132200000Y-82904833D01*
X132633333Y-82904833D01*
X132833333Y-83404833D02*
X132866666Y-83371500D01*
X132933333Y-83271500D01*
X132966666Y-83204833D01*
X133000000Y-83104833D01*
X133033333Y-82938166D01*
X133033333Y-82804833D01*
X133000000Y-82638166D01*
X132966666Y-82538166D01*
X132933333Y-82471500D01*
X132866666Y-82371500D01*
X132833333Y-82338166D01*
D12*
G36*
X109958910Y-92365348D02*
G01*
X110037454Y-92365778D01*
X110094298Y-92366942D01*
X110133105Y-92369207D01*
X110157538Y-92372940D01*
X110171262Y-92378506D01*
X110177940Y-92386273D01*
X110181236Y-92396605D01*
X110181556Y-92397943D01*
X110186562Y-92422079D01*
X110195829Y-92469701D01*
X110208392Y-92535741D01*
X110223287Y-92615128D01*
X110239551Y-92702796D01*
X110240119Y-92705875D01*
X110256410Y-92791789D01*
X110271652Y-92867696D01*
X110284861Y-92929045D01*
X110295054Y-92971282D01*
X110301248Y-92989855D01*
X110301543Y-92990184D01*
X110319788Y-92999253D01*
X110357405Y-93014367D01*
X110406271Y-93032262D01*
X110406543Y-93032358D01*
X110468093Y-93055493D01*
X110540657Y-93084965D01*
X110609057Y-93114597D01*
X110612294Y-93116062D01*
X110723702Y-93166626D01*
X110970399Y-92998160D01*
X111046077Y-92946803D01*
X111114631Y-92900889D01*
X111172088Y-92863030D01*
X111214476Y-92835837D01*
X111237825Y-92821921D01*
X111240042Y-92820889D01*
X111257010Y-92825484D01*
X111288701Y-92847655D01*
X111336352Y-92888447D01*
X111401198Y-92948905D01*
X111467397Y-93013227D01*
X111531214Y-93076612D01*
X111588329Y-93134451D01*
X111635305Y-93183175D01*
X111668703Y-93219210D01*
X111685085Y-93238984D01*
X111685694Y-93240002D01*
X111687505Y-93253572D01*
X111680683Y-93275733D01*
X111663540Y-93309478D01*
X111634393Y-93357800D01*
X111591555Y-93423692D01*
X111534448Y-93508517D01*
X111483766Y-93583177D01*
X111438461Y-93650140D01*
X111401150Y-93705516D01*
X111374452Y-93745420D01*
X111360985Y-93765962D01*
X111360137Y-93767356D01*
X111361781Y-93787038D01*
X111374245Y-93825293D01*
X111395048Y-93874889D01*
X111402462Y-93890728D01*
X111434814Y-93961290D01*
X111469328Y-94041353D01*
X111497365Y-94110629D01*
X111517568Y-94162045D01*
X111533615Y-94201119D01*
X111542888Y-94221541D01*
X111544041Y-94223114D01*
X111561096Y-94225721D01*
X111601298Y-94232863D01*
X111659302Y-94243523D01*
X111729763Y-94256685D01*
X111807335Y-94271333D01*
X111886672Y-94286449D01*
X111962431Y-94301018D01*
X112029264Y-94314022D01*
X112081828Y-94324445D01*
X112114776Y-94331270D01*
X112122857Y-94333199D01*
X112131205Y-94337962D01*
X112137506Y-94348718D01*
X112142045Y-94369098D01*
X112145104Y-94402734D01*
X112146967Y-94453255D01*
X112147918Y-94524292D01*
X112148240Y-94619476D01*
X112148257Y-94658492D01*
X112148257Y-94975799D01*
X112072057Y-94990839D01*
X112029663Y-94998995D01*
X111966400Y-95010899D01*
X111889962Y-95025116D01*
X111808043Y-95040210D01*
X111785400Y-95044355D01*
X111709806Y-95059053D01*
X111643953Y-95073505D01*
X111593366Y-95086375D01*
X111563574Y-95096322D01*
X111558612Y-95099287D01*
X111546426Y-95120283D01*
X111528953Y-95160967D01*
X111509577Y-95213322D01*
X111505734Y-95224600D01*
X111480339Y-95294523D01*
X111448817Y-95373418D01*
X111417969Y-95444266D01*
X111417817Y-95444595D01*
X111366447Y-95555733D01*
X111535399Y-95804253D01*
X111704352Y-96052772D01*
X111487429Y-96270058D01*
X111421819Y-96334726D01*
X111361979Y-96391733D01*
X111311267Y-96438033D01*
X111273046Y-96470584D01*
X111250675Y-96486343D01*
X111247466Y-96487343D01*
X111228626Y-96479469D01*
X111190180Y-96457578D01*
X111136330Y-96424267D01*
X111071276Y-96382131D01*
X111000940Y-96334943D01*
X110929555Y-96286810D01*
X110865908Y-96244928D01*
X110814041Y-96211871D01*
X110777995Y-96190218D01*
X110761867Y-96182543D01*
X110742189Y-96189037D01*
X110704875Y-96206150D01*
X110657621Y-96230326D01*
X110652612Y-96233013D01*
X110588977Y-96264927D01*
X110545341Y-96280579D01*
X110518202Y-96280745D01*
X110504057Y-96266204D01*
X110503975Y-96266000D01*
X110496905Y-96248779D01*
X110480042Y-96207899D01*
X110454695Y-96146525D01*
X110422171Y-96067819D01*
X110383778Y-95974947D01*
X110340822Y-95871072D01*
X110299222Y-95770502D01*
X110253504Y-95659516D01*
X110211526Y-95556703D01*
X110174548Y-95465215D01*
X110143827Y-95388201D01*
X110120622Y-95328815D01*
X110106190Y-95290209D01*
X110101743Y-95275800D01*
X110112896Y-95259272D01*
X110142069Y-95232930D01*
X110180971Y-95203887D01*
X110291757Y-95112039D01*
X110378351Y-95006759D01*
X110439716Y-94890266D01*
X110474815Y-94764776D01*
X110482608Y-94632507D01*
X110476943Y-94571457D01*
X110446078Y-94444795D01*
X110392920Y-94332941D01*
X110320767Y-94237001D01*
X110232917Y-94158076D01*
X110132665Y-94097270D01*
X110023310Y-94055687D01*
X109908147Y-94034428D01*
X109790475Y-94034599D01*
X109673590Y-94057301D01*
X109560789Y-94103638D01*
X109455369Y-94174713D01*
X109411368Y-94214911D01*
X109326979Y-94318129D01*
X109268222Y-94430925D01*
X109234704Y-94550010D01*
X109226035Y-94672095D01*
X109241823Y-94793893D01*
X109281678Y-94912116D01*
X109345207Y-95023475D01*
X109432021Y-95124684D01*
X109529029Y-95203887D01*
X109569437Y-95234162D01*
X109597982Y-95260219D01*
X109608257Y-95275825D01*
X109602877Y-95292843D01*
X109587575Y-95333500D01*
X109563612Y-95394642D01*
X109532244Y-95473119D01*
X109494732Y-95565780D01*
X109452333Y-95669472D01*
X109410663Y-95770526D01*
X109364690Y-95881607D01*
X109322107Y-95984541D01*
X109284221Y-96076165D01*
X109252340Y-96153316D01*
X109227771Y-96212831D01*
X109211820Y-96251544D01*
X109205910Y-96266000D01*
X109191948Y-96280685D01*
X109164940Y-96280642D01*
X109121413Y-96265099D01*
X109057890Y-96233284D01*
X109057388Y-96233013D01*
X109009560Y-96208323D01*
X108970897Y-96190338D01*
X108949095Y-96182614D01*
X108948133Y-96182543D01*
X108931721Y-96190378D01*
X108895487Y-96212165D01*
X108843474Y-96245328D01*
X108779725Y-96287291D01*
X108709060Y-96334943D01*
X108637116Y-96383191D01*
X108572274Y-96425151D01*
X108518735Y-96458227D01*
X108480697Y-96479821D01*
X108462533Y-96487343D01*
X108445808Y-96477457D01*
X108412180Y-96449826D01*
X108365010Y-96407495D01*
X108307658Y-96353505D01*
X108243484Y-96290899D01*
X108222497Y-96269983D01*
X108005499Y-96052623D01*
X108170668Y-95810220D01*
X108220864Y-95735781D01*
X108264919Y-95668972D01*
X108300362Y-95613665D01*
X108324719Y-95573729D01*
X108335522Y-95553036D01*
X108335838Y-95551563D01*
X108330143Y-95532058D01*
X108314826Y-95492822D01*
X108292537Y-95440430D01*
X108276893Y-95405355D01*
X108247641Y-95338201D01*
X108220094Y-95270358D01*
X108198737Y-95213034D01*
X108192935Y-95195572D01*
X108176452Y-95148938D01*
X108160340Y-95112905D01*
X108151490Y-95099287D01*
X108131960Y-95090952D01*
X108089334Y-95079137D01*
X108029145Y-95065181D01*
X107956922Y-95050422D01*
X107924600Y-95044355D01*
X107842522Y-95029273D01*
X107763795Y-95014669D01*
X107696109Y-95001980D01*
X107647160Y-94992642D01*
X107637943Y-94990839D01*
X107561743Y-94975799D01*
X107561743Y-94658492D01*
X107561914Y-94554154D01*
X107562616Y-94475213D01*
X107564134Y-94418038D01*
X107566749Y-94378999D01*
X107570746Y-94354465D01*
X107576409Y-94340805D01*
X107584020Y-94334389D01*
X107587143Y-94333199D01*
X107605978Y-94328980D01*
X107647588Y-94320562D01*
X107706630Y-94308961D01*
X107777757Y-94295195D01*
X107855625Y-94280280D01*
X107934887Y-94265232D01*
X108010198Y-94251069D01*
X108076213Y-94238806D01*
X108127587Y-94229461D01*
X108158975Y-94224050D01*
X108165959Y-94223114D01*
X108172285Y-94210596D01*
X108186290Y-94177246D01*
X108205355Y-94129377D01*
X108212634Y-94110629D01*
X108241996Y-94038195D01*
X108276571Y-93958170D01*
X108307537Y-93890728D01*
X108330323Y-93839159D01*
X108345482Y-93796785D01*
X108350542Y-93770834D01*
X108349736Y-93767356D01*
X108339041Y-93750936D01*
X108314620Y-93714417D01*
X108279095Y-93661687D01*
X108235087Y-93596635D01*
X108185217Y-93523151D01*
X108175356Y-93508645D01*
X108117492Y-93422704D01*
X108074956Y-93357261D01*
X108046054Y-93309304D01*
X108029090Y-93275820D01*
X108022367Y-93253795D01*
X108024190Y-93240217D01*
X108024236Y-93240131D01*
X108038586Y-93222297D01*
X108070323Y-93187817D01*
X108116010Y-93140268D01*
X108172204Y-93083222D01*
X108235468Y-93020255D01*
X108242602Y-93013227D01*
X108322330Y-92936020D01*
X108383857Y-92879330D01*
X108428421Y-92842110D01*
X108457257Y-92823315D01*
X108469958Y-92820889D01*
X108488494Y-92831471D01*
X108526961Y-92855916D01*
X108581386Y-92891612D01*
X108647798Y-92935947D01*
X108722225Y-92986311D01*
X108739601Y-92998160D01*
X108986297Y-93166626D01*
X109097706Y-93116062D01*
X109165457Y-93086595D01*
X109238183Y-93056959D01*
X109300703Y-93033330D01*
X109303457Y-93032358D01*
X109352360Y-93014457D01*
X109390057Y-92999320D01*
X109408425Y-92990210D01*
X109408456Y-92990184D01*
X109414285Y-92973717D01*
X109424192Y-92933219D01*
X109437195Y-92873242D01*
X109452309Y-92798340D01*
X109468552Y-92713064D01*
X109469881Y-92705875D01*
X109486175Y-92618014D01*
X109501133Y-92538260D01*
X109513791Y-92471681D01*
X109523186Y-92423347D01*
X109528354Y-92398325D01*
X109528444Y-92397943D01*
X109531589Y-92387299D01*
X109537704Y-92379262D01*
X109550453Y-92373467D01*
X109573500Y-92369547D01*
X109610509Y-92367135D01*
X109665144Y-92365865D01*
X109741067Y-92365371D01*
X109841944Y-92365286D01*
X109855000Y-92365286D01*
X109958910Y-92365348D01*
X109958910Y-92365348D01*
G37*
X109958910Y-92365348D02*
X110037454Y-92365778D01*
X110094298Y-92366942D01*
X110133105Y-92369207D01*
X110157538Y-92372940D01*
X110171262Y-92378506D01*
X110177940Y-92386273D01*
X110181236Y-92396605D01*
X110181556Y-92397943D01*
X110186562Y-92422079D01*
X110195829Y-92469701D01*
X110208392Y-92535741D01*
X110223287Y-92615128D01*
X110239551Y-92702796D01*
X110240119Y-92705875D01*
X110256410Y-92791789D01*
X110271652Y-92867696D01*
X110284861Y-92929045D01*
X110295054Y-92971282D01*
X110301248Y-92989855D01*
X110301543Y-92990184D01*
X110319788Y-92999253D01*
X110357405Y-93014367D01*
X110406271Y-93032262D01*
X110406543Y-93032358D01*
X110468093Y-93055493D01*
X110540657Y-93084965D01*
X110609057Y-93114597D01*
X110612294Y-93116062D01*
X110723702Y-93166626D01*
X110970399Y-92998160D01*
X111046077Y-92946803D01*
X111114631Y-92900889D01*
X111172088Y-92863030D01*
X111214476Y-92835837D01*
X111237825Y-92821921D01*
X111240042Y-92820889D01*
X111257010Y-92825484D01*
X111288701Y-92847655D01*
X111336352Y-92888447D01*
X111401198Y-92948905D01*
X111467397Y-93013227D01*
X111531214Y-93076612D01*
X111588329Y-93134451D01*
X111635305Y-93183175D01*
X111668703Y-93219210D01*
X111685085Y-93238984D01*
X111685694Y-93240002D01*
X111687505Y-93253572D01*
X111680683Y-93275733D01*
X111663540Y-93309478D01*
X111634393Y-93357800D01*
X111591555Y-93423692D01*
X111534448Y-93508517D01*
X111483766Y-93583177D01*
X111438461Y-93650140D01*
X111401150Y-93705516D01*
X111374452Y-93745420D01*
X111360985Y-93765962D01*
X111360137Y-93767356D01*
X111361781Y-93787038D01*
X111374245Y-93825293D01*
X111395048Y-93874889D01*
X111402462Y-93890728D01*
X111434814Y-93961290D01*
X111469328Y-94041353D01*
X111497365Y-94110629D01*
X111517568Y-94162045D01*
X111533615Y-94201119D01*
X111542888Y-94221541D01*
X111544041Y-94223114D01*
X111561096Y-94225721D01*
X111601298Y-94232863D01*
X111659302Y-94243523D01*
X111729763Y-94256685D01*
X111807335Y-94271333D01*
X111886672Y-94286449D01*
X111962431Y-94301018D01*
X112029264Y-94314022D01*
X112081828Y-94324445D01*
X112114776Y-94331270D01*
X112122857Y-94333199D01*
X112131205Y-94337962D01*
X112137506Y-94348718D01*
X112142045Y-94369098D01*
X112145104Y-94402734D01*
X112146967Y-94453255D01*
X112147918Y-94524292D01*
X112148240Y-94619476D01*
X112148257Y-94658492D01*
X112148257Y-94975799D01*
X112072057Y-94990839D01*
X112029663Y-94998995D01*
X111966400Y-95010899D01*
X111889962Y-95025116D01*
X111808043Y-95040210D01*
X111785400Y-95044355D01*
X111709806Y-95059053D01*
X111643953Y-95073505D01*
X111593366Y-95086375D01*
X111563574Y-95096322D01*
X111558612Y-95099287D01*
X111546426Y-95120283D01*
X111528953Y-95160967D01*
X111509577Y-95213322D01*
X111505734Y-95224600D01*
X111480339Y-95294523D01*
X111448817Y-95373418D01*
X111417969Y-95444266D01*
X111417817Y-95444595D01*
X111366447Y-95555733D01*
X111535399Y-95804253D01*
X111704352Y-96052772D01*
X111487429Y-96270058D01*
X111421819Y-96334726D01*
X111361979Y-96391733D01*
X111311267Y-96438033D01*
X111273046Y-96470584D01*
X111250675Y-96486343D01*
X111247466Y-96487343D01*
X111228626Y-96479469D01*
X111190180Y-96457578D01*
X111136330Y-96424267D01*
X111071276Y-96382131D01*
X111000940Y-96334943D01*
X110929555Y-96286810D01*
X110865908Y-96244928D01*
X110814041Y-96211871D01*
X110777995Y-96190218D01*
X110761867Y-96182543D01*
X110742189Y-96189037D01*
X110704875Y-96206150D01*
X110657621Y-96230326D01*
X110652612Y-96233013D01*
X110588977Y-96264927D01*
X110545341Y-96280579D01*
X110518202Y-96280745D01*
X110504057Y-96266204D01*
X110503975Y-96266000D01*
X110496905Y-96248779D01*
X110480042Y-96207899D01*
X110454695Y-96146525D01*
X110422171Y-96067819D01*
X110383778Y-95974947D01*
X110340822Y-95871072D01*
X110299222Y-95770502D01*
X110253504Y-95659516D01*
X110211526Y-95556703D01*
X110174548Y-95465215D01*
X110143827Y-95388201D01*
X110120622Y-95328815D01*
X110106190Y-95290209D01*
X110101743Y-95275800D01*
X110112896Y-95259272D01*
X110142069Y-95232930D01*
X110180971Y-95203887D01*
X110291757Y-95112039D01*
X110378351Y-95006759D01*
X110439716Y-94890266D01*
X110474815Y-94764776D01*
X110482608Y-94632507D01*
X110476943Y-94571457D01*
X110446078Y-94444795D01*
X110392920Y-94332941D01*
X110320767Y-94237001D01*
X110232917Y-94158076D01*
X110132665Y-94097270D01*
X110023310Y-94055687D01*
X109908147Y-94034428D01*
X109790475Y-94034599D01*
X109673590Y-94057301D01*
X109560789Y-94103638D01*
X109455369Y-94174713D01*
X109411368Y-94214911D01*
X109326979Y-94318129D01*
X109268222Y-94430925D01*
X109234704Y-94550010D01*
X109226035Y-94672095D01*
X109241823Y-94793893D01*
X109281678Y-94912116D01*
X109345207Y-95023475D01*
X109432021Y-95124684D01*
X109529029Y-95203887D01*
X109569437Y-95234162D01*
X109597982Y-95260219D01*
X109608257Y-95275825D01*
X109602877Y-95292843D01*
X109587575Y-95333500D01*
X109563612Y-95394642D01*
X109532244Y-95473119D01*
X109494732Y-95565780D01*
X109452333Y-95669472D01*
X109410663Y-95770526D01*
X109364690Y-95881607D01*
X109322107Y-95984541D01*
X109284221Y-96076165D01*
X109252340Y-96153316D01*
X109227771Y-96212831D01*
X109211820Y-96251544D01*
X109205910Y-96266000D01*
X109191948Y-96280685D01*
X109164940Y-96280642D01*
X109121413Y-96265099D01*
X109057890Y-96233284D01*
X109057388Y-96233013D01*
X109009560Y-96208323D01*
X108970897Y-96190338D01*
X108949095Y-96182614D01*
X108948133Y-96182543D01*
X108931721Y-96190378D01*
X108895487Y-96212165D01*
X108843474Y-96245328D01*
X108779725Y-96287291D01*
X108709060Y-96334943D01*
X108637116Y-96383191D01*
X108572274Y-96425151D01*
X108518735Y-96458227D01*
X108480697Y-96479821D01*
X108462533Y-96487343D01*
X108445808Y-96477457D01*
X108412180Y-96449826D01*
X108365010Y-96407495D01*
X108307658Y-96353505D01*
X108243484Y-96290899D01*
X108222497Y-96269983D01*
X108005499Y-96052623D01*
X108170668Y-95810220D01*
X108220864Y-95735781D01*
X108264919Y-95668972D01*
X108300362Y-95613665D01*
X108324719Y-95573729D01*
X108335522Y-95553036D01*
X108335838Y-95551563D01*
X108330143Y-95532058D01*
X108314826Y-95492822D01*
X108292537Y-95440430D01*
X108276893Y-95405355D01*
X108247641Y-95338201D01*
X108220094Y-95270358D01*
X108198737Y-95213034D01*
X108192935Y-95195572D01*
X108176452Y-95148938D01*
X108160340Y-95112905D01*
X108151490Y-95099287D01*
X108131960Y-95090952D01*
X108089334Y-95079137D01*
X108029145Y-95065181D01*
X107956922Y-95050422D01*
X107924600Y-95044355D01*
X107842522Y-95029273D01*
X107763795Y-95014669D01*
X107696109Y-95001980D01*
X107647160Y-94992642D01*
X107637943Y-94990839D01*
X107561743Y-94975799D01*
X107561743Y-94658492D01*
X107561914Y-94554154D01*
X107562616Y-94475213D01*
X107564134Y-94418038D01*
X107566749Y-94378999D01*
X107570746Y-94354465D01*
X107576409Y-94340805D01*
X107584020Y-94334389D01*
X107587143Y-94333199D01*
X107605978Y-94328980D01*
X107647588Y-94320562D01*
X107706630Y-94308961D01*
X107777757Y-94295195D01*
X107855625Y-94280280D01*
X107934887Y-94265232D01*
X108010198Y-94251069D01*
X108076213Y-94238806D01*
X108127587Y-94229461D01*
X108158975Y-94224050D01*
X108165959Y-94223114D01*
X108172285Y-94210596D01*
X108186290Y-94177246D01*
X108205355Y-94129377D01*
X108212634Y-94110629D01*
X108241996Y-94038195D01*
X108276571Y-93958170D01*
X108307537Y-93890728D01*
X108330323Y-93839159D01*
X108345482Y-93796785D01*
X108350542Y-93770834D01*
X108349736Y-93767356D01*
X108339041Y-93750936D01*
X108314620Y-93714417D01*
X108279095Y-93661687D01*
X108235087Y-93596635D01*
X108185217Y-93523151D01*
X108175356Y-93508645D01*
X108117492Y-93422704D01*
X108074956Y-93357261D01*
X108046054Y-93309304D01*
X108029090Y-93275820D01*
X108022367Y-93253795D01*
X108024190Y-93240217D01*
X108024236Y-93240131D01*
X108038586Y-93222297D01*
X108070323Y-93187817D01*
X108116010Y-93140268D01*
X108172204Y-93083222D01*
X108235468Y-93020255D01*
X108242602Y-93013227D01*
X108322330Y-92936020D01*
X108383857Y-92879330D01*
X108428421Y-92842110D01*
X108457257Y-92823315D01*
X108469958Y-92820889D01*
X108488494Y-92831471D01*
X108526961Y-92855916D01*
X108581386Y-92891612D01*
X108647798Y-92935947D01*
X108722225Y-92986311D01*
X108739601Y-92998160D01*
X108986297Y-93166626D01*
X109097706Y-93116062D01*
X109165457Y-93086595D01*
X109238183Y-93056959D01*
X109300703Y-93033330D01*
X109303457Y-93032358D01*
X109352360Y-93014457D01*
X109390057Y-92999320D01*
X109408425Y-92990210D01*
X109408456Y-92990184D01*
X109414285Y-92973717D01*
X109424192Y-92933219D01*
X109437195Y-92873242D01*
X109452309Y-92798340D01*
X109468552Y-92713064D01*
X109469881Y-92705875D01*
X109486175Y-92618014D01*
X109501133Y-92538260D01*
X109513791Y-92471681D01*
X109523186Y-92423347D01*
X109528354Y-92398325D01*
X109528444Y-92397943D01*
X109531589Y-92387299D01*
X109537704Y-92379262D01*
X109550453Y-92373467D01*
X109573500Y-92369547D01*
X109610509Y-92367135D01*
X109665144Y-92365865D01*
X109741067Y-92365371D01*
X109841944Y-92365286D01*
X109855000Y-92365286D01*
X109958910Y-92365348D01*
G36*
X113008595Y-97089966D02*
G01*
X113066021Y-97127497D01*
X113093719Y-97161096D01*
X113115662Y-97222064D01*
X113117405Y-97270308D01*
X113113457Y-97334816D01*
X112964686Y-97399934D01*
X112892349Y-97433202D01*
X112845084Y-97459964D01*
X112820507Y-97483144D01*
X112816237Y-97505667D01*
X112829889Y-97530455D01*
X112844943Y-97546886D01*
X112888746Y-97573235D01*
X112936389Y-97575081D01*
X112980145Y-97554546D01*
X113012289Y-97513752D01*
X113018038Y-97499347D01*
X113045576Y-97454356D01*
X113077258Y-97435182D01*
X113120714Y-97418779D01*
X113120714Y-97480966D01*
X113116872Y-97523283D01*
X113101823Y-97558969D01*
X113070280Y-97599943D01*
X113065592Y-97605267D01*
X113030506Y-97641720D01*
X113000347Y-97661283D01*
X112962615Y-97670283D01*
X112931335Y-97673230D01*
X112875385Y-97673965D01*
X112835555Y-97664660D01*
X112810708Y-97650846D01*
X112771656Y-97620467D01*
X112744625Y-97587613D01*
X112727517Y-97546294D01*
X112718238Y-97490521D01*
X112714693Y-97414305D01*
X112714410Y-97375622D01*
X112715372Y-97329247D01*
X112803007Y-97329247D01*
X112804023Y-97354126D01*
X112806556Y-97358200D01*
X112823274Y-97352665D01*
X112859249Y-97338017D01*
X112907331Y-97317190D01*
X112917386Y-97312714D01*
X112978152Y-97281814D01*
X113011632Y-97254657D01*
X113018990Y-97229220D01*
X113001391Y-97203481D01*
X112986856Y-97192109D01*
X112934410Y-97169364D01*
X112885322Y-97173122D01*
X112844227Y-97200884D01*
X112815758Y-97250152D01*
X112806631Y-97289257D01*
X112803007Y-97329247D01*
X112715372Y-97329247D01*
X112716285Y-97285249D01*
X112723196Y-97218384D01*
X112736884Y-97169695D01*
X112759096Y-97133849D01*
X112791574Y-97105513D01*
X112805733Y-97096355D01*
X112870053Y-97072507D01*
X112940473Y-97071006D01*
X113008595Y-97089966D01*
X113008595Y-97089966D01*
G37*
X113008595Y-97089966D02*
X113066021Y-97127497D01*
X113093719Y-97161096D01*
X113115662Y-97222064D01*
X113117405Y-97270308D01*
X113113457Y-97334816D01*
X112964686Y-97399934D01*
X112892349Y-97433202D01*
X112845084Y-97459964D01*
X112820507Y-97483144D01*
X112816237Y-97505667D01*
X112829889Y-97530455D01*
X112844943Y-97546886D01*
X112888746Y-97573235D01*
X112936389Y-97575081D01*
X112980145Y-97554546D01*
X113012289Y-97513752D01*
X113018038Y-97499347D01*
X113045576Y-97454356D01*
X113077258Y-97435182D01*
X113120714Y-97418779D01*
X113120714Y-97480966D01*
X113116872Y-97523283D01*
X113101823Y-97558969D01*
X113070280Y-97599943D01*
X113065592Y-97605267D01*
X113030506Y-97641720D01*
X113000347Y-97661283D01*
X112962615Y-97670283D01*
X112931335Y-97673230D01*
X112875385Y-97673965D01*
X112835555Y-97664660D01*
X112810708Y-97650846D01*
X112771656Y-97620467D01*
X112744625Y-97587613D01*
X112727517Y-97546294D01*
X112718238Y-97490521D01*
X112714693Y-97414305D01*
X112714410Y-97375622D01*
X112715372Y-97329247D01*
X112803007Y-97329247D01*
X112804023Y-97354126D01*
X112806556Y-97358200D01*
X112823274Y-97352665D01*
X112859249Y-97338017D01*
X112907331Y-97317190D01*
X112917386Y-97312714D01*
X112978152Y-97281814D01*
X113011632Y-97254657D01*
X113018990Y-97229220D01*
X113001391Y-97203481D01*
X112986856Y-97192109D01*
X112934410Y-97169364D01*
X112885322Y-97173122D01*
X112844227Y-97200884D01*
X112815758Y-97250152D01*
X112806631Y-97289257D01*
X112803007Y-97329247D01*
X112715372Y-97329247D01*
X112716285Y-97285249D01*
X112723196Y-97218384D01*
X112736884Y-97169695D01*
X112759096Y-97133849D01*
X112791574Y-97105513D01*
X112805733Y-97096355D01*
X112870053Y-97072507D01*
X112940473Y-97071006D01*
X113008595Y-97089966D01*
G36*
X112507600Y-97081752D02*
G01*
X112524948Y-97089334D01*
X112566356Y-97122128D01*
X112601765Y-97169547D01*
X112623664Y-97220151D01*
X112627229Y-97245098D01*
X112615279Y-97279927D01*
X112589067Y-97298357D01*
X112560964Y-97309516D01*
X112548095Y-97311572D01*
X112541829Y-97296649D01*
X112529456Y-97264175D01*
X112524028Y-97249502D01*
X112493590Y-97198744D01*
X112449520Y-97173427D01*
X112393010Y-97174206D01*
X112388825Y-97175203D01*
X112358655Y-97189507D01*
X112336476Y-97217393D01*
X112321327Y-97262287D01*
X112312250Y-97327615D01*
X112308286Y-97416804D01*
X112307914Y-97464261D01*
X112307730Y-97539071D01*
X112306522Y-97590069D01*
X112303309Y-97622471D01*
X112297109Y-97641495D01*
X112286940Y-97652356D01*
X112271819Y-97660272D01*
X112270946Y-97660670D01*
X112241828Y-97672981D01*
X112227403Y-97677514D01*
X112225186Y-97663809D01*
X112223289Y-97625925D01*
X112221847Y-97568715D01*
X112220998Y-97497027D01*
X112220829Y-97444565D01*
X112221692Y-97343047D01*
X112225070Y-97266032D01*
X112232142Y-97209023D01*
X112244088Y-97167526D01*
X112262090Y-97137043D01*
X112287327Y-97113080D01*
X112312247Y-97096355D01*
X112372171Y-97074097D01*
X112441911Y-97069076D01*
X112507600Y-97081752D01*
X112507600Y-97081752D01*
G37*
X112507600Y-97081752D02*
X112524948Y-97089334D01*
X112566356Y-97122128D01*
X112601765Y-97169547D01*
X112623664Y-97220151D01*
X112627229Y-97245098D01*
X112615279Y-97279927D01*
X112589067Y-97298357D01*
X112560964Y-97309516D01*
X112548095Y-97311572D01*
X112541829Y-97296649D01*
X112529456Y-97264175D01*
X112524028Y-97249502D01*
X112493590Y-97198744D01*
X112449520Y-97173427D01*
X112393010Y-97174206D01*
X112388825Y-97175203D01*
X112358655Y-97189507D01*
X112336476Y-97217393D01*
X112321327Y-97262287D01*
X112312250Y-97327615D01*
X112308286Y-97416804D01*
X112307914Y-97464261D01*
X112307730Y-97539071D01*
X112306522Y-97590069D01*
X112303309Y-97622471D01*
X112297109Y-97641495D01*
X112286940Y-97652356D01*
X112271819Y-97660272D01*
X112270946Y-97660670D01*
X112241828Y-97672981D01*
X112227403Y-97677514D01*
X112225186Y-97663809D01*
X112223289Y-97625925D01*
X112221847Y-97568715D01*
X112220998Y-97497027D01*
X112220829Y-97444565D01*
X112221692Y-97343047D01*
X112225070Y-97266032D01*
X112232142Y-97209023D01*
X112244088Y-97167526D01*
X112262090Y-97137043D01*
X112287327Y-97113080D01*
X112312247Y-97096355D01*
X112372171Y-97074097D01*
X112441911Y-97069076D01*
X112507600Y-97081752D01*
G36*
X111999876Y-97079335D02*
G01*
X112041667Y-97098344D01*
X112074469Y-97121378D01*
X112098503Y-97147133D01*
X112115097Y-97180358D01*
X112125577Y-97225800D01*
X112131271Y-97288207D01*
X112133507Y-97372327D01*
X112133743Y-97427721D01*
X112133743Y-97643826D01*
X112096774Y-97660670D01*
X112067656Y-97672981D01*
X112053231Y-97677514D01*
X112050472Y-97664025D01*
X112048282Y-97627653D01*
X112046942Y-97574542D01*
X112046657Y-97532372D01*
X112045434Y-97471447D01*
X112042136Y-97423115D01*
X112037321Y-97393518D01*
X112033496Y-97387229D01*
X112007783Y-97393652D01*
X111967418Y-97410125D01*
X111920679Y-97432458D01*
X111875845Y-97456457D01*
X111841193Y-97477930D01*
X111825002Y-97492685D01*
X111824938Y-97492845D01*
X111826330Y-97520152D01*
X111838818Y-97546219D01*
X111860743Y-97567392D01*
X111892743Y-97574474D01*
X111920092Y-97573649D01*
X111958826Y-97573042D01*
X111979158Y-97582116D01*
X111991369Y-97606092D01*
X111992909Y-97610613D01*
X111998203Y-97644806D01*
X111984047Y-97665568D01*
X111947148Y-97675462D01*
X111907289Y-97677292D01*
X111835562Y-97663727D01*
X111798432Y-97644355D01*
X111752576Y-97598845D01*
X111728256Y-97542983D01*
X111726073Y-97483957D01*
X111746629Y-97428953D01*
X111777549Y-97394486D01*
X111808420Y-97375189D01*
X111856942Y-97350759D01*
X111913485Y-97325985D01*
X111922910Y-97322199D01*
X111985019Y-97294791D01*
X112020822Y-97270634D01*
X112032337Y-97246619D01*
X112021580Y-97219635D01*
X112003114Y-97198543D01*
X111959469Y-97172572D01*
X111911446Y-97170624D01*
X111867406Y-97190637D01*
X111835709Y-97230551D01*
X111831549Y-97240848D01*
X111807327Y-97278724D01*
X111771965Y-97306842D01*
X111727343Y-97329917D01*
X111727343Y-97264485D01*
X111729969Y-97224506D01*
X111741230Y-97192997D01*
X111766199Y-97159378D01*
X111790169Y-97133484D01*
X111827441Y-97096817D01*
X111856401Y-97077121D01*
X111887505Y-97069220D01*
X111922713Y-97067914D01*
X111999876Y-97079335D01*
X111999876Y-97079335D01*
G37*
X111999876Y-97079335D02*
X112041667Y-97098344D01*
X112074469Y-97121378D01*
X112098503Y-97147133D01*
X112115097Y-97180358D01*
X112125577Y-97225800D01*
X112131271Y-97288207D01*
X112133507Y-97372327D01*
X112133743Y-97427721D01*
X112133743Y-97643826D01*
X112096774Y-97660670D01*
X112067656Y-97672981D01*
X112053231Y-97677514D01*
X112050472Y-97664025D01*
X112048282Y-97627653D01*
X112046942Y-97574542D01*
X112046657Y-97532372D01*
X112045434Y-97471447D01*
X112042136Y-97423115D01*
X112037321Y-97393518D01*
X112033496Y-97387229D01*
X112007783Y-97393652D01*
X111967418Y-97410125D01*
X111920679Y-97432458D01*
X111875845Y-97456457D01*
X111841193Y-97477930D01*
X111825002Y-97492685D01*
X111824938Y-97492845D01*
X111826330Y-97520152D01*
X111838818Y-97546219D01*
X111860743Y-97567392D01*
X111892743Y-97574474D01*
X111920092Y-97573649D01*
X111958826Y-97573042D01*
X111979158Y-97582116D01*
X111991369Y-97606092D01*
X111992909Y-97610613D01*
X111998203Y-97644806D01*
X111984047Y-97665568D01*
X111947148Y-97675462D01*
X111907289Y-97677292D01*
X111835562Y-97663727D01*
X111798432Y-97644355D01*
X111752576Y-97598845D01*
X111728256Y-97542983D01*
X111726073Y-97483957D01*
X111746629Y-97428953D01*
X111777549Y-97394486D01*
X111808420Y-97375189D01*
X111856942Y-97350759D01*
X111913485Y-97325985D01*
X111922910Y-97322199D01*
X111985019Y-97294791D01*
X112020822Y-97270634D01*
X112032337Y-97246619D01*
X112021580Y-97219635D01*
X112003114Y-97198543D01*
X111959469Y-97172572D01*
X111911446Y-97170624D01*
X111867406Y-97190637D01*
X111835709Y-97230551D01*
X111831549Y-97240848D01*
X111807327Y-97278724D01*
X111771965Y-97306842D01*
X111727343Y-97329917D01*
X111727343Y-97264485D01*
X111729969Y-97224506D01*
X111741230Y-97192997D01*
X111766199Y-97159378D01*
X111790169Y-97133484D01*
X111827441Y-97096817D01*
X111856401Y-97077121D01*
X111887505Y-97069220D01*
X111922713Y-97067914D01*
X111999876Y-97079335D01*
G36*
X111634833Y-97081663D02*
G01*
X111637048Y-97119850D01*
X111638784Y-97177886D01*
X111639899Y-97251180D01*
X111640257Y-97328055D01*
X111640257Y-97588196D01*
X111594326Y-97634127D01*
X111562675Y-97662429D01*
X111534890Y-97673893D01*
X111496915Y-97673168D01*
X111481840Y-97671321D01*
X111434726Y-97665948D01*
X111395756Y-97662869D01*
X111386257Y-97662585D01*
X111354233Y-97664445D01*
X111308432Y-97669114D01*
X111290674Y-97671321D01*
X111247057Y-97674735D01*
X111217745Y-97667320D01*
X111188680Y-97644427D01*
X111178188Y-97634127D01*
X111132257Y-97588196D01*
X111132257Y-97101602D01*
X111169226Y-97084758D01*
X111201059Y-97072282D01*
X111219683Y-97067914D01*
X111224458Y-97081718D01*
X111228921Y-97120286D01*
X111232775Y-97179356D01*
X111235722Y-97254663D01*
X111237143Y-97318286D01*
X111241114Y-97568657D01*
X111275759Y-97573556D01*
X111307268Y-97570131D01*
X111322708Y-97559041D01*
X111327023Y-97538308D01*
X111330708Y-97494145D01*
X111333469Y-97432146D01*
X111335012Y-97357909D01*
X111335235Y-97319706D01*
X111335457Y-97099783D01*
X111381166Y-97083849D01*
X111413518Y-97073015D01*
X111431115Y-97067962D01*
X111431623Y-97067914D01*
X111433388Y-97081648D01*
X111435329Y-97119730D01*
X111437282Y-97177482D01*
X111439084Y-97250227D01*
X111440343Y-97318286D01*
X111444314Y-97568657D01*
X111531400Y-97568657D01*
X111535396Y-97340240D01*
X111539392Y-97111822D01*
X111581847Y-97089868D01*
X111613192Y-97074793D01*
X111631744Y-97067951D01*
X111632279Y-97067914D01*
X111634833Y-97081663D01*
X111634833Y-97081663D01*
G37*
X111634833Y-97081663D02*
X111637048Y-97119850D01*
X111638784Y-97177886D01*
X111639899Y-97251180D01*
X111640257Y-97328055D01*
X111640257Y-97588196D01*
X111594326Y-97634127D01*
X111562675Y-97662429D01*
X111534890Y-97673893D01*
X111496915Y-97673168D01*
X111481840Y-97671321D01*
X111434726Y-97665948D01*
X111395756Y-97662869D01*
X111386257Y-97662585D01*
X111354233Y-97664445D01*
X111308432Y-97669114D01*
X111290674Y-97671321D01*
X111247057Y-97674735D01*
X111217745Y-97667320D01*
X111188680Y-97644427D01*
X111178188Y-97634127D01*
X111132257Y-97588196D01*
X111132257Y-97101602D01*
X111169226Y-97084758D01*
X111201059Y-97072282D01*
X111219683Y-97067914D01*
X111224458Y-97081718D01*
X111228921Y-97120286D01*
X111232775Y-97179356D01*
X111235722Y-97254663D01*
X111237143Y-97318286D01*
X111241114Y-97568657D01*
X111275759Y-97573556D01*
X111307268Y-97570131D01*
X111322708Y-97559041D01*
X111327023Y-97538308D01*
X111330708Y-97494145D01*
X111333469Y-97432146D01*
X111335012Y-97357909D01*
X111335235Y-97319706D01*
X111335457Y-97099783D01*
X111381166Y-97083849D01*
X111413518Y-97073015D01*
X111431115Y-97067962D01*
X111431623Y-97067914D01*
X111433388Y-97081648D01*
X111435329Y-97119730D01*
X111437282Y-97177482D01*
X111439084Y-97250227D01*
X111440343Y-97318286D01*
X111444314Y-97568657D01*
X111531400Y-97568657D01*
X111535396Y-97340240D01*
X111539392Y-97111822D01*
X111581847Y-97089868D01*
X111613192Y-97074793D01*
X111631744Y-97067951D01*
X111632279Y-97067914D01*
X111634833Y-97081663D01*
G36*
X111045117Y-97188358D02*
G01*
X111044933Y-97296837D01*
X111044219Y-97380287D01*
X111042675Y-97442704D01*
X111040001Y-97488085D01*
X111035894Y-97520429D01*
X111030055Y-97543733D01*
X111022182Y-97561995D01*
X111016221Y-97572418D01*
X110966855Y-97628945D01*
X110904264Y-97664377D01*
X110835013Y-97677090D01*
X110765668Y-97665463D01*
X110724375Y-97644568D01*
X110681025Y-97608422D01*
X110651481Y-97564276D01*
X110633655Y-97506462D01*
X110625463Y-97429313D01*
X110624302Y-97372714D01*
X110624458Y-97368647D01*
X110725857Y-97368647D01*
X110726476Y-97433550D01*
X110729314Y-97476514D01*
X110735840Y-97504622D01*
X110747523Y-97524953D01*
X110761483Y-97540288D01*
X110808365Y-97569890D01*
X110858701Y-97572419D01*
X110906276Y-97547705D01*
X110909979Y-97544356D01*
X110925783Y-97526935D01*
X110935693Y-97506209D01*
X110941058Y-97475362D01*
X110943228Y-97427577D01*
X110943571Y-97374748D01*
X110942827Y-97308381D01*
X110939748Y-97264106D01*
X110933061Y-97235009D01*
X110921496Y-97214173D01*
X110912013Y-97203107D01*
X110867960Y-97175198D01*
X110817224Y-97171843D01*
X110768796Y-97193159D01*
X110759450Y-97201073D01*
X110743540Y-97218647D01*
X110733610Y-97239587D01*
X110728278Y-97270782D01*
X110726163Y-97319122D01*
X110725857Y-97368647D01*
X110624458Y-97368647D01*
X110627810Y-97281568D01*
X110639726Y-97213086D01*
X110662135Y-97161600D01*
X110697124Y-97121443D01*
X110724375Y-97100861D01*
X110773907Y-97078625D01*
X110831316Y-97068304D01*
X110884682Y-97071067D01*
X110914543Y-97082212D01*
X110926261Y-97085383D01*
X110934037Y-97073557D01*
X110939465Y-97041866D01*
X110943571Y-96993593D01*
X110948067Y-96939829D01*
X110954313Y-96907482D01*
X110965676Y-96888985D01*
X110985528Y-96876770D01*
X110998000Y-96871362D01*
X111045171Y-96851601D01*
X111045117Y-97188358D01*
X111045117Y-97188358D01*
G37*
X111045117Y-97188358D02*
X111044933Y-97296837D01*
X111044219Y-97380287D01*
X111042675Y-97442704D01*
X111040001Y-97488085D01*
X111035894Y-97520429D01*
X111030055Y-97543733D01*
X111022182Y-97561995D01*
X111016221Y-97572418D01*
X110966855Y-97628945D01*
X110904264Y-97664377D01*
X110835013Y-97677090D01*
X110765668Y-97665463D01*
X110724375Y-97644568D01*
X110681025Y-97608422D01*
X110651481Y-97564276D01*
X110633655Y-97506462D01*
X110625463Y-97429313D01*
X110624302Y-97372714D01*
X110624458Y-97368647D01*
X110725857Y-97368647D01*
X110726476Y-97433550D01*
X110729314Y-97476514D01*
X110735840Y-97504622D01*
X110747523Y-97524953D01*
X110761483Y-97540288D01*
X110808365Y-97569890D01*
X110858701Y-97572419D01*
X110906276Y-97547705D01*
X110909979Y-97544356D01*
X110925783Y-97526935D01*
X110935693Y-97506209D01*
X110941058Y-97475362D01*
X110943228Y-97427577D01*
X110943571Y-97374748D01*
X110942827Y-97308381D01*
X110939748Y-97264106D01*
X110933061Y-97235009D01*
X110921496Y-97214173D01*
X110912013Y-97203107D01*
X110867960Y-97175198D01*
X110817224Y-97171843D01*
X110768796Y-97193159D01*
X110759450Y-97201073D01*
X110743540Y-97218647D01*
X110733610Y-97239587D01*
X110728278Y-97270782D01*
X110726163Y-97319122D01*
X110725857Y-97368647D01*
X110624458Y-97368647D01*
X110627810Y-97281568D01*
X110639726Y-97213086D01*
X110662135Y-97161600D01*
X110697124Y-97121443D01*
X110724375Y-97100861D01*
X110773907Y-97078625D01*
X110831316Y-97068304D01*
X110884682Y-97071067D01*
X110914543Y-97082212D01*
X110926261Y-97085383D01*
X110934037Y-97073557D01*
X110939465Y-97041866D01*
X110943571Y-96993593D01*
X110948067Y-96939829D01*
X110954313Y-96907482D01*
X110965676Y-96888985D01*
X110985528Y-96876770D01*
X110998000Y-96871362D01*
X111045171Y-96851601D01*
X111045117Y-97188358D01*
G36*
X110384926Y-97072755D02*
G01*
X110450858Y-97097084D01*
X110504273Y-97140117D01*
X110525164Y-97170409D01*
X110547939Y-97225994D01*
X110547466Y-97266186D01*
X110523562Y-97293217D01*
X110514717Y-97297813D01*
X110476530Y-97312144D01*
X110457028Y-97308472D01*
X110450422Y-97284407D01*
X110450086Y-97271114D01*
X110437992Y-97222210D01*
X110406471Y-97187999D01*
X110362659Y-97171476D01*
X110313695Y-97175634D01*
X110273894Y-97197227D01*
X110260450Y-97209544D01*
X110250921Y-97224487D01*
X110244485Y-97247075D01*
X110240317Y-97282328D01*
X110237597Y-97335266D01*
X110235502Y-97410907D01*
X110234960Y-97434857D01*
X110232981Y-97516790D01*
X110230731Y-97574455D01*
X110227357Y-97612608D01*
X110222006Y-97636004D01*
X110213824Y-97649398D01*
X110201959Y-97657545D01*
X110194362Y-97661144D01*
X110162102Y-97673452D01*
X110143111Y-97677514D01*
X110136836Y-97663948D01*
X110133006Y-97622934D01*
X110131600Y-97553999D01*
X110132598Y-97456669D01*
X110132908Y-97441657D01*
X110135101Y-97352859D01*
X110137693Y-97288019D01*
X110141382Y-97242067D01*
X110146864Y-97209935D01*
X110154835Y-97186553D01*
X110165993Y-97166852D01*
X110171830Y-97158410D01*
X110205296Y-97121057D01*
X110242727Y-97092003D01*
X110247309Y-97089467D01*
X110314426Y-97069443D01*
X110384926Y-97072755D01*
X110384926Y-97072755D01*
G37*
X110384926Y-97072755D02*
X110450858Y-97097084D01*
X110504273Y-97140117D01*
X110525164Y-97170409D01*
X110547939Y-97225994D01*
X110547466Y-97266186D01*
X110523562Y-97293217D01*
X110514717Y-97297813D01*
X110476530Y-97312144D01*
X110457028Y-97308472D01*
X110450422Y-97284407D01*
X110450086Y-97271114D01*
X110437992Y-97222210D01*
X110406471Y-97187999D01*
X110362659Y-97171476D01*
X110313695Y-97175634D01*
X110273894Y-97197227D01*
X110260450Y-97209544D01*
X110250921Y-97224487D01*
X110244485Y-97247075D01*
X110240317Y-97282328D01*
X110237597Y-97335266D01*
X110235502Y-97410907D01*
X110234960Y-97434857D01*
X110232981Y-97516790D01*
X110230731Y-97574455D01*
X110227357Y-97612608D01*
X110222006Y-97636004D01*
X110213824Y-97649398D01*
X110201959Y-97657545D01*
X110194362Y-97661144D01*
X110162102Y-97673452D01*
X110143111Y-97677514D01*
X110136836Y-97663948D01*
X110133006Y-97622934D01*
X110131600Y-97553999D01*
X110132598Y-97456669D01*
X110132908Y-97441657D01*
X110135101Y-97352859D01*
X110137693Y-97288019D01*
X110141382Y-97242067D01*
X110146864Y-97209935D01*
X110154835Y-97186553D01*
X110165993Y-97166852D01*
X110171830Y-97158410D01*
X110205296Y-97121057D01*
X110242727Y-97092003D01*
X110247309Y-97089467D01*
X110314426Y-97069443D01*
X110384926Y-97072755D01*
G36*
X109894744Y-97073968D02*
G01*
X109951616Y-97095087D01*
X109952267Y-97095493D01*
X109987440Y-97121380D01*
X110013407Y-97151633D01*
X110031670Y-97191058D01*
X110043732Y-97244462D01*
X110051096Y-97316651D01*
X110055264Y-97412432D01*
X110055629Y-97426078D01*
X110060876Y-97631842D01*
X110016716Y-97654678D01*
X109984763Y-97670110D01*
X109965470Y-97677423D01*
X109964578Y-97677514D01*
X109961239Y-97664022D01*
X109958587Y-97627626D01*
X109956956Y-97574452D01*
X109956600Y-97531393D01*
X109956592Y-97461641D01*
X109953403Y-97417837D01*
X109942288Y-97396944D01*
X109918501Y-97395925D01*
X109877296Y-97411741D01*
X109815086Y-97440815D01*
X109769341Y-97464963D01*
X109745813Y-97485913D01*
X109738896Y-97508747D01*
X109738886Y-97509877D01*
X109750299Y-97549212D01*
X109784092Y-97570462D01*
X109835809Y-97573539D01*
X109873061Y-97573006D01*
X109892703Y-97583735D01*
X109904952Y-97609505D01*
X109912002Y-97642337D01*
X109901842Y-97660966D01*
X109898017Y-97663632D01*
X109862001Y-97674340D01*
X109811566Y-97675856D01*
X109759626Y-97668759D01*
X109722822Y-97655788D01*
X109671938Y-97612585D01*
X109643014Y-97552446D01*
X109637286Y-97505462D01*
X109641657Y-97463082D01*
X109657475Y-97428488D01*
X109688797Y-97397763D01*
X109739678Y-97366990D01*
X109814176Y-97332252D01*
X109818714Y-97330288D01*
X109885821Y-97299287D01*
X109927232Y-97273862D01*
X109944981Y-97251014D01*
X109941107Y-97227745D01*
X109917643Y-97201056D01*
X109910627Y-97194914D01*
X109863630Y-97171100D01*
X109814933Y-97172103D01*
X109772522Y-97195451D01*
X109744384Y-97238675D01*
X109741769Y-97247160D01*
X109716308Y-97288308D01*
X109684001Y-97308128D01*
X109637286Y-97327770D01*
X109637286Y-97276950D01*
X109651496Y-97203082D01*
X109693675Y-97135327D01*
X109715624Y-97112661D01*
X109765517Y-97083569D01*
X109828967Y-97070400D01*
X109894744Y-97073968D01*
X109894744Y-97073968D01*
G37*
X109894744Y-97073968D02*
X109951616Y-97095087D01*
X109952267Y-97095493D01*
X109987440Y-97121380D01*
X110013407Y-97151633D01*
X110031670Y-97191058D01*
X110043732Y-97244462D01*
X110051096Y-97316651D01*
X110055264Y-97412432D01*
X110055629Y-97426078D01*
X110060876Y-97631842D01*
X110016716Y-97654678D01*
X109984763Y-97670110D01*
X109965470Y-97677423D01*
X109964578Y-97677514D01*
X109961239Y-97664022D01*
X109958587Y-97627626D01*
X109956956Y-97574452D01*
X109956600Y-97531393D01*
X109956592Y-97461641D01*
X109953403Y-97417837D01*
X109942288Y-97396944D01*
X109918501Y-97395925D01*
X109877296Y-97411741D01*
X109815086Y-97440815D01*
X109769341Y-97464963D01*
X109745813Y-97485913D01*
X109738896Y-97508747D01*
X109738886Y-97509877D01*
X109750299Y-97549212D01*
X109784092Y-97570462D01*
X109835809Y-97573539D01*
X109873061Y-97573006D01*
X109892703Y-97583735D01*
X109904952Y-97609505D01*
X109912002Y-97642337D01*
X109901842Y-97660966D01*
X109898017Y-97663632D01*
X109862001Y-97674340D01*
X109811566Y-97675856D01*
X109759626Y-97668759D01*
X109722822Y-97655788D01*
X109671938Y-97612585D01*
X109643014Y-97552446D01*
X109637286Y-97505462D01*
X109641657Y-97463082D01*
X109657475Y-97428488D01*
X109688797Y-97397763D01*
X109739678Y-97366990D01*
X109814176Y-97332252D01*
X109818714Y-97330288D01*
X109885821Y-97299287D01*
X109927232Y-97273862D01*
X109944981Y-97251014D01*
X109941107Y-97227745D01*
X109917643Y-97201056D01*
X109910627Y-97194914D01*
X109863630Y-97171100D01*
X109814933Y-97172103D01*
X109772522Y-97195451D01*
X109744384Y-97238675D01*
X109741769Y-97247160D01*
X109716308Y-97288308D01*
X109684001Y-97308128D01*
X109637286Y-97327770D01*
X109637286Y-97276950D01*
X109651496Y-97203082D01*
X109693675Y-97135327D01*
X109715624Y-97112661D01*
X109765517Y-97083569D01*
X109828967Y-97070400D01*
X109894744Y-97073968D01*
G36*
X109230886Y-96974289D02*
G01*
X109235139Y-97033613D01*
X109240025Y-97068572D01*
X109246795Y-97083820D01*
X109256702Y-97084015D01*
X109259914Y-97082195D01*
X109302644Y-97069015D01*
X109358227Y-97069785D01*
X109414737Y-97083333D01*
X109450082Y-97100861D01*
X109486321Y-97128861D01*
X109512813Y-97160549D01*
X109530999Y-97200813D01*
X109542322Y-97254543D01*
X109548222Y-97326626D01*
X109550143Y-97421951D01*
X109550177Y-97440237D01*
X109550200Y-97645646D01*
X109504491Y-97661580D01*
X109472027Y-97672420D01*
X109454215Y-97677468D01*
X109453691Y-97677514D01*
X109451937Y-97663828D01*
X109450444Y-97626076D01*
X109449326Y-97569224D01*
X109448697Y-97498234D01*
X109448600Y-97455073D01*
X109448398Y-97369973D01*
X109447358Y-97308981D01*
X109444831Y-97267177D01*
X109440164Y-97239642D01*
X109432707Y-97221456D01*
X109421811Y-97207698D01*
X109415007Y-97201073D01*
X109368272Y-97174375D01*
X109317272Y-97172375D01*
X109271001Y-97194955D01*
X109262444Y-97203107D01*
X109249893Y-97218436D01*
X109241188Y-97236618D01*
X109235631Y-97262909D01*
X109232526Y-97302562D01*
X109231176Y-97360832D01*
X109230886Y-97441173D01*
X109230886Y-97645646D01*
X109185177Y-97661580D01*
X109152713Y-97672420D01*
X109134901Y-97677468D01*
X109134377Y-97677514D01*
X109133037Y-97663623D01*
X109131828Y-97624439D01*
X109130801Y-97563700D01*
X109130002Y-97485141D01*
X109129481Y-97392498D01*
X109129286Y-97289509D01*
X109129286Y-96892342D01*
X109176457Y-96872444D01*
X109223629Y-96852547D01*
X109230886Y-96974289D01*
X109230886Y-96974289D01*
G37*
X109230886Y-96974289D02*
X109235139Y-97033613D01*
X109240025Y-97068572D01*
X109246795Y-97083820D01*
X109256702Y-97084015D01*
X109259914Y-97082195D01*
X109302644Y-97069015D01*
X109358227Y-97069785D01*
X109414737Y-97083333D01*
X109450082Y-97100861D01*
X109486321Y-97128861D01*
X109512813Y-97160549D01*
X109530999Y-97200813D01*
X109542322Y-97254543D01*
X109548222Y-97326626D01*
X109550143Y-97421951D01*
X109550177Y-97440237D01*
X109550200Y-97645646D01*
X109504491Y-97661580D01*
X109472027Y-97672420D01*
X109454215Y-97677468D01*
X109453691Y-97677514D01*
X109451937Y-97663828D01*
X109450444Y-97626076D01*
X109449326Y-97569224D01*
X109448697Y-97498234D01*
X109448600Y-97455073D01*
X109448398Y-97369973D01*
X109447358Y-97308981D01*
X109444831Y-97267177D01*
X109440164Y-97239642D01*
X109432707Y-97221456D01*
X109421811Y-97207698D01*
X109415007Y-97201073D01*
X109368272Y-97174375D01*
X109317272Y-97172375D01*
X109271001Y-97194955D01*
X109262444Y-97203107D01*
X109249893Y-97218436D01*
X109241188Y-97236618D01*
X109235631Y-97262909D01*
X109232526Y-97302562D01*
X109231176Y-97360832D01*
X109230886Y-97441173D01*
X109230886Y-97645646D01*
X109185177Y-97661580D01*
X109152713Y-97672420D01*
X109134901Y-97677468D01*
X109134377Y-97677514D01*
X109133037Y-97663623D01*
X109131828Y-97624439D01*
X109130801Y-97563700D01*
X109130002Y-97485141D01*
X109129481Y-97392498D01*
X109129286Y-97289509D01*
X109129286Y-96892342D01*
X109176457Y-96872444D01*
X109223629Y-96852547D01*
X109230886Y-96974289D01*
G36*
X108023303Y-97054239D02*
G01*
X108080527Y-97092735D01*
X108124749Y-97148335D01*
X108151167Y-97219086D01*
X108156510Y-97271162D01*
X108155903Y-97292893D01*
X108150822Y-97309531D01*
X108136855Y-97324437D01*
X108109589Y-97340973D01*
X108064612Y-97362498D01*
X107997511Y-97392374D01*
X107997171Y-97392524D01*
X107935407Y-97420813D01*
X107884759Y-97445933D01*
X107850404Y-97465179D01*
X107837518Y-97475848D01*
X107837514Y-97475934D01*
X107848872Y-97499166D01*
X107875431Y-97524774D01*
X107905923Y-97543221D01*
X107921370Y-97546886D01*
X107963515Y-97534212D01*
X107999808Y-97502471D01*
X108017517Y-97467572D01*
X108034552Y-97441845D01*
X108067922Y-97412546D01*
X108107149Y-97387235D01*
X108141756Y-97373471D01*
X108148993Y-97372714D01*
X108157139Y-97385160D01*
X108157630Y-97416972D01*
X108151643Y-97459866D01*
X108140357Y-97505558D01*
X108124950Y-97545761D01*
X108124171Y-97547322D01*
X108077804Y-97612062D01*
X108017711Y-97656097D01*
X107949465Y-97677711D01*
X107878638Y-97675185D01*
X107810804Y-97646804D01*
X107807788Y-97644808D01*
X107754427Y-97596448D01*
X107719340Y-97533352D01*
X107699922Y-97450387D01*
X107697316Y-97427078D01*
X107692701Y-97317055D01*
X107698233Y-97265748D01*
X107837514Y-97265748D01*
X107839324Y-97297753D01*
X107849222Y-97307093D01*
X107873898Y-97300105D01*
X107912795Y-97283587D01*
X107956275Y-97262881D01*
X107957356Y-97262333D01*
X107994209Y-97242949D01*
X108009000Y-97230013D01*
X108005353Y-97216451D01*
X107989995Y-97198632D01*
X107950923Y-97172845D01*
X107908846Y-97170950D01*
X107871103Y-97189717D01*
X107845034Y-97225915D01*
X107837514Y-97265748D01*
X107698233Y-97265748D01*
X107702194Y-97229027D01*
X107726550Y-97159212D01*
X107760456Y-97110302D01*
X107821653Y-97060878D01*
X107889063Y-97036359D01*
X107957880Y-97034797D01*
X108023303Y-97054239D01*
X108023303Y-97054239D01*
G37*
X108023303Y-97054239D02*
X108080527Y-97092735D01*
X108124749Y-97148335D01*
X108151167Y-97219086D01*
X108156510Y-97271162D01*
X108155903Y-97292893D01*
X108150822Y-97309531D01*
X108136855Y-97324437D01*
X108109589Y-97340973D01*
X108064612Y-97362498D01*
X107997511Y-97392374D01*
X107997171Y-97392524D01*
X107935407Y-97420813D01*
X107884759Y-97445933D01*
X107850404Y-97465179D01*
X107837518Y-97475848D01*
X107837514Y-97475934D01*
X107848872Y-97499166D01*
X107875431Y-97524774D01*
X107905923Y-97543221D01*
X107921370Y-97546886D01*
X107963515Y-97534212D01*
X107999808Y-97502471D01*
X108017517Y-97467572D01*
X108034552Y-97441845D01*
X108067922Y-97412546D01*
X108107149Y-97387235D01*
X108141756Y-97373471D01*
X108148993Y-97372714D01*
X108157139Y-97385160D01*
X108157630Y-97416972D01*
X108151643Y-97459866D01*
X108140357Y-97505558D01*
X108124950Y-97545761D01*
X108124171Y-97547322D01*
X108077804Y-97612062D01*
X108017711Y-97656097D01*
X107949465Y-97677711D01*
X107878638Y-97675185D01*
X107810804Y-97646804D01*
X107807788Y-97644808D01*
X107754427Y-97596448D01*
X107719340Y-97533352D01*
X107699922Y-97450387D01*
X107697316Y-97427078D01*
X107692701Y-97317055D01*
X107698233Y-97265748D01*
X107837514Y-97265748D01*
X107839324Y-97297753D01*
X107849222Y-97307093D01*
X107873898Y-97300105D01*
X107912795Y-97283587D01*
X107956275Y-97262881D01*
X107957356Y-97262333D01*
X107994209Y-97242949D01*
X108009000Y-97230013D01*
X108005353Y-97216451D01*
X107989995Y-97198632D01*
X107950923Y-97172845D01*
X107908846Y-97170950D01*
X107871103Y-97189717D01*
X107845034Y-97225915D01*
X107837514Y-97265748D01*
X107698233Y-97265748D01*
X107702194Y-97229027D01*
X107726550Y-97159212D01*
X107760456Y-97110302D01*
X107821653Y-97060878D01*
X107889063Y-97036359D01*
X107957880Y-97034797D01*
X108023303Y-97054239D01*
G36*
X106896115Y-97044962D02*
G01*
X106964145Y-97080733D01*
X107014351Y-97138301D01*
X107032185Y-97175312D01*
X107046063Y-97230882D01*
X107053167Y-97301096D01*
X107053840Y-97377727D01*
X107048427Y-97452552D01*
X107037270Y-97517342D01*
X107020714Y-97563873D01*
X107015626Y-97571887D01*
X106955355Y-97631707D01*
X106883769Y-97667535D01*
X106806092Y-97678020D01*
X106727548Y-97661810D01*
X106705689Y-97652092D01*
X106663122Y-97622143D01*
X106625763Y-97582433D01*
X106622232Y-97577397D01*
X106607881Y-97553124D01*
X106598394Y-97527178D01*
X106592790Y-97493022D01*
X106590086Y-97444119D01*
X106589299Y-97373935D01*
X106589286Y-97358200D01*
X106589322Y-97353192D01*
X106734429Y-97353192D01*
X106735273Y-97419430D01*
X106738596Y-97463386D01*
X106745583Y-97491779D01*
X106757416Y-97511325D01*
X106763457Y-97517857D01*
X106798186Y-97542680D01*
X106831903Y-97541548D01*
X106865995Y-97520016D01*
X106886329Y-97497029D01*
X106898371Y-97463478D01*
X106905134Y-97410569D01*
X106905598Y-97404399D01*
X106906752Y-97308513D01*
X106894688Y-97237299D01*
X106869570Y-97191194D01*
X106831560Y-97170635D01*
X106817992Y-97169514D01*
X106782364Y-97175152D01*
X106757994Y-97194686D01*
X106743093Y-97232042D01*
X106735875Y-97291150D01*
X106734429Y-97353192D01*
X106589322Y-97353192D01*
X106589826Y-97283413D01*
X106592096Y-97231159D01*
X106597068Y-97194949D01*
X106605713Y-97168299D01*
X106619005Y-97144722D01*
X106621943Y-97140338D01*
X106671313Y-97081249D01*
X106725109Y-97046947D01*
X106790602Y-97033331D01*
X106812842Y-97032665D01*
X106896115Y-97044962D01*
X106896115Y-97044962D01*
G37*
X106896115Y-97044962D02*
X106964145Y-97080733D01*
X107014351Y-97138301D01*
X107032185Y-97175312D01*
X107046063Y-97230882D01*
X107053167Y-97301096D01*
X107053840Y-97377727D01*
X107048427Y-97452552D01*
X107037270Y-97517342D01*
X107020714Y-97563873D01*
X107015626Y-97571887D01*
X106955355Y-97631707D01*
X106883769Y-97667535D01*
X106806092Y-97678020D01*
X106727548Y-97661810D01*
X106705689Y-97652092D01*
X106663122Y-97622143D01*
X106625763Y-97582433D01*
X106622232Y-97577397D01*
X106607881Y-97553124D01*
X106598394Y-97527178D01*
X106592790Y-97493022D01*
X106590086Y-97444119D01*
X106589299Y-97373935D01*
X106589286Y-97358200D01*
X106589322Y-97353192D01*
X106734429Y-97353192D01*
X106735273Y-97419430D01*
X106738596Y-97463386D01*
X106745583Y-97491779D01*
X106757416Y-97511325D01*
X106763457Y-97517857D01*
X106798186Y-97542680D01*
X106831903Y-97541548D01*
X106865995Y-97520016D01*
X106886329Y-97497029D01*
X106898371Y-97463478D01*
X106905134Y-97410569D01*
X106905598Y-97404399D01*
X106906752Y-97308513D01*
X106894688Y-97237299D01*
X106869570Y-97191194D01*
X106831560Y-97170635D01*
X106817992Y-97169514D01*
X106782364Y-97175152D01*
X106757994Y-97194686D01*
X106743093Y-97232042D01*
X106735875Y-97291150D01*
X106734429Y-97353192D01*
X106589322Y-97353192D01*
X106589826Y-97283413D01*
X106592096Y-97231159D01*
X106597068Y-97194949D01*
X106605713Y-97168299D01*
X106619005Y-97144722D01*
X106621943Y-97140338D01*
X106671313Y-97081249D01*
X106725109Y-97046947D01*
X106790602Y-97033331D01*
X106812842Y-97032665D01*
X106896115Y-97044962D01*
G36*
X108571093Y-97050780D02*
G01*
X108617672Y-97077723D01*
X108650057Y-97104466D01*
X108673742Y-97132484D01*
X108690059Y-97166748D01*
X108700339Y-97212227D01*
X108705914Y-97273892D01*
X108708116Y-97356711D01*
X108708371Y-97416246D01*
X108708371Y-97635391D01*
X108646686Y-97663044D01*
X108585000Y-97690697D01*
X108577743Y-97450670D01*
X108574744Y-97361028D01*
X108571598Y-97295962D01*
X108567701Y-97251026D01*
X108562447Y-97221770D01*
X108555231Y-97203748D01*
X108545450Y-97192511D01*
X108542312Y-97190079D01*
X108494761Y-97171083D01*
X108446697Y-97178600D01*
X108418086Y-97198543D01*
X108406447Y-97212675D01*
X108398391Y-97231220D01*
X108393271Y-97259334D01*
X108390441Y-97302173D01*
X108389256Y-97364895D01*
X108389057Y-97430261D01*
X108389018Y-97512268D01*
X108387614Y-97570316D01*
X108382914Y-97609465D01*
X108372987Y-97634780D01*
X108355903Y-97651323D01*
X108329732Y-97664156D01*
X108294775Y-97677491D01*
X108256596Y-97692007D01*
X108261141Y-97434389D01*
X108262971Y-97341519D01*
X108265112Y-97272889D01*
X108268181Y-97223711D01*
X108272794Y-97189198D01*
X108279568Y-97164562D01*
X108289119Y-97145016D01*
X108300634Y-97127770D01*
X108356190Y-97072680D01*
X108423980Y-97040822D01*
X108497713Y-97033191D01*
X108571093Y-97050780D01*
X108571093Y-97050780D01*
G37*
X108571093Y-97050780D02*
X108617672Y-97077723D01*
X108650057Y-97104466D01*
X108673742Y-97132484D01*
X108690059Y-97166748D01*
X108700339Y-97212227D01*
X108705914Y-97273892D01*
X108708116Y-97356711D01*
X108708371Y-97416246D01*
X108708371Y-97635391D01*
X108646686Y-97663044D01*
X108585000Y-97690697D01*
X108577743Y-97450670D01*
X108574744Y-97361028D01*
X108571598Y-97295962D01*
X108567701Y-97251026D01*
X108562447Y-97221770D01*
X108555231Y-97203748D01*
X108545450Y-97192511D01*
X108542312Y-97190079D01*
X108494761Y-97171083D01*
X108446697Y-97178600D01*
X108418086Y-97198543D01*
X108406447Y-97212675D01*
X108398391Y-97231220D01*
X108393271Y-97259334D01*
X108390441Y-97302173D01*
X108389256Y-97364895D01*
X108389057Y-97430261D01*
X108389018Y-97512268D01*
X108387614Y-97570316D01*
X108382914Y-97609465D01*
X108372987Y-97634780D01*
X108355903Y-97651323D01*
X108329732Y-97664156D01*
X108294775Y-97677491D01*
X108256596Y-97692007D01*
X108261141Y-97434389D01*
X108262971Y-97341519D01*
X108265112Y-97272889D01*
X108268181Y-97223711D01*
X108272794Y-97189198D01*
X108279568Y-97164562D01*
X108289119Y-97145016D01*
X108300634Y-97127770D01*
X108356190Y-97072680D01*
X108423980Y-97040822D01*
X108497713Y-97033191D01*
X108571093Y-97050780D01*
G36*
X107454744Y-97042918D02*
G01*
X107510201Y-97070568D01*
X107559148Y-97121480D01*
X107572629Y-97140338D01*
X107587314Y-97165015D01*
X107596842Y-97191816D01*
X107602293Y-97227587D01*
X107604747Y-97279169D01*
X107605286Y-97347267D01*
X107602852Y-97440588D01*
X107594394Y-97510657D01*
X107578174Y-97562931D01*
X107552454Y-97602869D01*
X107515497Y-97635929D01*
X107512782Y-97637886D01*
X107476360Y-97657908D01*
X107432502Y-97667815D01*
X107376724Y-97670257D01*
X107286048Y-97670257D01*
X107286010Y-97758283D01*
X107285166Y-97807308D01*
X107280024Y-97836065D01*
X107266587Y-97853311D01*
X107240858Y-97867808D01*
X107234679Y-97870769D01*
X107205764Y-97884648D01*
X107183376Y-97893414D01*
X107166729Y-97894171D01*
X107155036Y-97884023D01*
X107147510Y-97860073D01*
X107143366Y-97819426D01*
X107141815Y-97759186D01*
X107142071Y-97676455D01*
X107143349Y-97568339D01*
X107143748Y-97536000D01*
X107145185Y-97424524D01*
X107146472Y-97351603D01*
X107285971Y-97351603D01*
X107286755Y-97413499D01*
X107290240Y-97453997D01*
X107298124Y-97480708D01*
X107312105Y-97501244D01*
X107321597Y-97511260D01*
X107360404Y-97540567D01*
X107394763Y-97542952D01*
X107430216Y-97518750D01*
X107431114Y-97517857D01*
X107445539Y-97499153D01*
X107454313Y-97473732D01*
X107458739Y-97434584D01*
X107460118Y-97374697D01*
X107460143Y-97361430D01*
X107456812Y-97278901D01*
X107445969Y-97221691D01*
X107426340Y-97186766D01*
X107396650Y-97171094D01*
X107379491Y-97169514D01*
X107338766Y-97176926D01*
X107310832Y-97201330D01*
X107294017Y-97245980D01*
X107286650Y-97314130D01*
X107285971Y-97351603D01*
X107146472Y-97351603D01*
X107146708Y-97338245D01*
X107148677Y-97273333D01*
X107151450Y-97225958D01*
X107155388Y-97192290D01*
X107160849Y-97168498D01*
X107168192Y-97150753D01*
X107177777Y-97135224D01*
X107181887Y-97129381D01*
X107236405Y-97074185D01*
X107305336Y-97042890D01*
X107385072Y-97034165D01*
X107454744Y-97042918D01*
X107454744Y-97042918D01*
G37*
X107454744Y-97042918D02*
X107510201Y-97070568D01*
X107559148Y-97121480D01*
X107572629Y-97140338D01*
X107587314Y-97165015D01*
X107596842Y-97191816D01*
X107602293Y-97227587D01*
X107604747Y-97279169D01*
X107605286Y-97347267D01*
X107602852Y-97440588D01*
X107594394Y-97510657D01*
X107578174Y-97562931D01*
X107552454Y-97602869D01*
X107515497Y-97635929D01*
X107512782Y-97637886D01*
X107476360Y-97657908D01*
X107432502Y-97667815D01*
X107376724Y-97670257D01*
X107286048Y-97670257D01*
X107286010Y-97758283D01*
X107285166Y-97807308D01*
X107280024Y-97836065D01*
X107266587Y-97853311D01*
X107240858Y-97867808D01*
X107234679Y-97870769D01*
X107205764Y-97884648D01*
X107183376Y-97893414D01*
X107166729Y-97894171D01*
X107155036Y-97884023D01*
X107147510Y-97860073D01*
X107143366Y-97819426D01*
X107141815Y-97759186D01*
X107142071Y-97676455D01*
X107143349Y-97568339D01*
X107143748Y-97536000D01*
X107145185Y-97424524D01*
X107146472Y-97351603D01*
X107285971Y-97351603D01*
X107286755Y-97413499D01*
X107290240Y-97453997D01*
X107298124Y-97480708D01*
X107312105Y-97501244D01*
X107321597Y-97511260D01*
X107360404Y-97540567D01*
X107394763Y-97542952D01*
X107430216Y-97518750D01*
X107431114Y-97517857D01*
X107445539Y-97499153D01*
X107454313Y-97473732D01*
X107458739Y-97434584D01*
X107460118Y-97374697D01*
X107460143Y-97361430D01*
X107456812Y-97278901D01*
X107445969Y-97221691D01*
X107426340Y-97186766D01*
X107396650Y-97171094D01*
X107379491Y-97169514D01*
X107338766Y-97176926D01*
X107310832Y-97201330D01*
X107294017Y-97245980D01*
X107286650Y-97314130D01*
X107285971Y-97351603D01*
X107146472Y-97351603D01*
X107146708Y-97338245D01*
X107148677Y-97273333D01*
X107151450Y-97225958D01*
X107155388Y-97192290D01*
X107160849Y-97168498D01*
X107168192Y-97150753D01*
X107177777Y-97135224D01*
X107181887Y-97129381D01*
X107236405Y-97074185D01*
X107305336Y-97042890D01*
X107385072Y-97034165D01*
X107454744Y-97042918D01*
D10*
X136037500Y-97551000D02*
X134637500Y-97551000D01*
X136037500Y-102651000D02*
X140187500Y-102651000D01*
X136037500Y-97501000D02*
X140187500Y-97501000D01*
X136037500Y-102651000D02*
X136037500Y-102506000D01*
X140187500Y-102651000D02*
X140187500Y-102506000D01*
X140187500Y-97501000D02*
X140187500Y-97646000D01*
X136037500Y-97501000D02*
X136037500Y-97551000D01*
D13*
X143672779Y-100645500D02*
X143347221Y-100645500D01*
X143672779Y-101665500D02*
X143347221Y-101665500D01*
X143672779Y-102233000D02*
X143347221Y-102233000D01*
X143672779Y-103253000D02*
X143347221Y-103253000D01*
X133727500Y-104390500D02*
X132397500Y-104390500D01*
X133727500Y-103060500D02*
X133727500Y-104390500D01*
X133727500Y-101790500D02*
X131067500Y-101790500D01*
X131067500Y-101790500D02*
X131067500Y-94110500D01*
X133727500Y-101790500D02*
X133727500Y-94110500D01*
X133727500Y-94110500D02*
X131067500Y-94110500D01*
X142238000Y-98681221D02*
X142238000Y-99006779D01*
X143258000Y-98681221D02*
X143258000Y-99006779D01*
X156848500Y-98873000D02*
X158178500Y-98873000D01*
X156848500Y-100203000D02*
X156848500Y-98873000D01*
X156848500Y-101473000D02*
X159508500Y-101473000D01*
X159508500Y-101473000D02*
X159508500Y-101533000D01*
X156848500Y-101473000D02*
X156848500Y-101533000D01*
X156848500Y-101533000D02*
X159508500Y-101533000D01*
X116332000Y-82590000D02*
X106172000Y-82590000D01*
X116332000Y-90210000D02*
X116332000Y-82590000D01*
X106172000Y-90210000D02*
X116332000Y-90210000D01*
X106172000Y-82590000D02*
X106172000Y-90210000D01*
X106172000Y-83860000D02*
X116332000Y-83860000D01*
X164251000Y-73000000D02*
G75*
G03X164251000Y-73000000I-1251000J0D01*
G01*
X164251000Y-102000000D02*
G75*
G03X164251000Y-102000000I-1251000J0D01*
G01*
X110251000Y-102000000D02*
G75*
G03X110251000Y-102000000I-1251000J0D01*
G01*
X110251000Y-73000000D02*
G75*
G03X110251000Y-73000000I-1251000J0D01*
G01*
X161820000Y-77670000D02*
X163150000Y-77670000D01*
X161820000Y-79000000D02*
X161820000Y-77670000D01*
X161820000Y-80270000D02*
X164480000Y-80270000D01*
X164480000Y-80270000D02*
X164480000Y-80330000D01*
X161820000Y-80270000D02*
X161820000Y-80330000D01*
X161820000Y-80330000D02*
X164480000Y-80330000D01*
X164850000Y-87750000D02*
X164850000Y-86500000D01*
X163600000Y-87750000D02*
X164850000Y-87750000D01*
X157700000Y-82250000D02*
X160750000Y-82250000D01*
X157700000Y-85200000D02*
X157700000Y-82250000D01*
X156950000Y-85200000D02*
X157700000Y-85200000D01*
X163800000Y-82250000D02*
X160750000Y-82250000D01*
X163800000Y-85200000D02*
X163800000Y-82250000D01*
X164550000Y-85200000D02*
X163800000Y-85200000D01*
X156950000Y-87450000D02*
X158750000Y-87450000D01*
X156950000Y-86700000D02*
X156950000Y-87450000D01*
X158750000Y-86700000D02*
X156950000Y-86700000D01*
X158750000Y-87450000D02*
X158750000Y-86700000D01*
X162750000Y-87450000D02*
X164550000Y-87450000D01*
X162750000Y-86700000D02*
X162750000Y-87450000D01*
X164550000Y-86700000D02*
X162750000Y-86700000D01*
X164550000Y-87450000D02*
X164550000Y-86700000D01*
X160250000Y-87450000D02*
X161250000Y-87450000D01*
X160250000Y-86700000D02*
X160250000Y-87450000D01*
X161250000Y-86700000D02*
X160250000Y-86700000D01*
X161250000Y-87450000D02*
X161250000Y-86700000D01*
X156940000Y-87460000D02*
X164560000Y-87460000D01*
X156940000Y-81490000D02*
X156940000Y-87460000D01*
X164560000Y-81490000D02*
X156940000Y-81490000D01*
X164560000Y-87460000D02*
X164560000Y-81490000D01*
X155850000Y-95750000D02*
X155850000Y-94500000D01*
X154600000Y-95750000D02*
X155850000Y-95750000D01*
X148700000Y-90250000D02*
X151750000Y-90250000D01*
X148700000Y-93200000D02*
X148700000Y-90250000D01*
X147950000Y-93200000D02*
X148700000Y-93200000D01*
X154800000Y-90250000D02*
X151750000Y-90250000D01*
X154800000Y-93200000D02*
X154800000Y-90250000D01*
X155550000Y-93200000D02*
X154800000Y-93200000D01*
X147950000Y-95450000D02*
X149750000Y-95450000D01*
X147950000Y-94700000D02*
X147950000Y-95450000D01*
X149750000Y-94700000D02*
X147950000Y-94700000D01*
X149750000Y-95450000D02*
X149750000Y-94700000D01*
X153750000Y-95450000D02*
X155550000Y-95450000D01*
X153750000Y-94700000D02*
X153750000Y-95450000D01*
X155550000Y-94700000D02*
X153750000Y-94700000D01*
X155550000Y-95450000D02*
X155550000Y-94700000D01*
X151250000Y-95450000D02*
X152250000Y-95450000D01*
X151250000Y-94700000D02*
X151250000Y-95450000D01*
X152250000Y-94700000D02*
X151250000Y-94700000D01*
X152250000Y-95450000D02*
X152250000Y-94700000D01*
X147940000Y-95460000D02*
X155560000Y-95460000D01*
X147940000Y-89490000D02*
X147940000Y-95460000D01*
X155560000Y-89490000D02*
X147940000Y-89490000D01*
X155560000Y-95460000D02*
X155560000Y-89490000D01*
X146850000Y-95750000D02*
X146850000Y-94500000D01*
X145600000Y-95750000D02*
X146850000Y-95750000D01*
X139700000Y-90250000D02*
X142750000Y-90250000D01*
X139700000Y-93200000D02*
X139700000Y-90250000D01*
X138950000Y-93200000D02*
X139700000Y-93200000D01*
X145800000Y-90250000D02*
X142750000Y-90250000D01*
X145800000Y-93200000D02*
X145800000Y-90250000D01*
X146550000Y-93200000D02*
X145800000Y-93200000D01*
X138950000Y-95450000D02*
X140750000Y-95450000D01*
X138950000Y-94700000D02*
X138950000Y-95450000D01*
X140750000Y-94700000D02*
X138950000Y-94700000D01*
X140750000Y-95450000D02*
X140750000Y-94700000D01*
X144750000Y-95450000D02*
X146550000Y-95450000D01*
X144750000Y-94700000D02*
X144750000Y-95450000D01*
X146550000Y-94700000D02*
X144750000Y-94700000D01*
X146550000Y-95450000D02*
X146550000Y-94700000D01*
X142250000Y-95450000D02*
X143250000Y-95450000D01*
X142250000Y-94700000D02*
X142250000Y-95450000D01*
X143250000Y-94700000D02*
X142250000Y-94700000D01*
X143250000Y-95450000D02*
X143250000Y-94700000D01*
X138940000Y-95460000D02*
X146560000Y-95460000D01*
X138940000Y-89490000D02*
X138940000Y-95460000D01*
X146560000Y-89490000D02*
X138940000Y-89490000D01*
X146560000Y-95460000D02*
X146560000Y-89490000D01*
X155850000Y-103750000D02*
X155850000Y-102500000D01*
X154600000Y-103750000D02*
X155850000Y-103750000D01*
X148700000Y-98250000D02*
X151750000Y-98250000D01*
X148700000Y-101200000D02*
X148700000Y-98250000D01*
X147950000Y-101200000D02*
X148700000Y-101200000D01*
X154800000Y-98250000D02*
X151750000Y-98250000D01*
X154800000Y-101200000D02*
X154800000Y-98250000D01*
X155550000Y-101200000D02*
X154800000Y-101200000D01*
X147950000Y-103450000D02*
X149750000Y-103450000D01*
X147950000Y-102700000D02*
X147950000Y-103450000D01*
X149750000Y-102700000D02*
X147950000Y-102700000D01*
X149750000Y-103450000D02*
X149750000Y-102700000D01*
X153750000Y-103450000D02*
X155550000Y-103450000D01*
X153750000Y-102700000D02*
X153750000Y-103450000D01*
X155550000Y-102700000D02*
X153750000Y-102700000D01*
X155550000Y-103450000D02*
X155550000Y-102700000D01*
X151250000Y-103450000D02*
X152250000Y-103450000D01*
X151250000Y-102700000D02*
X151250000Y-103450000D01*
X152250000Y-102700000D02*
X151250000Y-102700000D01*
X152250000Y-103450000D02*
X152250000Y-102700000D01*
X147940000Y-103460000D02*
X155560000Y-103460000D01*
X147940000Y-97490000D02*
X147940000Y-103460000D01*
X155560000Y-97490000D02*
X147940000Y-97490000D01*
X155560000Y-103460000D02*
X155560000Y-97490000D01*
X159600000Y-70345000D02*
X159600000Y-72885000D01*
X159600000Y-70345000D02*
X157060000Y-70345000D01*
X159350000Y-70595000D02*
X159350000Y-79945000D01*
X113090000Y-70595000D02*
X159350000Y-70595000D01*
X113090000Y-79945000D02*
X113090000Y-70595000D01*
X159350000Y-79945000D02*
X113090000Y-79945000D01*
X164850000Y-95750000D02*
X164850000Y-94500000D01*
X163600000Y-95750000D02*
X164850000Y-95750000D01*
X157700000Y-90250000D02*
X160750000Y-90250000D01*
X157700000Y-93200000D02*
X157700000Y-90250000D01*
X156950000Y-93200000D02*
X157700000Y-93200000D01*
X163800000Y-90250000D02*
X160750000Y-90250000D01*
X163800000Y-93200000D02*
X163800000Y-90250000D01*
X164550000Y-93200000D02*
X163800000Y-93200000D01*
X156950000Y-95450000D02*
X158750000Y-95450000D01*
X156950000Y-94700000D02*
X156950000Y-95450000D01*
X158750000Y-94700000D02*
X156950000Y-94700000D01*
X158750000Y-95450000D02*
X158750000Y-94700000D01*
X162750000Y-95450000D02*
X164550000Y-95450000D01*
X162750000Y-94700000D02*
X162750000Y-95450000D01*
X164550000Y-94700000D02*
X162750000Y-94700000D01*
X164550000Y-95450000D02*
X164550000Y-94700000D01*
X160250000Y-95450000D02*
X161250000Y-95450000D01*
X160250000Y-94700000D02*
X160250000Y-95450000D01*
X161250000Y-94700000D02*
X160250000Y-94700000D01*
X161250000Y-95450000D02*
X161250000Y-94700000D01*
X156940000Y-95460000D02*
X164560000Y-95460000D01*
X156940000Y-89490000D02*
X156940000Y-95460000D01*
X164560000Y-89490000D02*
X156940000Y-89490000D01*
X164560000Y-95460000D02*
X164560000Y-89490000D01*
X129850000Y-87750000D02*
X129850000Y-86500000D01*
X128600000Y-87750000D02*
X129850000Y-87750000D01*
X117700000Y-82250000D02*
X123250000Y-82250000D01*
X117700000Y-85200000D02*
X117700000Y-82250000D01*
X116950000Y-85200000D02*
X117700000Y-85200000D01*
X128800000Y-82250000D02*
X123250000Y-82250000D01*
X128800000Y-85200000D02*
X128800000Y-82250000D01*
X129550000Y-85200000D02*
X128800000Y-85200000D01*
X116950000Y-87450000D02*
X118750000Y-87450000D01*
X116950000Y-86700000D02*
X116950000Y-87450000D01*
X118750000Y-86700000D02*
X116950000Y-86700000D01*
X118750000Y-87450000D02*
X118750000Y-86700000D01*
X127750000Y-87450000D02*
X129550000Y-87450000D01*
X127750000Y-86700000D02*
X127750000Y-87450000D01*
X129550000Y-86700000D02*
X127750000Y-86700000D01*
X129550000Y-87450000D02*
X129550000Y-86700000D01*
X120250000Y-87450000D02*
X126250000Y-87450000D01*
X120250000Y-86700000D02*
X120250000Y-87450000D01*
X126250000Y-86700000D02*
X120250000Y-86700000D01*
X126250000Y-87450000D02*
X126250000Y-86700000D01*
X116940000Y-87460000D02*
X129560000Y-87460000D01*
X116940000Y-81490000D02*
X116940000Y-87460000D01*
X129560000Y-81490000D02*
X116940000Y-81490000D01*
X129560000Y-87460000D02*
X129560000Y-81490000D01*
X129850000Y-95750000D02*
X129850000Y-94500000D01*
X128600000Y-95750000D02*
X129850000Y-95750000D01*
X117700000Y-90250000D02*
X123250000Y-90250000D01*
X117700000Y-93200000D02*
X117700000Y-90250000D01*
X116950000Y-93200000D02*
X117700000Y-93200000D01*
X128800000Y-90250000D02*
X123250000Y-90250000D01*
X128800000Y-93200000D02*
X128800000Y-90250000D01*
X129550000Y-93200000D02*
X128800000Y-93200000D01*
X116950000Y-95450000D02*
X118750000Y-95450000D01*
X116950000Y-94700000D02*
X116950000Y-95450000D01*
X118750000Y-94700000D02*
X116950000Y-94700000D01*
X118750000Y-95450000D02*
X118750000Y-94700000D01*
X127750000Y-95450000D02*
X129550000Y-95450000D01*
X127750000Y-94700000D02*
X127750000Y-95450000D01*
X129550000Y-94700000D02*
X127750000Y-94700000D01*
X129550000Y-95450000D02*
X129550000Y-94700000D01*
X120250000Y-95450000D02*
X126250000Y-95450000D01*
X120250000Y-94700000D02*
X120250000Y-95450000D01*
X126250000Y-94700000D02*
X120250000Y-94700000D01*
X126250000Y-95450000D02*
X126250000Y-94700000D01*
X116940000Y-95460000D02*
X129560000Y-95460000D01*
X116940000Y-89490000D02*
X116940000Y-95460000D01*
X129560000Y-89490000D02*
X116940000Y-89490000D01*
X129560000Y-95460000D02*
X129560000Y-89490000D01*
X155850000Y-87750000D02*
X155850000Y-86500000D01*
X154600000Y-87750000D02*
X155850000Y-87750000D01*
X148700000Y-82250000D02*
X151750000Y-82250000D01*
X148700000Y-85200000D02*
X148700000Y-82250000D01*
X147950000Y-85200000D02*
X148700000Y-85200000D01*
X154800000Y-82250000D02*
X151750000Y-82250000D01*
X154800000Y-85200000D02*
X154800000Y-82250000D01*
X155550000Y-85200000D02*
X154800000Y-85200000D01*
X147950000Y-87450000D02*
X149750000Y-87450000D01*
X147950000Y-86700000D02*
X147950000Y-87450000D01*
X149750000Y-86700000D02*
X147950000Y-86700000D01*
X149750000Y-87450000D02*
X149750000Y-86700000D01*
X153750000Y-87450000D02*
X155550000Y-87450000D01*
X153750000Y-86700000D02*
X153750000Y-87450000D01*
X155550000Y-86700000D02*
X153750000Y-86700000D01*
X155550000Y-87450000D02*
X155550000Y-86700000D01*
X151250000Y-87450000D02*
X152250000Y-87450000D01*
X151250000Y-86700000D02*
X151250000Y-87450000D01*
X152250000Y-86700000D02*
X151250000Y-86700000D01*
X152250000Y-87450000D02*
X152250000Y-86700000D01*
X147940000Y-87460000D02*
X155560000Y-87460000D01*
X147940000Y-81490000D02*
X147940000Y-87460000D01*
X155560000Y-81490000D02*
X147940000Y-81490000D01*
X155560000Y-87460000D02*
X155560000Y-81490000D01*
X146850000Y-87750000D02*
X146850000Y-86500000D01*
X145600000Y-87750000D02*
X146850000Y-87750000D01*
X139700000Y-82250000D02*
X142750000Y-82250000D01*
X139700000Y-85200000D02*
X139700000Y-82250000D01*
X138950000Y-85200000D02*
X139700000Y-85200000D01*
X145800000Y-82250000D02*
X142750000Y-82250000D01*
X145800000Y-85200000D02*
X145800000Y-82250000D01*
X146550000Y-85200000D02*
X145800000Y-85200000D01*
X138950000Y-87450000D02*
X140750000Y-87450000D01*
X138950000Y-86700000D02*
X138950000Y-87450000D01*
X140750000Y-86700000D02*
X138950000Y-86700000D01*
X140750000Y-87450000D02*
X140750000Y-86700000D01*
X144750000Y-87450000D02*
X146550000Y-87450000D01*
X144750000Y-86700000D02*
X144750000Y-87450000D01*
X146550000Y-86700000D02*
X144750000Y-86700000D01*
X146550000Y-87450000D02*
X146550000Y-86700000D01*
X142250000Y-87450000D02*
X143250000Y-87450000D01*
X142250000Y-86700000D02*
X142250000Y-87450000D01*
X143250000Y-86700000D02*
X142250000Y-86700000D01*
X143250000Y-87450000D02*
X143250000Y-86700000D01*
X138940000Y-87460000D02*
X146560000Y-87460000D01*
X138940000Y-81490000D02*
X138940000Y-87460000D01*
X146560000Y-81490000D02*
X138940000Y-81490000D01*
X146560000Y-87460000D02*
X146560000Y-81490000D01*
X136330000Y-91830000D02*
X135000000Y-91830000D01*
X136330000Y-90500000D02*
X136330000Y-91830000D01*
X136330000Y-89230000D02*
X133670000Y-89230000D01*
X133670000Y-89230000D02*
X133670000Y-81550000D01*
X136330000Y-89230000D02*
X136330000Y-81550000D01*
X136330000Y-81550000D02*
X133670000Y-81550000D01*
D10*
X137350595Y-96028380D02*
X137350595Y-96837904D01*
X137398214Y-96933142D01*
X137445833Y-96980761D01*
X137541071Y-97028380D01*
X137731547Y-97028380D01*
X137826785Y-96980761D01*
X137874404Y-96933142D01*
X137922023Y-96837904D01*
X137922023Y-96028380D01*
X138922023Y-97028380D02*
X138350595Y-97028380D01*
X138636309Y-97028380D02*
X138636309Y-96028380D01*
X138541071Y-96171238D01*
X138445833Y-96266476D01*
X138350595Y-96314095D01*
X134612500Y-103742666D02*
X135088690Y-103742666D01*
X134517261Y-104028380D02*
X134850595Y-103028380D01*
X135183928Y-104028380D01*
X135374404Y-103028380D02*
X135945833Y-103028380D01*
X135660119Y-104028380D02*
X135660119Y-103028380D01*
X136231547Y-103123619D02*
X136279166Y-103076000D01*
X136374404Y-103028380D01*
X136612500Y-103028380D01*
X136707738Y-103076000D01*
X136755357Y-103123619D01*
X136802976Y-103218857D01*
X136802976Y-103314095D01*
X136755357Y-103456952D01*
X136183928Y-104028380D01*
X136802976Y-104028380D01*
X137660119Y-103361714D02*
X137660119Y-104028380D01*
X137422023Y-102980761D02*
X137183928Y-103695047D01*
X137802976Y-103695047D01*
X138755357Y-103933142D02*
X138707738Y-103980761D01*
X138564880Y-104028380D01*
X138469642Y-104028380D01*
X138326785Y-103980761D01*
X138231547Y-103885523D01*
X138183928Y-103790285D01*
X138136309Y-103599809D01*
X138136309Y-103456952D01*
X138183928Y-103266476D01*
X138231547Y-103171238D01*
X138326785Y-103076000D01*
X138469642Y-103028380D01*
X138564880Y-103028380D01*
X138707738Y-103076000D01*
X138755357Y-103123619D01*
X139136309Y-103123619D02*
X139183928Y-103076000D01*
X139279166Y-103028380D01*
X139517261Y-103028380D01*
X139612500Y-103076000D01*
X139660119Y-103123619D01*
X139707738Y-103218857D01*
X139707738Y-103314095D01*
X139660119Y-103456952D01*
X139088690Y-104028380D01*
X139707738Y-104028380D01*
X140612500Y-103028380D02*
X140136309Y-103028380D01*
X140088690Y-103504571D01*
X140136309Y-103456952D01*
X140231547Y-103409333D01*
X140469642Y-103409333D01*
X140564880Y-103456952D01*
X140612500Y-103504571D01*
X140660119Y-103599809D01*
X140660119Y-103837904D01*
X140612500Y-103933142D01*
X140564880Y-103980761D01*
X140469642Y-104028380D01*
X140231547Y-104028380D01*
X140136309Y-103980761D01*
X140088690Y-103933142D01*
X141517261Y-103028380D02*
X141326785Y-103028380D01*
X141231547Y-103076000D01*
X141183928Y-103123619D01*
X141088690Y-103266476D01*
X141041071Y-103456952D01*
X141041071Y-103837904D01*
X141088690Y-103933142D01*
X141136309Y-103980761D01*
X141231547Y-104028380D01*
X141422023Y-104028380D01*
X141517261Y-103980761D01*
X141564880Y-103933142D01*
X141612500Y-103837904D01*
X141612500Y-103599809D01*
X141564880Y-103504571D01*
X141517261Y-103456952D01*
X141422023Y-103409333D01*
X141231547Y-103409333D01*
X141136309Y-103456952D01*
X141088690Y-103504571D01*
X141041071Y-103599809D01*
X145756333Y-101671380D02*
X145423000Y-101195190D01*
X145184904Y-101671380D02*
X145184904Y-100671380D01*
X145565857Y-100671380D01*
X145661095Y-100719000D01*
X145708714Y-100766619D01*
X145756333Y-100861857D01*
X145756333Y-101004714D01*
X145708714Y-101099952D01*
X145661095Y-101147571D01*
X145565857Y-101195190D01*
X145184904Y-101195190D01*
X146137285Y-100766619D02*
X146184904Y-100719000D01*
X146280142Y-100671380D01*
X146518238Y-100671380D01*
X146613476Y-100719000D01*
X146661095Y-100766619D01*
X146708714Y-100861857D01*
X146708714Y-100957095D01*
X146661095Y-101099952D01*
X146089666Y-101671380D01*
X146708714Y-101671380D01*
X142756095Y-104719380D02*
X142184666Y-104719380D01*
X142470380Y-104719380D02*
X142470380Y-103719380D01*
X142375142Y-103862238D01*
X142279904Y-103957476D01*
X142184666Y-104005095D01*
X143375142Y-103719380D02*
X143470380Y-103719380D01*
X143565619Y-103767000D01*
X143613238Y-103814619D01*
X143660857Y-103909857D01*
X143708476Y-104100333D01*
X143708476Y-104338428D01*
X143660857Y-104528904D01*
X143613238Y-104624142D01*
X143565619Y-104671761D01*
X143470380Y-104719380D01*
X143375142Y-104719380D01*
X143279904Y-104671761D01*
X143232285Y-104624142D01*
X143184666Y-104528904D01*
X143137047Y-104338428D01*
X143137047Y-104100333D01*
X143184666Y-103909857D01*
X143232285Y-103814619D01*
X143279904Y-103767000D01*
X143375142Y-103719380D01*
X144137047Y-104719380D02*
X144137047Y-103719380D01*
X144708476Y-104719380D02*
X144279904Y-104147952D01*
X144708476Y-103719380D02*
X144137047Y-104290809D01*
X145089428Y-104719380D02*
X145327523Y-104719380D01*
X145327523Y-104528904D01*
X145232285Y-104481285D01*
X145137047Y-104386047D01*
X145089428Y-104243190D01*
X145089428Y-104005095D01*
X145137047Y-103862238D01*
X145232285Y-103767000D01*
X145375142Y-103719380D01*
X145565619Y-103719380D01*
X145708476Y-103767000D01*
X145803714Y-103862238D01*
X145851333Y-104005095D01*
X145851333Y-104243190D01*
X145803714Y-104386047D01*
X145708476Y-104481285D01*
X145613238Y-104528904D01*
X145613238Y-104719380D01*
X145851333Y-104719380D01*
X146073833Y-103195380D02*
X145740500Y-102719190D01*
X145502404Y-103195380D02*
X145502404Y-102195380D01*
X145883357Y-102195380D01*
X145978595Y-102243000D01*
X146026214Y-102290619D01*
X146073833Y-102385857D01*
X146073833Y-102528714D01*
X146026214Y-102623952D01*
X145978595Y-102671571D01*
X145883357Y-102719190D01*
X145502404Y-102719190D01*
X147026214Y-103195380D02*
X146454785Y-103195380D01*
X146740500Y-103195380D02*
X146740500Y-102195380D01*
X146645261Y-102338238D01*
X146550023Y-102433476D01*
X146454785Y-102481095D01*
X133969166Y-94194380D02*
X133969166Y-94908666D01*
X133921547Y-95051523D01*
X133826309Y-95146761D01*
X133683452Y-95194380D01*
X133588214Y-95194380D01*
X134969166Y-95194380D02*
X134397738Y-95194380D01*
X134683452Y-95194380D02*
X134683452Y-94194380D01*
X134588214Y-94337238D01*
X134492976Y-94432476D01*
X134397738Y-94480095D01*
X123450785Y-104146357D02*
X123717452Y-104146357D01*
X123831738Y-104565404D02*
X123450785Y-104565404D01*
X123450785Y-103765404D01*
X123831738Y-103765404D01*
X124174595Y-104146357D02*
X124441261Y-104146357D01*
X124555547Y-104565404D02*
X124174595Y-104565404D01*
X124174595Y-103765404D01*
X124555547Y-103765404D01*
X124898404Y-104565404D02*
X124898404Y-103765404D01*
X125203166Y-103765404D01*
X125279357Y-103803500D01*
X125317452Y-103841595D01*
X125355547Y-103917785D01*
X125355547Y-104032071D01*
X125317452Y-104108261D01*
X125279357Y-104146357D01*
X125203166Y-104184452D01*
X124898404Y-104184452D01*
X126155547Y-104565404D02*
X125888880Y-104184452D01*
X125698404Y-104565404D02*
X125698404Y-103765404D01*
X126003166Y-103765404D01*
X126079357Y-103803500D01*
X126117452Y-103841595D01*
X126155547Y-103917785D01*
X126155547Y-104032071D01*
X126117452Y-104108261D01*
X126079357Y-104146357D01*
X126003166Y-104184452D01*
X125698404Y-104184452D01*
X126650785Y-103765404D02*
X126803166Y-103765404D01*
X126879357Y-103803500D01*
X126955547Y-103879690D01*
X126993642Y-104032071D01*
X126993642Y-104298738D01*
X126955547Y-104451119D01*
X126879357Y-104527309D01*
X126803166Y-104565404D01*
X126650785Y-104565404D01*
X126574595Y-104527309D01*
X126498404Y-104451119D01*
X126460309Y-104298738D01*
X126460309Y-104032071D01*
X126498404Y-103879690D01*
X126574595Y-103803500D01*
X126650785Y-103765404D01*
X127336500Y-104565404D02*
X127336500Y-103765404D01*
X127603166Y-104336833D01*
X127869833Y-103765404D01*
X127869833Y-104565404D01*
X128860309Y-104565404D02*
X128860309Y-103765404D01*
X129203166Y-103841595D02*
X129241261Y-103803500D01*
X129317452Y-103765404D01*
X129507928Y-103765404D01*
X129584119Y-103803500D01*
X129622214Y-103841595D01*
X129660309Y-103917785D01*
X129660309Y-103993976D01*
X129622214Y-104108261D01*
X129165071Y-104565404D01*
X129660309Y-104565404D01*
X130460309Y-104489214D02*
X130422214Y-104527309D01*
X130307928Y-104565404D01*
X130231738Y-104565404D01*
X130117452Y-104527309D01*
X130041261Y-104451119D01*
X130003166Y-104374928D01*
X129965071Y-104222547D01*
X129965071Y-104108261D01*
X130003166Y-103955880D01*
X130041261Y-103879690D01*
X130117452Y-103803500D01*
X130231738Y-103765404D01*
X130307928Y-103765404D01*
X130422214Y-103803500D01*
X130460309Y-103841595D01*
X144486333Y-99798142D02*
X144438714Y-99845761D01*
X144295857Y-99893380D01*
X144200619Y-99893380D01*
X144057761Y-99845761D01*
X143962523Y-99750523D01*
X143914904Y-99655285D01*
X143867285Y-99464809D01*
X143867285Y-99321952D01*
X143914904Y-99131476D01*
X143962523Y-99036238D01*
X144057761Y-98941000D01*
X144200619Y-98893380D01*
X144295857Y-98893380D01*
X144438714Y-98941000D01*
X144486333Y-98988619D01*
X145438714Y-99893380D02*
X144867285Y-99893380D01*
X145153000Y-99893380D02*
X145153000Y-98893380D01*
X145057761Y-99036238D01*
X144962523Y-99131476D01*
X144867285Y-99179095D01*
X144227904Y-98278904D02*
X143770761Y-98278904D01*
X143999333Y-98278904D02*
X143999333Y-97478904D01*
X143923142Y-97593190D01*
X143846952Y-97669380D01*
X143770761Y-97707476D01*
X144723142Y-97478904D02*
X144799333Y-97478904D01*
X144875523Y-97517000D01*
X144913619Y-97555095D01*
X144951714Y-97631285D01*
X144989809Y-97783666D01*
X144989809Y-97974142D01*
X144951714Y-98126523D01*
X144913619Y-98202714D01*
X144875523Y-98240809D01*
X144799333Y-98278904D01*
X144723142Y-98278904D01*
X144646952Y-98240809D01*
X144608857Y-98202714D01*
X144570761Y-98126523D01*
X144532666Y-97974142D01*
X144532666Y-97783666D01*
X144570761Y-97631285D01*
X144608857Y-97555095D01*
X144646952Y-97517000D01*
X144723142Y-97478904D01*
X145485047Y-97478904D02*
X145561238Y-97478904D01*
X145637428Y-97517000D01*
X145675523Y-97555095D01*
X145713619Y-97631285D01*
X145751714Y-97783666D01*
X145751714Y-97974142D01*
X145713619Y-98126523D01*
X145675523Y-98202714D01*
X145637428Y-98240809D01*
X145561238Y-98278904D01*
X145485047Y-98278904D01*
X145408857Y-98240809D01*
X145370761Y-98202714D01*
X145332666Y-98126523D01*
X145294571Y-97974142D01*
X145294571Y-97783666D01*
X145332666Y-97631285D01*
X145370761Y-97555095D01*
X145408857Y-97517000D01*
X145485047Y-97478904D01*
X146094571Y-97745571D02*
X146094571Y-98278904D01*
X146094571Y-97821761D02*
X146132666Y-97783666D01*
X146208857Y-97745571D01*
X146323142Y-97745571D01*
X146399333Y-97783666D01*
X146437428Y-97859857D01*
X146437428Y-98278904D01*
X147085047Y-97859857D02*
X146818380Y-97859857D01*
X146818380Y-98278904D02*
X146818380Y-97478904D01*
X147199333Y-97478904D01*
X147504095Y-97974142D02*
X148113619Y-97974142D01*
X148875523Y-97478904D02*
X148494571Y-97478904D01*
X148456476Y-97859857D01*
X148494571Y-97821761D01*
X148570761Y-97783666D01*
X148761238Y-97783666D01*
X148837428Y-97821761D01*
X148875523Y-97859857D01*
X148913619Y-97936047D01*
X148913619Y-98126523D01*
X148875523Y-98202714D01*
X148837428Y-98240809D01*
X148761238Y-98278904D01*
X148570761Y-98278904D01*
X148494571Y-98240809D01*
X148456476Y-98202714D01*
X149408857Y-97478904D02*
X149485047Y-97478904D01*
X149561238Y-97517000D01*
X149599333Y-97555095D01*
X149637428Y-97631285D01*
X149675523Y-97783666D01*
X149675523Y-97974142D01*
X149637428Y-98126523D01*
X149599333Y-98202714D01*
X149561238Y-98240809D01*
X149485047Y-98278904D01*
X149408857Y-98278904D01*
X149332666Y-98240809D01*
X149294571Y-98202714D01*
X149256476Y-98126523D01*
X149218380Y-97974142D01*
X149218380Y-97783666D01*
X149256476Y-97631285D01*
X149294571Y-97555095D01*
X149332666Y-97517000D01*
X149408857Y-97478904D01*
X149904095Y-97478904D02*
X150170761Y-98278904D01*
X150437428Y-97478904D01*
X157194404Y-102687500D02*
X157099166Y-102639880D01*
X156956309Y-102639880D01*
X156813452Y-102687500D01*
X156718214Y-102782738D01*
X156670595Y-102877976D01*
X156622976Y-103068452D01*
X156622976Y-103211309D01*
X156670595Y-103401785D01*
X156718214Y-103497023D01*
X156813452Y-103592261D01*
X156956309Y-103639880D01*
X157051547Y-103639880D01*
X157194404Y-103592261D01*
X157242023Y-103544642D01*
X157242023Y-103211309D01*
X157051547Y-103211309D01*
X157670595Y-103639880D02*
X157670595Y-102639880D01*
X158242023Y-103639880D01*
X158242023Y-102639880D01*
X158718214Y-103639880D02*
X158718214Y-102639880D01*
X158956309Y-102639880D01*
X159099166Y-102687500D01*
X159194404Y-102782738D01*
X159242023Y-102877976D01*
X159289642Y-103068452D01*
X159289642Y-103211309D01*
X159242023Y-103401785D01*
X159194404Y-103497023D01*
X159099166Y-103592261D01*
X158956309Y-103639880D01*
X158718214Y-103639880D01*
X160242023Y-103639880D02*
X159670595Y-103639880D01*
X159956309Y-103639880D02*
X159956309Y-102639880D01*
X159861071Y-102782738D01*
X159765833Y-102877976D01*
X159670595Y-102925595D01*
X109228190Y-91932380D02*
X109228190Y-90932380D01*
X109228190Y-91408571D02*
X109799619Y-91408571D01*
X109799619Y-91932380D02*
X109799619Y-90932380D01*
X110275809Y-91408571D02*
X110609142Y-91408571D01*
X110752000Y-91932380D02*
X110275809Y-91932380D01*
X110275809Y-90932380D01*
X110752000Y-90932380D01*
X111132952Y-91646666D02*
X111609142Y-91646666D01*
X111037714Y-91932380D02*
X111371047Y-90932380D01*
X111704380Y-91932380D01*
X111894857Y-90932380D02*
X112466285Y-90932380D01*
X112180571Y-91932380D02*
X112180571Y-90932380D01*
X113323428Y-91932380D02*
X112752000Y-91932380D01*
X113037714Y-91932380D02*
X113037714Y-90932380D01*
X112942476Y-91075238D01*
X112847238Y-91170476D01*
X112752000Y-91218095D01*
X161864285Y-76122380D02*
X161388095Y-76122380D01*
X161340476Y-76598571D01*
X161388095Y-76550952D01*
X161483333Y-76503333D01*
X161721428Y-76503333D01*
X161816666Y-76550952D01*
X161864285Y-76598571D01*
X161911904Y-76693809D01*
X161911904Y-76931904D01*
X161864285Y-77027142D01*
X161816666Y-77074761D01*
X161721428Y-77122380D01*
X161483333Y-77122380D01*
X161388095Y-77074761D01*
X161340476Y-77027142D01*
X162197619Y-76122380D02*
X162530952Y-77122380D01*
X162864285Y-76122380D01*
X163197619Y-76741428D02*
X163959523Y-76741428D01*
X163578571Y-77122380D02*
X163578571Y-76360476D01*
X164959523Y-77122380D02*
X164388095Y-77122380D01*
X164673809Y-77122380D02*
X164673809Y-76122380D01*
X164578571Y-76265238D01*
X164483333Y-76360476D01*
X164388095Y-76408095D01*
X158226190Y-88002380D02*
X158892857Y-88002380D01*
X158226190Y-89002380D01*
X158892857Y-89002380D01*
X159035714Y-89097619D02*
X159797619Y-89097619D01*
X160035714Y-89002380D02*
X160035714Y-88002380D01*
X160369047Y-88716666D01*
X160702380Y-88002380D01*
X160702380Y-89002380D01*
X161178571Y-89002380D02*
X161178571Y-88002380D01*
X161654761Y-89002380D02*
X161654761Y-88002380D01*
X162226190Y-89002380D01*
X162226190Y-88002380D01*
X163226190Y-89002380D02*
X162654761Y-89002380D01*
X162940476Y-89002380D02*
X162940476Y-88002380D01*
X162845238Y-88145238D01*
X162750000Y-88240476D01*
X162654761Y-88288095D01*
X149226190Y-96002380D02*
X149892857Y-97002380D01*
X149892857Y-96002380D02*
X149226190Y-97002380D01*
X150035714Y-97097619D02*
X150797619Y-97097619D01*
X151035714Y-97002380D02*
X151035714Y-96002380D01*
X151369047Y-96716666D01*
X151702380Y-96002380D01*
X151702380Y-97002380D01*
X152178571Y-97002380D02*
X152178571Y-96002380D01*
X152654761Y-97002380D02*
X152654761Y-96002380D01*
X153226190Y-97002380D01*
X153226190Y-96002380D01*
X154226190Y-97002380D02*
X153654761Y-97002380D01*
X153940476Y-97002380D02*
X153940476Y-96002380D01*
X153845238Y-96145238D01*
X153750000Y-96240476D01*
X153654761Y-96288095D01*
X140178571Y-96002380D02*
X140845238Y-97002380D01*
X140845238Y-96002380D02*
X140178571Y-97002380D01*
X140988095Y-97097619D02*
X141750000Y-97097619D01*
X142321428Y-96478571D02*
X141988095Y-96478571D01*
X141988095Y-97002380D02*
X141988095Y-96002380D01*
X142464285Y-96002380D01*
X142797619Y-96716666D02*
X143273809Y-96716666D01*
X142702380Y-97002380D02*
X143035714Y-96002380D01*
X143369047Y-97002380D01*
X143702380Y-97002380D02*
X143702380Y-96002380D01*
X144273809Y-97002380D01*
X144273809Y-96002380D01*
X145273809Y-97002380D02*
X144702380Y-97002380D01*
X144988095Y-97002380D02*
X144988095Y-96002380D01*
X144892857Y-96145238D01*
X144797619Y-96240476D01*
X144702380Y-96288095D01*
X147701238Y-103782880D02*
X148272666Y-103782880D01*
X147986952Y-104782880D02*
X147986952Y-103782880D01*
X148606000Y-104782880D02*
X148606000Y-103782880D01*
X148606000Y-104259071D02*
X149177428Y-104259071D01*
X149177428Y-104782880D02*
X149177428Y-103782880D01*
X149653619Y-104401928D02*
X150415523Y-104401928D01*
X150034571Y-104782880D02*
X150034571Y-104020976D01*
X151415523Y-104782880D02*
X150844095Y-104782880D01*
X151129809Y-104782880D02*
X151129809Y-103782880D01*
X151034571Y-103925738D01*
X150939333Y-104020976D01*
X150844095Y-104068595D01*
X159630952Y-97002380D02*
X159630952Y-96002380D01*
X160011904Y-96002380D01*
X160107142Y-96050000D01*
X160154761Y-96097619D01*
X160202380Y-96192857D01*
X160202380Y-96335714D01*
X160154761Y-96430952D01*
X160107142Y-96478571D01*
X160011904Y-96526190D01*
X159630952Y-96526190D01*
X160488095Y-96002380D02*
X161059523Y-96002380D01*
X160773809Y-97002380D02*
X160773809Y-96002380D01*
X161916666Y-97002380D02*
X161345238Y-97002380D01*
X161630952Y-97002380D02*
X161630952Y-96002380D01*
X161535714Y-96145238D01*
X161440476Y-96240476D01*
X161345238Y-96288095D01*
X120083333Y-89002380D02*
X120083333Y-88002380D01*
X120416666Y-88716666D01*
X120750000Y-88002380D01*
X120750000Y-89002380D01*
X121369047Y-89002380D02*
X121273809Y-88954761D01*
X121226190Y-88907142D01*
X121178571Y-88811904D01*
X121178571Y-88526190D01*
X121226190Y-88430952D01*
X121273809Y-88383333D01*
X121369047Y-88335714D01*
X121511904Y-88335714D01*
X121607142Y-88383333D01*
X121654761Y-88430952D01*
X121702380Y-88526190D01*
X121702380Y-88811904D01*
X121654761Y-88907142D01*
X121607142Y-88954761D01*
X121511904Y-89002380D01*
X121369047Y-89002380D01*
X121988095Y-88335714D02*
X122369047Y-88335714D01*
X122130952Y-88002380D02*
X122130952Y-88859523D01*
X122178571Y-88954761D01*
X122273809Y-89002380D01*
X122369047Y-89002380D01*
X122845238Y-89002380D02*
X122750000Y-88954761D01*
X122702380Y-88907142D01*
X122654761Y-88811904D01*
X122654761Y-88526190D01*
X122702380Y-88430952D01*
X122750000Y-88383333D01*
X122845238Y-88335714D01*
X122988095Y-88335714D01*
X123083333Y-88383333D01*
X123130952Y-88430952D01*
X123178571Y-88526190D01*
X123178571Y-88811904D01*
X123130952Y-88907142D01*
X123083333Y-88954761D01*
X122988095Y-89002380D01*
X122845238Y-89002380D01*
X123607142Y-89002380D02*
X123607142Y-88335714D01*
X123607142Y-88526190D02*
X123654761Y-88430952D01*
X123702380Y-88383333D01*
X123797619Y-88335714D01*
X123892857Y-88335714D01*
X123988095Y-89097619D02*
X124750000Y-89097619D01*
X124892857Y-88002380D02*
X125559523Y-89002380D01*
X125559523Y-88002380D02*
X124892857Y-89002380D01*
X126464285Y-89002380D02*
X125892857Y-89002380D01*
X126178571Y-89002380D02*
X126178571Y-88002380D01*
X126083333Y-88145238D01*
X125988095Y-88240476D01*
X125892857Y-88288095D01*
X120107142Y-97002380D02*
X120107142Y-96002380D01*
X120440476Y-96716666D01*
X120773809Y-96002380D01*
X120773809Y-97002380D01*
X121392857Y-97002380D02*
X121297619Y-96954761D01*
X121250000Y-96907142D01*
X121202380Y-96811904D01*
X121202380Y-96526190D01*
X121250000Y-96430952D01*
X121297619Y-96383333D01*
X121392857Y-96335714D01*
X121535714Y-96335714D01*
X121630952Y-96383333D01*
X121678571Y-96430952D01*
X121726190Y-96526190D01*
X121726190Y-96811904D01*
X121678571Y-96907142D01*
X121630952Y-96954761D01*
X121535714Y-97002380D01*
X121392857Y-97002380D01*
X122011904Y-96335714D02*
X122392857Y-96335714D01*
X122154761Y-96002380D02*
X122154761Y-96859523D01*
X122202380Y-96954761D01*
X122297619Y-97002380D01*
X122392857Y-97002380D01*
X122869047Y-97002380D02*
X122773809Y-96954761D01*
X122726190Y-96907142D01*
X122678571Y-96811904D01*
X122678571Y-96526190D01*
X122726190Y-96430952D01*
X122773809Y-96383333D01*
X122869047Y-96335714D01*
X123011904Y-96335714D01*
X123107142Y-96383333D01*
X123154761Y-96430952D01*
X123202380Y-96526190D01*
X123202380Y-96811904D01*
X123154761Y-96907142D01*
X123107142Y-96954761D01*
X123011904Y-97002380D01*
X122869047Y-97002380D01*
X123630952Y-97002380D02*
X123630952Y-96335714D01*
X123630952Y-96526190D02*
X123678571Y-96430952D01*
X123726190Y-96383333D01*
X123821428Y-96335714D01*
X123916666Y-96335714D01*
X124011904Y-97097619D02*
X124773809Y-97097619D01*
X125011904Y-96478571D02*
X125345238Y-96478571D01*
X125488095Y-97002380D02*
X125011904Y-97002380D01*
X125011904Y-96002380D01*
X125488095Y-96002380D01*
X126440476Y-97002380D02*
X125869047Y-97002380D01*
X126154761Y-97002380D02*
X126154761Y-96002380D01*
X126059523Y-96145238D01*
X125964285Y-96240476D01*
X125869047Y-96288095D01*
X148464285Y-88478571D02*
X148130952Y-88478571D01*
X148130952Y-89002380D02*
X148130952Y-88002380D01*
X148607142Y-88002380D01*
X148988095Y-89002380D02*
X148988095Y-88002380D01*
X149940476Y-89002380D02*
X149464285Y-89002380D01*
X149464285Y-88002380D01*
X150035714Y-89097619D02*
X150797619Y-89097619D01*
X150988095Y-88954761D02*
X151130952Y-89002380D01*
X151369047Y-89002380D01*
X151464285Y-88954761D01*
X151511904Y-88907142D01*
X151559523Y-88811904D01*
X151559523Y-88716666D01*
X151511904Y-88621428D01*
X151464285Y-88573809D01*
X151369047Y-88526190D01*
X151178571Y-88478571D01*
X151083333Y-88430952D01*
X151035714Y-88383333D01*
X150988095Y-88288095D01*
X150988095Y-88192857D01*
X151035714Y-88097619D01*
X151083333Y-88050000D01*
X151178571Y-88002380D01*
X151416666Y-88002380D01*
X151559523Y-88050000D01*
X151988095Y-88478571D02*
X152321428Y-88478571D01*
X152464285Y-89002380D02*
X151988095Y-89002380D01*
X151988095Y-88002380D01*
X152464285Y-88002380D01*
X152892857Y-89002380D02*
X152892857Y-88002380D01*
X153464285Y-89002380D01*
X153464285Y-88002380D01*
X153892857Y-88954761D02*
X154035714Y-89002380D01*
X154273809Y-89002380D01*
X154369047Y-88954761D01*
X154416666Y-88907142D01*
X154464285Y-88811904D01*
X154464285Y-88716666D01*
X154416666Y-88621428D01*
X154369047Y-88573809D01*
X154273809Y-88526190D01*
X154083333Y-88478571D01*
X153988095Y-88430952D01*
X153940476Y-88383333D01*
X153892857Y-88288095D01*
X153892857Y-88192857D01*
X153940476Y-88097619D01*
X153988095Y-88050000D01*
X154083333Y-88002380D01*
X154321428Y-88002380D01*
X154464285Y-88050000D01*
X155416666Y-89002380D02*
X154845238Y-89002380D01*
X155130952Y-89002380D02*
X155130952Y-88002380D01*
X155035714Y-88145238D01*
X154940476Y-88240476D01*
X154845238Y-88288095D01*
X141464285Y-88478571D02*
X141130952Y-88478571D01*
X141130952Y-89002380D02*
X141130952Y-88002380D01*
X141607142Y-88002380D01*
X141940476Y-88716666D02*
X142416666Y-88716666D01*
X141845238Y-89002380D02*
X142178571Y-88002380D01*
X142511904Y-89002380D01*
X142845238Y-89002380D02*
X142845238Y-88002380D01*
X143416666Y-89002380D01*
X143416666Y-88002380D01*
X144416666Y-89002380D02*
X143845238Y-89002380D01*
X144130952Y-89002380D02*
X144130952Y-88002380D01*
X144035714Y-88145238D01*
X143940476Y-88240476D01*
X143845238Y-88288095D01*
X132023809Y-92758571D02*
X132166666Y-92806190D01*
X132214285Y-92853809D01*
X132261904Y-92949047D01*
X132261904Y-93091904D01*
X132214285Y-93187142D01*
X132166666Y-93234761D01*
X132071428Y-93282380D01*
X131690476Y-93282380D01*
X131690476Y-92282380D01*
X132023809Y-92282380D01*
X132119047Y-92330000D01*
X132166666Y-92377619D01*
X132214285Y-92472857D01*
X132214285Y-92568095D01*
X132166666Y-92663333D01*
X132119047Y-92710952D01*
X132023809Y-92758571D01*
X131690476Y-92758571D01*
X133166666Y-93282380D02*
X132690476Y-93282380D01*
X132690476Y-92282380D01*
X133357142Y-92282380D02*
X133928571Y-92282380D01*
X133642857Y-93282380D02*
X133642857Y-92282380D01*
X134404761Y-93282380D02*
X134309523Y-93234761D01*
X134261904Y-93187142D01*
X134214285Y-93091904D01*
X134214285Y-92806190D01*
X134261904Y-92710952D01*
X134309523Y-92663333D01*
X134404761Y-92615714D01*
X134547619Y-92615714D01*
X134642857Y-92663333D01*
X134690476Y-92710952D01*
X134738095Y-92806190D01*
X134738095Y-93091904D01*
X134690476Y-93187142D01*
X134642857Y-93234761D01*
X134547619Y-93282380D01*
X134404761Y-93282380D01*
X135595238Y-92615714D02*
X135595238Y-93282380D01*
X135166666Y-92615714D02*
X135166666Y-93139523D01*
X135214285Y-93234761D01*
X135309523Y-93282380D01*
X135452380Y-93282380D01*
X135547619Y-93234761D01*
X135595238Y-93187142D01*
X136500000Y-93234761D02*
X136404761Y-93282380D01*
X136214285Y-93282380D01*
X136119047Y-93234761D01*
X136071428Y-93187142D01*
X136023809Y-93091904D01*
X136023809Y-92806190D01*
X136071428Y-92710952D01*
X136119047Y-92663333D01*
X136214285Y-92615714D01*
X136404761Y-92615714D01*
X136500000Y-92663333D01*
X136928571Y-93282380D02*
X136928571Y-92282380D01*
X137357142Y-93282380D02*
X137357142Y-92758571D01*
X137309523Y-92663333D01*
X137214285Y-92615714D01*
X137071428Y-92615714D01*
X136976190Y-92663333D01*
X136928571Y-92710952D01*
X138357142Y-93282380D02*
X137785714Y-93282380D01*
X138071428Y-93282380D02*
X138071428Y-92282380D01*
X137976190Y-92425238D01*
X137880952Y-92520476D01*
X137785714Y-92568095D01*
M02*
