G04 #@! TF.GenerationSoftware,KiCad,Pcbnew,(5.1.0)-1*
G04 #@! TF.CreationDate,2019-10-14T12:16:32+08:00*
G04 #@! TF.ProjectId,RibbonCable_MB_BreakdownBoard,52696262-6f6e-4436-9162-6c655f4d425f,rev?*
G04 #@! TF.SameCoordinates,Original*
G04 #@! TF.FileFunction,Paste,Top*
G04 #@! TF.FilePolarity,Positive*
%FSLAX46Y46*%
G04 Gerber Fmt 4.6, Leading zero omitted, Abs format (unit mm)*
G04 Created by KiCad (PCBNEW (5.1.0)-1) date 2019-10-14 12:16:32*
%MOMM*%
%LPD*%
G04 APERTURE LIST*
%ADD10R,1.550000X0.600000*%
%ADD11C,0.150000*%
%ADD12C,0.875000*%
G04 APERTURE END LIST*
D10*
X140812500Y-98171000D03*
X140812500Y-99441000D03*
X140812500Y-100711000D03*
X140812500Y-101981000D03*
X135412500Y-101981000D03*
X135412500Y-100711000D03*
X135412500Y-99441000D03*
X135412500Y-98171000D03*
D11*
G36*
X142962691Y-100681553D02*
G01*
X142983926Y-100684703D01*
X143004750Y-100689919D01*
X143024962Y-100697151D01*
X143044368Y-100706330D01*
X143062781Y-100717366D01*
X143080024Y-100730154D01*
X143095930Y-100744570D01*
X143110346Y-100760476D01*
X143123134Y-100777719D01*
X143134170Y-100796132D01*
X143143349Y-100815538D01*
X143150581Y-100835750D01*
X143155797Y-100856574D01*
X143158947Y-100877809D01*
X143160000Y-100899250D01*
X143160000Y-101411750D01*
X143158947Y-101433191D01*
X143155797Y-101454426D01*
X143150581Y-101475250D01*
X143143349Y-101495462D01*
X143134170Y-101514868D01*
X143123134Y-101533281D01*
X143110346Y-101550524D01*
X143095930Y-101566430D01*
X143080024Y-101580846D01*
X143062781Y-101593634D01*
X143044368Y-101604670D01*
X143024962Y-101613849D01*
X143004750Y-101621081D01*
X142983926Y-101626297D01*
X142962691Y-101629447D01*
X142941250Y-101630500D01*
X142503750Y-101630500D01*
X142482309Y-101629447D01*
X142461074Y-101626297D01*
X142440250Y-101621081D01*
X142420038Y-101613849D01*
X142400632Y-101604670D01*
X142382219Y-101593634D01*
X142364976Y-101580846D01*
X142349070Y-101566430D01*
X142334654Y-101550524D01*
X142321866Y-101533281D01*
X142310830Y-101514868D01*
X142301651Y-101495462D01*
X142294419Y-101475250D01*
X142289203Y-101454426D01*
X142286053Y-101433191D01*
X142285000Y-101411750D01*
X142285000Y-100899250D01*
X142286053Y-100877809D01*
X142289203Y-100856574D01*
X142294419Y-100835750D01*
X142301651Y-100815538D01*
X142310830Y-100796132D01*
X142321866Y-100777719D01*
X142334654Y-100760476D01*
X142349070Y-100744570D01*
X142364976Y-100730154D01*
X142382219Y-100717366D01*
X142400632Y-100706330D01*
X142420038Y-100697151D01*
X142440250Y-100689919D01*
X142461074Y-100684703D01*
X142482309Y-100681553D01*
X142503750Y-100680500D01*
X142941250Y-100680500D01*
X142962691Y-100681553D01*
X142962691Y-100681553D01*
G37*
D12*
X142722500Y-101155500D03*
D11*
G36*
X144537691Y-100681553D02*
G01*
X144558926Y-100684703D01*
X144579750Y-100689919D01*
X144599962Y-100697151D01*
X144619368Y-100706330D01*
X144637781Y-100717366D01*
X144655024Y-100730154D01*
X144670930Y-100744570D01*
X144685346Y-100760476D01*
X144698134Y-100777719D01*
X144709170Y-100796132D01*
X144718349Y-100815538D01*
X144725581Y-100835750D01*
X144730797Y-100856574D01*
X144733947Y-100877809D01*
X144735000Y-100899250D01*
X144735000Y-101411750D01*
X144733947Y-101433191D01*
X144730797Y-101454426D01*
X144725581Y-101475250D01*
X144718349Y-101495462D01*
X144709170Y-101514868D01*
X144698134Y-101533281D01*
X144685346Y-101550524D01*
X144670930Y-101566430D01*
X144655024Y-101580846D01*
X144637781Y-101593634D01*
X144619368Y-101604670D01*
X144599962Y-101613849D01*
X144579750Y-101621081D01*
X144558926Y-101626297D01*
X144537691Y-101629447D01*
X144516250Y-101630500D01*
X144078750Y-101630500D01*
X144057309Y-101629447D01*
X144036074Y-101626297D01*
X144015250Y-101621081D01*
X143995038Y-101613849D01*
X143975632Y-101604670D01*
X143957219Y-101593634D01*
X143939976Y-101580846D01*
X143924070Y-101566430D01*
X143909654Y-101550524D01*
X143896866Y-101533281D01*
X143885830Y-101514868D01*
X143876651Y-101495462D01*
X143869419Y-101475250D01*
X143864203Y-101454426D01*
X143861053Y-101433191D01*
X143860000Y-101411750D01*
X143860000Y-100899250D01*
X143861053Y-100877809D01*
X143864203Y-100856574D01*
X143869419Y-100835750D01*
X143876651Y-100815538D01*
X143885830Y-100796132D01*
X143896866Y-100777719D01*
X143909654Y-100760476D01*
X143924070Y-100744570D01*
X143939976Y-100730154D01*
X143957219Y-100717366D01*
X143975632Y-100706330D01*
X143995038Y-100697151D01*
X144015250Y-100689919D01*
X144036074Y-100684703D01*
X144057309Y-100681553D01*
X144078750Y-100680500D01*
X144516250Y-100680500D01*
X144537691Y-100681553D01*
X144537691Y-100681553D01*
G37*
D12*
X144297500Y-101155500D03*
D11*
G36*
X142962691Y-102269053D02*
G01*
X142983926Y-102272203D01*
X143004750Y-102277419D01*
X143024962Y-102284651D01*
X143044368Y-102293830D01*
X143062781Y-102304866D01*
X143080024Y-102317654D01*
X143095930Y-102332070D01*
X143110346Y-102347976D01*
X143123134Y-102365219D01*
X143134170Y-102383632D01*
X143143349Y-102403038D01*
X143150581Y-102423250D01*
X143155797Y-102444074D01*
X143158947Y-102465309D01*
X143160000Y-102486750D01*
X143160000Y-102999250D01*
X143158947Y-103020691D01*
X143155797Y-103041926D01*
X143150581Y-103062750D01*
X143143349Y-103082962D01*
X143134170Y-103102368D01*
X143123134Y-103120781D01*
X143110346Y-103138024D01*
X143095930Y-103153930D01*
X143080024Y-103168346D01*
X143062781Y-103181134D01*
X143044368Y-103192170D01*
X143024962Y-103201349D01*
X143004750Y-103208581D01*
X142983926Y-103213797D01*
X142962691Y-103216947D01*
X142941250Y-103218000D01*
X142503750Y-103218000D01*
X142482309Y-103216947D01*
X142461074Y-103213797D01*
X142440250Y-103208581D01*
X142420038Y-103201349D01*
X142400632Y-103192170D01*
X142382219Y-103181134D01*
X142364976Y-103168346D01*
X142349070Y-103153930D01*
X142334654Y-103138024D01*
X142321866Y-103120781D01*
X142310830Y-103102368D01*
X142301651Y-103082962D01*
X142294419Y-103062750D01*
X142289203Y-103041926D01*
X142286053Y-103020691D01*
X142285000Y-102999250D01*
X142285000Y-102486750D01*
X142286053Y-102465309D01*
X142289203Y-102444074D01*
X142294419Y-102423250D01*
X142301651Y-102403038D01*
X142310830Y-102383632D01*
X142321866Y-102365219D01*
X142334654Y-102347976D01*
X142349070Y-102332070D01*
X142364976Y-102317654D01*
X142382219Y-102304866D01*
X142400632Y-102293830D01*
X142420038Y-102284651D01*
X142440250Y-102277419D01*
X142461074Y-102272203D01*
X142482309Y-102269053D01*
X142503750Y-102268000D01*
X142941250Y-102268000D01*
X142962691Y-102269053D01*
X142962691Y-102269053D01*
G37*
D12*
X142722500Y-102743000D03*
D11*
G36*
X144537691Y-102269053D02*
G01*
X144558926Y-102272203D01*
X144579750Y-102277419D01*
X144599962Y-102284651D01*
X144619368Y-102293830D01*
X144637781Y-102304866D01*
X144655024Y-102317654D01*
X144670930Y-102332070D01*
X144685346Y-102347976D01*
X144698134Y-102365219D01*
X144709170Y-102383632D01*
X144718349Y-102403038D01*
X144725581Y-102423250D01*
X144730797Y-102444074D01*
X144733947Y-102465309D01*
X144735000Y-102486750D01*
X144735000Y-102999250D01*
X144733947Y-103020691D01*
X144730797Y-103041926D01*
X144725581Y-103062750D01*
X144718349Y-103082962D01*
X144709170Y-103102368D01*
X144698134Y-103120781D01*
X144685346Y-103138024D01*
X144670930Y-103153930D01*
X144655024Y-103168346D01*
X144637781Y-103181134D01*
X144619368Y-103192170D01*
X144599962Y-103201349D01*
X144579750Y-103208581D01*
X144558926Y-103213797D01*
X144537691Y-103216947D01*
X144516250Y-103218000D01*
X144078750Y-103218000D01*
X144057309Y-103216947D01*
X144036074Y-103213797D01*
X144015250Y-103208581D01*
X143995038Y-103201349D01*
X143975632Y-103192170D01*
X143957219Y-103181134D01*
X143939976Y-103168346D01*
X143924070Y-103153930D01*
X143909654Y-103138024D01*
X143896866Y-103120781D01*
X143885830Y-103102368D01*
X143876651Y-103082962D01*
X143869419Y-103062750D01*
X143864203Y-103041926D01*
X143861053Y-103020691D01*
X143860000Y-102999250D01*
X143860000Y-102486750D01*
X143861053Y-102465309D01*
X143864203Y-102444074D01*
X143869419Y-102423250D01*
X143876651Y-102403038D01*
X143885830Y-102383632D01*
X143896866Y-102365219D01*
X143909654Y-102347976D01*
X143924070Y-102332070D01*
X143939976Y-102317654D01*
X143957219Y-102304866D01*
X143975632Y-102293830D01*
X143995038Y-102284651D01*
X144015250Y-102277419D01*
X144036074Y-102272203D01*
X144057309Y-102269053D01*
X144078750Y-102268000D01*
X144516250Y-102268000D01*
X144537691Y-102269053D01*
X144537691Y-102269053D01*
G37*
D12*
X144297500Y-102743000D03*
D11*
G36*
X143025691Y-99195053D02*
G01*
X143046926Y-99198203D01*
X143067750Y-99203419D01*
X143087962Y-99210651D01*
X143107368Y-99219830D01*
X143125781Y-99230866D01*
X143143024Y-99243654D01*
X143158930Y-99258070D01*
X143173346Y-99273976D01*
X143186134Y-99291219D01*
X143197170Y-99309632D01*
X143206349Y-99329038D01*
X143213581Y-99349250D01*
X143218797Y-99370074D01*
X143221947Y-99391309D01*
X143223000Y-99412750D01*
X143223000Y-99850250D01*
X143221947Y-99871691D01*
X143218797Y-99892926D01*
X143213581Y-99913750D01*
X143206349Y-99933962D01*
X143197170Y-99953368D01*
X143186134Y-99971781D01*
X143173346Y-99989024D01*
X143158930Y-100004930D01*
X143143024Y-100019346D01*
X143125781Y-100032134D01*
X143107368Y-100043170D01*
X143087962Y-100052349D01*
X143067750Y-100059581D01*
X143046926Y-100064797D01*
X143025691Y-100067947D01*
X143004250Y-100069000D01*
X142491750Y-100069000D01*
X142470309Y-100067947D01*
X142449074Y-100064797D01*
X142428250Y-100059581D01*
X142408038Y-100052349D01*
X142388632Y-100043170D01*
X142370219Y-100032134D01*
X142352976Y-100019346D01*
X142337070Y-100004930D01*
X142322654Y-99989024D01*
X142309866Y-99971781D01*
X142298830Y-99953368D01*
X142289651Y-99933962D01*
X142282419Y-99913750D01*
X142277203Y-99892926D01*
X142274053Y-99871691D01*
X142273000Y-99850250D01*
X142273000Y-99412750D01*
X142274053Y-99391309D01*
X142277203Y-99370074D01*
X142282419Y-99349250D01*
X142289651Y-99329038D01*
X142298830Y-99309632D01*
X142309866Y-99291219D01*
X142322654Y-99273976D01*
X142337070Y-99258070D01*
X142352976Y-99243654D01*
X142370219Y-99230866D01*
X142388632Y-99219830D01*
X142408038Y-99210651D01*
X142428250Y-99203419D01*
X142449074Y-99198203D01*
X142470309Y-99195053D01*
X142491750Y-99194000D01*
X143004250Y-99194000D01*
X143025691Y-99195053D01*
X143025691Y-99195053D01*
G37*
D12*
X142748000Y-99631500D03*
D11*
G36*
X143025691Y-97620053D02*
G01*
X143046926Y-97623203D01*
X143067750Y-97628419D01*
X143087962Y-97635651D01*
X143107368Y-97644830D01*
X143125781Y-97655866D01*
X143143024Y-97668654D01*
X143158930Y-97683070D01*
X143173346Y-97698976D01*
X143186134Y-97716219D01*
X143197170Y-97734632D01*
X143206349Y-97754038D01*
X143213581Y-97774250D01*
X143218797Y-97795074D01*
X143221947Y-97816309D01*
X143223000Y-97837750D01*
X143223000Y-98275250D01*
X143221947Y-98296691D01*
X143218797Y-98317926D01*
X143213581Y-98338750D01*
X143206349Y-98358962D01*
X143197170Y-98378368D01*
X143186134Y-98396781D01*
X143173346Y-98414024D01*
X143158930Y-98429930D01*
X143143024Y-98444346D01*
X143125781Y-98457134D01*
X143107368Y-98468170D01*
X143087962Y-98477349D01*
X143067750Y-98484581D01*
X143046926Y-98489797D01*
X143025691Y-98492947D01*
X143004250Y-98494000D01*
X142491750Y-98494000D01*
X142470309Y-98492947D01*
X142449074Y-98489797D01*
X142428250Y-98484581D01*
X142408038Y-98477349D01*
X142388632Y-98468170D01*
X142370219Y-98457134D01*
X142352976Y-98444346D01*
X142337070Y-98429930D01*
X142322654Y-98414024D01*
X142309866Y-98396781D01*
X142298830Y-98378368D01*
X142289651Y-98358962D01*
X142282419Y-98338750D01*
X142277203Y-98317926D01*
X142274053Y-98296691D01*
X142273000Y-98275250D01*
X142273000Y-97837750D01*
X142274053Y-97816309D01*
X142277203Y-97795074D01*
X142282419Y-97774250D01*
X142289651Y-97754038D01*
X142298830Y-97734632D01*
X142309866Y-97716219D01*
X142322654Y-97698976D01*
X142337070Y-97683070D01*
X142352976Y-97668654D01*
X142370219Y-97655866D01*
X142388632Y-97644830D01*
X142408038Y-97635651D01*
X142428250Y-97628419D01*
X142449074Y-97623203D01*
X142470309Y-97620053D01*
X142491750Y-97619000D01*
X143004250Y-97619000D01*
X143025691Y-97620053D01*
X143025691Y-97620053D01*
G37*
D12*
X142748000Y-98056500D03*
M02*
