G04 #@! TF.GenerationSoftware,KiCad,Pcbnew,(5.1.9)-1*
G04 #@! TF.CreationDate,2021-04-19T10:33:25-04:00*
G04 #@! TF.ProjectId,Transfer_Board,5472616e-7366-4657-925f-426f6172642e,rev?*
G04 #@! TF.SameCoordinates,Original*
G04 #@! TF.FileFunction,Soldermask,Bot*
G04 #@! TF.FilePolarity,Negative*
%FSLAX46Y46*%
G04 Gerber Fmt 4.6, Leading zero omitted, Abs format (unit mm)*
G04 Created by KiCad (PCBNEW (5.1.9)-1) date 2021-04-19 10:33:25*
%MOMM*%
%LPD*%
G01*
G04 APERTURE LIST*
%ADD10C,5.102000*%
%ADD11O,1.802000X2.052000*%
%ADD12O,1.802000X2.102000*%
%ADD13O,1.829200X1.829200*%
%ADD14C,2.802000*%
%ADD15C,0.100000*%
G04 APERTURE END LIST*
D10*
X115600000Y-92900000D03*
X115600000Y-59700000D03*
D11*
X132730000Y-68000000D03*
X130230000Y-68000000D03*
X127730000Y-68000000D03*
G36*
G01*
X124329000Y-68761000D02*
X124329000Y-67239000D01*
G75*
G02*
X124594000Y-66974000I265000J0D01*
G01*
X125866000Y-66974000D01*
G75*
G02*
X126131000Y-67239000I0J-265000D01*
G01*
X126131000Y-68761000D01*
G75*
G02*
X125866000Y-69026000I-265000J0D01*
G01*
X124594000Y-69026000D01*
G75*
G02*
X124329000Y-68761000I0J265000D01*
G01*
G37*
D12*
X133858000Y-78000000D03*
G36*
G01*
X137259000Y-77214000D02*
X137259000Y-78786000D01*
G75*
G02*
X136994000Y-79051000I-265000J0D01*
G01*
X135722000Y-79051000D01*
G75*
G02*
X135457000Y-78786000I0J265000D01*
G01*
X135457000Y-77214000D01*
G75*
G02*
X135722000Y-76949000I265000J0D01*
G01*
X136994000Y-76949000D01*
G75*
G02*
X137259000Y-77214000I0J-265000D01*
G01*
G37*
D11*
X132730000Y-59025000D03*
X130230000Y-59025000D03*
X127730000Y-59025000D03*
G36*
G01*
X124329000Y-60000000D02*
X124329000Y-58050000D01*
G75*
G02*
X124380000Y-57999000I51000J0D01*
G01*
X126080000Y-57999000D01*
G75*
G02*
X126131000Y-58050000I0J-51000D01*
G01*
X126131000Y-60000000D01*
G75*
G02*
X126080000Y-60051000I-51000J0D01*
G01*
X124380000Y-60051000D01*
G75*
G02*
X124329000Y-60000000I0J51000D01*
G01*
G37*
X125396000Y-76950000D03*
X122896000Y-76950000D03*
G36*
G01*
X119495000Y-77711000D02*
X119495000Y-76189000D01*
G75*
G02*
X119760000Y-75924000I265000J0D01*
G01*
X121032000Y-75924000D01*
G75*
G02*
X121297000Y-76189000I0J-265000D01*
G01*
X121297000Y-77711000D01*
G75*
G02*
X121032000Y-77976000I-265000J0D01*
G01*
X119760000Y-77976000D01*
G75*
G02*
X119495000Y-77711000I0J265000D01*
G01*
G37*
D12*
X133858000Y-87630000D03*
G36*
G01*
X137259000Y-86844000D02*
X137259000Y-88416000D01*
G75*
G02*
X136994000Y-88681000I-265000J0D01*
G01*
X135722000Y-88681000D01*
G75*
G02*
X135457000Y-88416000I0J265000D01*
G01*
X135457000Y-86844000D01*
G75*
G02*
X135722000Y-86579000I265000J0D01*
G01*
X136994000Y-86579000D01*
G75*
G02*
X137259000Y-86844000I0J-265000D01*
G01*
G37*
D13*
X104960000Y-55940000D03*
X107500000Y-55940000D03*
X104960000Y-58480000D03*
X107500000Y-58480000D03*
X104960000Y-61020000D03*
X107500000Y-61020000D03*
X104960000Y-63560000D03*
X107500000Y-63560000D03*
X104960000Y-66100000D03*
X107500000Y-66100000D03*
X104960000Y-68640000D03*
X107500000Y-68640000D03*
X104960000Y-71180000D03*
X107500000Y-71180000D03*
X104960000Y-73720000D03*
X107500000Y-73720000D03*
X104960000Y-76260000D03*
X107500000Y-76260000D03*
X104960000Y-78800000D03*
X107500000Y-78800000D03*
X104960000Y-81340000D03*
X107500000Y-81340000D03*
X104960000Y-83880000D03*
X107500000Y-83880000D03*
X104960000Y-86420000D03*
X107500000Y-86420000D03*
X104960000Y-88960000D03*
X107500000Y-88960000D03*
X104960000Y-91500000D03*
G36*
G01*
X108414600Y-90636400D02*
X108414600Y-92363600D01*
G75*
G02*
X108363600Y-92414600I-51000J0D01*
G01*
X106636400Y-92414600D01*
G75*
G02*
X106585400Y-92363600I0J51000D01*
G01*
X106585400Y-90636400D01*
G75*
G02*
X106636400Y-90585400I51000J0D01*
G01*
X108363600Y-90585400D01*
G75*
G02*
X108414600Y-90636400I0J-51000D01*
G01*
G37*
G36*
G01*
X148221000Y-86844000D02*
X148221000Y-88416000D01*
G75*
G02*
X147956000Y-88681000I-265000J0D01*
G01*
X146684000Y-88681000D01*
G75*
G02*
X146419000Y-88416000I0J265000D01*
G01*
X146419000Y-86844000D01*
G75*
G02*
X146684000Y-86579000I265000J0D01*
G01*
X147956000Y-86579000D01*
G75*
G02*
X148221000Y-86844000I0J-265000D01*
G01*
G37*
D12*
X144820000Y-87630000D03*
D11*
X132730000Y-50050000D03*
X130230000Y-50050000D03*
X127730000Y-50050000D03*
G36*
G01*
X124329000Y-51025000D02*
X124329000Y-49075000D01*
G75*
G02*
X124380000Y-49024000I51000J0D01*
G01*
X126080000Y-49024000D01*
G75*
G02*
X126131000Y-49075000I0J-51000D01*
G01*
X126131000Y-51025000D01*
G75*
G02*
X126080000Y-51076000I-51000J0D01*
G01*
X124380000Y-51076000D01*
G75*
G02*
X124329000Y-51025000I0J51000D01*
G01*
G37*
G36*
G01*
X148221000Y-77214000D02*
X148221000Y-78786000D01*
G75*
G02*
X147956000Y-79051000I-265000J0D01*
G01*
X146684000Y-79051000D01*
G75*
G02*
X146419000Y-78786000I0J265000D01*
G01*
X146419000Y-77214000D01*
G75*
G02*
X146684000Y-76949000I265000J0D01*
G01*
X147956000Y-76949000D01*
G75*
G02*
X148221000Y-77214000I0J-265000D01*
G01*
G37*
D12*
X144820000Y-78000000D03*
G36*
G01*
X118901000Y-51358445D02*
X118901000Y-53641555D01*
G75*
G02*
X118641555Y-53901000I-259445J0D01*
G01*
X116358445Y-53901000D01*
G75*
G02*
X116099000Y-53641555I0J259445D01*
G01*
X116099000Y-51358445D01*
G75*
G02*
X116358445Y-51099000I259445J0D01*
G01*
X118641555Y-51099000D01*
G75*
G02*
X118901000Y-51358445I0J-259445D01*
G01*
G37*
D14*
X113540000Y-52500000D03*
D11*
X125396000Y-86580000D03*
X122896000Y-86580000D03*
G36*
G01*
X119495000Y-87341000D02*
X119495000Y-85819000D01*
G75*
G02*
X119760000Y-85554000I265000J0D01*
G01*
X121032000Y-85554000D01*
G75*
G02*
X121297000Y-85819000I0J-265000D01*
G01*
X121297000Y-87341000D01*
G75*
G02*
X121032000Y-87606000I-265000J0D01*
G01*
X119760000Y-87606000D01*
G75*
G02*
X119495000Y-87341000I0J265000D01*
G01*
G37*
D15*
G36*
X146420990Y-88415804D02*
G01*
X146426062Y-88467304D01*
X146441029Y-88516642D01*
X146465332Y-88562110D01*
X146498038Y-88601962D01*
X146537890Y-88634668D01*
X146583358Y-88658971D01*
X146632696Y-88673938D01*
X146684196Y-88679010D01*
X146685822Y-88680175D01*
X146685626Y-88682165D01*
X146684000Y-88683000D01*
X146601903Y-88683000D01*
X146601707Y-88682990D01*
X146561204Y-88679001D01*
X146560819Y-88678925D01*
X146527767Y-88668899D01*
X146527405Y-88668749D01*
X146496954Y-88652472D01*
X146496628Y-88652254D01*
X146469932Y-88630345D01*
X146469655Y-88630068D01*
X146447746Y-88603372D01*
X146447528Y-88603046D01*
X146431251Y-88572595D01*
X146431101Y-88572233D01*
X146421075Y-88539181D01*
X146420999Y-88538796D01*
X146417010Y-88498293D01*
X146417000Y-88498097D01*
X146417000Y-88416000D01*
X146418000Y-88414268D01*
X146420000Y-88414268D01*
X146420990Y-88415804D01*
G37*
G36*
X148222165Y-88414374D02*
G01*
X148223000Y-88416000D01*
X148223000Y-88498097D01*
X148222990Y-88498293D01*
X148219001Y-88538796D01*
X148218925Y-88539181D01*
X148208899Y-88572233D01*
X148208749Y-88572595D01*
X148192472Y-88603046D01*
X148192254Y-88603372D01*
X148170345Y-88630068D01*
X148170068Y-88630345D01*
X148143372Y-88652254D01*
X148143046Y-88652472D01*
X148112595Y-88668749D01*
X148112233Y-88668899D01*
X148079181Y-88678925D01*
X148078796Y-88679001D01*
X148038293Y-88682990D01*
X148038097Y-88683000D01*
X147956000Y-88683000D01*
X147954268Y-88682000D01*
X147954268Y-88680000D01*
X147955804Y-88679010D01*
X148007304Y-88673938D01*
X148056642Y-88658971D01*
X148102110Y-88634668D01*
X148141962Y-88601962D01*
X148174668Y-88562110D01*
X148198971Y-88516642D01*
X148213938Y-88467304D01*
X148219010Y-88415804D01*
X148220175Y-88414178D01*
X148222165Y-88414374D01*
G37*
G36*
X135458990Y-88415804D02*
G01*
X135464062Y-88467304D01*
X135479029Y-88516642D01*
X135503332Y-88562110D01*
X135536038Y-88601962D01*
X135575890Y-88634668D01*
X135621358Y-88658971D01*
X135670696Y-88673938D01*
X135722196Y-88679010D01*
X135723822Y-88680175D01*
X135723626Y-88682165D01*
X135722000Y-88683000D01*
X135639903Y-88683000D01*
X135639707Y-88682990D01*
X135599204Y-88679001D01*
X135598819Y-88678925D01*
X135565767Y-88668899D01*
X135565405Y-88668749D01*
X135534954Y-88652472D01*
X135534628Y-88652254D01*
X135507932Y-88630345D01*
X135507655Y-88630068D01*
X135485746Y-88603372D01*
X135485528Y-88603046D01*
X135469251Y-88572595D01*
X135469101Y-88572233D01*
X135459075Y-88539181D01*
X135458999Y-88538796D01*
X135455010Y-88498293D01*
X135455000Y-88498097D01*
X135455000Y-88416000D01*
X135456000Y-88414268D01*
X135458000Y-88414268D01*
X135458990Y-88415804D01*
G37*
G36*
X137260165Y-88414374D02*
G01*
X137261000Y-88416000D01*
X137261000Y-88498097D01*
X137260990Y-88498293D01*
X137257001Y-88538796D01*
X137256925Y-88539181D01*
X137246899Y-88572233D01*
X137246749Y-88572595D01*
X137230472Y-88603046D01*
X137230254Y-88603372D01*
X137208345Y-88630068D01*
X137208068Y-88630345D01*
X137181372Y-88652254D01*
X137181046Y-88652472D01*
X137150595Y-88668749D01*
X137150233Y-88668899D01*
X137117181Y-88678925D01*
X137116796Y-88679001D01*
X137076293Y-88682990D01*
X137076097Y-88683000D01*
X136994000Y-88683000D01*
X136992268Y-88682000D01*
X136992268Y-88680000D01*
X136993804Y-88679010D01*
X137045304Y-88673938D01*
X137094642Y-88658971D01*
X137140110Y-88634668D01*
X137179962Y-88601962D01*
X137212668Y-88562110D01*
X137236971Y-88516642D01*
X137251938Y-88467304D01*
X137257010Y-88415804D01*
X137258175Y-88414178D01*
X137260165Y-88414374D01*
G37*
G36*
X119496990Y-87340804D02*
G01*
X119502062Y-87392304D01*
X119517029Y-87441642D01*
X119541332Y-87487110D01*
X119574038Y-87526962D01*
X119613890Y-87559668D01*
X119659358Y-87583971D01*
X119708696Y-87598938D01*
X119760196Y-87604010D01*
X119761822Y-87605175D01*
X119761626Y-87607165D01*
X119760000Y-87608000D01*
X119677903Y-87608000D01*
X119677707Y-87607990D01*
X119637204Y-87604001D01*
X119636819Y-87603925D01*
X119603767Y-87593899D01*
X119603405Y-87593749D01*
X119572954Y-87577472D01*
X119572628Y-87577254D01*
X119545932Y-87555345D01*
X119545655Y-87555068D01*
X119523746Y-87528372D01*
X119523528Y-87528046D01*
X119507251Y-87497595D01*
X119507101Y-87497233D01*
X119497075Y-87464181D01*
X119496999Y-87463796D01*
X119493010Y-87423293D01*
X119493000Y-87423097D01*
X119493000Y-87341000D01*
X119494000Y-87339268D01*
X119496000Y-87339268D01*
X119496990Y-87340804D01*
G37*
G36*
X121298165Y-87339374D02*
G01*
X121299000Y-87341000D01*
X121299000Y-87423097D01*
X121298990Y-87423293D01*
X121295001Y-87463796D01*
X121294925Y-87464181D01*
X121284899Y-87497233D01*
X121284749Y-87497595D01*
X121268472Y-87528046D01*
X121268254Y-87528372D01*
X121246345Y-87555068D01*
X121246068Y-87555345D01*
X121219372Y-87577254D01*
X121219046Y-87577472D01*
X121188595Y-87593749D01*
X121188233Y-87593899D01*
X121155181Y-87603925D01*
X121154796Y-87604001D01*
X121114293Y-87607990D01*
X121114097Y-87608000D01*
X121032000Y-87608000D01*
X121030268Y-87607000D01*
X121030268Y-87605000D01*
X121031804Y-87604010D01*
X121083304Y-87598938D01*
X121132642Y-87583971D01*
X121178110Y-87559668D01*
X121217962Y-87526962D01*
X121250668Y-87487110D01*
X121274971Y-87441642D01*
X121289938Y-87392304D01*
X121295010Y-87340804D01*
X121296175Y-87339178D01*
X121298165Y-87339374D01*
G37*
G36*
X146685732Y-86578000D02*
G01*
X146685732Y-86580000D01*
X146684196Y-86580990D01*
X146632696Y-86586062D01*
X146583358Y-86601029D01*
X146537890Y-86625332D01*
X146498038Y-86658038D01*
X146465332Y-86697890D01*
X146441029Y-86743358D01*
X146426062Y-86792696D01*
X146420990Y-86844196D01*
X146419825Y-86845822D01*
X146417835Y-86845626D01*
X146417000Y-86844000D01*
X146417000Y-86761903D01*
X146417010Y-86761707D01*
X146420999Y-86721204D01*
X146421075Y-86720819D01*
X146431101Y-86687767D01*
X146431251Y-86687405D01*
X146447528Y-86656954D01*
X146447746Y-86656628D01*
X146469655Y-86629932D01*
X146469932Y-86629655D01*
X146496628Y-86607746D01*
X146496954Y-86607528D01*
X146527405Y-86591251D01*
X146527767Y-86591101D01*
X146560819Y-86581075D01*
X146561204Y-86580999D01*
X146601707Y-86577010D01*
X146601903Y-86577000D01*
X146684000Y-86577000D01*
X146685732Y-86578000D01*
G37*
G36*
X135723732Y-86578000D02*
G01*
X135723732Y-86580000D01*
X135722196Y-86580990D01*
X135670696Y-86586062D01*
X135621358Y-86601029D01*
X135575890Y-86625332D01*
X135536038Y-86658038D01*
X135503332Y-86697890D01*
X135479029Y-86743358D01*
X135464062Y-86792696D01*
X135458990Y-86844196D01*
X135457825Y-86845822D01*
X135455835Y-86845626D01*
X135455000Y-86844000D01*
X135455000Y-86761903D01*
X135455010Y-86761707D01*
X135458999Y-86721204D01*
X135459075Y-86720819D01*
X135469101Y-86687767D01*
X135469251Y-86687405D01*
X135485528Y-86656954D01*
X135485746Y-86656628D01*
X135507655Y-86629932D01*
X135507932Y-86629655D01*
X135534628Y-86607746D01*
X135534954Y-86607528D01*
X135565405Y-86591251D01*
X135565767Y-86591101D01*
X135598819Y-86581075D01*
X135599204Y-86580999D01*
X135639707Y-86577010D01*
X135639903Y-86577000D01*
X135722000Y-86577000D01*
X135723732Y-86578000D01*
G37*
G36*
X137076293Y-86577010D02*
G01*
X137116796Y-86580999D01*
X137117181Y-86581075D01*
X137150233Y-86591101D01*
X137150595Y-86591251D01*
X137181046Y-86607528D01*
X137181372Y-86607746D01*
X137208068Y-86629655D01*
X137208345Y-86629932D01*
X137230254Y-86656628D01*
X137230472Y-86656954D01*
X137246749Y-86687405D01*
X137246899Y-86687767D01*
X137256925Y-86720819D01*
X137257001Y-86721204D01*
X137260990Y-86761707D01*
X137261000Y-86761903D01*
X137261000Y-86844000D01*
X137260000Y-86845732D01*
X137258000Y-86845732D01*
X137257010Y-86844196D01*
X137251938Y-86792696D01*
X137236971Y-86743358D01*
X137212668Y-86697890D01*
X137179962Y-86658038D01*
X137140110Y-86625332D01*
X137094642Y-86601029D01*
X137045304Y-86586062D01*
X136993804Y-86580990D01*
X136992178Y-86579825D01*
X136992374Y-86577835D01*
X136994000Y-86577000D01*
X137076097Y-86577000D01*
X137076293Y-86577010D01*
G37*
G36*
X148038293Y-86577010D02*
G01*
X148078796Y-86580999D01*
X148079181Y-86581075D01*
X148112233Y-86591101D01*
X148112595Y-86591251D01*
X148143046Y-86607528D01*
X148143372Y-86607746D01*
X148170068Y-86629655D01*
X148170345Y-86629932D01*
X148192254Y-86656628D01*
X148192472Y-86656954D01*
X148208749Y-86687405D01*
X148208899Y-86687767D01*
X148218925Y-86720819D01*
X148219001Y-86721204D01*
X148222990Y-86761707D01*
X148223000Y-86761903D01*
X148223000Y-86844000D01*
X148222000Y-86845732D01*
X148220000Y-86845732D01*
X148219010Y-86844196D01*
X148213938Y-86792696D01*
X148198971Y-86743358D01*
X148174668Y-86697890D01*
X148141962Y-86658038D01*
X148102110Y-86625332D01*
X148056642Y-86601029D01*
X148007304Y-86586062D01*
X147955804Y-86580990D01*
X147954178Y-86579825D01*
X147954374Y-86577835D01*
X147956000Y-86577000D01*
X148038097Y-86577000D01*
X148038293Y-86577010D01*
G37*
G36*
X119761732Y-85553000D02*
G01*
X119761732Y-85555000D01*
X119760196Y-85555990D01*
X119708696Y-85561062D01*
X119659358Y-85576029D01*
X119613890Y-85600332D01*
X119574038Y-85633038D01*
X119541332Y-85672890D01*
X119517029Y-85718358D01*
X119502062Y-85767696D01*
X119496990Y-85819196D01*
X119495825Y-85820822D01*
X119493835Y-85820626D01*
X119493000Y-85819000D01*
X119493000Y-85736903D01*
X119493010Y-85736707D01*
X119496999Y-85696204D01*
X119497075Y-85695819D01*
X119507101Y-85662767D01*
X119507251Y-85662405D01*
X119523528Y-85631954D01*
X119523746Y-85631628D01*
X119545655Y-85604932D01*
X119545932Y-85604655D01*
X119572628Y-85582746D01*
X119572954Y-85582528D01*
X119603405Y-85566251D01*
X119603767Y-85566101D01*
X119636819Y-85556075D01*
X119637204Y-85555999D01*
X119677707Y-85552010D01*
X119677903Y-85552000D01*
X119760000Y-85552000D01*
X119761732Y-85553000D01*
G37*
G36*
X121114293Y-85552010D02*
G01*
X121154796Y-85555999D01*
X121155181Y-85556075D01*
X121188233Y-85566101D01*
X121188595Y-85566251D01*
X121219046Y-85582528D01*
X121219372Y-85582746D01*
X121246068Y-85604655D01*
X121246345Y-85604932D01*
X121268254Y-85631628D01*
X121268472Y-85631954D01*
X121284749Y-85662405D01*
X121284899Y-85662767D01*
X121294925Y-85695819D01*
X121295001Y-85696204D01*
X121298990Y-85736707D01*
X121299000Y-85736903D01*
X121299000Y-85819000D01*
X121298000Y-85820732D01*
X121296000Y-85820732D01*
X121295010Y-85819196D01*
X121289938Y-85767696D01*
X121274971Y-85718358D01*
X121250668Y-85672890D01*
X121217962Y-85633038D01*
X121178110Y-85600332D01*
X121132642Y-85576029D01*
X121083304Y-85561062D01*
X121031804Y-85555990D01*
X121030178Y-85554825D01*
X121030374Y-85552835D01*
X121032000Y-85552000D01*
X121114097Y-85552000D01*
X121114293Y-85552010D01*
G37*
G36*
X148222165Y-78784374D02*
G01*
X148223000Y-78786000D01*
X148223000Y-78868097D01*
X148222990Y-78868293D01*
X148219001Y-78908796D01*
X148218925Y-78909181D01*
X148208899Y-78942233D01*
X148208749Y-78942595D01*
X148192472Y-78973046D01*
X148192254Y-78973372D01*
X148170345Y-79000068D01*
X148170068Y-79000345D01*
X148143372Y-79022254D01*
X148143046Y-79022472D01*
X148112595Y-79038749D01*
X148112233Y-79038899D01*
X148079181Y-79048925D01*
X148078796Y-79049001D01*
X148038293Y-79052990D01*
X148038097Y-79053000D01*
X147956000Y-79053000D01*
X147954268Y-79052000D01*
X147954268Y-79050000D01*
X147955804Y-79049010D01*
X148007304Y-79043938D01*
X148056642Y-79028971D01*
X148102110Y-79004668D01*
X148141962Y-78971962D01*
X148174668Y-78932110D01*
X148198971Y-78886642D01*
X148213938Y-78837304D01*
X148219010Y-78785804D01*
X148220175Y-78784178D01*
X148222165Y-78784374D01*
G37*
G36*
X137260165Y-78784374D02*
G01*
X137261000Y-78786000D01*
X137261000Y-78868097D01*
X137260990Y-78868293D01*
X137257001Y-78908796D01*
X137256925Y-78909181D01*
X137246899Y-78942233D01*
X137246749Y-78942595D01*
X137230472Y-78973046D01*
X137230254Y-78973372D01*
X137208345Y-79000068D01*
X137208068Y-79000345D01*
X137181372Y-79022254D01*
X137181046Y-79022472D01*
X137150595Y-79038749D01*
X137150233Y-79038899D01*
X137117181Y-79048925D01*
X137116796Y-79049001D01*
X137076293Y-79052990D01*
X137076097Y-79053000D01*
X136994000Y-79053000D01*
X136992268Y-79052000D01*
X136992268Y-79050000D01*
X136993804Y-79049010D01*
X137045304Y-79043938D01*
X137094642Y-79028971D01*
X137140110Y-79004668D01*
X137179962Y-78971962D01*
X137212668Y-78932110D01*
X137236971Y-78886642D01*
X137251938Y-78837304D01*
X137257010Y-78785804D01*
X137258175Y-78784178D01*
X137260165Y-78784374D01*
G37*
G36*
X146420990Y-78785804D02*
G01*
X146426062Y-78837304D01*
X146441029Y-78886642D01*
X146465332Y-78932110D01*
X146498038Y-78971962D01*
X146537890Y-79004668D01*
X146583358Y-79028971D01*
X146632696Y-79043938D01*
X146684196Y-79049010D01*
X146685822Y-79050175D01*
X146685626Y-79052165D01*
X146684000Y-79053000D01*
X146601903Y-79053000D01*
X146601707Y-79052990D01*
X146561204Y-79049001D01*
X146560819Y-79048925D01*
X146527767Y-79038899D01*
X146527405Y-79038749D01*
X146496954Y-79022472D01*
X146496628Y-79022254D01*
X146469932Y-79000345D01*
X146469655Y-79000068D01*
X146447746Y-78973372D01*
X146447528Y-78973046D01*
X146431251Y-78942595D01*
X146431101Y-78942233D01*
X146421075Y-78909181D01*
X146420999Y-78908796D01*
X146417010Y-78868293D01*
X146417000Y-78868097D01*
X146417000Y-78786000D01*
X146418000Y-78784268D01*
X146420000Y-78784268D01*
X146420990Y-78785804D01*
G37*
G36*
X135458990Y-78785804D02*
G01*
X135464062Y-78837304D01*
X135479029Y-78886642D01*
X135503332Y-78932110D01*
X135536038Y-78971962D01*
X135575890Y-79004668D01*
X135621358Y-79028971D01*
X135670696Y-79043938D01*
X135722196Y-79049010D01*
X135723822Y-79050175D01*
X135723626Y-79052165D01*
X135722000Y-79053000D01*
X135639903Y-79053000D01*
X135639707Y-79052990D01*
X135599204Y-79049001D01*
X135598819Y-79048925D01*
X135565767Y-79038899D01*
X135565405Y-79038749D01*
X135534954Y-79022472D01*
X135534628Y-79022254D01*
X135507932Y-79000345D01*
X135507655Y-79000068D01*
X135485746Y-78973372D01*
X135485528Y-78973046D01*
X135469251Y-78942595D01*
X135469101Y-78942233D01*
X135459075Y-78909181D01*
X135458999Y-78908796D01*
X135455010Y-78868293D01*
X135455000Y-78868097D01*
X135455000Y-78786000D01*
X135456000Y-78784268D01*
X135458000Y-78784268D01*
X135458990Y-78785804D01*
G37*
G36*
X119496990Y-77710804D02*
G01*
X119502062Y-77762304D01*
X119517029Y-77811642D01*
X119541332Y-77857110D01*
X119574038Y-77896962D01*
X119613890Y-77929668D01*
X119659358Y-77953971D01*
X119708696Y-77968938D01*
X119760196Y-77974010D01*
X119761822Y-77975175D01*
X119761626Y-77977165D01*
X119760000Y-77978000D01*
X119677903Y-77978000D01*
X119677707Y-77977990D01*
X119637204Y-77974001D01*
X119636819Y-77973925D01*
X119603767Y-77963899D01*
X119603405Y-77963749D01*
X119572954Y-77947472D01*
X119572628Y-77947254D01*
X119545932Y-77925345D01*
X119545655Y-77925068D01*
X119523746Y-77898372D01*
X119523528Y-77898046D01*
X119507251Y-77867595D01*
X119507101Y-77867233D01*
X119497075Y-77834181D01*
X119496999Y-77833796D01*
X119493010Y-77793293D01*
X119493000Y-77793097D01*
X119493000Y-77711000D01*
X119494000Y-77709268D01*
X119496000Y-77709268D01*
X119496990Y-77710804D01*
G37*
G36*
X121298165Y-77709374D02*
G01*
X121299000Y-77711000D01*
X121299000Y-77793097D01*
X121298990Y-77793293D01*
X121295001Y-77833796D01*
X121294925Y-77834181D01*
X121284899Y-77867233D01*
X121284749Y-77867595D01*
X121268472Y-77898046D01*
X121268254Y-77898372D01*
X121246345Y-77925068D01*
X121246068Y-77925345D01*
X121219372Y-77947254D01*
X121219046Y-77947472D01*
X121188595Y-77963749D01*
X121188233Y-77963899D01*
X121155181Y-77973925D01*
X121154796Y-77974001D01*
X121114293Y-77977990D01*
X121114097Y-77978000D01*
X121032000Y-77978000D01*
X121030268Y-77977000D01*
X121030268Y-77975000D01*
X121031804Y-77974010D01*
X121083304Y-77968938D01*
X121132642Y-77953971D01*
X121178110Y-77929668D01*
X121217962Y-77896962D01*
X121250668Y-77857110D01*
X121274971Y-77811642D01*
X121289938Y-77762304D01*
X121295010Y-77710804D01*
X121296175Y-77709178D01*
X121298165Y-77709374D01*
G37*
G36*
X135723732Y-76948000D02*
G01*
X135723732Y-76950000D01*
X135722196Y-76950990D01*
X135670696Y-76956062D01*
X135621358Y-76971029D01*
X135575890Y-76995332D01*
X135536038Y-77028038D01*
X135503332Y-77067890D01*
X135479029Y-77113358D01*
X135464062Y-77162696D01*
X135458990Y-77214196D01*
X135457825Y-77215822D01*
X135455835Y-77215626D01*
X135455000Y-77214000D01*
X135455000Y-77131903D01*
X135455010Y-77131707D01*
X135458999Y-77091204D01*
X135459075Y-77090819D01*
X135469101Y-77057767D01*
X135469251Y-77057405D01*
X135485528Y-77026954D01*
X135485746Y-77026628D01*
X135507655Y-76999932D01*
X135507932Y-76999655D01*
X135534628Y-76977746D01*
X135534954Y-76977528D01*
X135565405Y-76961251D01*
X135565767Y-76961101D01*
X135598819Y-76951075D01*
X135599204Y-76950999D01*
X135639707Y-76947010D01*
X135639903Y-76947000D01*
X135722000Y-76947000D01*
X135723732Y-76948000D01*
G37*
G36*
X146685732Y-76948000D02*
G01*
X146685732Y-76950000D01*
X146684196Y-76950990D01*
X146632696Y-76956062D01*
X146583358Y-76971029D01*
X146537890Y-76995332D01*
X146498038Y-77028038D01*
X146465332Y-77067890D01*
X146441029Y-77113358D01*
X146426062Y-77162696D01*
X146420990Y-77214196D01*
X146419825Y-77215822D01*
X146417835Y-77215626D01*
X146417000Y-77214000D01*
X146417000Y-77131903D01*
X146417010Y-77131707D01*
X146420999Y-77091204D01*
X146421075Y-77090819D01*
X146431101Y-77057767D01*
X146431251Y-77057405D01*
X146447528Y-77026954D01*
X146447746Y-77026628D01*
X146469655Y-76999932D01*
X146469932Y-76999655D01*
X146496628Y-76977746D01*
X146496954Y-76977528D01*
X146527405Y-76961251D01*
X146527767Y-76961101D01*
X146560819Y-76951075D01*
X146561204Y-76950999D01*
X146601707Y-76947010D01*
X146601903Y-76947000D01*
X146684000Y-76947000D01*
X146685732Y-76948000D01*
G37*
G36*
X137076293Y-76947010D02*
G01*
X137116796Y-76950999D01*
X137117181Y-76951075D01*
X137150233Y-76961101D01*
X137150595Y-76961251D01*
X137181046Y-76977528D01*
X137181372Y-76977746D01*
X137208068Y-76999655D01*
X137208345Y-76999932D01*
X137230254Y-77026628D01*
X137230472Y-77026954D01*
X137246749Y-77057405D01*
X137246899Y-77057767D01*
X137256925Y-77090819D01*
X137257001Y-77091204D01*
X137260990Y-77131707D01*
X137261000Y-77131903D01*
X137261000Y-77214000D01*
X137260000Y-77215732D01*
X137258000Y-77215732D01*
X137257010Y-77214196D01*
X137251938Y-77162696D01*
X137236971Y-77113358D01*
X137212668Y-77067890D01*
X137179962Y-77028038D01*
X137140110Y-76995332D01*
X137094642Y-76971029D01*
X137045304Y-76956062D01*
X136993804Y-76950990D01*
X136992178Y-76949825D01*
X136992374Y-76947835D01*
X136994000Y-76947000D01*
X137076097Y-76947000D01*
X137076293Y-76947010D01*
G37*
G36*
X148038293Y-76947010D02*
G01*
X148078796Y-76950999D01*
X148079181Y-76951075D01*
X148112233Y-76961101D01*
X148112595Y-76961251D01*
X148143046Y-76977528D01*
X148143372Y-76977746D01*
X148170068Y-76999655D01*
X148170345Y-76999932D01*
X148192254Y-77026628D01*
X148192472Y-77026954D01*
X148208749Y-77057405D01*
X148208899Y-77057767D01*
X148218925Y-77090819D01*
X148219001Y-77091204D01*
X148222990Y-77131707D01*
X148223000Y-77131903D01*
X148223000Y-77214000D01*
X148222000Y-77215732D01*
X148220000Y-77215732D01*
X148219010Y-77214196D01*
X148213938Y-77162696D01*
X148198971Y-77113358D01*
X148174668Y-77067890D01*
X148141962Y-77028038D01*
X148102110Y-76995332D01*
X148056642Y-76971029D01*
X148007304Y-76956062D01*
X147955804Y-76950990D01*
X147954178Y-76949825D01*
X147954374Y-76947835D01*
X147956000Y-76947000D01*
X148038097Y-76947000D01*
X148038293Y-76947010D01*
G37*
G36*
X119761732Y-75923000D02*
G01*
X119761732Y-75925000D01*
X119760196Y-75925990D01*
X119708696Y-75931062D01*
X119659358Y-75946029D01*
X119613890Y-75970332D01*
X119574038Y-76003038D01*
X119541332Y-76042890D01*
X119517029Y-76088358D01*
X119502062Y-76137696D01*
X119496990Y-76189196D01*
X119495825Y-76190822D01*
X119493835Y-76190626D01*
X119493000Y-76189000D01*
X119493000Y-76106903D01*
X119493010Y-76106707D01*
X119496999Y-76066204D01*
X119497075Y-76065819D01*
X119507101Y-76032767D01*
X119507251Y-76032405D01*
X119523528Y-76001954D01*
X119523746Y-76001628D01*
X119545655Y-75974932D01*
X119545932Y-75974655D01*
X119572628Y-75952746D01*
X119572954Y-75952528D01*
X119603405Y-75936251D01*
X119603767Y-75936101D01*
X119636819Y-75926075D01*
X119637204Y-75925999D01*
X119677707Y-75922010D01*
X119677903Y-75922000D01*
X119760000Y-75922000D01*
X119761732Y-75923000D01*
G37*
G36*
X121114293Y-75922010D02*
G01*
X121154796Y-75925999D01*
X121155181Y-75926075D01*
X121188233Y-75936101D01*
X121188595Y-75936251D01*
X121219046Y-75952528D01*
X121219372Y-75952746D01*
X121246068Y-75974655D01*
X121246345Y-75974932D01*
X121268254Y-76001628D01*
X121268472Y-76001954D01*
X121284749Y-76032405D01*
X121284899Y-76032767D01*
X121294925Y-76065819D01*
X121295001Y-76066204D01*
X121298990Y-76106707D01*
X121299000Y-76106903D01*
X121299000Y-76189000D01*
X121298000Y-76190732D01*
X121296000Y-76190732D01*
X121295010Y-76189196D01*
X121289938Y-76137696D01*
X121274971Y-76088358D01*
X121250668Y-76042890D01*
X121217962Y-76003038D01*
X121178110Y-75970332D01*
X121132642Y-75946029D01*
X121083304Y-75931062D01*
X121031804Y-75925990D01*
X121030178Y-75924825D01*
X121030374Y-75922835D01*
X121032000Y-75922000D01*
X121114097Y-75922000D01*
X121114293Y-75922010D01*
G37*
G36*
X126132165Y-68759374D02*
G01*
X126133000Y-68761000D01*
X126133000Y-68843097D01*
X126132990Y-68843293D01*
X126129001Y-68883796D01*
X126128925Y-68884181D01*
X126118899Y-68917233D01*
X126118749Y-68917595D01*
X126102472Y-68948046D01*
X126102254Y-68948372D01*
X126080345Y-68975068D01*
X126080068Y-68975345D01*
X126053372Y-68997254D01*
X126053046Y-68997472D01*
X126022595Y-69013749D01*
X126022233Y-69013899D01*
X125989181Y-69023925D01*
X125988796Y-69024001D01*
X125948293Y-69027990D01*
X125948097Y-69028000D01*
X125866000Y-69028000D01*
X125864268Y-69027000D01*
X125864268Y-69025000D01*
X125865804Y-69024010D01*
X125917304Y-69018938D01*
X125966642Y-69003971D01*
X126012110Y-68979668D01*
X126051962Y-68946962D01*
X126084668Y-68907110D01*
X126108971Y-68861642D01*
X126123938Y-68812304D01*
X126129010Y-68760804D01*
X126130175Y-68759178D01*
X126132165Y-68759374D01*
G37*
G36*
X124330990Y-68760804D02*
G01*
X124336062Y-68812304D01*
X124351029Y-68861642D01*
X124375332Y-68907110D01*
X124408038Y-68946962D01*
X124447890Y-68979668D01*
X124493358Y-69003971D01*
X124542696Y-69018938D01*
X124594196Y-69024010D01*
X124595822Y-69025175D01*
X124595626Y-69027165D01*
X124594000Y-69028000D01*
X124511903Y-69028000D01*
X124511707Y-69027990D01*
X124471204Y-69024001D01*
X124470819Y-69023925D01*
X124437767Y-69013899D01*
X124437405Y-69013749D01*
X124406954Y-68997472D01*
X124406628Y-68997254D01*
X124379932Y-68975345D01*
X124379655Y-68975068D01*
X124357746Y-68948372D01*
X124357528Y-68948046D01*
X124341251Y-68917595D01*
X124341101Y-68917233D01*
X124331075Y-68884181D01*
X124330999Y-68883796D01*
X124327010Y-68843293D01*
X124327000Y-68843097D01*
X124327000Y-68761000D01*
X124328000Y-68759268D01*
X124330000Y-68759268D01*
X124330990Y-68760804D01*
G37*
G36*
X124595732Y-66973000D02*
G01*
X124595732Y-66975000D01*
X124594196Y-66975990D01*
X124542696Y-66981062D01*
X124493358Y-66996029D01*
X124447890Y-67020332D01*
X124408038Y-67053038D01*
X124375332Y-67092890D01*
X124351029Y-67138358D01*
X124336062Y-67187696D01*
X124330990Y-67239196D01*
X124329825Y-67240822D01*
X124327835Y-67240626D01*
X124327000Y-67239000D01*
X124327000Y-67156903D01*
X124327010Y-67156707D01*
X124330999Y-67116204D01*
X124331075Y-67115819D01*
X124341101Y-67082767D01*
X124341251Y-67082405D01*
X124357528Y-67051954D01*
X124357746Y-67051628D01*
X124379655Y-67024932D01*
X124379932Y-67024655D01*
X124406628Y-67002746D01*
X124406954Y-67002528D01*
X124437405Y-66986251D01*
X124437767Y-66986101D01*
X124470819Y-66976075D01*
X124471204Y-66975999D01*
X124511707Y-66972010D01*
X124511903Y-66972000D01*
X124594000Y-66972000D01*
X124595732Y-66973000D01*
G37*
G36*
X125948293Y-66972010D02*
G01*
X125988796Y-66975999D01*
X125989181Y-66976075D01*
X126022233Y-66986101D01*
X126022595Y-66986251D01*
X126053046Y-67002528D01*
X126053372Y-67002746D01*
X126080068Y-67024655D01*
X126080345Y-67024932D01*
X126102254Y-67051628D01*
X126102472Y-67051954D01*
X126118749Y-67082405D01*
X126118899Y-67082767D01*
X126128925Y-67115819D01*
X126129001Y-67116204D01*
X126132990Y-67156707D01*
X126133000Y-67156903D01*
X126133000Y-67239000D01*
X126132000Y-67240732D01*
X126130000Y-67240732D01*
X126129010Y-67239196D01*
X126123938Y-67187696D01*
X126108971Y-67138358D01*
X126084668Y-67092890D01*
X126051962Y-67053038D01*
X126012110Y-67020332D01*
X125966642Y-66996029D01*
X125917304Y-66981062D01*
X125865804Y-66975990D01*
X125864178Y-66974825D01*
X125864374Y-66972835D01*
X125866000Y-66972000D01*
X125948097Y-66972000D01*
X125948293Y-66972010D01*
G37*
G36*
X116100990Y-53641359D02*
G01*
X116105955Y-53691775D01*
X116120606Y-53740071D01*
X116144395Y-53784579D01*
X116176411Y-53823589D01*
X116215421Y-53855605D01*
X116259929Y-53879394D01*
X116308225Y-53894045D01*
X116358641Y-53899010D01*
X116360267Y-53900175D01*
X116360071Y-53902165D01*
X116358445Y-53903000D01*
X116262734Y-53903000D01*
X116262538Y-53902990D01*
X116225773Y-53899369D01*
X116225388Y-53899293D01*
X116195933Y-53890358D01*
X116195571Y-53890208D01*
X116168434Y-53875702D01*
X116168108Y-53875484D01*
X116144317Y-53855960D01*
X116144040Y-53855683D01*
X116124516Y-53831892D01*
X116124298Y-53831566D01*
X116109792Y-53804429D01*
X116109642Y-53804067D01*
X116100707Y-53774612D01*
X116100631Y-53774227D01*
X116097010Y-53737462D01*
X116097000Y-53737266D01*
X116097000Y-53641555D01*
X116098000Y-53639823D01*
X116100000Y-53639823D01*
X116100990Y-53641359D01*
G37*
G36*
X118902165Y-53639929D02*
G01*
X118903000Y-53641555D01*
X118903000Y-53737266D01*
X118902990Y-53737462D01*
X118899369Y-53774227D01*
X118899293Y-53774612D01*
X118890358Y-53804067D01*
X118890208Y-53804429D01*
X118875702Y-53831566D01*
X118875484Y-53831892D01*
X118855960Y-53855683D01*
X118855683Y-53855960D01*
X118831892Y-53875484D01*
X118831566Y-53875702D01*
X118804429Y-53890208D01*
X118804067Y-53890358D01*
X118774612Y-53899293D01*
X118774227Y-53899369D01*
X118737462Y-53902990D01*
X118737266Y-53903000D01*
X118641555Y-53903000D01*
X118639823Y-53902000D01*
X118639823Y-53900000D01*
X118641359Y-53899010D01*
X118691775Y-53894045D01*
X118740071Y-53879394D01*
X118784579Y-53855605D01*
X118823589Y-53823589D01*
X118855605Y-53784579D01*
X118879394Y-53740071D01*
X118894045Y-53691775D01*
X118899010Y-53641359D01*
X118900175Y-53639733D01*
X118902165Y-53639929D01*
G37*
G36*
X116360177Y-51098000D02*
G01*
X116360177Y-51100000D01*
X116358641Y-51100990D01*
X116308225Y-51105955D01*
X116259929Y-51120606D01*
X116215421Y-51144395D01*
X116176411Y-51176411D01*
X116144395Y-51215421D01*
X116120606Y-51259929D01*
X116105955Y-51308225D01*
X116100990Y-51358641D01*
X116099825Y-51360267D01*
X116097835Y-51360071D01*
X116097000Y-51358445D01*
X116097000Y-51262734D01*
X116097010Y-51262538D01*
X116100631Y-51225773D01*
X116100707Y-51225388D01*
X116109642Y-51195933D01*
X116109792Y-51195571D01*
X116124298Y-51168434D01*
X116124516Y-51168108D01*
X116144040Y-51144317D01*
X116144317Y-51144040D01*
X116168108Y-51124516D01*
X116168434Y-51124298D01*
X116195571Y-51109792D01*
X116195933Y-51109642D01*
X116225388Y-51100707D01*
X116225773Y-51100631D01*
X116262538Y-51097010D01*
X116262734Y-51097000D01*
X116358445Y-51097000D01*
X116360177Y-51098000D01*
G37*
G36*
X118737462Y-51097010D02*
G01*
X118774227Y-51100631D01*
X118774612Y-51100707D01*
X118804067Y-51109642D01*
X118804429Y-51109792D01*
X118831566Y-51124298D01*
X118831892Y-51124516D01*
X118855683Y-51144040D01*
X118855960Y-51144317D01*
X118875484Y-51168108D01*
X118875702Y-51168434D01*
X118890208Y-51195571D01*
X118890358Y-51195933D01*
X118899293Y-51225388D01*
X118899369Y-51225773D01*
X118902990Y-51262538D01*
X118903000Y-51262734D01*
X118903000Y-51358445D01*
X118902000Y-51360177D01*
X118900000Y-51360177D01*
X118899010Y-51358641D01*
X118894045Y-51308225D01*
X118879394Y-51259929D01*
X118855605Y-51215421D01*
X118823589Y-51176411D01*
X118784579Y-51144395D01*
X118740071Y-51120606D01*
X118691775Y-51105955D01*
X118641359Y-51100990D01*
X118639733Y-51099825D01*
X118639929Y-51097835D01*
X118641555Y-51097000D01*
X118737266Y-51097000D01*
X118737462Y-51097010D01*
G37*
M02*
