G04 #@! TF.GenerationSoftware,KiCad,Pcbnew,(5.1.9)-1*
G04 #@! TF.CreationDate,2021-04-19T10:33:25-04:00*
G04 #@! TF.ProjectId,Transfer_Board,5472616e-7366-4657-925f-426f6172642e,rev?*
G04 #@! TF.SameCoordinates,Original*
G04 #@! TF.FileFunction,Legend,Bot*
G04 #@! TF.FilePolarity,Positive*
%FSLAX46Y46*%
G04 Gerber Fmt 4.6, Leading zero omitted, Abs format (unit mm)*
G04 Created by KiCad (PCBNEW (5.1.9)-1) date 2021-04-19 10:33:25*
%MOMM*%
%LPD*%
G01*
G04 APERTURE LIST*
%ADD10C,0.150000*%
%ADD11C,0.120000*%
G04 APERTURE END LIST*
D10*
X137873952Y-91465380D02*
X137635857Y-92465380D01*
X137445380Y-91751095D01*
X137254904Y-92465380D01*
X137016809Y-91465380D01*
X136683476Y-92179666D02*
X136207285Y-92179666D01*
X136778714Y-92465380D02*
X136445380Y-91465380D01*
X136112047Y-92465380D01*
X135207285Y-92465380D02*
X135540619Y-91989190D01*
X135778714Y-92465380D02*
X135778714Y-91465380D01*
X135397761Y-91465380D01*
X135302523Y-91513000D01*
X135254904Y-91560619D01*
X135207285Y-91655857D01*
X135207285Y-91798714D01*
X135254904Y-91893952D01*
X135302523Y-91941571D01*
X135397761Y-91989190D01*
X135778714Y-91989190D01*
X134778714Y-92465380D02*
X134778714Y-91465380D01*
X134207285Y-92465380D01*
X134207285Y-91465380D01*
X133731095Y-92465380D02*
X133731095Y-91465380D01*
X133254904Y-92465380D02*
X133254904Y-91465380D01*
X132683476Y-92465380D01*
X132683476Y-91465380D01*
X131683476Y-91513000D02*
X131778714Y-91465380D01*
X131921571Y-91465380D01*
X132064428Y-91513000D01*
X132159666Y-91608238D01*
X132207285Y-91703476D01*
X132254904Y-91893952D01*
X132254904Y-92036809D01*
X132207285Y-92227285D01*
X132159666Y-92322523D01*
X132064428Y-92417761D01*
X131921571Y-92465380D01*
X131826333Y-92465380D01*
X131683476Y-92417761D01*
X131635857Y-92370142D01*
X131635857Y-92036809D01*
X131826333Y-92036809D01*
X131207285Y-92370142D02*
X131159666Y-92417761D01*
X131207285Y-92465380D01*
X131254904Y-92417761D01*
X131207285Y-92370142D01*
X131207285Y-92465380D01*
X131207285Y-91846333D02*
X131159666Y-91893952D01*
X131207285Y-91941571D01*
X131254904Y-91893952D01*
X131207285Y-91846333D01*
X131207285Y-91941571D01*
X148016809Y-93591571D02*
X147873952Y-93639190D01*
X147826333Y-93686809D01*
X147778714Y-93782047D01*
X147778714Y-93924904D01*
X147826333Y-94020142D01*
X147873952Y-94067761D01*
X147969190Y-94115380D01*
X148350142Y-94115380D01*
X148350142Y-93115380D01*
X148016809Y-93115380D01*
X147921571Y-93163000D01*
X147873952Y-93210619D01*
X147826333Y-93305857D01*
X147826333Y-93401095D01*
X147873952Y-93496333D01*
X147921571Y-93543952D01*
X148016809Y-93591571D01*
X148350142Y-93591571D01*
X146873952Y-94115380D02*
X147350142Y-94115380D01*
X147350142Y-93115380D01*
X146778714Y-94210619D02*
X146016809Y-94210619D01*
X145921571Y-93115380D02*
X145350142Y-93115380D01*
X145635857Y-94115380D02*
X145635857Y-93115380D01*
X144826333Y-93115380D02*
X144635857Y-93115380D01*
X144540619Y-93163000D01*
X144445380Y-93258238D01*
X144397761Y-93448714D01*
X144397761Y-93782047D01*
X144445380Y-93972523D01*
X144540619Y-94067761D01*
X144635857Y-94115380D01*
X144826333Y-94115380D01*
X144921571Y-94067761D01*
X145016809Y-93972523D01*
X145064428Y-93782047D01*
X145064428Y-93448714D01*
X145016809Y-93258238D01*
X144921571Y-93163000D01*
X144826333Y-93115380D01*
X143969190Y-93115380D02*
X143969190Y-93924904D01*
X143921571Y-94020142D01*
X143873952Y-94067761D01*
X143778714Y-94115380D01*
X143588238Y-94115380D01*
X143493000Y-94067761D01*
X143445380Y-94020142D01*
X143397761Y-93924904D01*
X143397761Y-93115380D01*
X142350142Y-94020142D02*
X142397761Y-94067761D01*
X142540619Y-94115380D01*
X142635857Y-94115380D01*
X142778714Y-94067761D01*
X142873952Y-93972523D01*
X142921571Y-93877285D01*
X142969190Y-93686809D01*
X142969190Y-93543952D01*
X142921571Y-93353476D01*
X142873952Y-93258238D01*
X142778714Y-93163000D01*
X142635857Y-93115380D01*
X142540619Y-93115380D01*
X142397761Y-93163000D01*
X142350142Y-93210619D01*
X141921571Y-94115380D02*
X141921571Y-93115380D01*
X141921571Y-93591571D02*
X141350142Y-93591571D01*
X141350142Y-94115380D02*
X141350142Y-93115380D01*
X140159666Y-93829666D02*
X139683476Y-93829666D01*
X140254904Y-94115380D02*
X139921571Y-93115380D01*
X139588238Y-94115380D01*
X139254904Y-94115380D02*
X139254904Y-93115380D01*
X138683476Y-94115380D01*
X138683476Y-93115380D01*
X138207285Y-94115380D02*
X138207285Y-93115380D01*
X137969190Y-93115380D01*
X137826333Y-93163000D01*
X137731095Y-93258238D01*
X137683476Y-93353476D01*
X137635857Y-93543952D01*
X137635857Y-93686809D01*
X137683476Y-93877285D01*
X137731095Y-93972523D01*
X137826333Y-94067761D01*
X137969190Y-94115380D01*
X138207285Y-94115380D01*
X136540619Y-93115380D02*
X135873952Y-93115380D01*
X136540619Y-94115380D01*
X135873952Y-94115380D01*
X135731095Y-94210619D02*
X134969190Y-94210619D01*
X134731095Y-94115380D02*
X134731095Y-93115380D01*
X134397761Y-93829666D01*
X134064428Y-93115380D01*
X134064428Y-94115380D01*
X133588238Y-94115380D02*
X133588238Y-93115380D01*
X133112047Y-94115380D02*
X133112047Y-93115380D01*
X132540619Y-94115380D01*
X132540619Y-93115380D01*
X131350142Y-94067761D02*
X131207285Y-94115380D01*
X130969190Y-94115380D01*
X130873952Y-94067761D01*
X130826333Y-94020142D01*
X130778714Y-93924904D01*
X130778714Y-93829666D01*
X130826333Y-93734428D01*
X130873952Y-93686809D01*
X130969190Y-93639190D01*
X131159666Y-93591571D01*
X131254904Y-93543952D01*
X131302523Y-93496333D01*
X131350142Y-93401095D01*
X131350142Y-93305857D01*
X131302523Y-93210619D01*
X131254904Y-93163000D01*
X131159666Y-93115380D01*
X130921571Y-93115380D01*
X130778714Y-93163000D01*
X130350142Y-94115380D02*
X130350142Y-93115380D01*
X130350142Y-93591571D02*
X129778714Y-93591571D01*
X129778714Y-94115380D02*
X129778714Y-93115380D01*
X129350142Y-93829666D02*
X128873952Y-93829666D01*
X129445380Y-94115380D02*
X129112047Y-93115380D01*
X128778714Y-94115380D01*
X127873952Y-94115380D02*
X128207285Y-93639190D01*
X128445380Y-94115380D02*
X128445380Y-93115380D01*
X128064428Y-93115380D01*
X127969190Y-93163000D01*
X127921571Y-93210619D01*
X127873952Y-93305857D01*
X127873952Y-93448714D01*
X127921571Y-93543952D01*
X127969190Y-93591571D01*
X128064428Y-93639190D01*
X128445380Y-93639190D01*
X127445380Y-93591571D02*
X127112047Y-93591571D01*
X126969190Y-94115380D02*
X127445380Y-94115380D01*
X127445380Y-93115380D01*
X126969190Y-93115380D01*
X125873952Y-93115380D02*
X125635857Y-94115380D01*
X125445380Y-93401095D01*
X125254904Y-94115380D01*
X125016809Y-93115380D01*
X124635857Y-94115380D02*
X124635857Y-93115380D01*
X123588238Y-94115380D02*
X123921571Y-93639190D01*
X124159666Y-94115380D02*
X124159666Y-93115380D01*
X123778714Y-93115380D01*
X123683476Y-93163000D01*
X123635857Y-93210619D01*
X123588238Y-93305857D01*
X123588238Y-93448714D01*
X123635857Y-93543952D01*
X123683476Y-93591571D01*
X123778714Y-93639190D01*
X124159666Y-93639190D01*
X123159666Y-94115380D02*
X123159666Y-93115380D01*
X122683476Y-94115380D02*
X122683476Y-93115380D01*
X122112047Y-94115380D01*
X122112047Y-93115380D01*
X121112047Y-93163000D02*
X121207285Y-93115380D01*
X121350142Y-93115380D01*
X121493000Y-93163000D01*
X121588238Y-93258238D01*
X121635857Y-93353476D01*
X121683476Y-93543952D01*
X121683476Y-93686809D01*
X121635857Y-93877285D01*
X121588238Y-93972523D01*
X121493000Y-94067761D01*
X121350142Y-94115380D01*
X121254904Y-94115380D01*
X121112047Y-94067761D01*
X121064428Y-94020142D01*
X121064428Y-93686809D01*
X121254904Y-93686809D01*
X120588238Y-94067761D02*
X120588238Y-94115380D01*
X120635857Y-94210619D01*
X120683476Y-94258238D01*
X148183476Y-95670142D02*
X148231095Y-95717761D01*
X148373952Y-95765380D01*
X148469190Y-95765380D01*
X148612047Y-95717761D01*
X148707285Y-95622523D01*
X148754904Y-95527285D01*
X148802523Y-95336809D01*
X148802523Y-95193952D01*
X148754904Y-95003476D01*
X148707285Y-94908238D01*
X148612047Y-94813000D01*
X148469190Y-94765380D01*
X148373952Y-94765380D01*
X148231095Y-94813000D01*
X148183476Y-94860619D01*
X147564428Y-94765380D02*
X147373952Y-94765380D01*
X147278714Y-94813000D01*
X147183476Y-94908238D01*
X147135857Y-95098714D01*
X147135857Y-95432047D01*
X147183476Y-95622523D01*
X147278714Y-95717761D01*
X147373952Y-95765380D01*
X147564428Y-95765380D01*
X147659666Y-95717761D01*
X147754904Y-95622523D01*
X147802523Y-95432047D01*
X147802523Y-95098714D01*
X147754904Y-94908238D01*
X147659666Y-94813000D01*
X147564428Y-94765380D01*
X146707285Y-95765380D02*
X146707285Y-94765380D01*
X146135857Y-95765380D01*
X146135857Y-94765380D01*
X145659666Y-95765380D02*
X145659666Y-94765380D01*
X145088238Y-95765380D01*
X145088238Y-94765380D01*
X144612047Y-95241571D02*
X144278714Y-95241571D01*
X144135857Y-95765380D02*
X144612047Y-95765380D01*
X144612047Y-94765380D01*
X144135857Y-94765380D01*
X143135857Y-95670142D02*
X143183476Y-95717761D01*
X143326333Y-95765380D01*
X143421571Y-95765380D01*
X143564428Y-95717761D01*
X143659666Y-95622523D01*
X143707285Y-95527285D01*
X143754904Y-95336809D01*
X143754904Y-95193952D01*
X143707285Y-95003476D01*
X143659666Y-94908238D01*
X143564428Y-94813000D01*
X143421571Y-94765380D01*
X143326333Y-94765380D01*
X143183476Y-94813000D01*
X143135857Y-94860619D01*
X142850142Y-94765380D02*
X142278714Y-94765380D01*
X142564428Y-95765380D02*
X142564428Y-94765380D01*
X141183476Y-95765380D02*
X141183476Y-94765380D01*
X140802523Y-94765380D01*
X140707285Y-94813000D01*
X140659666Y-94860619D01*
X140612047Y-94955857D01*
X140612047Y-95098714D01*
X140659666Y-95193952D01*
X140707285Y-95241571D01*
X140802523Y-95289190D01*
X141183476Y-95289190D01*
X140278714Y-94765380D02*
X140040619Y-95765380D01*
X139850142Y-95051095D01*
X139659666Y-95765380D01*
X139421571Y-94765380D01*
X138469190Y-95765380D02*
X138802523Y-95289190D01*
X139040619Y-95765380D02*
X139040619Y-94765380D01*
X138659666Y-94765380D01*
X138564428Y-94813000D01*
X138516809Y-94860619D01*
X138469190Y-94955857D01*
X138469190Y-95098714D01*
X138516809Y-95193952D01*
X138564428Y-95241571D01*
X138659666Y-95289190D01*
X139040619Y-95289190D01*
X137421571Y-94765380D02*
X136850142Y-94765380D01*
X137135857Y-95765380D02*
X137135857Y-94765380D01*
X136326333Y-94765380D02*
X136135857Y-94765380D01*
X136040619Y-94813000D01*
X135945380Y-94908238D01*
X135897761Y-95098714D01*
X135897761Y-95432047D01*
X135945380Y-95622523D01*
X136040619Y-95717761D01*
X136135857Y-95765380D01*
X136326333Y-95765380D01*
X136421571Y-95717761D01*
X136516809Y-95622523D01*
X136564428Y-95432047D01*
X136564428Y-95098714D01*
X136516809Y-94908238D01*
X136421571Y-94813000D01*
X136326333Y-94765380D01*
X134707285Y-95384428D02*
X133945380Y-95384428D01*
X134326333Y-95765380D02*
X134326333Y-95003476D01*
X132993000Y-94765380D02*
X133469190Y-94765380D01*
X133516809Y-95241571D01*
X133469190Y-95193952D01*
X133373952Y-95146333D01*
X133135857Y-95146333D01*
X133040619Y-95193952D01*
X132993000Y-95241571D01*
X132945380Y-95336809D01*
X132945380Y-95574904D01*
X132993000Y-95670142D01*
X133040619Y-95717761D01*
X133135857Y-95765380D01*
X133373952Y-95765380D01*
X133469190Y-95717761D01*
X133516809Y-95670142D01*
X132659666Y-94765380D02*
X132326333Y-95765380D01*
X131993000Y-94765380D01*
X130564428Y-95241571D02*
X130897761Y-95241571D01*
X130897761Y-95765380D02*
X130897761Y-94765380D01*
X130421571Y-94765380D01*
X129850142Y-94765380D02*
X129659666Y-94765380D01*
X129564428Y-94813000D01*
X129469190Y-94908238D01*
X129421571Y-95098714D01*
X129421571Y-95432047D01*
X129469190Y-95622523D01*
X129564428Y-95717761D01*
X129659666Y-95765380D01*
X129850142Y-95765380D01*
X129945380Y-95717761D01*
X130040619Y-95622523D01*
X130088238Y-95432047D01*
X130088238Y-95098714D01*
X130040619Y-94908238D01*
X129945380Y-94813000D01*
X129850142Y-94765380D01*
X128421571Y-95765380D02*
X128754904Y-95289190D01*
X128993000Y-95765380D02*
X128993000Y-94765380D01*
X128612047Y-94765380D01*
X128516809Y-94813000D01*
X128469190Y-94860619D01*
X128421571Y-94955857D01*
X128421571Y-95098714D01*
X128469190Y-95193952D01*
X128516809Y-95241571D01*
X128612047Y-95289190D01*
X128993000Y-95289190D01*
X126897761Y-95241571D02*
X126754904Y-95289190D01*
X126707285Y-95336809D01*
X126659666Y-95432047D01*
X126659666Y-95574904D01*
X126707285Y-95670142D01*
X126754904Y-95717761D01*
X126850142Y-95765380D01*
X127231095Y-95765380D01*
X127231095Y-94765380D01*
X126897761Y-94765380D01*
X126802523Y-94813000D01*
X126754904Y-94860619D01*
X126707285Y-94955857D01*
X126707285Y-95051095D01*
X126754904Y-95146333D01*
X126802523Y-95193952D01*
X126897761Y-95241571D01*
X127231095Y-95241571D01*
X125754904Y-95765380D02*
X126231095Y-95765380D01*
X126231095Y-94765380D01*
X125659666Y-95860619D02*
X124897761Y-95860619D01*
X124802523Y-94765380D02*
X124231095Y-94765380D01*
X124516809Y-95765380D02*
X124516809Y-94765380D01*
X123707285Y-94765380D02*
X123516809Y-94765380D01*
X123421571Y-94813000D01*
X123326333Y-94908238D01*
X123278714Y-95098714D01*
X123278714Y-95432047D01*
X123326333Y-95622523D01*
X123421571Y-95717761D01*
X123516809Y-95765380D01*
X123707285Y-95765380D01*
X123802523Y-95717761D01*
X123897761Y-95622523D01*
X123945380Y-95432047D01*
X123945380Y-95098714D01*
X123897761Y-94908238D01*
X123802523Y-94813000D01*
X123707285Y-94765380D01*
X122850142Y-94765380D02*
X122850142Y-95574904D01*
X122802523Y-95670142D01*
X122754904Y-95717761D01*
X122659666Y-95765380D01*
X122469190Y-95765380D01*
X122373952Y-95717761D01*
X122326333Y-95670142D01*
X122278714Y-95574904D01*
X122278714Y-94765380D01*
X121231095Y-95670142D02*
X121278714Y-95717761D01*
X121421571Y-95765380D01*
X121516809Y-95765380D01*
X121659666Y-95717761D01*
X121754904Y-95622523D01*
X121802523Y-95527285D01*
X121850142Y-95336809D01*
X121850142Y-95193952D01*
X121802523Y-95003476D01*
X121754904Y-94908238D01*
X121659666Y-94813000D01*
X121516809Y-94765380D01*
X121421571Y-94765380D01*
X121278714Y-94813000D01*
X121231095Y-94860619D01*
X120802523Y-95765380D02*
X120802523Y-94765380D01*
X120802523Y-95241571D02*
X120231095Y-95241571D01*
X120231095Y-95765380D02*
X120231095Y-94765380D01*
X148397761Y-96415380D02*
X148207285Y-96415380D01*
X148112047Y-96463000D01*
X148016809Y-96558238D01*
X147969190Y-96748714D01*
X147969190Y-97082047D01*
X148016809Y-97272523D01*
X148112047Y-97367761D01*
X148207285Y-97415380D01*
X148397761Y-97415380D01*
X148493000Y-97367761D01*
X148588238Y-97272523D01*
X148635857Y-97082047D01*
X148635857Y-96748714D01*
X148588238Y-96558238D01*
X148493000Y-96463000D01*
X148397761Y-96415380D01*
X146969190Y-97415380D02*
X147302523Y-96939190D01*
X147540619Y-97415380D02*
X147540619Y-96415380D01*
X147159666Y-96415380D01*
X147064428Y-96463000D01*
X147016809Y-96510619D01*
X146969190Y-96605857D01*
X146969190Y-96748714D01*
X147016809Y-96843952D01*
X147064428Y-96891571D01*
X147159666Y-96939190D01*
X147540619Y-96939190D01*
X145778714Y-97034428D02*
X145016809Y-97034428D01*
X145397761Y-97415380D02*
X145397761Y-96653476D01*
X144588238Y-96510619D02*
X144540619Y-96463000D01*
X144445380Y-96415380D01*
X144207285Y-96415380D01*
X144112047Y-96463000D01*
X144064428Y-96510619D01*
X144016809Y-96605857D01*
X144016809Y-96701095D01*
X144064428Y-96843952D01*
X144635857Y-97415380D01*
X144016809Y-97415380D01*
X143159666Y-96748714D02*
X143159666Y-97415380D01*
X143397761Y-96367761D02*
X143635857Y-97082047D01*
X143016809Y-97082047D01*
X142778714Y-96415380D02*
X142445380Y-97415380D01*
X142112047Y-96415380D01*
X140683476Y-96891571D02*
X141016809Y-96891571D01*
X141016809Y-97415380D02*
X141016809Y-96415380D01*
X140540619Y-96415380D01*
X139969190Y-96415380D02*
X139778714Y-96415380D01*
X139683476Y-96463000D01*
X139588238Y-96558238D01*
X139540619Y-96748714D01*
X139540619Y-97082047D01*
X139588238Y-97272523D01*
X139683476Y-97367761D01*
X139778714Y-97415380D01*
X139969190Y-97415380D01*
X140064428Y-97367761D01*
X140159666Y-97272523D01*
X140207285Y-97082047D01*
X140207285Y-96748714D01*
X140159666Y-96558238D01*
X140064428Y-96463000D01*
X139969190Y-96415380D01*
X138540619Y-97415380D02*
X138873952Y-96939190D01*
X139112047Y-97415380D02*
X139112047Y-96415380D01*
X138731095Y-96415380D01*
X138635857Y-96463000D01*
X138588238Y-96510619D01*
X138540619Y-96605857D01*
X138540619Y-96748714D01*
X138588238Y-96843952D01*
X138635857Y-96891571D01*
X138731095Y-96939190D01*
X139112047Y-96939190D01*
X137445380Y-96415380D02*
X136778714Y-96415380D01*
X137445380Y-97415380D01*
X136778714Y-97415380D01*
X136635857Y-97510619D02*
X135873952Y-97510619D01*
X135635857Y-97415380D02*
X135635857Y-96415380D01*
X135302523Y-97129666D01*
X134969190Y-96415380D01*
X134969190Y-97415380D01*
X134493000Y-97415380D02*
X134493000Y-96415380D01*
X134016809Y-97415380D02*
X134016809Y-96415380D01*
X133445380Y-97415380D01*
X133445380Y-96415380D01*
X131921571Y-97796333D02*
X131969190Y-97748714D01*
X132064428Y-97605857D01*
X132112047Y-97510619D01*
X132159666Y-97367761D01*
X132207285Y-97129666D01*
X132207285Y-96939190D01*
X132159666Y-96701095D01*
X132112047Y-96558238D01*
X132064428Y-96463000D01*
X131969190Y-96320142D01*
X131921571Y-96272523D01*
X131588238Y-97367761D02*
X131445380Y-97415380D01*
X131207285Y-97415380D01*
X131112047Y-97367761D01*
X131064428Y-97320142D01*
X131016809Y-97224904D01*
X131016809Y-97129666D01*
X131064428Y-97034428D01*
X131112047Y-96986809D01*
X131207285Y-96939190D01*
X131397761Y-96891571D01*
X131493000Y-96843952D01*
X131540619Y-96796333D01*
X131588238Y-96701095D01*
X131588238Y-96605857D01*
X131540619Y-96510619D01*
X131493000Y-96463000D01*
X131397761Y-96415380D01*
X131159666Y-96415380D01*
X131016809Y-96463000D01*
X130731095Y-96415380D02*
X130159666Y-96415380D01*
X130445380Y-97415380D02*
X130445380Y-96415380D01*
X129635857Y-96415380D02*
X129445380Y-96415380D01*
X129350142Y-96463000D01*
X129254904Y-96558238D01*
X129207285Y-96748714D01*
X129207285Y-97082047D01*
X129254904Y-97272523D01*
X129350142Y-97367761D01*
X129445380Y-97415380D01*
X129635857Y-97415380D01*
X129731095Y-97367761D01*
X129826333Y-97272523D01*
X129873952Y-97082047D01*
X129873952Y-96748714D01*
X129826333Y-96558238D01*
X129731095Y-96463000D01*
X129635857Y-96415380D01*
X128207285Y-97320142D02*
X128254904Y-97367761D01*
X128397761Y-97415380D01*
X128493000Y-97415380D01*
X128635857Y-97367761D01*
X128731095Y-97272523D01*
X128778714Y-97177285D01*
X128826333Y-96986809D01*
X128826333Y-96843952D01*
X128778714Y-96653476D01*
X128731095Y-96558238D01*
X128635857Y-96463000D01*
X128493000Y-96415380D01*
X128397761Y-96415380D01*
X128254904Y-96463000D01*
X128207285Y-96510619D01*
X127778714Y-97415380D02*
X127778714Y-96415380D01*
X127207285Y-97415380D02*
X127635857Y-96843952D01*
X127207285Y-96415380D02*
X127778714Y-96986809D01*
X126873952Y-97796333D02*
X126826333Y-97748714D01*
X126731095Y-97605857D01*
X126683476Y-97510619D01*
X126635857Y-97367761D01*
X126588238Y-97129666D01*
X126588238Y-96939190D01*
X126635857Y-96701095D01*
X126683476Y-96558238D01*
X126731095Y-96463000D01*
X126826333Y-96320142D01*
X126873952Y-96272523D01*
X125350142Y-97415380D02*
X125350142Y-96415380D01*
X124969190Y-96415380D01*
X124873952Y-96463000D01*
X124826333Y-96510619D01*
X124778714Y-96605857D01*
X124778714Y-96748714D01*
X124826333Y-96843952D01*
X124873952Y-96891571D01*
X124969190Y-96939190D01*
X125350142Y-96939190D01*
X123778714Y-97415380D02*
X124112047Y-96939190D01*
X124350142Y-97415380D02*
X124350142Y-96415380D01*
X123969190Y-96415380D01*
X123873952Y-96463000D01*
X123826333Y-96510619D01*
X123778714Y-96605857D01*
X123778714Y-96748714D01*
X123826333Y-96843952D01*
X123873952Y-96891571D01*
X123969190Y-96939190D01*
X124350142Y-96939190D01*
X123159666Y-96415380D02*
X122969190Y-96415380D01*
X122873952Y-96463000D01*
X122778714Y-96558238D01*
X122731095Y-96748714D01*
X122731095Y-97082047D01*
X122778714Y-97272523D01*
X122873952Y-97367761D01*
X122969190Y-97415380D01*
X123159666Y-97415380D01*
X123254904Y-97367761D01*
X123350142Y-97272523D01*
X123397761Y-97082047D01*
X123397761Y-96748714D01*
X123350142Y-96558238D01*
X123254904Y-96463000D01*
X123159666Y-96415380D01*
X121969190Y-96891571D02*
X121826333Y-96939190D01*
X121778714Y-96986809D01*
X121731095Y-97082047D01*
X121731095Y-97224904D01*
X121778714Y-97320142D01*
X121826333Y-97367761D01*
X121921571Y-97415380D01*
X122302523Y-97415380D01*
X122302523Y-96415380D01*
X121969190Y-96415380D01*
X121873952Y-96463000D01*
X121826333Y-96510619D01*
X121778714Y-96605857D01*
X121778714Y-96701095D01*
X121826333Y-96796333D01*
X121873952Y-96843952D01*
X121969190Y-96891571D01*
X122302523Y-96891571D01*
X121302523Y-96891571D02*
X120969190Y-96891571D01*
X120826333Y-97415380D02*
X121302523Y-97415380D01*
X121302523Y-96415380D01*
X120826333Y-96415380D01*
X120397761Y-97320142D02*
X120350142Y-97367761D01*
X120397761Y-97415380D01*
X120445380Y-97367761D01*
X120397761Y-97320142D01*
X120397761Y-97415380D01*
X115656952Y-86431428D02*
X114895047Y-86431428D01*
X115276000Y-86812380D02*
X115276000Y-86050476D01*
X113942666Y-85812380D02*
X114418857Y-85812380D01*
X114466476Y-86288571D01*
X114418857Y-86240952D01*
X114323619Y-86193333D01*
X114085523Y-86193333D01*
X113990285Y-86240952D01*
X113942666Y-86288571D01*
X113895047Y-86383809D01*
X113895047Y-86621904D01*
X113942666Y-86717142D01*
X113990285Y-86764761D01*
X114085523Y-86812380D01*
X114323619Y-86812380D01*
X114418857Y-86764761D01*
X114466476Y-86717142D01*
X113609333Y-85812380D02*
X113276000Y-86812380D01*
X112942666Y-85812380D01*
X111895047Y-86764761D02*
X111752190Y-86812380D01*
X111514095Y-86812380D01*
X111418857Y-86764761D01*
X111371238Y-86717142D01*
X111323619Y-86621904D01*
X111323619Y-86526666D01*
X111371238Y-86431428D01*
X111418857Y-86383809D01*
X111514095Y-86336190D01*
X111704571Y-86288571D01*
X111799809Y-86240952D01*
X111847428Y-86193333D01*
X111895047Y-86098095D01*
X111895047Y-86002857D01*
X111847428Y-85907619D01*
X111799809Y-85860000D01*
X111704571Y-85812380D01*
X111466476Y-85812380D01*
X111323619Y-85860000D01*
X110895047Y-86812380D02*
X110895047Y-85812380D01*
X109895047Y-85860000D02*
X109990285Y-85812380D01*
X110133142Y-85812380D01*
X110276000Y-85860000D01*
X110371238Y-85955238D01*
X110418857Y-86050476D01*
X110466476Y-86240952D01*
X110466476Y-86383809D01*
X110418857Y-86574285D01*
X110371238Y-86669523D01*
X110276000Y-86764761D01*
X110133142Y-86812380D01*
X110037904Y-86812380D01*
X109895047Y-86764761D01*
X109847428Y-86717142D01*
X109847428Y-86383809D01*
X110037904Y-86383809D01*
X116117285Y-89352380D02*
X116117285Y-88352380D01*
X115545857Y-89352380D01*
X115545857Y-88352380D01*
X114355380Y-88304761D02*
X115212523Y-89590476D01*
X113450619Y-89257142D02*
X113498238Y-89304761D01*
X113641095Y-89352380D01*
X113736333Y-89352380D01*
X113879190Y-89304761D01*
X113974428Y-89209523D01*
X114022047Y-89114285D01*
X114069666Y-88923809D01*
X114069666Y-88780952D01*
X114022047Y-88590476D01*
X113974428Y-88495238D01*
X113879190Y-88400000D01*
X113736333Y-88352380D01*
X113641095Y-88352380D01*
X113498238Y-88400000D01*
X113450619Y-88447619D01*
X111736333Y-88400000D02*
X111831571Y-88352380D01*
X111974428Y-88352380D01*
X112117285Y-88400000D01*
X112212523Y-88495238D01*
X112260142Y-88590476D01*
X112307761Y-88780952D01*
X112307761Y-88923809D01*
X112260142Y-89114285D01*
X112212523Y-89209523D01*
X112117285Y-89304761D01*
X111974428Y-89352380D01*
X111879190Y-89352380D01*
X111736333Y-89304761D01*
X111688714Y-89257142D01*
X111688714Y-88923809D01*
X111879190Y-88923809D01*
X111260142Y-89352380D02*
X111260142Y-88352380D01*
X110688714Y-89352380D01*
X110688714Y-88352380D01*
X110212523Y-89352380D02*
X110212523Y-88352380D01*
X109974428Y-88352380D01*
X109831571Y-88400000D01*
X109736333Y-88495238D01*
X109688714Y-88590476D01*
X109641095Y-88780952D01*
X109641095Y-88923809D01*
X109688714Y-89114285D01*
X109736333Y-89209523D01*
X109831571Y-89304761D01*
X109974428Y-89352380D01*
X110212523Y-89352380D01*
X111640809Y-91908261D02*
X111497952Y-91955880D01*
X111259857Y-91955880D01*
X111164619Y-91908261D01*
X111117000Y-91860642D01*
X111069380Y-91765404D01*
X111069380Y-91670166D01*
X111117000Y-91574928D01*
X111164619Y-91527309D01*
X111259857Y-91479690D01*
X111450333Y-91432071D01*
X111545571Y-91384452D01*
X111593190Y-91336833D01*
X111640809Y-91241595D01*
X111640809Y-91146357D01*
X111593190Y-91051119D01*
X111545571Y-91003500D01*
X111450333Y-90955880D01*
X111212238Y-90955880D01*
X111069380Y-91003500D01*
X110640809Y-91955880D02*
X110640809Y-90955880D01*
X109640809Y-91003500D02*
X109736047Y-90955880D01*
X109878904Y-90955880D01*
X110021761Y-91003500D01*
X110117000Y-91098738D01*
X110164619Y-91193976D01*
X110212238Y-91384452D01*
X110212238Y-91527309D01*
X110164619Y-91717785D01*
X110117000Y-91813023D01*
X110021761Y-91908261D01*
X109878904Y-91955880D01*
X109783666Y-91955880D01*
X109640809Y-91908261D01*
X109593190Y-91860642D01*
X109593190Y-91527309D01*
X109783666Y-91527309D01*
X116141095Y-84272380D02*
X116141095Y-83272380D01*
X115760142Y-83272380D01*
X115664904Y-83320000D01*
X115617285Y-83367619D01*
X115569666Y-83462857D01*
X115569666Y-83605714D01*
X115617285Y-83700952D01*
X115664904Y-83748571D01*
X115760142Y-83796190D01*
X116141095Y-83796190D01*
X115236333Y-83272380D02*
X114998238Y-84272380D01*
X114807761Y-83558095D01*
X114617285Y-84272380D01*
X114379190Y-83272380D01*
X113426809Y-84272380D02*
X113760142Y-83796190D01*
X113998238Y-84272380D02*
X113998238Y-83272380D01*
X113617285Y-83272380D01*
X113522047Y-83320000D01*
X113474428Y-83367619D01*
X113426809Y-83462857D01*
X113426809Y-83605714D01*
X113474428Y-83700952D01*
X113522047Y-83748571D01*
X113617285Y-83796190D01*
X113998238Y-83796190D01*
X111712523Y-83320000D02*
X111807761Y-83272380D01*
X111950619Y-83272380D01*
X112093476Y-83320000D01*
X112188714Y-83415238D01*
X112236333Y-83510476D01*
X112283952Y-83700952D01*
X112283952Y-83843809D01*
X112236333Y-84034285D01*
X112188714Y-84129523D01*
X112093476Y-84224761D01*
X111950619Y-84272380D01*
X111855380Y-84272380D01*
X111712523Y-84224761D01*
X111664904Y-84177142D01*
X111664904Y-83843809D01*
X111855380Y-83843809D01*
X111236333Y-84272380D02*
X111236333Y-83272380D01*
X110664904Y-84272380D01*
X110664904Y-83272380D01*
X110188714Y-84272380D02*
X110188714Y-83272380D01*
X109950619Y-83272380D01*
X109807761Y-83320000D01*
X109712523Y-83415238D01*
X109664904Y-83510476D01*
X109617285Y-83700952D01*
X109617285Y-83843809D01*
X109664904Y-84034285D01*
X109712523Y-84129523D01*
X109807761Y-84224761D01*
X109950619Y-84272380D01*
X110188714Y-84272380D01*
X116141095Y-81795880D02*
X116141095Y-80795880D01*
X115760142Y-80795880D01*
X115664904Y-80843500D01*
X115617285Y-80891119D01*
X115569666Y-80986357D01*
X115569666Y-81129214D01*
X115617285Y-81224452D01*
X115664904Y-81272071D01*
X115760142Y-81319690D01*
X116141095Y-81319690D01*
X115236333Y-80795880D02*
X114998238Y-81795880D01*
X114807761Y-81081595D01*
X114617285Y-81795880D01*
X114379190Y-80795880D01*
X113426809Y-81795880D02*
X113760142Y-81319690D01*
X113998238Y-81795880D02*
X113998238Y-80795880D01*
X113617285Y-80795880D01*
X113522047Y-80843500D01*
X113474428Y-80891119D01*
X113426809Y-80986357D01*
X113426809Y-81129214D01*
X113474428Y-81224452D01*
X113522047Y-81272071D01*
X113617285Y-81319690D01*
X113998238Y-81319690D01*
X111712523Y-80843500D02*
X111807761Y-80795880D01*
X111950619Y-80795880D01*
X112093476Y-80843500D01*
X112188714Y-80938738D01*
X112236333Y-81033976D01*
X112283952Y-81224452D01*
X112283952Y-81367309D01*
X112236333Y-81557785D01*
X112188714Y-81653023D01*
X112093476Y-81748261D01*
X111950619Y-81795880D01*
X111855380Y-81795880D01*
X111712523Y-81748261D01*
X111664904Y-81700642D01*
X111664904Y-81367309D01*
X111855380Y-81367309D01*
X111236333Y-81795880D02*
X111236333Y-80795880D01*
X110664904Y-81795880D01*
X110664904Y-80795880D01*
X110188714Y-81795880D02*
X110188714Y-80795880D01*
X109950619Y-80795880D01*
X109807761Y-80843500D01*
X109712523Y-80938738D01*
X109664904Y-81033976D01*
X109617285Y-81224452D01*
X109617285Y-81367309D01*
X109664904Y-81557785D01*
X109712523Y-81653023D01*
X109807761Y-81748261D01*
X109950619Y-81795880D01*
X110188714Y-81795880D01*
X115450571Y-79144761D02*
X115307714Y-79192380D01*
X115069619Y-79192380D01*
X114974380Y-79144761D01*
X114926761Y-79097142D01*
X114879142Y-79001904D01*
X114879142Y-78906666D01*
X114926761Y-78811428D01*
X114974380Y-78763809D01*
X115069619Y-78716190D01*
X115260095Y-78668571D01*
X115355333Y-78620952D01*
X115402952Y-78573333D01*
X115450571Y-78478095D01*
X115450571Y-78382857D01*
X115402952Y-78287619D01*
X115355333Y-78240000D01*
X115260095Y-78192380D01*
X115022000Y-78192380D01*
X114879142Y-78240000D01*
X114450571Y-79192380D02*
X114450571Y-78192380D01*
X113450571Y-78240000D02*
X113545809Y-78192380D01*
X113688666Y-78192380D01*
X113831523Y-78240000D01*
X113926761Y-78335238D01*
X113974380Y-78430476D01*
X114022000Y-78620952D01*
X114022000Y-78763809D01*
X113974380Y-78954285D01*
X113926761Y-79049523D01*
X113831523Y-79144761D01*
X113688666Y-79192380D01*
X113593428Y-79192380D01*
X113450571Y-79144761D01*
X113402952Y-79097142D01*
X113402952Y-78763809D01*
X113593428Y-78763809D01*
X111688666Y-78240000D02*
X111783904Y-78192380D01*
X111926761Y-78192380D01*
X112069619Y-78240000D01*
X112164857Y-78335238D01*
X112212476Y-78430476D01*
X112260095Y-78620952D01*
X112260095Y-78763809D01*
X112212476Y-78954285D01*
X112164857Y-79049523D01*
X112069619Y-79144761D01*
X111926761Y-79192380D01*
X111831523Y-79192380D01*
X111688666Y-79144761D01*
X111641047Y-79097142D01*
X111641047Y-78763809D01*
X111831523Y-78763809D01*
X111212476Y-79192380D02*
X111212476Y-78192380D01*
X110641047Y-79192380D01*
X110641047Y-78192380D01*
X110164857Y-79192380D02*
X110164857Y-78192380D01*
X109926761Y-78192380D01*
X109783904Y-78240000D01*
X109688666Y-78335238D01*
X109641047Y-78430476D01*
X109593428Y-78620952D01*
X109593428Y-78763809D01*
X109641047Y-78954285D01*
X109688666Y-79049523D01*
X109783904Y-79144761D01*
X109926761Y-79192380D01*
X110164857Y-79192380D01*
X116085571Y-76620642D02*
X116133190Y-76668261D01*
X116276047Y-76715880D01*
X116371285Y-76715880D01*
X116514142Y-76668261D01*
X116609380Y-76573023D01*
X116657000Y-76477785D01*
X116704619Y-76287309D01*
X116704619Y-76144452D01*
X116657000Y-75953976D01*
X116609380Y-75858738D01*
X116514142Y-75763500D01*
X116371285Y-75715880D01*
X116276047Y-75715880D01*
X116133190Y-75763500D01*
X116085571Y-75811119D01*
X115799857Y-75715880D02*
X115228428Y-75715880D01*
X115514142Y-76715880D02*
X115514142Y-75715880D01*
X114323666Y-76715880D02*
X114657000Y-76239690D01*
X114895095Y-76715880D02*
X114895095Y-75715880D01*
X114514142Y-75715880D01*
X114418904Y-75763500D01*
X114371285Y-75811119D01*
X114323666Y-75906357D01*
X114323666Y-76049214D01*
X114371285Y-76144452D01*
X114418904Y-76192071D01*
X114514142Y-76239690D01*
X114895095Y-76239690D01*
X113418904Y-76715880D02*
X113895095Y-76715880D01*
X113895095Y-75715880D01*
X112323666Y-76715880D02*
X112323666Y-75715880D01*
X111942714Y-75715880D01*
X111847476Y-75763500D01*
X111799857Y-75811119D01*
X111752238Y-75906357D01*
X111752238Y-76049214D01*
X111799857Y-76144452D01*
X111847476Y-76192071D01*
X111942714Y-76239690D01*
X112323666Y-76239690D01*
X111418904Y-75715880D02*
X111180809Y-76715880D01*
X110990333Y-76001595D01*
X110799857Y-76715880D01*
X110561761Y-75715880D01*
X109609380Y-76715880D02*
X109942714Y-76239690D01*
X110180809Y-76715880D02*
X110180809Y-75715880D01*
X109799857Y-75715880D01*
X109704619Y-75763500D01*
X109657000Y-75811119D01*
X109609380Y-75906357D01*
X109609380Y-76049214D01*
X109657000Y-76144452D01*
X109704619Y-76192071D01*
X109799857Y-76239690D01*
X110180809Y-76239690D01*
X115450571Y-74128261D02*
X115307714Y-74175880D01*
X115069619Y-74175880D01*
X114974380Y-74128261D01*
X114926761Y-74080642D01*
X114879142Y-73985404D01*
X114879142Y-73890166D01*
X114926761Y-73794928D01*
X114974380Y-73747309D01*
X115069619Y-73699690D01*
X115260095Y-73652071D01*
X115355333Y-73604452D01*
X115402952Y-73556833D01*
X115450571Y-73461595D01*
X115450571Y-73366357D01*
X115402952Y-73271119D01*
X115355333Y-73223500D01*
X115260095Y-73175880D01*
X115022000Y-73175880D01*
X114879142Y-73223500D01*
X114450571Y-74175880D02*
X114450571Y-73175880D01*
X113450571Y-73223500D02*
X113545809Y-73175880D01*
X113688666Y-73175880D01*
X113831523Y-73223500D01*
X113926761Y-73318738D01*
X113974380Y-73413976D01*
X114022000Y-73604452D01*
X114022000Y-73747309D01*
X113974380Y-73937785D01*
X113926761Y-74033023D01*
X113831523Y-74128261D01*
X113688666Y-74175880D01*
X113593428Y-74175880D01*
X113450571Y-74128261D01*
X113402952Y-74080642D01*
X113402952Y-73747309D01*
X113593428Y-73747309D01*
X111688666Y-73223500D02*
X111783904Y-73175880D01*
X111926761Y-73175880D01*
X112069619Y-73223500D01*
X112164857Y-73318738D01*
X112212476Y-73413976D01*
X112260095Y-73604452D01*
X112260095Y-73747309D01*
X112212476Y-73937785D01*
X112164857Y-74033023D01*
X112069619Y-74128261D01*
X111926761Y-74175880D01*
X111831523Y-74175880D01*
X111688666Y-74128261D01*
X111641047Y-74080642D01*
X111641047Y-73747309D01*
X111831523Y-73747309D01*
X111212476Y-74175880D02*
X111212476Y-73175880D01*
X110641047Y-74175880D01*
X110641047Y-73175880D01*
X110164857Y-74175880D02*
X110164857Y-73175880D01*
X109926761Y-73175880D01*
X109783904Y-73223500D01*
X109688666Y-73318738D01*
X109641047Y-73413976D01*
X109593428Y-73604452D01*
X109593428Y-73747309D01*
X109641047Y-73937785D01*
X109688666Y-74033023D01*
X109783904Y-74128261D01*
X109926761Y-74175880D01*
X110164857Y-74175880D01*
X114172714Y-68746666D02*
X113696523Y-68746666D01*
X114267952Y-69032380D02*
X113934619Y-68032380D01*
X113601285Y-69032380D01*
X113267952Y-68651428D02*
X112506047Y-68651428D01*
X111315571Y-68746666D02*
X110839380Y-68746666D01*
X111410809Y-69032380D02*
X111077476Y-68032380D01*
X110744142Y-69032380D01*
X110410809Y-68651428D02*
X109648904Y-68651428D01*
X110029857Y-69032380D02*
X110029857Y-68270476D01*
X113934619Y-71112071D02*
X113791761Y-71159690D01*
X113744142Y-71207309D01*
X113696523Y-71302547D01*
X113696523Y-71445404D01*
X113744142Y-71540642D01*
X113791761Y-71588261D01*
X113887000Y-71635880D01*
X114267952Y-71635880D01*
X114267952Y-70635880D01*
X113934619Y-70635880D01*
X113839380Y-70683500D01*
X113791761Y-70731119D01*
X113744142Y-70826357D01*
X113744142Y-70921595D01*
X113791761Y-71016833D01*
X113839380Y-71064452D01*
X113934619Y-71112071D01*
X114267952Y-71112071D01*
X113267952Y-71254928D02*
X112506047Y-71254928D01*
X110934619Y-71112071D02*
X110791761Y-71159690D01*
X110744142Y-71207309D01*
X110696523Y-71302547D01*
X110696523Y-71445404D01*
X110744142Y-71540642D01*
X110791761Y-71588261D01*
X110887000Y-71635880D01*
X111267952Y-71635880D01*
X111267952Y-70635880D01*
X110934619Y-70635880D01*
X110839380Y-70683500D01*
X110791761Y-70731119D01*
X110744142Y-70826357D01*
X110744142Y-70921595D01*
X110791761Y-71016833D01*
X110839380Y-71064452D01*
X110934619Y-71112071D01*
X111267952Y-71112071D01*
X110267952Y-71254928D02*
X109506047Y-71254928D01*
X109887000Y-71635880D02*
X109887000Y-70873976D01*
X113934619Y-65905071D02*
X113791761Y-65952690D01*
X113744142Y-66000309D01*
X113696523Y-66095547D01*
X113696523Y-66238404D01*
X113744142Y-66333642D01*
X113791761Y-66381261D01*
X113887000Y-66428880D01*
X114267952Y-66428880D01*
X114267952Y-65428880D01*
X113934619Y-65428880D01*
X113839380Y-65476500D01*
X113791761Y-65524119D01*
X113744142Y-65619357D01*
X113744142Y-65714595D01*
X113791761Y-65809833D01*
X113839380Y-65857452D01*
X113934619Y-65905071D01*
X114267952Y-65905071D01*
X113267952Y-66047928D02*
X112506047Y-66047928D01*
X110934619Y-65905071D02*
X110791761Y-65952690D01*
X110744142Y-66000309D01*
X110696523Y-66095547D01*
X110696523Y-66238404D01*
X110744142Y-66333642D01*
X110791761Y-66381261D01*
X110887000Y-66428880D01*
X111267952Y-66428880D01*
X111267952Y-65428880D01*
X110934619Y-65428880D01*
X110839380Y-65476500D01*
X110791761Y-65524119D01*
X110744142Y-65619357D01*
X110744142Y-65714595D01*
X110791761Y-65809833D01*
X110839380Y-65857452D01*
X110934619Y-65905071D01*
X111267952Y-65905071D01*
X110267952Y-66047928D02*
X109506047Y-66047928D01*
X109887000Y-66428880D02*
X109887000Y-65666976D01*
X114172714Y-63539666D02*
X113696523Y-63539666D01*
X114267952Y-63825380D02*
X113934619Y-62825380D01*
X113601285Y-63825380D01*
X113267952Y-63444428D02*
X112506047Y-63444428D01*
X111315571Y-63539666D02*
X110839380Y-63539666D01*
X111410809Y-63825380D02*
X111077476Y-62825380D01*
X110744142Y-63825380D01*
X110410809Y-63444428D02*
X109648904Y-63444428D01*
X110029857Y-63825380D02*
X110029857Y-63063476D01*
X111759904Y-59063000D02*
X111855142Y-59015380D01*
X111998000Y-59015380D01*
X112140857Y-59063000D01*
X112236095Y-59158238D01*
X112283714Y-59253476D01*
X112331333Y-59443952D01*
X112331333Y-59586809D01*
X112283714Y-59777285D01*
X112236095Y-59872523D01*
X112140857Y-59967761D01*
X111998000Y-60015380D01*
X111902761Y-60015380D01*
X111759904Y-59967761D01*
X111712285Y-59920142D01*
X111712285Y-59586809D01*
X111902761Y-59586809D01*
X111283714Y-60015380D02*
X111283714Y-59015380D01*
X110712285Y-60015380D01*
X110712285Y-59015380D01*
X110236095Y-60015380D02*
X110236095Y-59015380D01*
X109998000Y-59015380D01*
X109855142Y-59063000D01*
X109759904Y-59158238D01*
X109712285Y-59253476D01*
X109664666Y-59443952D01*
X109664666Y-59586809D01*
X109712285Y-59777285D01*
X109759904Y-59872523D01*
X109855142Y-59967761D01*
X109998000Y-60015380D01*
X110236095Y-60015380D01*
X113267904Y-55951428D02*
X112506000Y-55951428D01*
X112886952Y-56332380D02*
X112886952Y-55570476D01*
X112077428Y-55427619D02*
X112029809Y-55380000D01*
X111934571Y-55332380D01*
X111696476Y-55332380D01*
X111601238Y-55380000D01*
X111553619Y-55427619D01*
X111506000Y-55522857D01*
X111506000Y-55618095D01*
X111553619Y-55760952D01*
X112125047Y-56332380D01*
X111506000Y-56332380D01*
X110648857Y-55665714D02*
X110648857Y-56332380D01*
X110886952Y-55284761D02*
X111125047Y-55999047D01*
X110506000Y-55999047D01*
X110267904Y-55332380D02*
X109934571Y-56332380D01*
X109601238Y-55332380D01*
X103219214Y-57665880D02*
X103219214Y-56665880D01*
X103219214Y-57142071D02*
X102647785Y-57142071D01*
X102647785Y-57665880D02*
X102647785Y-56665880D01*
X103219214Y-61412380D02*
X103219214Y-60412380D01*
X103219214Y-60888571D02*
X102647785Y-60888571D01*
X102647785Y-61412380D02*
X102647785Y-60412380D01*
X103171523Y-65285880D02*
X103171523Y-64285880D01*
X102838190Y-65000166D01*
X102504857Y-64285880D01*
X102504857Y-65285880D01*
X102123904Y-64285880D02*
X101457238Y-65285880D01*
X101457238Y-64285880D02*
X102123904Y-65285880D01*
X103147714Y-70429380D02*
X103147714Y-69429380D01*
X102814380Y-70143666D01*
X102481047Y-69429380D01*
X102481047Y-70429380D01*
X102004857Y-69905571D02*
X101671523Y-69905571D01*
X101528666Y-70429380D02*
X102004857Y-70429380D01*
X102004857Y-69429380D01*
X101528666Y-69429380D01*
X103123880Y-74445880D02*
X102457214Y-74445880D01*
X103123880Y-75445880D01*
X102457214Y-75445880D01*
X102076261Y-75064928D02*
X101314357Y-75064928D01*
X103123880Y-78255880D02*
X102457214Y-79255880D01*
X102457214Y-78255880D02*
X103123880Y-79255880D01*
X102076261Y-78874928D02*
X101314357Y-78874928D01*
X103203285Y-81859380D02*
X103203285Y-80859380D01*
X103203285Y-81335571D02*
X102631857Y-81335571D01*
X102631857Y-81859380D02*
X102631857Y-80859380D01*
X101822333Y-81335571D02*
X102155666Y-81335571D01*
X102155666Y-81859380D02*
X102155666Y-80859380D01*
X101679476Y-80859380D01*
X103179476Y-84335880D02*
X103179476Y-83335880D01*
X102798523Y-83335880D01*
X102703285Y-83383500D01*
X102655666Y-83431119D01*
X102608047Y-83526357D01*
X102608047Y-83669214D01*
X102655666Y-83764452D01*
X102703285Y-83812071D01*
X102798523Y-83859690D01*
X103179476Y-83859690D01*
X101846142Y-83812071D02*
X102179476Y-83812071D01*
X102179476Y-84335880D02*
X102179476Y-83335880D01*
X101703285Y-83335880D01*
X102885833Y-87622071D02*
X103219166Y-87622071D01*
X103219166Y-88145880D02*
X103219166Y-87145880D01*
X102742976Y-87145880D01*
X102409642Y-88098261D02*
X102266785Y-88145880D01*
X102028690Y-88145880D01*
X101933452Y-88098261D01*
X101885833Y-88050642D01*
X101838214Y-87955404D01*
X101838214Y-87860166D01*
X101885833Y-87764928D01*
X101933452Y-87717309D01*
X102028690Y-87669690D01*
X102219166Y-87622071D01*
X102314404Y-87574452D01*
X102362023Y-87526833D01*
X102409642Y-87431595D01*
X102409642Y-87336357D01*
X102362023Y-87241119D01*
X102314404Y-87193500D01*
X102219166Y-87145880D01*
X101981071Y-87145880D01*
X101838214Y-87193500D01*
X103298523Y-90892380D02*
X102727095Y-90892380D01*
X103012809Y-91892380D02*
X103012809Y-90892380D01*
X102393761Y-91892380D02*
X102393761Y-90892380D01*
X102393761Y-91368571D02*
X101822333Y-91368571D01*
X101822333Y-91892380D02*
X101822333Y-90892380D01*
D11*
X108902500Y-87693500D02*
X106235500Y-90233500D01*
X106235500Y-87693500D02*
X108902500Y-90233500D01*
X108902500Y-92773500D02*
X106235500Y-92773500D01*
X106235500Y-90233500D02*
X108902500Y-90233500D01*
X108902500Y-90233500D02*
X108902500Y-92773500D01*
X106235500Y-92773500D02*
X103568500Y-92773500D01*
X103568500Y-90233500D02*
X106235500Y-90233500D01*
X103568500Y-92773500D02*
X103568500Y-90233500D01*
X108902500Y-90233500D02*
X106235500Y-90233500D01*
X106235500Y-87693500D02*
X108902500Y-87693500D01*
X108902500Y-87693500D02*
X108902500Y-90233500D01*
X106235500Y-90233500D02*
X106235500Y-87693500D01*
X106235500Y-90233500D02*
X103568500Y-90233500D01*
X106235500Y-87693500D02*
X106235500Y-90233500D01*
X103568500Y-90233500D02*
X103568500Y-87693500D01*
X108902500Y-87693500D02*
X106235500Y-87693500D01*
X106235500Y-85153500D02*
X108902500Y-85153500D01*
X108902500Y-85153500D02*
X108902500Y-87693500D01*
X103568500Y-85153500D02*
X106235500Y-85153500D01*
X103568500Y-87693500D02*
X103568500Y-85153500D01*
X108902500Y-85153500D02*
X106235500Y-85153500D01*
X106235500Y-82613500D02*
X108902500Y-82613500D01*
X108902500Y-82613500D02*
X108902500Y-85153500D01*
X106235500Y-85153500D02*
X103568500Y-85153500D01*
X103568500Y-82613500D02*
X106235500Y-82613500D01*
X103568500Y-85153500D02*
X103568500Y-82613500D01*
X108902500Y-82613500D02*
X106235500Y-82613500D01*
X106235500Y-80073500D02*
X108902500Y-80073500D01*
X108902500Y-80073500D02*
X108902500Y-82613500D01*
X106235500Y-82613500D02*
X103568500Y-82613500D01*
X103568500Y-80073500D02*
X106235500Y-80073500D01*
X103568500Y-82613500D02*
X103568500Y-80073500D01*
X108902500Y-80073500D02*
X106235500Y-80073500D01*
X106235500Y-77533500D02*
X108902500Y-77533500D01*
X108902500Y-77533500D02*
X108902500Y-80073500D01*
X106235500Y-80073500D02*
X103568500Y-80073500D01*
X103568500Y-77533500D02*
X106235500Y-77533500D01*
X103568500Y-80073500D02*
X103568500Y-77533500D01*
X108902500Y-77533500D02*
X106235500Y-77533500D01*
X108902500Y-74993500D02*
X108902500Y-77533500D01*
X106235500Y-77533500D02*
X103568500Y-77533500D01*
X103568500Y-77533500D02*
X103568500Y-74993500D01*
X106235500Y-72453500D02*
X108902500Y-72453500D01*
X108902500Y-72453500D02*
X108902500Y-74993500D01*
X103568500Y-72453500D02*
X106235500Y-72453500D01*
X103568500Y-74993500D02*
X103568500Y-72453500D01*
X108902500Y-72453500D02*
X106235500Y-72453500D01*
X108902500Y-69913500D02*
X108902500Y-72453500D01*
X106235500Y-72453500D02*
X103568500Y-72453500D01*
X103568500Y-72453500D02*
X103568500Y-69913500D01*
X106235500Y-67373500D02*
X108902500Y-67373500D01*
X108902500Y-67373500D02*
X108902500Y-69913500D01*
X103568500Y-67373500D02*
X106235500Y-67373500D01*
X103568500Y-69913500D02*
X103568500Y-67373500D01*
X108902500Y-67373500D02*
X106235500Y-67373500D01*
X108902500Y-64833500D02*
X108902500Y-67373500D01*
X106235500Y-67373500D02*
X103568500Y-67373500D01*
X103568500Y-67373500D02*
X103568500Y-64833500D01*
X106235500Y-62293500D02*
X108902500Y-62293500D01*
X108902500Y-62293500D02*
X108902500Y-64833500D01*
X103568500Y-62293500D02*
X106235500Y-62293500D01*
X103568500Y-64833500D02*
X103568500Y-62293500D01*
X108902500Y-62293500D02*
X106235500Y-62293500D01*
X108902500Y-59753500D02*
X108902500Y-62293500D01*
X106235500Y-62293500D02*
X103568500Y-62293500D01*
X103568500Y-59753500D02*
X106235500Y-59753500D01*
X103568500Y-62293500D02*
X103568500Y-59753500D01*
X106235500Y-57213500D02*
X108902500Y-57213500D01*
X108902500Y-57213500D02*
X108902500Y-59753500D01*
X106235500Y-59753500D02*
X106235500Y-57213500D01*
X106235500Y-59753500D02*
X103568500Y-59753500D01*
X106235500Y-57213500D02*
X106235500Y-59753500D01*
X103568500Y-59753500D02*
X103568500Y-57213500D01*
X108902500Y-57213500D02*
X106235500Y-57213500D01*
X106235500Y-54673500D02*
X108902500Y-54673500D01*
X108902500Y-54673500D02*
X108902500Y-57213500D01*
X103568500Y-54673500D02*
X106235500Y-54673500D01*
X103568500Y-57213500D02*
X103568500Y-54673500D01*
M02*
