G04 #@! TF.GenerationSoftware,KiCad,Pcbnew,(5.1.9)-1*
G04 #@! TF.CreationDate,2021-04-19T10:33:25-04:00*
G04 #@! TF.ProjectId,Transfer_Board,5472616e-7366-4657-925f-426f6172642e,rev?*
G04 #@! TF.SameCoordinates,Original*
G04 #@! TF.FileFunction,Copper,L2,Bot*
G04 #@! TF.FilePolarity,Positive*
%FSLAX46Y46*%
G04 Gerber Fmt 4.6, Leading zero omitted, Abs format (unit mm)*
G04 Created by KiCad (PCBNEW (5.1.9)-1) date 2021-04-19 10:33:25*
%MOMM*%
%LPD*%
G01*
G04 APERTURE LIST*
G04 #@! TA.AperFunction,ComponentPad*
%ADD10C,5.000000*%
G04 #@! TD*
G04 #@! TA.AperFunction,ComponentPad*
%ADD11O,1.700000X1.950000*%
G04 #@! TD*
G04 #@! TA.AperFunction,ComponentPad*
%ADD12O,1.700000X2.000000*%
G04 #@! TD*
G04 #@! TA.AperFunction,ComponentPad*
%ADD13R,1.700000X1.950000*%
G04 #@! TD*
G04 #@! TA.AperFunction,ComponentPad*
%ADD14O,1.727200X1.727200*%
G04 #@! TD*
G04 #@! TA.AperFunction,ComponentPad*
%ADD15R,1.727200X1.727200*%
G04 #@! TD*
G04 #@! TA.AperFunction,ComponentPad*
%ADD16C,2.700000*%
G04 #@! TD*
G04 #@! TA.AperFunction,Conductor*
%ADD17C,0.300000*%
G04 #@! TD*
G04 #@! TA.AperFunction,Conductor*
%ADD18C,1.500000*%
G04 #@! TD*
G04 #@! TA.AperFunction,Conductor*
%ADD19C,0.400000*%
G04 #@! TD*
G04 #@! TA.AperFunction,NonConductor*
%ADD20C,0.254000*%
G04 #@! TD*
G04 #@! TA.AperFunction,NonConductor*
%ADD21C,0.100000*%
G04 #@! TD*
G04 APERTURE END LIST*
D10*
X115600000Y-92900000D03*
X115600000Y-59700000D03*
D11*
X132730000Y-68000000D03*
X130230000Y-68000000D03*
X127730000Y-68000000D03*
G04 #@! TA.AperFunction,ComponentPad*
G36*
G01*
X124380000Y-68725000D02*
X124380000Y-67275000D01*
G75*
G02*
X124630000Y-67025000I250000J0D01*
G01*
X125830000Y-67025000D01*
G75*
G02*
X126080000Y-67275000I0J-250000D01*
G01*
X126080000Y-68725000D01*
G75*
G02*
X125830000Y-68975000I-250000J0D01*
G01*
X124630000Y-68975000D01*
G75*
G02*
X124380000Y-68725000I0J250000D01*
G01*
G37*
G04 #@! TD.AperFunction*
D12*
X133858000Y-78000000D03*
G04 #@! TA.AperFunction,ComponentPad*
G36*
G01*
X137208000Y-77250000D02*
X137208000Y-78750000D01*
G75*
G02*
X136958000Y-79000000I-250000J0D01*
G01*
X135758000Y-79000000D01*
G75*
G02*
X135508000Y-78750000I0J250000D01*
G01*
X135508000Y-77250000D01*
G75*
G02*
X135758000Y-77000000I250000J0D01*
G01*
X136958000Y-77000000D01*
G75*
G02*
X137208000Y-77250000I0J-250000D01*
G01*
G37*
G04 #@! TD.AperFunction*
D11*
X132730000Y-59025000D03*
X130230000Y-59025000D03*
X127730000Y-59025000D03*
D13*
X125230000Y-59025000D03*
D11*
X125396000Y-76950000D03*
X122896000Y-76950000D03*
G04 #@! TA.AperFunction,ComponentPad*
G36*
G01*
X119546000Y-77675000D02*
X119546000Y-76225000D01*
G75*
G02*
X119796000Y-75975000I250000J0D01*
G01*
X120996000Y-75975000D01*
G75*
G02*
X121246000Y-76225000I0J-250000D01*
G01*
X121246000Y-77675000D01*
G75*
G02*
X120996000Y-77925000I-250000J0D01*
G01*
X119796000Y-77925000D01*
G75*
G02*
X119546000Y-77675000I0J250000D01*
G01*
G37*
G04 #@! TD.AperFunction*
D12*
X133858000Y-87630000D03*
G04 #@! TA.AperFunction,ComponentPad*
G36*
G01*
X137208000Y-86880000D02*
X137208000Y-88380000D01*
G75*
G02*
X136958000Y-88630000I-250000J0D01*
G01*
X135758000Y-88630000D01*
G75*
G02*
X135508000Y-88380000I0J250000D01*
G01*
X135508000Y-86880000D01*
G75*
G02*
X135758000Y-86630000I250000J0D01*
G01*
X136958000Y-86630000D01*
G75*
G02*
X137208000Y-86880000I0J-250000D01*
G01*
G37*
G04 #@! TD.AperFunction*
D14*
X104960000Y-55940000D03*
X107500000Y-55940000D03*
X104960000Y-58480000D03*
X107500000Y-58480000D03*
X104960000Y-61020000D03*
X107500000Y-61020000D03*
X104960000Y-63560000D03*
X107500000Y-63560000D03*
X104960000Y-66100000D03*
X107500000Y-66100000D03*
X104960000Y-68640000D03*
X107500000Y-68640000D03*
X104960000Y-71180000D03*
X107500000Y-71180000D03*
X104960000Y-73720000D03*
X107500000Y-73720000D03*
X104960000Y-76260000D03*
X107500000Y-76260000D03*
X104960000Y-78800000D03*
X107500000Y-78800000D03*
X104960000Y-81340000D03*
X107500000Y-81340000D03*
X104960000Y-83880000D03*
X107500000Y-83880000D03*
X104960000Y-86420000D03*
X107500000Y-86420000D03*
X104960000Y-88960000D03*
X107500000Y-88960000D03*
X104960000Y-91500000D03*
D15*
X107500000Y-91500000D03*
G04 #@! TA.AperFunction,ComponentPad*
G36*
G01*
X148170000Y-86880000D02*
X148170000Y-88380000D01*
G75*
G02*
X147920000Y-88630000I-250000J0D01*
G01*
X146720000Y-88630000D01*
G75*
G02*
X146470000Y-88380000I0J250000D01*
G01*
X146470000Y-86880000D01*
G75*
G02*
X146720000Y-86630000I250000J0D01*
G01*
X147920000Y-86630000D01*
G75*
G02*
X148170000Y-86880000I0J-250000D01*
G01*
G37*
G04 #@! TD.AperFunction*
D12*
X144820000Y-87630000D03*
D11*
X132730000Y-50050000D03*
X130230000Y-50050000D03*
X127730000Y-50050000D03*
D13*
X125230000Y-50050000D03*
G04 #@! TA.AperFunction,ComponentPad*
G36*
G01*
X148170000Y-77250000D02*
X148170000Y-78750000D01*
G75*
G02*
X147920000Y-79000000I-250000J0D01*
G01*
X146720000Y-79000000D01*
G75*
G02*
X146470000Y-78750000I0J250000D01*
G01*
X146470000Y-77250000D01*
G75*
G02*
X146720000Y-77000000I250000J0D01*
G01*
X147920000Y-77000000D01*
G75*
G02*
X148170000Y-77250000I0J-250000D01*
G01*
G37*
G04 #@! TD.AperFunction*
D12*
X144820000Y-78000000D03*
G04 #@! TA.AperFunction,ComponentPad*
G36*
G01*
X118850000Y-51400001D02*
X118850000Y-53599999D01*
G75*
G02*
X118599999Y-53850000I-250001J0D01*
G01*
X116400001Y-53850000D01*
G75*
G02*
X116150000Y-53599999I0J250001D01*
G01*
X116150000Y-51400001D01*
G75*
G02*
X116400001Y-51150000I250001J0D01*
G01*
X118599999Y-51150000D01*
G75*
G02*
X118850000Y-51400001I0J-250001D01*
G01*
G37*
G04 #@! TD.AperFunction*
D16*
X113540000Y-52500000D03*
D11*
X125396000Y-86580000D03*
X122896000Y-86580000D03*
G04 #@! TA.AperFunction,ComponentPad*
G36*
G01*
X119546000Y-87305000D02*
X119546000Y-85855000D01*
G75*
G02*
X119796000Y-85605000I250000J0D01*
G01*
X120996000Y-85605000D01*
G75*
G02*
X121246000Y-85855000I0J-250000D01*
G01*
X121246000Y-87305000D01*
G75*
G02*
X120996000Y-87555000I-250000J0D01*
G01*
X119796000Y-87555000D01*
G75*
G02*
X119546000Y-87305000I0J250000D01*
G01*
G37*
G04 #@! TD.AperFunction*
D17*
X118944400Y-84754980D02*
X123570980Y-84754980D01*
X108506110Y-85629980D02*
X118069400Y-85629980D01*
X123595980Y-84779980D02*
X125396000Y-86580000D01*
X123570980Y-84754980D02*
X123595980Y-84779980D01*
X108082529Y-85206399D02*
X108506110Y-85629980D01*
X106173601Y-85206399D02*
X108082529Y-85206399D01*
X118069400Y-85629980D02*
X118944400Y-84754980D01*
X104960000Y-86420000D02*
X106173601Y-85206399D01*
X122896000Y-86580000D02*
X122569546Y-86580000D01*
X108622720Y-86420000D02*
X107500000Y-86420000D01*
X108912730Y-86129990D02*
X108622720Y-86420000D01*
X118276510Y-86129990D02*
X108912730Y-86129990D01*
X119151510Y-85254990D02*
X118276510Y-86129990D01*
X121570990Y-85254990D02*
X119151510Y-85254990D01*
X122896000Y-86580000D02*
X121570990Y-85254990D01*
X109204000Y-86630000D02*
X120346000Y-86630000D01*
X120346000Y-86630000D02*
X120396000Y-86580000D01*
X104960000Y-88960000D02*
X106163000Y-87757000D01*
X106286399Y-87633601D02*
X106163000Y-87757000D01*
X108200399Y-87633601D02*
X106286399Y-87633601D01*
X109204000Y-86630000D02*
X108200399Y-87633601D01*
D18*
X110940000Y-52500000D02*
X107500000Y-55940000D01*
X113540000Y-52500000D02*
X110940000Y-52500000D01*
X107500000Y-55940000D02*
X104960000Y-55940000D01*
X104960000Y-55940000D02*
X104960000Y-58480000D01*
X107500000Y-58480000D02*
X107500000Y-61020000D01*
X107500000Y-61020000D02*
X104960000Y-61020000D01*
X104960000Y-61020000D02*
X103057000Y-61020000D01*
X117500000Y-52500000D02*
X117500000Y-52476000D01*
X117500000Y-52476000D02*
X114490500Y-49466500D01*
X114490500Y-49466500D02*
X107442000Y-49466500D01*
X107442000Y-49466500D02*
X102425500Y-54483000D01*
X102425500Y-60388500D02*
X103057000Y-61020000D01*
X102425500Y-54483000D02*
X102425500Y-60388500D01*
D19*
X108521588Y-81340000D02*
X107500000Y-81340000D01*
X109185179Y-82003591D02*
X108521588Y-81340000D01*
X142532409Y-82003591D02*
X109185179Y-82003591D01*
X144820000Y-79716000D02*
X142532409Y-82003591D01*
X144820000Y-78000000D02*
X144820000Y-79716000D01*
X142243419Y-81403581D02*
X109470581Y-81403581D01*
X106223601Y-80076399D02*
X104960000Y-81340000D01*
X143569990Y-80077010D02*
X142243419Y-81403581D01*
X108143399Y-80076399D02*
X106223601Y-80076399D01*
X143569990Y-77332229D02*
X143569990Y-80077010D01*
X109470581Y-81403581D02*
X108143399Y-80076399D01*
X144302229Y-76599990D02*
X143569990Y-77332229D01*
X145919990Y-76599990D02*
X144302229Y-76599990D01*
X147320000Y-78000000D02*
X145919990Y-76599990D01*
X132730000Y-59025000D02*
X130754980Y-61000020D01*
X117272084Y-71180000D02*
X107500000Y-71180000D01*
X127452064Y-61000020D02*
X117272084Y-71180000D01*
X130754980Y-61000020D02*
X127452064Y-61000020D01*
X128854990Y-60400010D02*
X130230000Y-59025000D01*
X127203532Y-60400010D02*
X128854990Y-60400010D01*
X117023552Y-70579990D02*
X127203532Y-60400010D01*
X108770120Y-70579990D02*
X117023552Y-70579990D01*
X106223601Y-69916399D02*
X108106529Y-69916399D01*
X108106529Y-69916399D02*
X108770120Y-70579990D01*
X104960000Y-71180000D02*
X106223601Y-69916399D01*
X127730000Y-59025000D02*
X118115000Y-68640000D01*
X107500000Y-68640000D02*
X107500000Y-68739600D01*
X116775020Y-69979980D02*
X118115000Y-68640000D01*
X109018652Y-69979980D02*
X116775020Y-69979980D01*
X107678672Y-68640000D02*
X109018652Y-69979980D01*
X107500000Y-68640000D02*
X107678672Y-68640000D01*
X106223601Y-67376399D02*
X104960000Y-68640000D01*
X108106529Y-67376399D02*
X106223601Y-67376399D01*
X110110100Y-69379970D02*
X108106529Y-67376399D01*
X116526488Y-69379970D02*
X110110100Y-69379970D01*
X125230000Y-60676458D02*
X116526488Y-69379970D01*
X125230000Y-59025000D02*
X125230000Y-60676458D01*
X132730000Y-50050000D02*
X132703000Y-50050000D01*
X130754980Y-52025020D02*
X132730000Y-50050000D01*
X127472246Y-52025020D02*
X130754980Y-52025020D01*
X121850588Y-57646678D02*
X127472246Y-52025020D01*
X121850588Y-61664412D02*
X121850588Y-57646678D01*
X117415000Y-66100000D02*
X121850588Y-61664412D01*
X107500000Y-66100000D02*
X117415000Y-66100000D01*
X128854990Y-51425010D02*
X130230000Y-50050000D01*
X127223714Y-51425010D02*
X128854990Y-51425010D01*
X121250578Y-57398146D02*
X127223714Y-51425010D01*
X121250578Y-61415880D02*
X121250578Y-57398146D01*
X117166468Y-65499990D02*
X121250578Y-61415880D01*
X108770120Y-65499990D02*
X117166468Y-65499990D01*
X108106529Y-64836399D02*
X108770120Y-65499990D01*
X106223601Y-64836399D02*
X108106529Y-64836399D01*
X104960000Y-66100000D02*
X106223601Y-64836399D01*
X120650570Y-57149612D02*
X127730000Y-50070182D01*
X120650570Y-61167346D02*
X120650570Y-57149612D01*
X116917936Y-64899980D02*
X120650570Y-61167346D01*
X127730000Y-50070182D02*
X127730000Y-50050000D01*
X109018652Y-64899980D02*
X116917936Y-64899980D01*
X107678672Y-63560000D02*
X109018652Y-64899980D01*
X107500000Y-63560000D02*
X107678672Y-63560000D01*
X108106529Y-62296399D02*
X106223601Y-62296399D01*
X110110100Y-64299970D02*
X108106529Y-62296399D01*
X106223601Y-62296399D02*
X104960000Y-63560000D01*
X116669404Y-64299970D02*
X110110100Y-64299970D01*
X120050560Y-60918814D02*
X116669404Y-64299970D01*
X120050560Y-56901080D02*
X120050560Y-60918814D01*
X125230000Y-51721640D02*
X120050560Y-56901080D01*
X125230000Y-50050000D02*
X125230000Y-51721640D01*
X142045069Y-83203611D02*
X144820000Y-85978542D01*
X109328389Y-83203611D02*
X142045069Y-83203611D01*
X144820000Y-85978542D02*
X144820000Y-87630000D01*
X108652000Y-83880000D02*
X109328389Y-83203611D01*
X107500000Y-83880000D02*
X108652000Y-83880000D01*
X142293601Y-82603601D02*
X147320000Y-87630000D01*
X106236399Y-82603601D02*
X142293601Y-82603601D01*
X104960000Y-83880000D02*
X106236399Y-82603601D01*
D17*
X133858000Y-78000000D02*
X133858000Y-78304120D01*
X133858000Y-78000000D02*
X133858000Y-78050120D01*
X107607961Y-78800000D02*
X107500000Y-78800000D01*
X133858000Y-78050120D02*
X132287110Y-79621010D01*
X107500000Y-78800000D02*
X108572880Y-78800000D01*
X109393890Y-79621010D02*
X132287110Y-79621010D01*
X108572880Y-78800000D02*
X109393890Y-79621010D01*
X135007990Y-76649990D02*
X136358000Y-78000000D01*
X133360940Y-76649990D02*
X135007990Y-76649990D01*
X132657990Y-77352940D02*
X133360940Y-76649990D01*
X132657990Y-78543010D02*
X132657990Y-77352940D01*
X132080000Y-79121000D02*
X132657990Y-78543010D01*
X109601000Y-79121000D02*
X132080000Y-79121000D01*
X108066399Y-77586399D02*
X109601000Y-79121000D01*
X106173601Y-77586399D02*
X108066399Y-77586399D01*
X104960000Y-78800000D02*
X106173601Y-77586399D01*
X107500000Y-91463250D02*
X107500000Y-91500000D01*
D20*
X135270982Y-47631457D02*
X135531634Y-47710153D01*
X135772045Y-47837982D01*
X135983044Y-48010069D01*
X136156602Y-48219864D01*
X136286102Y-48459371D01*
X136366618Y-48719476D01*
X136398001Y-49018061D01*
X136398000Y-71029565D01*
X136400614Y-71056103D01*
X136400527Y-71068524D01*
X136401347Y-71076890D01*
X136442148Y-71465082D01*
X136453109Y-71518479D01*
X136463343Y-71572126D01*
X136465772Y-71580172D01*
X136581196Y-71953047D01*
X136602359Y-72003391D01*
X136622780Y-72053935D01*
X136626725Y-72061356D01*
X136812376Y-72404711D01*
X136842907Y-72449975D01*
X136872765Y-72495602D01*
X136878077Y-72502116D01*
X137126883Y-72802871D01*
X137165626Y-72841344D01*
X137203774Y-72880299D01*
X137210250Y-72885657D01*
X137512735Y-73132358D01*
X137558179Y-73162551D01*
X137603201Y-73193378D01*
X137610594Y-73197376D01*
X137955236Y-73380626D01*
X138005671Y-73401414D01*
X138055833Y-73422913D01*
X138063858Y-73425397D01*
X138063864Y-73425399D01*
X138437534Y-73538216D01*
X138491051Y-73548813D01*
X138544427Y-73560158D01*
X138552786Y-73561037D01*
X138941255Y-73599127D01*
X138941263Y-73599127D01*
X138970434Y-73602000D01*
X148970556Y-73602000D01*
X149270982Y-73631457D01*
X149531634Y-73710153D01*
X149772045Y-73837982D01*
X149983044Y-74010069D01*
X150156602Y-74219864D01*
X150286102Y-74459371D01*
X150366618Y-74719476D01*
X150398001Y-75018061D01*
X150398000Y-97970556D01*
X150368543Y-98270979D01*
X150289847Y-98531636D01*
X150162020Y-98772042D01*
X149989930Y-98983045D01*
X149780139Y-99156600D01*
X149540629Y-99286102D01*
X149280524Y-99366618D01*
X148981948Y-99398000D01*
X102029444Y-99398000D01*
X101729021Y-99368543D01*
X101468364Y-99289847D01*
X101227958Y-99162020D01*
X101016955Y-98989930D01*
X100843400Y-98780139D01*
X100713898Y-98540629D01*
X100633382Y-98280524D01*
X100602000Y-97981948D01*
X100602000Y-54483000D01*
X101092081Y-54483000D01*
X101098500Y-54548174D01*
X101098501Y-60323316D01*
X101092081Y-60388500D01*
X101117702Y-60648637D01*
X101193581Y-60898777D01*
X101316802Y-61129308D01*
X101426982Y-61263562D01*
X101482631Y-61331370D01*
X101533261Y-61372921D01*
X102072575Y-61912235D01*
X102114130Y-61962870D01*
X102316192Y-62128698D01*
X102546722Y-62251919D01*
X102796863Y-62327799D01*
X102991816Y-62347000D01*
X102991826Y-62347000D01*
X103057000Y-62353419D01*
X103122174Y-62347000D01*
X104182371Y-62347000D01*
X104041671Y-62441013D01*
X103841013Y-62641671D01*
X103683357Y-62877620D01*
X103574762Y-63139793D01*
X103519400Y-63418113D01*
X103519400Y-63701887D01*
X103574762Y-63980207D01*
X103683357Y-64242380D01*
X103841013Y-64478329D01*
X104041671Y-64678987D01*
X104267678Y-64830000D01*
X104041671Y-64981013D01*
X103841013Y-65181671D01*
X103683357Y-65417620D01*
X103574762Y-65679793D01*
X103519400Y-65958113D01*
X103519400Y-66241887D01*
X103574762Y-66520207D01*
X103683357Y-66782380D01*
X103841013Y-67018329D01*
X104041671Y-67218987D01*
X104267678Y-67370000D01*
X104041671Y-67521013D01*
X103841013Y-67721671D01*
X103683357Y-67957620D01*
X103574762Y-68219793D01*
X103519400Y-68498113D01*
X103519400Y-68781887D01*
X103574762Y-69060207D01*
X103683357Y-69322380D01*
X103841013Y-69558329D01*
X104041671Y-69758987D01*
X104267678Y-69910000D01*
X104041671Y-70061013D01*
X103841013Y-70261671D01*
X103683357Y-70497620D01*
X103574762Y-70759793D01*
X103519400Y-71038113D01*
X103519400Y-71321887D01*
X103574762Y-71600207D01*
X103683357Y-71862380D01*
X103841013Y-72098329D01*
X104041671Y-72298987D01*
X104267678Y-72450000D01*
X104041671Y-72601013D01*
X103841013Y-72801671D01*
X103683357Y-73037620D01*
X103574762Y-73299793D01*
X103519400Y-73578113D01*
X103519400Y-73861887D01*
X103574762Y-74140207D01*
X103683357Y-74402380D01*
X103841013Y-74638329D01*
X104041671Y-74838987D01*
X104267678Y-74990000D01*
X104041671Y-75141013D01*
X103841013Y-75341671D01*
X103683357Y-75577620D01*
X103574762Y-75839793D01*
X103519400Y-76118113D01*
X103519400Y-76401887D01*
X103574762Y-76680207D01*
X103683357Y-76942380D01*
X103841013Y-77178329D01*
X104041671Y-77378987D01*
X104267678Y-77530000D01*
X104041671Y-77681013D01*
X103841013Y-77881671D01*
X103683357Y-78117620D01*
X103574762Y-78379793D01*
X103519400Y-78658113D01*
X103519400Y-78941887D01*
X103574762Y-79220207D01*
X103683357Y-79482380D01*
X103841013Y-79718329D01*
X104041671Y-79918987D01*
X104267678Y-80070000D01*
X104041671Y-80221013D01*
X103841013Y-80421671D01*
X103683357Y-80657620D01*
X103574762Y-80919793D01*
X103519400Y-81198113D01*
X103519400Y-81481887D01*
X103574762Y-81760207D01*
X103683357Y-82022380D01*
X103841013Y-82258329D01*
X104041671Y-82458987D01*
X104267678Y-82610000D01*
X104041671Y-82761013D01*
X103841013Y-82961671D01*
X103683357Y-83197620D01*
X103574762Y-83459793D01*
X103519400Y-83738113D01*
X103519400Y-84021887D01*
X103574762Y-84300207D01*
X103683357Y-84562380D01*
X103841013Y-84798329D01*
X104041671Y-84998987D01*
X104267678Y-85150000D01*
X104041671Y-85301013D01*
X103841013Y-85501671D01*
X103683357Y-85737620D01*
X103574762Y-85999793D01*
X103519400Y-86278113D01*
X103519400Y-86561887D01*
X103574762Y-86840207D01*
X103683357Y-87102380D01*
X103841013Y-87338329D01*
X104041671Y-87538987D01*
X104267678Y-87690000D01*
X104041671Y-87841013D01*
X103841013Y-88041671D01*
X103683357Y-88277620D01*
X103574762Y-88539793D01*
X103519400Y-88818113D01*
X103519400Y-89101887D01*
X103574762Y-89380207D01*
X103683357Y-89642380D01*
X103841013Y-89878329D01*
X104041671Y-90078987D01*
X104267678Y-90230000D01*
X104041671Y-90381013D01*
X103841013Y-90581671D01*
X103683357Y-90817620D01*
X103574762Y-91079793D01*
X103519400Y-91358113D01*
X103519400Y-91641887D01*
X103574762Y-91920207D01*
X103683357Y-92182380D01*
X103841013Y-92418329D01*
X104041671Y-92618987D01*
X104277620Y-92776643D01*
X104539793Y-92885238D01*
X104818113Y-92940600D01*
X105101887Y-92940600D01*
X105380207Y-92885238D01*
X105642380Y-92776643D01*
X105878329Y-92618987D01*
X106063523Y-92433793D01*
X106067750Y-92476712D01*
X106100743Y-92585476D01*
X106154321Y-92685715D01*
X106226426Y-92773574D01*
X106314285Y-92845679D01*
X106414524Y-92899257D01*
X106523288Y-92932250D01*
X106636400Y-92943391D01*
X108363600Y-92943391D01*
X108476712Y-92932250D01*
X108585476Y-92899257D01*
X108685715Y-92845679D01*
X108773574Y-92773574D01*
X108845679Y-92685715D01*
X108893128Y-92596942D01*
X112523000Y-92596942D01*
X112523000Y-93203058D01*
X112641248Y-93797528D01*
X112873198Y-94357506D01*
X113209938Y-94861473D01*
X113638527Y-95290062D01*
X114142494Y-95626802D01*
X114702472Y-95858752D01*
X115296942Y-95977000D01*
X115903058Y-95977000D01*
X116497528Y-95858752D01*
X117057506Y-95626802D01*
X117561473Y-95290062D01*
X117990062Y-94861473D01*
X118326802Y-94357506D01*
X118558752Y-93797528D01*
X118677000Y-93203058D01*
X118677000Y-92596942D01*
X118558752Y-92002472D01*
X118326802Y-91442494D01*
X117990062Y-90938527D01*
X117561473Y-90509938D01*
X117057506Y-90173198D01*
X116497528Y-89941248D01*
X115903058Y-89823000D01*
X115296942Y-89823000D01*
X114702472Y-89941248D01*
X114142494Y-90173198D01*
X113638527Y-90509938D01*
X113209938Y-90938527D01*
X112873198Y-91442494D01*
X112641248Y-92002472D01*
X112523000Y-92596942D01*
X108893128Y-92596942D01*
X108899257Y-92585476D01*
X108932250Y-92476712D01*
X108943391Y-92363600D01*
X108943391Y-90636400D01*
X108932250Y-90523288D01*
X108899257Y-90414524D01*
X108845679Y-90314285D01*
X108773574Y-90226426D01*
X108685715Y-90154321D01*
X108585476Y-90100743D01*
X108476712Y-90067750D01*
X108433793Y-90063523D01*
X108618987Y-89878329D01*
X108776643Y-89642380D01*
X108885238Y-89380207D01*
X108940600Y-89101887D01*
X108940600Y-88818113D01*
X108885238Y-88539793D01*
X108776643Y-88277620D01*
X108700497Y-88163660D01*
X108716953Y-88150155D01*
X108739725Y-88122408D01*
X109505133Y-87357000D01*
X118971330Y-87357000D01*
X118982153Y-87466884D01*
X119029373Y-87622547D01*
X119106054Y-87766007D01*
X119209249Y-87891751D01*
X119334993Y-87994946D01*
X119478453Y-88071627D01*
X119634116Y-88118847D01*
X119796000Y-88134791D01*
X120996000Y-88134791D01*
X121157884Y-88118847D01*
X121313547Y-88071627D01*
X121457007Y-87994946D01*
X121582751Y-87891751D01*
X121685946Y-87766007D01*
X121762627Y-87622547D01*
X121773518Y-87586644D01*
X121882078Y-87718923D01*
X122099367Y-87897248D01*
X122347270Y-88029755D01*
X122616260Y-88111352D01*
X122896000Y-88138904D01*
X123175741Y-88111352D01*
X123444731Y-88029755D01*
X123692634Y-87897248D01*
X123909923Y-87718923D01*
X124088248Y-87501633D01*
X124146000Y-87393587D01*
X124203752Y-87501634D01*
X124382078Y-87718923D01*
X124599367Y-87897248D01*
X124847270Y-88029755D01*
X125116260Y-88111352D01*
X125396000Y-88138904D01*
X125675741Y-88111352D01*
X125944731Y-88029755D01*
X126192634Y-87897248D01*
X126409923Y-87718923D01*
X126588248Y-87501633D01*
X126637279Y-87409902D01*
X132431000Y-87409902D01*
X132431000Y-87850097D01*
X132451648Y-88059740D01*
X132533245Y-88328730D01*
X132665752Y-88576633D01*
X132844077Y-88793922D01*
X133061366Y-88972248D01*
X133309269Y-89104755D01*
X133578259Y-89186352D01*
X133858000Y-89213904D01*
X134137740Y-89186352D01*
X134406730Y-89104755D01*
X134654633Y-88972248D01*
X134871922Y-88793923D01*
X134980482Y-88661644D01*
X134991373Y-88697547D01*
X135068054Y-88841007D01*
X135171249Y-88966751D01*
X135296993Y-89069946D01*
X135440453Y-89146627D01*
X135596116Y-89193847D01*
X135758000Y-89209791D01*
X136958000Y-89209791D01*
X137119884Y-89193847D01*
X137275547Y-89146627D01*
X137419007Y-89069946D01*
X137544751Y-88966751D01*
X137647946Y-88841007D01*
X137724627Y-88697547D01*
X137771847Y-88541884D01*
X137787791Y-88380000D01*
X137787791Y-86880000D01*
X137771847Y-86718116D01*
X137724627Y-86562453D01*
X137647946Y-86418993D01*
X137544751Y-86293249D01*
X137419007Y-86190054D01*
X137275547Y-86113373D01*
X137119884Y-86066153D01*
X136958000Y-86050209D01*
X135758000Y-86050209D01*
X135596116Y-86066153D01*
X135440453Y-86113373D01*
X135296993Y-86190054D01*
X135171249Y-86293249D01*
X135068054Y-86418993D01*
X134991373Y-86562453D01*
X134980482Y-86598356D01*
X134871923Y-86466077D01*
X134654634Y-86287752D01*
X134406731Y-86155245D01*
X134137741Y-86073648D01*
X133858000Y-86046096D01*
X133578260Y-86073648D01*
X133309270Y-86155245D01*
X133061367Y-86287752D01*
X132844078Y-86466077D01*
X132665752Y-86683366D01*
X132533245Y-86931269D01*
X132451648Y-87200259D01*
X132431000Y-87409902D01*
X126637279Y-87409902D01*
X126720755Y-87253730D01*
X126802352Y-86984740D01*
X126823000Y-86775097D01*
X126823000Y-86384902D01*
X126802352Y-86175259D01*
X126720755Y-85906269D01*
X126588248Y-85658366D01*
X126409922Y-85441077D01*
X126192633Y-85262752D01*
X125944730Y-85130245D01*
X125675740Y-85048648D01*
X125396000Y-85021096D01*
X125116259Y-85048648D01*
X124944794Y-85100661D01*
X124110306Y-84266174D01*
X124087534Y-84238426D01*
X123976833Y-84147577D01*
X123850537Y-84080070D01*
X123713497Y-84038500D01*
X123606688Y-84027980D01*
X123570980Y-84024463D01*
X123535272Y-84027980D01*
X118980108Y-84027980D01*
X118944400Y-84024463D01*
X118801882Y-84038500D01*
X118664843Y-84080070D01*
X118538547Y-84147577D01*
X118427846Y-84238426D01*
X118405083Y-84266163D01*
X117768267Y-84902980D01*
X108807242Y-84902980D01*
X108652474Y-84748212D01*
X108715058Y-84654548D01*
X108804319Y-84645757D01*
X108950784Y-84601327D01*
X109085766Y-84529177D01*
X109204080Y-84432080D01*
X109228412Y-84402431D01*
X109650233Y-83980611D01*
X141723226Y-83980611D01*
X144027928Y-86285314D01*
X144023367Y-86287752D01*
X143806078Y-86466077D01*
X143627752Y-86683366D01*
X143495245Y-86931269D01*
X143413648Y-87200259D01*
X143393000Y-87409902D01*
X143393000Y-87850097D01*
X143413648Y-88059740D01*
X143495245Y-88328730D01*
X143627752Y-88576633D01*
X143806077Y-88793922D01*
X144023366Y-88972248D01*
X144271269Y-89104755D01*
X144540259Y-89186352D01*
X144820000Y-89213904D01*
X145099740Y-89186352D01*
X145368730Y-89104755D01*
X145616633Y-88972248D01*
X145833922Y-88793923D01*
X145942482Y-88661644D01*
X145953373Y-88697547D01*
X146030054Y-88841007D01*
X146133249Y-88966751D01*
X146258993Y-89069946D01*
X146402453Y-89146627D01*
X146558116Y-89193847D01*
X146720000Y-89209791D01*
X147920000Y-89209791D01*
X148081884Y-89193847D01*
X148237547Y-89146627D01*
X148381007Y-89069946D01*
X148506751Y-88966751D01*
X148609946Y-88841007D01*
X148686627Y-88697547D01*
X148733847Y-88541884D01*
X148749791Y-88380000D01*
X148749791Y-86880000D01*
X148733847Y-86718116D01*
X148686627Y-86562453D01*
X148609946Y-86418993D01*
X148506751Y-86293249D01*
X148381007Y-86190054D01*
X148237547Y-86113373D01*
X148081884Y-86066153D01*
X147920000Y-86050209D01*
X146839053Y-86050209D01*
X143211843Y-82423000D01*
X145342436Y-80292408D01*
X145372080Y-80268080D01*
X145403882Y-80229329D01*
X145469177Y-80149767D01*
X145541327Y-80014784D01*
X145585757Y-79868319D01*
X145597000Y-79754166D01*
X145597000Y-79754157D01*
X145600758Y-79716001D01*
X145597000Y-79677845D01*
X145597000Y-79352742D01*
X145616633Y-79342248D01*
X145833922Y-79163923D01*
X145942482Y-79031644D01*
X145953373Y-79067547D01*
X146030054Y-79211007D01*
X146133249Y-79336751D01*
X146258993Y-79439946D01*
X146402453Y-79516627D01*
X146558116Y-79563847D01*
X146720000Y-79579791D01*
X147920000Y-79579791D01*
X148081884Y-79563847D01*
X148237547Y-79516627D01*
X148381007Y-79439946D01*
X148506751Y-79336751D01*
X148609946Y-79211007D01*
X148686627Y-79067547D01*
X148733847Y-78911884D01*
X148749791Y-78750000D01*
X148749791Y-77250000D01*
X148733847Y-77088116D01*
X148686627Y-76932453D01*
X148609946Y-76788993D01*
X148506751Y-76663249D01*
X148381007Y-76560054D01*
X148237547Y-76483373D01*
X148081884Y-76436153D01*
X147920000Y-76420209D01*
X146839052Y-76420209D01*
X146496402Y-76077559D01*
X146472070Y-76047910D01*
X146353756Y-75950813D01*
X146218774Y-75878663D01*
X146072309Y-75834233D01*
X145958156Y-75822990D01*
X145958153Y-75822990D01*
X145919990Y-75819231D01*
X145881827Y-75822990D01*
X144340384Y-75822990D01*
X144302228Y-75819232D01*
X144264072Y-75822990D01*
X144264063Y-75822990D01*
X144149910Y-75834233D01*
X144003445Y-75878663D01*
X143868462Y-75950813D01*
X143779794Y-76023581D01*
X143750149Y-76047910D01*
X143725821Y-76077554D01*
X143047559Y-76755817D01*
X143017910Y-76780149D01*
X142993581Y-76809795D01*
X142920813Y-76898463D01*
X142904198Y-76929548D01*
X142848663Y-77033446D01*
X142804233Y-77179911D01*
X142792990Y-77294063D01*
X142789231Y-77332229D01*
X142792990Y-77370393D01*
X142792991Y-79755165D01*
X141921576Y-80626581D01*
X109792425Y-80626581D01*
X109513854Y-80348010D01*
X132251402Y-80348010D01*
X132287110Y-80351527D01*
X132429627Y-80337490D01*
X132429630Y-80337489D01*
X132566667Y-80295920D01*
X132692963Y-80228413D01*
X132803664Y-80137564D01*
X132826435Y-80109817D01*
X133426067Y-79510185D01*
X133578259Y-79556352D01*
X133858000Y-79583904D01*
X134137740Y-79556352D01*
X134406730Y-79474755D01*
X134654633Y-79342248D01*
X134871922Y-79163923D01*
X134980482Y-79031644D01*
X134991373Y-79067547D01*
X135068054Y-79211007D01*
X135171249Y-79336751D01*
X135296993Y-79439946D01*
X135440453Y-79516627D01*
X135596116Y-79563847D01*
X135758000Y-79579791D01*
X136958000Y-79579791D01*
X137119884Y-79563847D01*
X137275547Y-79516627D01*
X137419007Y-79439946D01*
X137544751Y-79336751D01*
X137647946Y-79211007D01*
X137724627Y-79067547D01*
X137771847Y-78911884D01*
X137787791Y-78750000D01*
X137787791Y-77250000D01*
X137771847Y-77088116D01*
X137724627Y-76932453D01*
X137647946Y-76788993D01*
X137544751Y-76663249D01*
X137419007Y-76560054D01*
X137275547Y-76483373D01*
X137119884Y-76436153D01*
X136958000Y-76420209D01*
X135806341Y-76420209D01*
X135547316Y-76161184D01*
X135524544Y-76133436D01*
X135413843Y-76042587D01*
X135287547Y-75975080D01*
X135150507Y-75933510D01*
X135043698Y-75922990D01*
X135007990Y-75919473D01*
X134972282Y-75922990D01*
X133396645Y-75922990D01*
X133360939Y-75919473D01*
X133325234Y-75922990D01*
X133325232Y-75922990D01*
X133218423Y-75933510D01*
X133081383Y-75975080D01*
X132955087Y-76042587D01*
X132844386Y-76133436D01*
X132821619Y-76161179D01*
X132169179Y-76813619D01*
X132141437Y-76836386D01*
X132064983Y-76929547D01*
X132050588Y-76947087D01*
X131983080Y-77073384D01*
X131941510Y-77210423D01*
X131927473Y-77352940D01*
X131930991Y-77388658D01*
X131930990Y-78241877D01*
X131778868Y-78394000D01*
X125955498Y-78394000D01*
X126192634Y-78267248D01*
X126409923Y-78088923D01*
X126588248Y-77871633D01*
X126720755Y-77623730D01*
X126802352Y-77354740D01*
X126823000Y-77145097D01*
X126823000Y-76754902D01*
X126802352Y-76545259D01*
X126720755Y-76276269D01*
X126588248Y-76028366D01*
X126409922Y-75811077D01*
X126192633Y-75632752D01*
X125944730Y-75500245D01*
X125675740Y-75418648D01*
X125396000Y-75391096D01*
X125116259Y-75418648D01*
X124847269Y-75500245D01*
X124599366Y-75632752D01*
X124382077Y-75811078D01*
X124203752Y-76028367D01*
X124146000Y-76136413D01*
X124088248Y-76028366D01*
X123909922Y-75811077D01*
X123692633Y-75632752D01*
X123444730Y-75500245D01*
X123175740Y-75418648D01*
X122896000Y-75391096D01*
X122616259Y-75418648D01*
X122347269Y-75500245D01*
X122099366Y-75632752D01*
X121882077Y-75811078D01*
X121773518Y-75943357D01*
X121762627Y-75907453D01*
X121685946Y-75763993D01*
X121582751Y-75638249D01*
X121457007Y-75535054D01*
X121313547Y-75458373D01*
X121157884Y-75411153D01*
X120996000Y-75395209D01*
X119796000Y-75395209D01*
X119634116Y-75411153D01*
X119478453Y-75458373D01*
X119334993Y-75535054D01*
X119209249Y-75638249D01*
X119106054Y-75763993D01*
X119029373Y-75907453D01*
X118982153Y-76063116D01*
X118966209Y-76225000D01*
X118966209Y-77675000D01*
X118982153Y-77836884D01*
X119029373Y-77992547D01*
X119106054Y-78136007D01*
X119209249Y-78261751D01*
X119334993Y-78364946D01*
X119389349Y-78394000D01*
X109902133Y-78394000D01*
X108646013Y-77137881D01*
X108776643Y-76942380D01*
X108885238Y-76680207D01*
X108940600Y-76401887D01*
X108940600Y-76118113D01*
X108885238Y-75839793D01*
X108776643Y-75577620D01*
X108618987Y-75341671D01*
X108418329Y-75141013D01*
X108192322Y-74990000D01*
X108418329Y-74838987D01*
X108618987Y-74638329D01*
X108776643Y-74402380D01*
X108885238Y-74140207D01*
X108940600Y-73861887D01*
X108940600Y-73578113D01*
X108885238Y-73299793D01*
X108776643Y-73037620D01*
X108618987Y-72801671D01*
X108418329Y-72601013D01*
X108192322Y-72450000D01*
X108418329Y-72298987D01*
X108618987Y-72098329D01*
X108713420Y-71957000D01*
X117233921Y-71957000D01*
X117272084Y-71960759D01*
X117310247Y-71957000D01*
X117310250Y-71957000D01*
X117424403Y-71945757D01*
X117570868Y-71901327D01*
X117705850Y-71829177D01*
X117824164Y-71732080D01*
X117848497Y-71702430D01*
X122275927Y-67275000D01*
X123800209Y-67275000D01*
X123800209Y-68725000D01*
X123816153Y-68886884D01*
X123863373Y-69042547D01*
X123940054Y-69186007D01*
X124043249Y-69311751D01*
X124168993Y-69414946D01*
X124312453Y-69491627D01*
X124468116Y-69538847D01*
X124630000Y-69554791D01*
X125830000Y-69554791D01*
X125991884Y-69538847D01*
X126147547Y-69491627D01*
X126291007Y-69414946D01*
X126416751Y-69311751D01*
X126519946Y-69186007D01*
X126596627Y-69042547D01*
X126607518Y-69006644D01*
X126716078Y-69138923D01*
X126933367Y-69317248D01*
X127181270Y-69449755D01*
X127450260Y-69531352D01*
X127730000Y-69558904D01*
X128009741Y-69531352D01*
X128278731Y-69449755D01*
X128526634Y-69317248D01*
X128743923Y-69138923D01*
X128922248Y-68921633D01*
X128980000Y-68813587D01*
X129037752Y-68921634D01*
X129216078Y-69138923D01*
X129433367Y-69317248D01*
X129681270Y-69449755D01*
X129950260Y-69531352D01*
X130230000Y-69558904D01*
X130509741Y-69531352D01*
X130778731Y-69449755D01*
X131026634Y-69317248D01*
X131243923Y-69138923D01*
X131422248Y-68921633D01*
X131480000Y-68813587D01*
X131537752Y-68921634D01*
X131716078Y-69138923D01*
X131933367Y-69317248D01*
X132181270Y-69449755D01*
X132450260Y-69531352D01*
X132730000Y-69558904D01*
X133009741Y-69531352D01*
X133278731Y-69449755D01*
X133526634Y-69317248D01*
X133743923Y-69138923D01*
X133922248Y-68921633D01*
X134054755Y-68673730D01*
X134136352Y-68404740D01*
X134157000Y-68195097D01*
X134157000Y-67804902D01*
X134136352Y-67595259D01*
X134054755Y-67326269D01*
X133922248Y-67078366D01*
X133743922Y-66861077D01*
X133526633Y-66682752D01*
X133278730Y-66550245D01*
X133009740Y-66468648D01*
X132730000Y-66441096D01*
X132450259Y-66468648D01*
X132181269Y-66550245D01*
X131933366Y-66682752D01*
X131716077Y-66861078D01*
X131537752Y-67078367D01*
X131480000Y-67186413D01*
X131422248Y-67078366D01*
X131243922Y-66861077D01*
X131026633Y-66682752D01*
X130778730Y-66550245D01*
X130509740Y-66468648D01*
X130230000Y-66441096D01*
X129950259Y-66468648D01*
X129681269Y-66550245D01*
X129433366Y-66682752D01*
X129216077Y-66861078D01*
X129037752Y-67078367D01*
X128980000Y-67186413D01*
X128922248Y-67078366D01*
X128743922Y-66861077D01*
X128526633Y-66682752D01*
X128278730Y-66550245D01*
X128009740Y-66468648D01*
X127730000Y-66441096D01*
X127450259Y-66468648D01*
X127181269Y-66550245D01*
X126933366Y-66682752D01*
X126716077Y-66861078D01*
X126607518Y-66993357D01*
X126596627Y-66957453D01*
X126519946Y-66813993D01*
X126416751Y-66688249D01*
X126291007Y-66585054D01*
X126147547Y-66508373D01*
X125991884Y-66461153D01*
X125830000Y-66445209D01*
X124630000Y-66445209D01*
X124468116Y-66461153D01*
X124312453Y-66508373D01*
X124168993Y-66585054D01*
X124043249Y-66688249D01*
X123940054Y-66813993D01*
X123863373Y-66957453D01*
X123816153Y-67113116D01*
X123800209Y-67275000D01*
X122275927Y-67275000D01*
X127773908Y-61777020D01*
X130716817Y-61777020D01*
X130754980Y-61780779D01*
X130793143Y-61777020D01*
X130793146Y-61777020D01*
X130907299Y-61765777D01*
X131053764Y-61721347D01*
X131188746Y-61649197D01*
X131307060Y-61552100D01*
X131331392Y-61522451D01*
X132333047Y-60520796D01*
X132450260Y-60556352D01*
X132730000Y-60583904D01*
X133009741Y-60556352D01*
X133278731Y-60474755D01*
X133526634Y-60342248D01*
X133743923Y-60163923D01*
X133922248Y-59946633D01*
X134054755Y-59698730D01*
X134136352Y-59429740D01*
X134157000Y-59220097D01*
X134157000Y-58829902D01*
X134136352Y-58620259D01*
X134054755Y-58351269D01*
X133922248Y-58103366D01*
X133743922Y-57886077D01*
X133526633Y-57707752D01*
X133278730Y-57575245D01*
X133009740Y-57493648D01*
X132730000Y-57466096D01*
X132450259Y-57493648D01*
X132181269Y-57575245D01*
X131933366Y-57707752D01*
X131716077Y-57886078D01*
X131537752Y-58103367D01*
X131480000Y-58211413D01*
X131422248Y-58103366D01*
X131243922Y-57886077D01*
X131026633Y-57707752D01*
X130778730Y-57575245D01*
X130509740Y-57493648D01*
X130230000Y-57466096D01*
X129950259Y-57493648D01*
X129681269Y-57575245D01*
X129433366Y-57707752D01*
X129216077Y-57886078D01*
X129037752Y-58103367D01*
X128980000Y-58211413D01*
X128922248Y-58103366D01*
X128743922Y-57886077D01*
X128526633Y-57707752D01*
X128278730Y-57575245D01*
X128009740Y-57493648D01*
X127730000Y-57466096D01*
X127450259Y-57493648D01*
X127181269Y-57575245D01*
X126933366Y-57707752D01*
X126716077Y-57886078D01*
X126651407Y-57964878D01*
X126648650Y-57936888D01*
X126615657Y-57828124D01*
X126562079Y-57727885D01*
X126489974Y-57640026D01*
X126402115Y-57567921D01*
X126301876Y-57514343D01*
X126193112Y-57481350D01*
X126080000Y-57470209D01*
X124380000Y-57470209D01*
X124266888Y-57481350D01*
X124158124Y-57514343D01*
X124057885Y-57567921D01*
X123970026Y-57640026D01*
X123897921Y-57727885D01*
X123844343Y-57828124D01*
X123811350Y-57936888D01*
X123800209Y-58050000D01*
X123800209Y-60000000D01*
X123811350Y-60113112D01*
X123844343Y-60221876D01*
X123897921Y-60322115D01*
X123970026Y-60409974D01*
X124057885Y-60482079D01*
X124158124Y-60535657D01*
X124245463Y-60562151D01*
X116204645Y-68602970D01*
X110431944Y-68602970D01*
X108710437Y-66881464D01*
X108713420Y-66877000D01*
X117376837Y-66877000D01*
X117415000Y-66880759D01*
X117453163Y-66877000D01*
X117453166Y-66877000D01*
X117567319Y-66865757D01*
X117713784Y-66821327D01*
X117848766Y-66749177D01*
X117967080Y-66652080D01*
X117991413Y-66622430D01*
X122373025Y-62240819D01*
X122402668Y-62216492D01*
X122499765Y-62098178D01*
X122571915Y-61963196D01*
X122616345Y-61816731D01*
X122627588Y-61702578D01*
X122627588Y-61702576D01*
X122631347Y-61664412D01*
X122627588Y-61626249D01*
X122627588Y-57968521D01*
X127794090Y-52802020D01*
X130716817Y-52802020D01*
X130754980Y-52805779D01*
X130793143Y-52802020D01*
X130793146Y-52802020D01*
X130907299Y-52790777D01*
X131053764Y-52746347D01*
X131188746Y-52674197D01*
X131307060Y-52577100D01*
X131331392Y-52547451D01*
X132333047Y-51545796D01*
X132450260Y-51581352D01*
X132730000Y-51608904D01*
X133009741Y-51581352D01*
X133278731Y-51499755D01*
X133526634Y-51367248D01*
X133743923Y-51188923D01*
X133922248Y-50971633D01*
X134054755Y-50723730D01*
X134136352Y-50454740D01*
X134157000Y-50245097D01*
X134157000Y-49854902D01*
X134136352Y-49645259D01*
X134054755Y-49376269D01*
X133922248Y-49128366D01*
X133743922Y-48911077D01*
X133526633Y-48732752D01*
X133278730Y-48600245D01*
X133009740Y-48518648D01*
X132730000Y-48491096D01*
X132450259Y-48518648D01*
X132181269Y-48600245D01*
X131933366Y-48732752D01*
X131716077Y-48911078D01*
X131537752Y-49128367D01*
X131480000Y-49236413D01*
X131422248Y-49128366D01*
X131243922Y-48911077D01*
X131026633Y-48732752D01*
X130778730Y-48600245D01*
X130509740Y-48518648D01*
X130230000Y-48491096D01*
X129950259Y-48518648D01*
X129681269Y-48600245D01*
X129433366Y-48732752D01*
X129216077Y-48911078D01*
X129037752Y-49128367D01*
X128980000Y-49236413D01*
X128922248Y-49128366D01*
X128743922Y-48911077D01*
X128526633Y-48732752D01*
X128278730Y-48600245D01*
X128009740Y-48518648D01*
X127730000Y-48491096D01*
X127450259Y-48518648D01*
X127181269Y-48600245D01*
X126933366Y-48732752D01*
X126716077Y-48911078D01*
X126651407Y-48989878D01*
X126648650Y-48961888D01*
X126615657Y-48853124D01*
X126562079Y-48752885D01*
X126489974Y-48665026D01*
X126402115Y-48592921D01*
X126301876Y-48539343D01*
X126193112Y-48506350D01*
X126080000Y-48495209D01*
X124380000Y-48495209D01*
X124266888Y-48506350D01*
X124158124Y-48539343D01*
X124057885Y-48592921D01*
X123970026Y-48665026D01*
X123897921Y-48752885D01*
X123844343Y-48853124D01*
X123811350Y-48961888D01*
X123800209Y-49075000D01*
X123800209Y-51025000D01*
X123811350Y-51138112D01*
X123844343Y-51246876D01*
X123897921Y-51347115D01*
X123970026Y-51434974D01*
X124057885Y-51507079D01*
X124158124Y-51560657D01*
X124260948Y-51591848D01*
X119528130Y-56324667D01*
X119498480Y-56349000D01*
X119474151Y-56378646D01*
X119401383Y-56467314D01*
X119331780Y-56597532D01*
X119329233Y-56602297D01*
X119284803Y-56748762D01*
X119274012Y-56858329D01*
X119269801Y-56901080D01*
X119273560Y-56939243D01*
X119273561Y-60596969D01*
X116347561Y-63522970D01*
X110431944Y-63522970D01*
X108710437Y-61801464D01*
X108776643Y-61702380D01*
X108885238Y-61440207D01*
X108940600Y-61161887D01*
X108940600Y-60878113D01*
X108885238Y-60599793D01*
X108827000Y-60459193D01*
X108827000Y-59396942D01*
X112523000Y-59396942D01*
X112523000Y-60003058D01*
X112641248Y-60597528D01*
X112873198Y-61157506D01*
X113209938Y-61661473D01*
X113638527Y-62090062D01*
X114142494Y-62426802D01*
X114702472Y-62658752D01*
X115296942Y-62777000D01*
X115903058Y-62777000D01*
X116497528Y-62658752D01*
X117057506Y-62426802D01*
X117561473Y-62090062D01*
X117990062Y-61661473D01*
X118326802Y-61157506D01*
X118558752Y-60597528D01*
X118677000Y-60003058D01*
X118677000Y-59396942D01*
X118558752Y-58802472D01*
X118326802Y-58242494D01*
X117990062Y-57738527D01*
X117561473Y-57309938D01*
X117057506Y-56973198D01*
X116497528Y-56741248D01*
X115903058Y-56623000D01*
X115296942Y-56623000D01*
X114702472Y-56741248D01*
X114142494Y-56973198D01*
X113638527Y-57309938D01*
X113209938Y-57738527D01*
X112873198Y-58242494D01*
X112641248Y-58802472D01*
X112523000Y-59396942D01*
X108827000Y-59396942D01*
X108827000Y-59040807D01*
X108885238Y-58900207D01*
X108940600Y-58621887D01*
X108940600Y-58338113D01*
X108885238Y-58059793D01*
X108776643Y-57797620D01*
X108618987Y-57561671D01*
X108418329Y-57361013D01*
X108192322Y-57210000D01*
X108418329Y-57058987D01*
X108618987Y-56858329D01*
X108776643Y-56622380D01*
X108834882Y-56481778D01*
X111489661Y-53827000D01*
X112141810Y-53827000D01*
X112311609Y-53996799D01*
X112627223Y-54207685D01*
X112977915Y-54352947D01*
X113350207Y-54427000D01*
X113729793Y-54427000D01*
X114102085Y-54352947D01*
X114452777Y-54207685D01*
X114768391Y-53996799D01*
X115036799Y-53728391D01*
X115247685Y-53412777D01*
X115392947Y-53062085D01*
X115467000Y-52689793D01*
X115467000Y-52319661D01*
X115570209Y-52422870D01*
X115570209Y-53599999D01*
X115586153Y-53761883D01*
X115633373Y-53917547D01*
X115710054Y-54061007D01*
X115813249Y-54186751D01*
X115938993Y-54289946D01*
X116082453Y-54366627D01*
X116238117Y-54413847D01*
X116400001Y-54429791D01*
X118599999Y-54429791D01*
X118761883Y-54413847D01*
X118917547Y-54366627D01*
X119061007Y-54289946D01*
X119186751Y-54186751D01*
X119289946Y-54061007D01*
X119366627Y-53917547D01*
X119413847Y-53761883D01*
X119429791Y-53599999D01*
X119429791Y-51400001D01*
X119413847Y-51238117D01*
X119366627Y-51082453D01*
X119289946Y-50938993D01*
X119186751Y-50813249D01*
X119061007Y-50710054D01*
X118917547Y-50633373D01*
X118761883Y-50586153D01*
X118599999Y-50570209D01*
X117470870Y-50570209D01*
X115474925Y-48574265D01*
X115433370Y-48523630D01*
X115231308Y-48357802D01*
X115000778Y-48234581D01*
X114750637Y-48158701D01*
X114555684Y-48139500D01*
X114555674Y-48139500D01*
X114490500Y-48133081D01*
X114425326Y-48139500D01*
X107507171Y-48139500D01*
X107441999Y-48133081D01*
X107376828Y-48139500D01*
X107376816Y-48139500D01*
X107181863Y-48158701D01*
X106931722Y-48234581D01*
X106701190Y-48357803D01*
X106566556Y-48468295D01*
X106499130Y-48523630D01*
X106457579Y-48574260D01*
X101533265Y-53498575D01*
X101482630Y-53540130D01*
X101441078Y-53590762D01*
X101316802Y-53742192D01*
X101268040Y-53833420D01*
X101193581Y-53972723D01*
X101117701Y-54222864D01*
X101098500Y-54417817D01*
X101098500Y-54417826D01*
X101092081Y-54483000D01*
X100602000Y-54483000D01*
X100602000Y-49029444D01*
X100631457Y-48729018D01*
X100710153Y-48468366D01*
X100837982Y-48227955D01*
X101010069Y-48016956D01*
X101219864Y-47843398D01*
X101459371Y-47713898D01*
X101719476Y-47633382D01*
X102018051Y-47602000D01*
X134970556Y-47602000D01*
X135270982Y-47631457D01*
G04 #@! TA.AperFunction,NonConductor*
D21*
G36*
X135270982Y-47631457D02*
G01*
X135531634Y-47710153D01*
X135772045Y-47837982D01*
X135983044Y-48010069D01*
X136156602Y-48219864D01*
X136286102Y-48459371D01*
X136366618Y-48719476D01*
X136398001Y-49018061D01*
X136398000Y-71029565D01*
X136400614Y-71056103D01*
X136400527Y-71068524D01*
X136401347Y-71076890D01*
X136442148Y-71465082D01*
X136453109Y-71518479D01*
X136463343Y-71572126D01*
X136465772Y-71580172D01*
X136581196Y-71953047D01*
X136602359Y-72003391D01*
X136622780Y-72053935D01*
X136626725Y-72061356D01*
X136812376Y-72404711D01*
X136842907Y-72449975D01*
X136872765Y-72495602D01*
X136878077Y-72502116D01*
X137126883Y-72802871D01*
X137165626Y-72841344D01*
X137203774Y-72880299D01*
X137210250Y-72885657D01*
X137512735Y-73132358D01*
X137558179Y-73162551D01*
X137603201Y-73193378D01*
X137610594Y-73197376D01*
X137955236Y-73380626D01*
X138005671Y-73401414D01*
X138055833Y-73422913D01*
X138063858Y-73425397D01*
X138063864Y-73425399D01*
X138437534Y-73538216D01*
X138491051Y-73548813D01*
X138544427Y-73560158D01*
X138552786Y-73561037D01*
X138941255Y-73599127D01*
X138941263Y-73599127D01*
X138970434Y-73602000D01*
X148970556Y-73602000D01*
X149270982Y-73631457D01*
X149531634Y-73710153D01*
X149772045Y-73837982D01*
X149983044Y-74010069D01*
X150156602Y-74219864D01*
X150286102Y-74459371D01*
X150366618Y-74719476D01*
X150398001Y-75018061D01*
X150398000Y-97970556D01*
X150368543Y-98270979D01*
X150289847Y-98531636D01*
X150162020Y-98772042D01*
X149989930Y-98983045D01*
X149780139Y-99156600D01*
X149540629Y-99286102D01*
X149280524Y-99366618D01*
X148981948Y-99398000D01*
X102029444Y-99398000D01*
X101729021Y-99368543D01*
X101468364Y-99289847D01*
X101227958Y-99162020D01*
X101016955Y-98989930D01*
X100843400Y-98780139D01*
X100713898Y-98540629D01*
X100633382Y-98280524D01*
X100602000Y-97981948D01*
X100602000Y-54483000D01*
X101092081Y-54483000D01*
X101098500Y-54548174D01*
X101098501Y-60323316D01*
X101092081Y-60388500D01*
X101117702Y-60648637D01*
X101193581Y-60898777D01*
X101316802Y-61129308D01*
X101426982Y-61263562D01*
X101482631Y-61331370D01*
X101533261Y-61372921D01*
X102072575Y-61912235D01*
X102114130Y-61962870D01*
X102316192Y-62128698D01*
X102546722Y-62251919D01*
X102796863Y-62327799D01*
X102991816Y-62347000D01*
X102991826Y-62347000D01*
X103057000Y-62353419D01*
X103122174Y-62347000D01*
X104182371Y-62347000D01*
X104041671Y-62441013D01*
X103841013Y-62641671D01*
X103683357Y-62877620D01*
X103574762Y-63139793D01*
X103519400Y-63418113D01*
X103519400Y-63701887D01*
X103574762Y-63980207D01*
X103683357Y-64242380D01*
X103841013Y-64478329D01*
X104041671Y-64678987D01*
X104267678Y-64830000D01*
X104041671Y-64981013D01*
X103841013Y-65181671D01*
X103683357Y-65417620D01*
X103574762Y-65679793D01*
X103519400Y-65958113D01*
X103519400Y-66241887D01*
X103574762Y-66520207D01*
X103683357Y-66782380D01*
X103841013Y-67018329D01*
X104041671Y-67218987D01*
X104267678Y-67370000D01*
X104041671Y-67521013D01*
X103841013Y-67721671D01*
X103683357Y-67957620D01*
X103574762Y-68219793D01*
X103519400Y-68498113D01*
X103519400Y-68781887D01*
X103574762Y-69060207D01*
X103683357Y-69322380D01*
X103841013Y-69558329D01*
X104041671Y-69758987D01*
X104267678Y-69910000D01*
X104041671Y-70061013D01*
X103841013Y-70261671D01*
X103683357Y-70497620D01*
X103574762Y-70759793D01*
X103519400Y-71038113D01*
X103519400Y-71321887D01*
X103574762Y-71600207D01*
X103683357Y-71862380D01*
X103841013Y-72098329D01*
X104041671Y-72298987D01*
X104267678Y-72450000D01*
X104041671Y-72601013D01*
X103841013Y-72801671D01*
X103683357Y-73037620D01*
X103574762Y-73299793D01*
X103519400Y-73578113D01*
X103519400Y-73861887D01*
X103574762Y-74140207D01*
X103683357Y-74402380D01*
X103841013Y-74638329D01*
X104041671Y-74838987D01*
X104267678Y-74990000D01*
X104041671Y-75141013D01*
X103841013Y-75341671D01*
X103683357Y-75577620D01*
X103574762Y-75839793D01*
X103519400Y-76118113D01*
X103519400Y-76401887D01*
X103574762Y-76680207D01*
X103683357Y-76942380D01*
X103841013Y-77178329D01*
X104041671Y-77378987D01*
X104267678Y-77530000D01*
X104041671Y-77681013D01*
X103841013Y-77881671D01*
X103683357Y-78117620D01*
X103574762Y-78379793D01*
X103519400Y-78658113D01*
X103519400Y-78941887D01*
X103574762Y-79220207D01*
X103683357Y-79482380D01*
X103841013Y-79718329D01*
X104041671Y-79918987D01*
X104267678Y-80070000D01*
X104041671Y-80221013D01*
X103841013Y-80421671D01*
X103683357Y-80657620D01*
X103574762Y-80919793D01*
X103519400Y-81198113D01*
X103519400Y-81481887D01*
X103574762Y-81760207D01*
X103683357Y-82022380D01*
X103841013Y-82258329D01*
X104041671Y-82458987D01*
X104267678Y-82610000D01*
X104041671Y-82761013D01*
X103841013Y-82961671D01*
X103683357Y-83197620D01*
X103574762Y-83459793D01*
X103519400Y-83738113D01*
X103519400Y-84021887D01*
X103574762Y-84300207D01*
X103683357Y-84562380D01*
X103841013Y-84798329D01*
X104041671Y-84998987D01*
X104267678Y-85150000D01*
X104041671Y-85301013D01*
X103841013Y-85501671D01*
X103683357Y-85737620D01*
X103574762Y-85999793D01*
X103519400Y-86278113D01*
X103519400Y-86561887D01*
X103574762Y-86840207D01*
X103683357Y-87102380D01*
X103841013Y-87338329D01*
X104041671Y-87538987D01*
X104267678Y-87690000D01*
X104041671Y-87841013D01*
X103841013Y-88041671D01*
X103683357Y-88277620D01*
X103574762Y-88539793D01*
X103519400Y-88818113D01*
X103519400Y-89101887D01*
X103574762Y-89380207D01*
X103683357Y-89642380D01*
X103841013Y-89878329D01*
X104041671Y-90078987D01*
X104267678Y-90230000D01*
X104041671Y-90381013D01*
X103841013Y-90581671D01*
X103683357Y-90817620D01*
X103574762Y-91079793D01*
X103519400Y-91358113D01*
X103519400Y-91641887D01*
X103574762Y-91920207D01*
X103683357Y-92182380D01*
X103841013Y-92418329D01*
X104041671Y-92618987D01*
X104277620Y-92776643D01*
X104539793Y-92885238D01*
X104818113Y-92940600D01*
X105101887Y-92940600D01*
X105380207Y-92885238D01*
X105642380Y-92776643D01*
X105878329Y-92618987D01*
X106063523Y-92433793D01*
X106067750Y-92476712D01*
X106100743Y-92585476D01*
X106154321Y-92685715D01*
X106226426Y-92773574D01*
X106314285Y-92845679D01*
X106414524Y-92899257D01*
X106523288Y-92932250D01*
X106636400Y-92943391D01*
X108363600Y-92943391D01*
X108476712Y-92932250D01*
X108585476Y-92899257D01*
X108685715Y-92845679D01*
X108773574Y-92773574D01*
X108845679Y-92685715D01*
X108893128Y-92596942D01*
X112523000Y-92596942D01*
X112523000Y-93203058D01*
X112641248Y-93797528D01*
X112873198Y-94357506D01*
X113209938Y-94861473D01*
X113638527Y-95290062D01*
X114142494Y-95626802D01*
X114702472Y-95858752D01*
X115296942Y-95977000D01*
X115903058Y-95977000D01*
X116497528Y-95858752D01*
X117057506Y-95626802D01*
X117561473Y-95290062D01*
X117990062Y-94861473D01*
X118326802Y-94357506D01*
X118558752Y-93797528D01*
X118677000Y-93203058D01*
X118677000Y-92596942D01*
X118558752Y-92002472D01*
X118326802Y-91442494D01*
X117990062Y-90938527D01*
X117561473Y-90509938D01*
X117057506Y-90173198D01*
X116497528Y-89941248D01*
X115903058Y-89823000D01*
X115296942Y-89823000D01*
X114702472Y-89941248D01*
X114142494Y-90173198D01*
X113638527Y-90509938D01*
X113209938Y-90938527D01*
X112873198Y-91442494D01*
X112641248Y-92002472D01*
X112523000Y-92596942D01*
X108893128Y-92596942D01*
X108899257Y-92585476D01*
X108932250Y-92476712D01*
X108943391Y-92363600D01*
X108943391Y-90636400D01*
X108932250Y-90523288D01*
X108899257Y-90414524D01*
X108845679Y-90314285D01*
X108773574Y-90226426D01*
X108685715Y-90154321D01*
X108585476Y-90100743D01*
X108476712Y-90067750D01*
X108433793Y-90063523D01*
X108618987Y-89878329D01*
X108776643Y-89642380D01*
X108885238Y-89380207D01*
X108940600Y-89101887D01*
X108940600Y-88818113D01*
X108885238Y-88539793D01*
X108776643Y-88277620D01*
X108700497Y-88163660D01*
X108716953Y-88150155D01*
X108739725Y-88122408D01*
X109505133Y-87357000D01*
X118971330Y-87357000D01*
X118982153Y-87466884D01*
X119029373Y-87622547D01*
X119106054Y-87766007D01*
X119209249Y-87891751D01*
X119334993Y-87994946D01*
X119478453Y-88071627D01*
X119634116Y-88118847D01*
X119796000Y-88134791D01*
X120996000Y-88134791D01*
X121157884Y-88118847D01*
X121313547Y-88071627D01*
X121457007Y-87994946D01*
X121582751Y-87891751D01*
X121685946Y-87766007D01*
X121762627Y-87622547D01*
X121773518Y-87586644D01*
X121882078Y-87718923D01*
X122099367Y-87897248D01*
X122347270Y-88029755D01*
X122616260Y-88111352D01*
X122896000Y-88138904D01*
X123175741Y-88111352D01*
X123444731Y-88029755D01*
X123692634Y-87897248D01*
X123909923Y-87718923D01*
X124088248Y-87501633D01*
X124146000Y-87393587D01*
X124203752Y-87501634D01*
X124382078Y-87718923D01*
X124599367Y-87897248D01*
X124847270Y-88029755D01*
X125116260Y-88111352D01*
X125396000Y-88138904D01*
X125675741Y-88111352D01*
X125944731Y-88029755D01*
X126192634Y-87897248D01*
X126409923Y-87718923D01*
X126588248Y-87501633D01*
X126637279Y-87409902D01*
X132431000Y-87409902D01*
X132431000Y-87850097D01*
X132451648Y-88059740D01*
X132533245Y-88328730D01*
X132665752Y-88576633D01*
X132844077Y-88793922D01*
X133061366Y-88972248D01*
X133309269Y-89104755D01*
X133578259Y-89186352D01*
X133858000Y-89213904D01*
X134137740Y-89186352D01*
X134406730Y-89104755D01*
X134654633Y-88972248D01*
X134871922Y-88793923D01*
X134980482Y-88661644D01*
X134991373Y-88697547D01*
X135068054Y-88841007D01*
X135171249Y-88966751D01*
X135296993Y-89069946D01*
X135440453Y-89146627D01*
X135596116Y-89193847D01*
X135758000Y-89209791D01*
X136958000Y-89209791D01*
X137119884Y-89193847D01*
X137275547Y-89146627D01*
X137419007Y-89069946D01*
X137544751Y-88966751D01*
X137647946Y-88841007D01*
X137724627Y-88697547D01*
X137771847Y-88541884D01*
X137787791Y-88380000D01*
X137787791Y-86880000D01*
X137771847Y-86718116D01*
X137724627Y-86562453D01*
X137647946Y-86418993D01*
X137544751Y-86293249D01*
X137419007Y-86190054D01*
X137275547Y-86113373D01*
X137119884Y-86066153D01*
X136958000Y-86050209D01*
X135758000Y-86050209D01*
X135596116Y-86066153D01*
X135440453Y-86113373D01*
X135296993Y-86190054D01*
X135171249Y-86293249D01*
X135068054Y-86418993D01*
X134991373Y-86562453D01*
X134980482Y-86598356D01*
X134871923Y-86466077D01*
X134654634Y-86287752D01*
X134406731Y-86155245D01*
X134137741Y-86073648D01*
X133858000Y-86046096D01*
X133578260Y-86073648D01*
X133309270Y-86155245D01*
X133061367Y-86287752D01*
X132844078Y-86466077D01*
X132665752Y-86683366D01*
X132533245Y-86931269D01*
X132451648Y-87200259D01*
X132431000Y-87409902D01*
X126637279Y-87409902D01*
X126720755Y-87253730D01*
X126802352Y-86984740D01*
X126823000Y-86775097D01*
X126823000Y-86384902D01*
X126802352Y-86175259D01*
X126720755Y-85906269D01*
X126588248Y-85658366D01*
X126409922Y-85441077D01*
X126192633Y-85262752D01*
X125944730Y-85130245D01*
X125675740Y-85048648D01*
X125396000Y-85021096D01*
X125116259Y-85048648D01*
X124944794Y-85100661D01*
X124110306Y-84266174D01*
X124087534Y-84238426D01*
X123976833Y-84147577D01*
X123850537Y-84080070D01*
X123713497Y-84038500D01*
X123606688Y-84027980D01*
X123570980Y-84024463D01*
X123535272Y-84027980D01*
X118980108Y-84027980D01*
X118944400Y-84024463D01*
X118801882Y-84038500D01*
X118664843Y-84080070D01*
X118538547Y-84147577D01*
X118427846Y-84238426D01*
X118405083Y-84266163D01*
X117768267Y-84902980D01*
X108807242Y-84902980D01*
X108652474Y-84748212D01*
X108715058Y-84654548D01*
X108804319Y-84645757D01*
X108950784Y-84601327D01*
X109085766Y-84529177D01*
X109204080Y-84432080D01*
X109228412Y-84402431D01*
X109650233Y-83980611D01*
X141723226Y-83980611D01*
X144027928Y-86285314D01*
X144023367Y-86287752D01*
X143806078Y-86466077D01*
X143627752Y-86683366D01*
X143495245Y-86931269D01*
X143413648Y-87200259D01*
X143393000Y-87409902D01*
X143393000Y-87850097D01*
X143413648Y-88059740D01*
X143495245Y-88328730D01*
X143627752Y-88576633D01*
X143806077Y-88793922D01*
X144023366Y-88972248D01*
X144271269Y-89104755D01*
X144540259Y-89186352D01*
X144820000Y-89213904D01*
X145099740Y-89186352D01*
X145368730Y-89104755D01*
X145616633Y-88972248D01*
X145833922Y-88793923D01*
X145942482Y-88661644D01*
X145953373Y-88697547D01*
X146030054Y-88841007D01*
X146133249Y-88966751D01*
X146258993Y-89069946D01*
X146402453Y-89146627D01*
X146558116Y-89193847D01*
X146720000Y-89209791D01*
X147920000Y-89209791D01*
X148081884Y-89193847D01*
X148237547Y-89146627D01*
X148381007Y-89069946D01*
X148506751Y-88966751D01*
X148609946Y-88841007D01*
X148686627Y-88697547D01*
X148733847Y-88541884D01*
X148749791Y-88380000D01*
X148749791Y-86880000D01*
X148733847Y-86718116D01*
X148686627Y-86562453D01*
X148609946Y-86418993D01*
X148506751Y-86293249D01*
X148381007Y-86190054D01*
X148237547Y-86113373D01*
X148081884Y-86066153D01*
X147920000Y-86050209D01*
X146839053Y-86050209D01*
X143211843Y-82423000D01*
X145342436Y-80292408D01*
X145372080Y-80268080D01*
X145403882Y-80229329D01*
X145469177Y-80149767D01*
X145541327Y-80014784D01*
X145585757Y-79868319D01*
X145597000Y-79754166D01*
X145597000Y-79754157D01*
X145600758Y-79716001D01*
X145597000Y-79677845D01*
X145597000Y-79352742D01*
X145616633Y-79342248D01*
X145833922Y-79163923D01*
X145942482Y-79031644D01*
X145953373Y-79067547D01*
X146030054Y-79211007D01*
X146133249Y-79336751D01*
X146258993Y-79439946D01*
X146402453Y-79516627D01*
X146558116Y-79563847D01*
X146720000Y-79579791D01*
X147920000Y-79579791D01*
X148081884Y-79563847D01*
X148237547Y-79516627D01*
X148381007Y-79439946D01*
X148506751Y-79336751D01*
X148609946Y-79211007D01*
X148686627Y-79067547D01*
X148733847Y-78911884D01*
X148749791Y-78750000D01*
X148749791Y-77250000D01*
X148733847Y-77088116D01*
X148686627Y-76932453D01*
X148609946Y-76788993D01*
X148506751Y-76663249D01*
X148381007Y-76560054D01*
X148237547Y-76483373D01*
X148081884Y-76436153D01*
X147920000Y-76420209D01*
X146839052Y-76420209D01*
X146496402Y-76077559D01*
X146472070Y-76047910D01*
X146353756Y-75950813D01*
X146218774Y-75878663D01*
X146072309Y-75834233D01*
X145958156Y-75822990D01*
X145958153Y-75822990D01*
X145919990Y-75819231D01*
X145881827Y-75822990D01*
X144340384Y-75822990D01*
X144302228Y-75819232D01*
X144264072Y-75822990D01*
X144264063Y-75822990D01*
X144149910Y-75834233D01*
X144003445Y-75878663D01*
X143868462Y-75950813D01*
X143779794Y-76023581D01*
X143750149Y-76047910D01*
X143725821Y-76077554D01*
X143047559Y-76755817D01*
X143017910Y-76780149D01*
X142993581Y-76809795D01*
X142920813Y-76898463D01*
X142904198Y-76929548D01*
X142848663Y-77033446D01*
X142804233Y-77179911D01*
X142792990Y-77294063D01*
X142789231Y-77332229D01*
X142792990Y-77370393D01*
X142792991Y-79755165D01*
X141921576Y-80626581D01*
X109792425Y-80626581D01*
X109513854Y-80348010D01*
X132251402Y-80348010D01*
X132287110Y-80351527D01*
X132429627Y-80337490D01*
X132429630Y-80337489D01*
X132566667Y-80295920D01*
X132692963Y-80228413D01*
X132803664Y-80137564D01*
X132826435Y-80109817D01*
X133426067Y-79510185D01*
X133578259Y-79556352D01*
X133858000Y-79583904D01*
X134137740Y-79556352D01*
X134406730Y-79474755D01*
X134654633Y-79342248D01*
X134871922Y-79163923D01*
X134980482Y-79031644D01*
X134991373Y-79067547D01*
X135068054Y-79211007D01*
X135171249Y-79336751D01*
X135296993Y-79439946D01*
X135440453Y-79516627D01*
X135596116Y-79563847D01*
X135758000Y-79579791D01*
X136958000Y-79579791D01*
X137119884Y-79563847D01*
X137275547Y-79516627D01*
X137419007Y-79439946D01*
X137544751Y-79336751D01*
X137647946Y-79211007D01*
X137724627Y-79067547D01*
X137771847Y-78911884D01*
X137787791Y-78750000D01*
X137787791Y-77250000D01*
X137771847Y-77088116D01*
X137724627Y-76932453D01*
X137647946Y-76788993D01*
X137544751Y-76663249D01*
X137419007Y-76560054D01*
X137275547Y-76483373D01*
X137119884Y-76436153D01*
X136958000Y-76420209D01*
X135806341Y-76420209D01*
X135547316Y-76161184D01*
X135524544Y-76133436D01*
X135413843Y-76042587D01*
X135287547Y-75975080D01*
X135150507Y-75933510D01*
X135043698Y-75922990D01*
X135007990Y-75919473D01*
X134972282Y-75922990D01*
X133396645Y-75922990D01*
X133360939Y-75919473D01*
X133325234Y-75922990D01*
X133325232Y-75922990D01*
X133218423Y-75933510D01*
X133081383Y-75975080D01*
X132955087Y-76042587D01*
X132844386Y-76133436D01*
X132821619Y-76161179D01*
X132169179Y-76813619D01*
X132141437Y-76836386D01*
X132064983Y-76929547D01*
X132050588Y-76947087D01*
X131983080Y-77073384D01*
X131941510Y-77210423D01*
X131927473Y-77352940D01*
X131930991Y-77388658D01*
X131930990Y-78241877D01*
X131778868Y-78394000D01*
X125955498Y-78394000D01*
X126192634Y-78267248D01*
X126409923Y-78088923D01*
X126588248Y-77871633D01*
X126720755Y-77623730D01*
X126802352Y-77354740D01*
X126823000Y-77145097D01*
X126823000Y-76754902D01*
X126802352Y-76545259D01*
X126720755Y-76276269D01*
X126588248Y-76028366D01*
X126409922Y-75811077D01*
X126192633Y-75632752D01*
X125944730Y-75500245D01*
X125675740Y-75418648D01*
X125396000Y-75391096D01*
X125116259Y-75418648D01*
X124847269Y-75500245D01*
X124599366Y-75632752D01*
X124382077Y-75811078D01*
X124203752Y-76028367D01*
X124146000Y-76136413D01*
X124088248Y-76028366D01*
X123909922Y-75811077D01*
X123692633Y-75632752D01*
X123444730Y-75500245D01*
X123175740Y-75418648D01*
X122896000Y-75391096D01*
X122616259Y-75418648D01*
X122347269Y-75500245D01*
X122099366Y-75632752D01*
X121882077Y-75811078D01*
X121773518Y-75943357D01*
X121762627Y-75907453D01*
X121685946Y-75763993D01*
X121582751Y-75638249D01*
X121457007Y-75535054D01*
X121313547Y-75458373D01*
X121157884Y-75411153D01*
X120996000Y-75395209D01*
X119796000Y-75395209D01*
X119634116Y-75411153D01*
X119478453Y-75458373D01*
X119334993Y-75535054D01*
X119209249Y-75638249D01*
X119106054Y-75763993D01*
X119029373Y-75907453D01*
X118982153Y-76063116D01*
X118966209Y-76225000D01*
X118966209Y-77675000D01*
X118982153Y-77836884D01*
X119029373Y-77992547D01*
X119106054Y-78136007D01*
X119209249Y-78261751D01*
X119334993Y-78364946D01*
X119389349Y-78394000D01*
X109902133Y-78394000D01*
X108646013Y-77137881D01*
X108776643Y-76942380D01*
X108885238Y-76680207D01*
X108940600Y-76401887D01*
X108940600Y-76118113D01*
X108885238Y-75839793D01*
X108776643Y-75577620D01*
X108618987Y-75341671D01*
X108418329Y-75141013D01*
X108192322Y-74990000D01*
X108418329Y-74838987D01*
X108618987Y-74638329D01*
X108776643Y-74402380D01*
X108885238Y-74140207D01*
X108940600Y-73861887D01*
X108940600Y-73578113D01*
X108885238Y-73299793D01*
X108776643Y-73037620D01*
X108618987Y-72801671D01*
X108418329Y-72601013D01*
X108192322Y-72450000D01*
X108418329Y-72298987D01*
X108618987Y-72098329D01*
X108713420Y-71957000D01*
X117233921Y-71957000D01*
X117272084Y-71960759D01*
X117310247Y-71957000D01*
X117310250Y-71957000D01*
X117424403Y-71945757D01*
X117570868Y-71901327D01*
X117705850Y-71829177D01*
X117824164Y-71732080D01*
X117848497Y-71702430D01*
X122275927Y-67275000D01*
X123800209Y-67275000D01*
X123800209Y-68725000D01*
X123816153Y-68886884D01*
X123863373Y-69042547D01*
X123940054Y-69186007D01*
X124043249Y-69311751D01*
X124168993Y-69414946D01*
X124312453Y-69491627D01*
X124468116Y-69538847D01*
X124630000Y-69554791D01*
X125830000Y-69554791D01*
X125991884Y-69538847D01*
X126147547Y-69491627D01*
X126291007Y-69414946D01*
X126416751Y-69311751D01*
X126519946Y-69186007D01*
X126596627Y-69042547D01*
X126607518Y-69006644D01*
X126716078Y-69138923D01*
X126933367Y-69317248D01*
X127181270Y-69449755D01*
X127450260Y-69531352D01*
X127730000Y-69558904D01*
X128009741Y-69531352D01*
X128278731Y-69449755D01*
X128526634Y-69317248D01*
X128743923Y-69138923D01*
X128922248Y-68921633D01*
X128980000Y-68813587D01*
X129037752Y-68921634D01*
X129216078Y-69138923D01*
X129433367Y-69317248D01*
X129681270Y-69449755D01*
X129950260Y-69531352D01*
X130230000Y-69558904D01*
X130509741Y-69531352D01*
X130778731Y-69449755D01*
X131026634Y-69317248D01*
X131243923Y-69138923D01*
X131422248Y-68921633D01*
X131480000Y-68813587D01*
X131537752Y-68921634D01*
X131716078Y-69138923D01*
X131933367Y-69317248D01*
X132181270Y-69449755D01*
X132450260Y-69531352D01*
X132730000Y-69558904D01*
X133009741Y-69531352D01*
X133278731Y-69449755D01*
X133526634Y-69317248D01*
X133743923Y-69138923D01*
X133922248Y-68921633D01*
X134054755Y-68673730D01*
X134136352Y-68404740D01*
X134157000Y-68195097D01*
X134157000Y-67804902D01*
X134136352Y-67595259D01*
X134054755Y-67326269D01*
X133922248Y-67078366D01*
X133743922Y-66861077D01*
X133526633Y-66682752D01*
X133278730Y-66550245D01*
X133009740Y-66468648D01*
X132730000Y-66441096D01*
X132450259Y-66468648D01*
X132181269Y-66550245D01*
X131933366Y-66682752D01*
X131716077Y-66861078D01*
X131537752Y-67078367D01*
X131480000Y-67186413D01*
X131422248Y-67078366D01*
X131243922Y-66861077D01*
X131026633Y-66682752D01*
X130778730Y-66550245D01*
X130509740Y-66468648D01*
X130230000Y-66441096D01*
X129950259Y-66468648D01*
X129681269Y-66550245D01*
X129433366Y-66682752D01*
X129216077Y-66861078D01*
X129037752Y-67078367D01*
X128980000Y-67186413D01*
X128922248Y-67078366D01*
X128743922Y-66861077D01*
X128526633Y-66682752D01*
X128278730Y-66550245D01*
X128009740Y-66468648D01*
X127730000Y-66441096D01*
X127450259Y-66468648D01*
X127181269Y-66550245D01*
X126933366Y-66682752D01*
X126716077Y-66861078D01*
X126607518Y-66993357D01*
X126596627Y-66957453D01*
X126519946Y-66813993D01*
X126416751Y-66688249D01*
X126291007Y-66585054D01*
X126147547Y-66508373D01*
X125991884Y-66461153D01*
X125830000Y-66445209D01*
X124630000Y-66445209D01*
X124468116Y-66461153D01*
X124312453Y-66508373D01*
X124168993Y-66585054D01*
X124043249Y-66688249D01*
X123940054Y-66813993D01*
X123863373Y-66957453D01*
X123816153Y-67113116D01*
X123800209Y-67275000D01*
X122275927Y-67275000D01*
X127773908Y-61777020D01*
X130716817Y-61777020D01*
X130754980Y-61780779D01*
X130793143Y-61777020D01*
X130793146Y-61777020D01*
X130907299Y-61765777D01*
X131053764Y-61721347D01*
X131188746Y-61649197D01*
X131307060Y-61552100D01*
X131331392Y-61522451D01*
X132333047Y-60520796D01*
X132450260Y-60556352D01*
X132730000Y-60583904D01*
X133009741Y-60556352D01*
X133278731Y-60474755D01*
X133526634Y-60342248D01*
X133743923Y-60163923D01*
X133922248Y-59946633D01*
X134054755Y-59698730D01*
X134136352Y-59429740D01*
X134157000Y-59220097D01*
X134157000Y-58829902D01*
X134136352Y-58620259D01*
X134054755Y-58351269D01*
X133922248Y-58103366D01*
X133743922Y-57886077D01*
X133526633Y-57707752D01*
X133278730Y-57575245D01*
X133009740Y-57493648D01*
X132730000Y-57466096D01*
X132450259Y-57493648D01*
X132181269Y-57575245D01*
X131933366Y-57707752D01*
X131716077Y-57886078D01*
X131537752Y-58103367D01*
X131480000Y-58211413D01*
X131422248Y-58103366D01*
X131243922Y-57886077D01*
X131026633Y-57707752D01*
X130778730Y-57575245D01*
X130509740Y-57493648D01*
X130230000Y-57466096D01*
X129950259Y-57493648D01*
X129681269Y-57575245D01*
X129433366Y-57707752D01*
X129216077Y-57886078D01*
X129037752Y-58103367D01*
X128980000Y-58211413D01*
X128922248Y-58103366D01*
X128743922Y-57886077D01*
X128526633Y-57707752D01*
X128278730Y-57575245D01*
X128009740Y-57493648D01*
X127730000Y-57466096D01*
X127450259Y-57493648D01*
X127181269Y-57575245D01*
X126933366Y-57707752D01*
X126716077Y-57886078D01*
X126651407Y-57964878D01*
X126648650Y-57936888D01*
X126615657Y-57828124D01*
X126562079Y-57727885D01*
X126489974Y-57640026D01*
X126402115Y-57567921D01*
X126301876Y-57514343D01*
X126193112Y-57481350D01*
X126080000Y-57470209D01*
X124380000Y-57470209D01*
X124266888Y-57481350D01*
X124158124Y-57514343D01*
X124057885Y-57567921D01*
X123970026Y-57640026D01*
X123897921Y-57727885D01*
X123844343Y-57828124D01*
X123811350Y-57936888D01*
X123800209Y-58050000D01*
X123800209Y-60000000D01*
X123811350Y-60113112D01*
X123844343Y-60221876D01*
X123897921Y-60322115D01*
X123970026Y-60409974D01*
X124057885Y-60482079D01*
X124158124Y-60535657D01*
X124245463Y-60562151D01*
X116204645Y-68602970D01*
X110431944Y-68602970D01*
X108710437Y-66881464D01*
X108713420Y-66877000D01*
X117376837Y-66877000D01*
X117415000Y-66880759D01*
X117453163Y-66877000D01*
X117453166Y-66877000D01*
X117567319Y-66865757D01*
X117713784Y-66821327D01*
X117848766Y-66749177D01*
X117967080Y-66652080D01*
X117991413Y-66622430D01*
X122373025Y-62240819D01*
X122402668Y-62216492D01*
X122499765Y-62098178D01*
X122571915Y-61963196D01*
X122616345Y-61816731D01*
X122627588Y-61702578D01*
X122627588Y-61702576D01*
X122631347Y-61664412D01*
X122627588Y-61626249D01*
X122627588Y-57968521D01*
X127794090Y-52802020D01*
X130716817Y-52802020D01*
X130754980Y-52805779D01*
X130793143Y-52802020D01*
X130793146Y-52802020D01*
X130907299Y-52790777D01*
X131053764Y-52746347D01*
X131188746Y-52674197D01*
X131307060Y-52577100D01*
X131331392Y-52547451D01*
X132333047Y-51545796D01*
X132450260Y-51581352D01*
X132730000Y-51608904D01*
X133009741Y-51581352D01*
X133278731Y-51499755D01*
X133526634Y-51367248D01*
X133743923Y-51188923D01*
X133922248Y-50971633D01*
X134054755Y-50723730D01*
X134136352Y-50454740D01*
X134157000Y-50245097D01*
X134157000Y-49854902D01*
X134136352Y-49645259D01*
X134054755Y-49376269D01*
X133922248Y-49128366D01*
X133743922Y-48911077D01*
X133526633Y-48732752D01*
X133278730Y-48600245D01*
X133009740Y-48518648D01*
X132730000Y-48491096D01*
X132450259Y-48518648D01*
X132181269Y-48600245D01*
X131933366Y-48732752D01*
X131716077Y-48911078D01*
X131537752Y-49128367D01*
X131480000Y-49236413D01*
X131422248Y-49128366D01*
X131243922Y-48911077D01*
X131026633Y-48732752D01*
X130778730Y-48600245D01*
X130509740Y-48518648D01*
X130230000Y-48491096D01*
X129950259Y-48518648D01*
X129681269Y-48600245D01*
X129433366Y-48732752D01*
X129216077Y-48911078D01*
X129037752Y-49128367D01*
X128980000Y-49236413D01*
X128922248Y-49128366D01*
X128743922Y-48911077D01*
X128526633Y-48732752D01*
X128278730Y-48600245D01*
X128009740Y-48518648D01*
X127730000Y-48491096D01*
X127450259Y-48518648D01*
X127181269Y-48600245D01*
X126933366Y-48732752D01*
X126716077Y-48911078D01*
X126651407Y-48989878D01*
X126648650Y-48961888D01*
X126615657Y-48853124D01*
X126562079Y-48752885D01*
X126489974Y-48665026D01*
X126402115Y-48592921D01*
X126301876Y-48539343D01*
X126193112Y-48506350D01*
X126080000Y-48495209D01*
X124380000Y-48495209D01*
X124266888Y-48506350D01*
X124158124Y-48539343D01*
X124057885Y-48592921D01*
X123970026Y-48665026D01*
X123897921Y-48752885D01*
X123844343Y-48853124D01*
X123811350Y-48961888D01*
X123800209Y-49075000D01*
X123800209Y-51025000D01*
X123811350Y-51138112D01*
X123844343Y-51246876D01*
X123897921Y-51347115D01*
X123970026Y-51434974D01*
X124057885Y-51507079D01*
X124158124Y-51560657D01*
X124260948Y-51591848D01*
X119528130Y-56324667D01*
X119498480Y-56349000D01*
X119474151Y-56378646D01*
X119401383Y-56467314D01*
X119331780Y-56597532D01*
X119329233Y-56602297D01*
X119284803Y-56748762D01*
X119274012Y-56858329D01*
X119269801Y-56901080D01*
X119273560Y-56939243D01*
X119273561Y-60596969D01*
X116347561Y-63522970D01*
X110431944Y-63522970D01*
X108710437Y-61801464D01*
X108776643Y-61702380D01*
X108885238Y-61440207D01*
X108940600Y-61161887D01*
X108940600Y-60878113D01*
X108885238Y-60599793D01*
X108827000Y-60459193D01*
X108827000Y-59396942D01*
X112523000Y-59396942D01*
X112523000Y-60003058D01*
X112641248Y-60597528D01*
X112873198Y-61157506D01*
X113209938Y-61661473D01*
X113638527Y-62090062D01*
X114142494Y-62426802D01*
X114702472Y-62658752D01*
X115296942Y-62777000D01*
X115903058Y-62777000D01*
X116497528Y-62658752D01*
X117057506Y-62426802D01*
X117561473Y-62090062D01*
X117990062Y-61661473D01*
X118326802Y-61157506D01*
X118558752Y-60597528D01*
X118677000Y-60003058D01*
X118677000Y-59396942D01*
X118558752Y-58802472D01*
X118326802Y-58242494D01*
X117990062Y-57738527D01*
X117561473Y-57309938D01*
X117057506Y-56973198D01*
X116497528Y-56741248D01*
X115903058Y-56623000D01*
X115296942Y-56623000D01*
X114702472Y-56741248D01*
X114142494Y-56973198D01*
X113638527Y-57309938D01*
X113209938Y-57738527D01*
X112873198Y-58242494D01*
X112641248Y-58802472D01*
X112523000Y-59396942D01*
X108827000Y-59396942D01*
X108827000Y-59040807D01*
X108885238Y-58900207D01*
X108940600Y-58621887D01*
X108940600Y-58338113D01*
X108885238Y-58059793D01*
X108776643Y-57797620D01*
X108618987Y-57561671D01*
X108418329Y-57361013D01*
X108192322Y-57210000D01*
X108418329Y-57058987D01*
X108618987Y-56858329D01*
X108776643Y-56622380D01*
X108834882Y-56481778D01*
X111489661Y-53827000D01*
X112141810Y-53827000D01*
X112311609Y-53996799D01*
X112627223Y-54207685D01*
X112977915Y-54352947D01*
X113350207Y-54427000D01*
X113729793Y-54427000D01*
X114102085Y-54352947D01*
X114452777Y-54207685D01*
X114768391Y-53996799D01*
X115036799Y-53728391D01*
X115247685Y-53412777D01*
X115392947Y-53062085D01*
X115467000Y-52689793D01*
X115467000Y-52319661D01*
X115570209Y-52422870D01*
X115570209Y-53599999D01*
X115586153Y-53761883D01*
X115633373Y-53917547D01*
X115710054Y-54061007D01*
X115813249Y-54186751D01*
X115938993Y-54289946D01*
X116082453Y-54366627D01*
X116238117Y-54413847D01*
X116400001Y-54429791D01*
X118599999Y-54429791D01*
X118761883Y-54413847D01*
X118917547Y-54366627D01*
X119061007Y-54289946D01*
X119186751Y-54186751D01*
X119289946Y-54061007D01*
X119366627Y-53917547D01*
X119413847Y-53761883D01*
X119429791Y-53599999D01*
X119429791Y-51400001D01*
X119413847Y-51238117D01*
X119366627Y-51082453D01*
X119289946Y-50938993D01*
X119186751Y-50813249D01*
X119061007Y-50710054D01*
X118917547Y-50633373D01*
X118761883Y-50586153D01*
X118599999Y-50570209D01*
X117470870Y-50570209D01*
X115474925Y-48574265D01*
X115433370Y-48523630D01*
X115231308Y-48357802D01*
X115000778Y-48234581D01*
X114750637Y-48158701D01*
X114555684Y-48139500D01*
X114555674Y-48139500D01*
X114490500Y-48133081D01*
X114425326Y-48139500D01*
X107507171Y-48139500D01*
X107441999Y-48133081D01*
X107376828Y-48139500D01*
X107376816Y-48139500D01*
X107181863Y-48158701D01*
X106931722Y-48234581D01*
X106701190Y-48357803D01*
X106566556Y-48468295D01*
X106499130Y-48523630D01*
X106457579Y-48574260D01*
X101533265Y-53498575D01*
X101482630Y-53540130D01*
X101441078Y-53590762D01*
X101316802Y-53742192D01*
X101268040Y-53833420D01*
X101193581Y-53972723D01*
X101117701Y-54222864D01*
X101098500Y-54417817D01*
X101098500Y-54417826D01*
X101092081Y-54483000D01*
X100602000Y-54483000D01*
X100602000Y-49029444D01*
X100631457Y-48729018D01*
X100710153Y-48468366D01*
X100837982Y-48227955D01*
X101010069Y-48016956D01*
X101219864Y-47843398D01*
X101459371Y-47713898D01*
X101719476Y-47633382D01*
X102018051Y-47602000D01*
X134970556Y-47602000D01*
X135270982Y-47631457D01*
G37*
G04 #@! TD.AperFunction*
D20*
X106381013Y-89878329D02*
X106566207Y-90063523D01*
X106523288Y-90067750D01*
X106414524Y-90100743D01*
X106314285Y-90154321D01*
X106226426Y-90226426D01*
X106154321Y-90314285D01*
X106100743Y-90414524D01*
X106067750Y-90523288D01*
X106063523Y-90566207D01*
X105878329Y-90381013D01*
X105652322Y-90230000D01*
X105878329Y-90078987D01*
X106078987Y-89878329D01*
X106230000Y-89652322D01*
X106381013Y-89878329D01*
G04 #@! TA.AperFunction,NonConductor*
D21*
G36*
X106381013Y-89878329D02*
G01*
X106566207Y-90063523D01*
X106523288Y-90067750D01*
X106414524Y-90100743D01*
X106314285Y-90154321D01*
X106226426Y-90226426D01*
X106154321Y-90314285D01*
X106100743Y-90414524D01*
X106067750Y-90523288D01*
X106063523Y-90566207D01*
X105878329Y-90381013D01*
X105652322Y-90230000D01*
X105878329Y-90078987D01*
X106078987Y-89878329D01*
X106230000Y-89652322D01*
X106381013Y-89878329D01*
G37*
G04 #@! TD.AperFunction*
D20*
X121882078Y-78088923D02*
X122099367Y-78267248D01*
X122336503Y-78394000D01*
X121402651Y-78394000D01*
X121457007Y-78364946D01*
X121582751Y-78261751D01*
X121685946Y-78136007D01*
X121762627Y-77992547D01*
X121773518Y-77956644D01*
X121882078Y-78088923D01*
G04 #@! TA.AperFunction,NonConductor*
D21*
G36*
X121882078Y-78088923D02*
G01*
X122099367Y-78267248D01*
X122336503Y-78394000D01*
X121402651Y-78394000D01*
X121457007Y-78364946D01*
X121582751Y-78261751D01*
X121685946Y-78136007D01*
X121762627Y-77992547D01*
X121773518Y-77956644D01*
X121882078Y-78088923D01*
G37*
G04 #@! TD.AperFunction*
D20*
X124203752Y-77871634D02*
X124382078Y-78088923D01*
X124599367Y-78267248D01*
X124836503Y-78394000D01*
X123455498Y-78394000D01*
X123692634Y-78267248D01*
X123909923Y-78088923D01*
X124088248Y-77871633D01*
X124146000Y-77763587D01*
X124203752Y-77871634D01*
G04 #@! TA.AperFunction,NonConductor*
D21*
G36*
X124203752Y-77871634D02*
G01*
X124382078Y-78088923D01*
X124599367Y-78267248D01*
X124836503Y-78394000D01*
X123455498Y-78394000D01*
X123692634Y-78267248D01*
X123909923Y-78088923D01*
X124088248Y-77871633D01*
X124146000Y-77763587D01*
X124203752Y-77871634D01*
G37*
G04 #@! TD.AperFunction*
D20*
X106381013Y-74638329D02*
X106581671Y-74838987D01*
X106807678Y-74990000D01*
X106581671Y-75141013D01*
X106381013Y-75341671D01*
X106230000Y-75567678D01*
X106078987Y-75341671D01*
X105878329Y-75141013D01*
X105652322Y-74990000D01*
X105878329Y-74838987D01*
X106078987Y-74638329D01*
X106230000Y-74412322D01*
X106381013Y-74638329D01*
G04 #@! TA.AperFunction,NonConductor*
D21*
G36*
X106381013Y-74638329D02*
G01*
X106581671Y-74838987D01*
X106807678Y-74990000D01*
X106581671Y-75141013D01*
X106381013Y-75341671D01*
X106230000Y-75567678D01*
X106078987Y-75341671D01*
X105878329Y-75141013D01*
X105652322Y-74990000D01*
X105878329Y-74838987D01*
X106078987Y-74638329D01*
X106230000Y-74412322D01*
X106381013Y-74638329D01*
G37*
G04 #@! TD.AperFunction*
D20*
X106381013Y-72098329D02*
X106581671Y-72298987D01*
X106807678Y-72450000D01*
X106581671Y-72601013D01*
X106381013Y-72801671D01*
X106230000Y-73027678D01*
X106078987Y-72801671D01*
X105878329Y-72601013D01*
X105652322Y-72450000D01*
X105878329Y-72298987D01*
X106078987Y-72098329D01*
X106230000Y-71872322D01*
X106381013Y-72098329D01*
G04 #@! TA.AperFunction,NonConductor*
D21*
G36*
X106381013Y-72098329D02*
G01*
X106581671Y-72298987D01*
X106807678Y-72450000D01*
X106581671Y-72601013D01*
X106381013Y-72801671D01*
X106230000Y-73027678D01*
X106078987Y-72801671D01*
X105878329Y-72601013D01*
X105652322Y-72450000D01*
X105878329Y-72298987D01*
X106078987Y-72098329D01*
X106230000Y-71872322D01*
X106381013Y-72098329D01*
G37*
G04 #@! TD.AperFunction*
D20*
X103841013Y-59398329D02*
X104041671Y-59598987D01*
X104182371Y-59693000D01*
X103752500Y-59693000D01*
X103752500Y-59265860D01*
X103841013Y-59398329D01*
G04 #@! TA.AperFunction,NonConductor*
D21*
G36*
X103841013Y-59398329D02*
G01*
X104041671Y-59598987D01*
X104182371Y-59693000D01*
X103752500Y-59693000D01*
X103752500Y-59265860D01*
X103841013Y-59398329D01*
G37*
G04 #@! TD.AperFunction*
D20*
X106173000Y-59693000D02*
X105737629Y-59693000D01*
X105878329Y-59598987D01*
X106078987Y-59398329D01*
X106173000Y-59257628D01*
X106173000Y-59693000D01*
G04 #@! TA.AperFunction,NonConductor*
D21*
G36*
X106173000Y-59693000D02*
G01*
X105737629Y-59693000D01*
X105878329Y-59598987D01*
X106078987Y-59398329D01*
X106173000Y-59257628D01*
X106173000Y-59693000D01*
G37*
G04 #@! TD.AperFunction*
D20*
X106581671Y-57361013D02*
X106381013Y-57561671D01*
X106287000Y-57702371D01*
X106287000Y-57267000D01*
X106722371Y-57267000D01*
X106581671Y-57361013D01*
G04 #@! TA.AperFunction,NonConductor*
D21*
G36*
X106581671Y-57361013D02*
G01*
X106381013Y-57561671D01*
X106287000Y-57702371D01*
X106287000Y-57267000D01*
X106722371Y-57267000D01*
X106581671Y-57361013D01*
G37*
G04 #@! TD.AperFunction*
D20*
X112311609Y-51003201D02*
X112141810Y-51173000D01*
X111005174Y-51173000D01*
X110940000Y-51166581D01*
X110874826Y-51173000D01*
X110874816Y-51173000D01*
X110679863Y-51192201D01*
X110495854Y-51248020D01*
X110429722Y-51268081D01*
X110199191Y-51391302D01*
X110063592Y-51502586D01*
X109997130Y-51557130D01*
X109955579Y-51607760D01*
X106958222Y-54605118D01*
X106939193Y-54613000D01*
X105520807Y-54613000D01*
X105380207Y-54554762D01*
X105101887Y-54499400D01*
X104818113Y-54499400D01*
X104539793Y-54554762D01*
X104277620Y-54663357D01*
X104041671Y-54821013D01*
X103841013Y-55021671D01*
X103752500Y-55154140D01*
X103752500Y-55032660D01*
X107991661Y-50793500D01*
X112625450Y-50793500D01*
X112311609Y-51003201D01*
G04 #@! TA.AperFunction,NonConductor*
D21*
G36*
X112311609Y-51003201D02*
G01*
X112141810Y-51173000D01*
X111005174Y-51173000D01*
X110940000Y-51166581D01*
X110874826Y-51173000D01*
X110874816Y-51173000D01*
X110679863Y-51192201D01*
X110495854Y-51248020D01*
X110429722Y-51268081D01*
X110199191Y-51391302D01*
X110063592Y-51502586D01*
X109997130Y-51557130D01*
X109955579Y-51607760D01*
X106958222Y-54605118D01*
X106939193Y-54613000D01*
X105520807Y-54613000D01*
X105380207Y-54554762D01*
X105101887Y-54499400D01*
X104818113Y-54499400D01*
X104539793Y-54554762D01*
X104277620Y-54663357D01*
X104041671Y-54821013D01*
X103841013Y-55021671D01*
X103752500Y-55154140D01*
X103752500Y-55032660D01*
X107991661Y-50793500D01*
X112625450Y-50793500D01*
X112311609Y-51003201D01*
G37*
G04 #@! TD.AperFunction*
M02*
